<?xml version="1.0" standalone="no"?>
<!DOCTYPE svg PUBLIC "-//W3C//DTD SVG 1.1//EN" "http://www.w3.org/Graphics/SVG/1.1/DTD/svg11.dtd" >
<svg xmlns="http://www.w3.org/2000/svg" xmlns:xlink="http://www.w3.org/1999/xlink" version="1.1">
<metadata>
Created by FontForge 20201107 at Fri Feb  6 15:51:35 2026
 By 
(c) 2017 Little Caesars Pizza. All Rights Reserved.
</metadata>
<defs>
<font id="LCScript-Regular" horiz-adv-x="1024" >
  <font-face 
    font-family="LC Script"
    font-weight="400"
    font-stretch="normal"
    units-per-em="2048"
    panose-1="2 1 5 1 4 1 1 6 1 4"
    ascent="1536"
    descent="-512"
    x-height="866"
    cap-height="1356"
    bbox="-895 -1085 2884 1896"
    underline-thickness="102"
    underline-position="-204"
    unicode-range="U+000D-FBE5"
  />
<missing-glyph horiz-adv-x="1177" 
d="M1280 1503q93 -11 180 -61q31 -17 40.5 -32t4.5 -38q-3 -23 -10.5 -42t-50.5 -113q-29 -67 -47 -111q-18 -46 -25 -57q-5 -17 -78 -197q-19 -64 -32 -90q-5 -12 -68 -181.5t-84 -230.5q-83 -225 -113 -322t-47 -194q-1 -12 -22 -33q-5 -5 -20.5 -6t-44 3t-47.5 7.5
t-57 11t-48 9.5l-389 72q-53 9 -132.5 38.5t-91.5 51.5q-7 20 6 96q24 136 35 192q31 171 111 402q10 42 26 78q30 93 145.5 415t131.5 355q27 62 231 37zM500 14q22 10 98 142q74 140 76 143q3 7 10.5 20.5t9.5 18.5q53 98 72 123q7 10 11.5 7.5t10.5 -22.5q3 -17 15 -40
q12 -47 30 -64t80 -37q90 -29 93 2q1 5 -2.5 33l-7.5 60t-5 38q-10 71 -55 234q-12 41 -11 51q2 14 41 77q6 11 11 19q75 126 82 137q157 288 125 326q-20 25 -101 49.5t-96 9.5q-8 -8 -12 -32q-13 -44 -33 -90q-48 -101 -82 -164q-31 -56 -39 -59q-2 -1 -4 -1q-8 0 -29 43
q-70 120 -81 133q-23 25 -104 50t-93 10q-2 -3 -2.5 -5.5t4.5 -14t14.5 -29.5t28.5 -52q27 -43 80 -164.5t65 -162.5q3 -9 -4 -22.5t-55 -92.5q-6 -12 -18.5 -30t-20.5 -33q-9 -16 -27.5 -50t-43.5 -80t-35 -65q-5 -9 -19.5 -34.5t-17.5 -33.5q-31 -55 -33 -59
q-4 -8 -15.5 -28.5t-15.5 -28.5q-77 -148 -51 -187q17 -24 74.5 -40.5t81.5 -4.5z" />
    <glyph glyph-name="u.fina" unicode="&#x6c7;" horiz-adv-x="1173" arabic-form="final" 
d="M510 8q-43 -16 -86 -16q-89 0 -195 59q-81 41 -116 80.5t-35 97.5q0 61 49 187q30 78 103 212.5t124 202.5q26 35 34 38q5 3 13 3q35 0 103.5 -34.5t87.5 -61.5q6 -9 6 -16q0 -13 -59 -113q-99 -164 -142 -252q-35 -71 -60.5 -141t-25.5 -98q0 -9 2 -11t6 -2q30 0 89 52
q7 10 34 32q24 20 154 150q114 114 149 155q13 16 29.5 38.5t30 43t44.5 66.5t56 82q34 51 49 65.5t35 14.5h6q27 -1 82 -28.5t80 -51.5q14 -14 14 -31q0 -30 -59 -115q-22 -32 -52.5 -77.5t-52 -77t-36.5 -55.5q-70 -146 -99 -224.5t-34 -134.5q-2 -27 -9 -38t-24 -11
q-19 0 -74 25q-48 26 -72 43t-36 38q-6 -6 -20.5 -21.5t-19.5 -20.5t-16.5 -16t-18.5 -16t-17.5 -11.5t-20.5 -10.5z" />
    <glyph glyph-name="oe.fina" unicode="&#x6c6;" horiz-adv-x="2068" arabic-form="final" 
d="M571 903q24 4 88 4q71 0 103 -4q130 -20 208.5 -55t119.5 -92q18 -27 30 -27q9 0 37 25q30 27 75.5 52t80.5 32q89 18 188 2q1 0 35 -6q105 -18 182 -54q146 -70 146 -190q0 -23 -6 -53q-25 -120 -111 -192t-252 -112q-83 -18 -111 -18q-4 0 -28 -4q-12 -2 -66 -2
q-37 0 -49 -2.5t-12 -9.5v-11q6 -20 41.5 -63t72.5 -74q22 -16 39 -16q21 0 76 22q171 70 244 158q9 12 14.5 18t9 7.5t13.5 5.5t39 4q57 0 127 -23q88 -23 88 -49q0 -19 -35 -49q-57 -58 -154.5 -109.5t-183.5 -68.5q-32 -4 -129 -4q-53 0 -61 2q-3 0 -9 1t-14.5 2.5
t-13.5 2.5q-90 13 -172.5 45t-128.5 70q-18 13 -23 16q-40 34 -49 47q-3 4 -8 10t-12 14.5t-11 12.5q-3 4 -8 9.5t-7.5 8l-6 6l-5.5 5.5t-5 3t-5 1t-4.5 -1t-5.5 -3t-5.5 -4t-7 -6t-8 -7.5t-10.5 -10t-12 -11.5q-141 -135 -287 -162q-32 -4 -71 -4q-86 0 -148 10
q-263 50 -319 170q-13 29 -13 64q0 97 72 188q30 38 75 74t83 49q4 1 6.5 2t4.5 2t3.5 3t2.5 3t1.5 4t1.5 4.5t1 6.5v8t0.5 10t0.5 12q0 51 8.5 80.5t36.5 75.5q71 114 213 145zM803 809q-8 4 -17 4q-34 0 -85 -47t-80 -107q-25 -52 -25 -96q0 -103 98 -170q26 -20 41 -20
q16 0 33 35q54 94 72 146.5t18 115.5v43l-8 22q-7 24 -21.5 46t-25.5 28zM1546 739q-4 4 -14 4q-12 0 -37 -14q-70 -38 -147 -131q-115 -144 -134 -250q-2 -8 -2 -18q0 -21 19 -21q12 0 45 10q255 63 299 279q4 28 4 43q0 34 -9 61.5t-24 36.5zM451 406q-6 4 -17 4
q-13 0 -25.5 -14.5t-33.5 -51.5q-43 -79 -43 -149q0 -63 35 -101q14 -14 28 -14q21 0 80 29q53 27 106.5 67.5t86.5 81.5q20 20 20 33q0 11 -45 26q-120 45 -176 80q-11 3 -16 9z" />
    <glyph glyph-name="e.fina" unicode="&#x6d0;" horiz-adv-x="954" arabic-form="final" 
d="M193 164q0 -2 -1.5 -5t-1.5 -5q0 -28 40.5 -44t82.5 -16h11q57 6 167 58.5t154 97.5q4 4 9.5 8.5t9 7.5t4.5 4q8 4 20 4q34 0 87 -23t85 -52q23 -23 23 -39t-16 -32.5t-54 -41.5q-186 -123 -369 -123q-7 0 -21.5 1t-21.5 1q-143 3 -290 98q-160 106 -160 267q0 92 51 194
q57 117 186.5 216t255.5 124q24 4 41 4q101 0 220 -75q108 -67 108 -160q0 -39 -25 -84q-65 -106 -251.5 -227t-343.5 -158zM254 457q-57 -94 -57 -111q3 0 14.5 3t41.5 15.5t64 30.5q82 41 158.5 106.5t102.5 108.5q26 45 26 88q0 13 -4 17t-16 4h-6q-92 -34 -184.5 -108.5
t-139.5 -153.5z" />
    <glyph glyph-name=".notdef" horiz-adv-x="1177" 
d="M1280 1503q93 -11 180 -61q31 -17 40.5 -32t4.5 -38q-3 -23 -10.5 -42t-50.5 -113q-29 -67 -47 -111q-18 -46 -25 -57q-5 -17 -78 -197q-19 -64 -32 -90q-5 -12 -68 -181.5t-84 -230.5q-83 -225 -113 -322t-47 -194q-1 -12 -22 -33q-5 -5 -20.5 -6t-44 3t-47.5 7.5
t-57 11t-48 9.5l-389 72q-53 9 -132.5 38.5t-91.5 51.5q-7 20 6 96q24 136 35 192q31 171 111 402q10 42 26 78q30 93 145.5 415t131.5 355q27 62 231 37zM500 14q22 10 98 142q74 140 76 143q3 7 10.5 20.5t9.5 18.5q53 98 72 123q7 10 11.5 7.5t10.5 -22.5q3 -17 15 -40
q12 -47 30 -64t80 -37q90 -29 93 2q1 5 -2.5 33l-7.5 60t-5 38q-10 71 -55 234q-12 41 -11 51q2 14 41 77q6 11 11 19q75 126 82 137q157 288 125 326q-20 25 -101 49.5t-96 9.5q-8 -8 -12 -32q-13 -44 -33 -90q-48 -101 -82 -164q-31 -56 -39 -59q-2 -1 -4 -1q-8 0 -29 43
q-70 120 -81 133q-23 25 -104 50t-93 10q-2 -3 -2.5 -5.5t4.5 -14t14.5 -29.5t28.5 -52q27 -43 80 -164.5t65 -162.5q3 -9 -4 -22.5t-55 -92.5q-6 -12 -18.5 -30t-20.5 -33q-9 -16 -27.5 -50t-43.5 -80t-35 -65q-5 -9 -19.5 -34.5t-17.5 -33.5q-31 -55 -33 -59
q-4 -8 -15.5 -28.5t-15.5 -28.5q-77 -148 -51 -187q17 -24 74.5 -40.5t81.5 -4.5z" />
    <glyph glyph-name=".null" horiz-adv-x="0" 
 />
    <glyph glyph-name="nonmarkingreturn" horiz-adv-x="682" 
 />
    <glyph glyph-name="NULL" horiz-adv-x="512" 
 />
    <glyph glyph-name="NULL" horiz-adv-x="512" 
 />
    <glyph glyph-name="CR" unicode="&#xd;" horiz-adv-x="512" 
 />
    <glyph glyph-name="space" unicode=" " horiz-adv-x="460" 
 />
    <glyph glyph-name="exclam" unicode="!" horiz-adv-x="552" 
d="M532 1458q8 4 17 4q42 0 115.5 -40.5t80.5 -71.5v-9q0 -67 -112 -362q-5 -13 -21 -53.5t-30 -76t-21 -54.5q-4 -10 -14.5 -38t-14.5 -38q-2 -5 -28 -78.5t-53 -148.5q-26 -77 -35.5 -90t-40.5 -13q-85 3 -152 70l-7 7l-6 6l-5 5t-4.5 5t-3.5 5t-2.5 5.5t-1 5.5t-0.5 6
q0 18 36 119q18 44 29 82q7 21 27 71q4 12 12 34t8 24q2 5 8.5 22t16.5 43t18 47q127 327 164 467q10 40 20 45zM109 252q8 4 18 4q45 0 125.5 -42.5t87.5 -72.5q2 -4 2 -16q0 -31 -18.5 -72t-38.5 -51q-12 -4 -21 -4q-50 0 -129 45q-51 27 -72.5 47.5t-21.5 44.5
q0 21 27 70q19 34 41 47z" />
    <glyph glyph-name="quotedbl" unicode="&#x22;" horiz-adv-x="884" 
d="M596 1364q4 2 16 2q35 0 92 -29.5t66 -56.5q2 -2 2 -12q0 -42 -67 -215q-51 -123 -89 -226q-14 -42 -20 -53t-14 -16q-8 -4 -17 -4q-28 0 -71 19.5t-76.5 46.5t-36.5 48v4q0 29 42 136t103 233q7 15 16 33.5t15 31.5t8 17q18 33 31 41zM928 1360q2 2 10 2q20 0 76 -27
q46 -23 64 -41t18 -45q0 -19 -13 -63q-25 -80 -39 -135q-3 -8 -8.5 -27t-13.5 -45.5t-14 -44.5q-31 -94 -33 -100q-2 -5 -6 -20t-6 -21q-6 -21 -15 -30t-26 -9q-23 0 -84 28q-51 25 -70.5 43t-19.5 41q0 13 6 31q3 9 10 37q18 54 43 115q25 74 45 139q45 160 76 172z" />
    <glyph glyph-name="numbersign" unicode="#" horiz-adv-x="1456" 
d="M967 1176q12 4 24 4q43 0 102 -29.5t72 -60.5q4 -12 4 -23q0 -36 -34 -137q-33 -106 -33 -125q0 -11 5.5 -14t24.5 -4q5 -1 7 -1q63 -6 139 -48.5t76 -69.5q0 -8 -6 -11q-8 -4 -76 -4q-53 0 -111 4q-20 2 -69 2h-35l-6 -6q-10 -14 -29 -71q-12 -34 -12 -45q0 -12 20 -15
q91 -15 158 -51q38 -21 60 -41t22 -33q0 -8 -8 -12q-4 -4 -27 -4q-6 0 -30 1t-44 1q-119 3 -166 6q-3 0 -7.5 1t-6.5 1q-14 0 -21 -11.5t-20 -51.5q-4 -14 -24.5 -86t-30.5 -111q-15 -59 -21 -69.5t-24 -10.5q-29 0 -86.5 26t-91.5 54q-25 22 -25 39q0 12 6 27q14 56 16 65
q16 58 25 88q8 36 8 43q0 9 -4 13.5t-14.5 6.5t-27 3t-43.5 2h-5h-18q-19 0 -25.5 -10t-19.5 -52q-39 -124 -50.5 -151.5t-25.5 -32.5h-8q-38 0 -113.5 37.5t-85.5 64.5q-4 12 -4 15q0 8 14 49q25 77 25 92q0 11 -7 16.5t-26 12.5q-56 19 -104 51t-48 51v2q3 12 31 12
q3 0 53 -4q28 -3 105 -8h31l6 6q13 13 28 80q2 6 2 17q0 9 -6.5 13t-25.5 7q-69 9 -141 49t-72 66q0 13 22 16q168 0 230 -4q27 0 36 5.5t15 25.5q58 164 90 174q4 2 10 2q37 0 102.5 -33.5t77.5 -58.5q6 -9 6 -15q0 -5 -12 -43q-12 -35 -12 -45t8.5 -13t30.5 -5
q29 -2 69 -2q31 0 35 2q8 5 19 34.5t41 125.5q41 129 56 165t30 44zM762 676q-20 4 -55 4q-63 0 -72 -6q-7 -6 -22 -53t-15 -64v-4q1 -7 17.5 -10t72.5 -6h25q20 0 26.5 8.5t18.5 48.5q18 56 18 68q0 10 -14 14z" />
    <glyph glyph-name="dollar" unicode="$" horiz-adv-x="1218" 
d="M911 1315q8 4 17 4q36 0 101.5 -32.5t82.5 -61.5q4 -6 4 -19q0 -20 -20 -67q-25 -55 -25 -60q0 -15 40 -36q6 -3 9 -5q140 -80 140 -135v-10q-9 -39 -56 -39q-44 0 -94 33q-23 13 -32 25.5t-17 37.5q-9 31 -21 31q-4 0 -10 -6q-3 -5 -45 -113q-56 -149 -63 -166
q-23 -61 -23 -67q0 -11 25 -25q3 -1 4 -2q24 -13 133 -76q149 -101 149 -194q0 -32 -14 -60q-22 -44 -95 -78t-177 -47q-15 0 -35 -4t-92 -4q-13 0 -27.5 -0.5t-21.5 -0.5t-14 -0.5t-11 -1.5t-6 -3q-6 -2 -12 -18q-36 -79 -60 -156q-13 -45 -24 -53q-8 -4 -17 -4
q-44 0 -124.5 44.5t-80.5 71.5q0 8 41 127q21 58 21 62q0 9 -6 14.5t-22 15.5q-3 2 -5 3q-65 39 -100.5 70.5t-67.5 80.5q-65 97 -65 162q0 18 6 27q8 14 37 14q36 0 83.5 -21t79.5 -51q25 -25 25 -47v-10q0 -32 18 -78t41 -72q8 -8 13 -8q7 0 35 78q9 26 14 41
q39 116 47 135q14 40 14 47q0 10 -9 15.5t-36 13.5q-117 37 -195 91.5t-89 105.5q-3 9 -3 18q0 33 21 68q56 83 189 144t266 64q43 0 55 7q13 6 35 63q42 102 69 117zM731 940q-1 0 -3 1t-3 1q-4 0 -41 -16q-72 -38 -123 -87t-51 -79q0 -18 16 -23q10 -4 55.5 -15t51.5 -11
q13 0 20.5 12.5t36.5 87.5q45 112 45 123q0 6 -4 6zM903 535q-17 10 -26 10q-13 0 -24.5 -24.5t-41.5 -108.5q-31 -85 -31 -103q0 -12 13 -12q10 0 43 10q69 21 107 56.5t38 74.5q0 57 -78 97z" />
    <glyph glyph-name="percent" unicode="%" horiz-adv-x="1830" 
d="M1352 1411q4 2 12 2q39 0 103 -34t71 -60q2 -4 2 -10q0 -27 -33.5 -88.5t-117.5 -188.5q-147 -222 -206 -320t-141 -259q-58 -114 -131 -236q-11 -20 -37 -63q-42 -70 -81 -164q-19 -40 -27 -50.5t-21 -13.5q-1 0 -4.5 -1t-5.5 -1q-36 0 -104 34t-80 60q-2 4 -2 13
q0 16 18 61q26 59 47.5 98t100.5 172q11 20 39 70q22 38 24 41q4 8 16.5 31.5t31 60t34.5 66.5q88 171 240 391q33 51 33 55q0 6 -11 6q-9 0 -51 -10q-67 -19 -125 -22q-29 -1 -35.5 -6.5t-11.5 -30.5q-15 -88 -98 -169t-183 -106q-24 -6 -51 -6q-116 0 -245 90
q-76 52 -76 117q0 47 45 117q88 136 231 166q28 6 34 9.5t15 16.5q13 19 47 19q65 0 156 -54q8 -6 23 -14.5t16 -9.5q20 -8 27 -8q4 0 10 1t16 3t19 4q181 47 344 147q114 72 123 74zM676 1122q-4 2 -14 2q-39 0 -100.5 -60.5t-90.5 -129.5q-14 -32 -14 -49q0 -15 12 -15
q10 0 33 13q67 31 127.5 102t60.5 113q0 18 -14 24zM1415 635h6q44 0 142 -37q118 -51 182.5 -121t64.5 -147q0 -17 -2 -25q-13 -82 -57.5 -149.5t-112.5 -108.5q-106 -67 -215 -67q-15 0 -39 4q-77 14 -160 63t-108 96q-33 68 -33 121q0 107 119 244q100 118 213 127z
M1567 481q-2 2 -8 2q-29 0 -92 -57.5t-105 -124.5q-53 -87 -53 -147q0 -11 4 -19q3 -6 14 -6t51 16q172 76 203 252q4 20 4 29q0 44 -18 55z" />
    <glyph glyph-name="ampersand" unicode="&#x26;" horiz-adv-x="1136" 
d="M582 1368q8 2 47 2q99 -3 222.5 -58.5t160.5 -113.5q20 -29 20 -78q0 -28 -10 -61q-26 -74 -231 -205q-92 -59 -99 -67q-4 -5 -4 -11v-10q0 -18 16 -80.5t31 -99.5q12 -35 21 -35q7 0 24 59q17 61 17 92q0 17 -2 25q-4 16 -4 27q0 4 -5 24q-4 12 -4 15q0 16 21 16
q17 0 51 -12l27 -9l61 -2q68 0 82 2q66 9 90 15q16 4 29 4q60 0 157 -62q48 -29 48 -51q0 -29 -121 -41q-11 0 -47 -4q-7 0 -23 -1t-24 -1q-20 0 -74 4h-10q-12 0 -14.5 -7t-4.5 -34q-3 -66 -37.5 -172.5t-77.5 -185.5q-16 -29 -16 -39q0 -13 11 -31.5t47 -68.5
q8 -11 12 -17q63 -94 63 -127q0 -26 -33 -26q-42 0 -89 31.5t-72 74.5q-20 41 -35 41q-11 0 -37 -20q-144 -113 -291 -113q-37 0 -82 10q-90 23 -176 75t-121 105q-49 76 -49 172q0 108 62 232q30 59 61.5 102t89.5 101q45 43 74 67t88 66q20 14 20 41q0 7 -4 47
q-6 55 -6 108q0 131 35 203q15 32 47 54.5t68 27.5zM803 1229q-4 4 -15 4q-16 0 -37.5 -10.5t-35.5 -26.5q-27 -30 -39 -90q-4 -24 -4 -29q0 -14 8 -14q11 0 61 41q30 26 49 55.5t19 50.5q0 13 -6 19zM510 639q-1 0 -3 1t-3 1q-8 0 -21.5 -12.5t-50.5 -53.5
q-114 -131 -151 -309q-5 -30 -5 -41q0 -38 9.5 -73.5t23.5 -49.5q4 -4 19 -4q33 0 96 27.5t113 64.5q23 17 56.5 52.5t45.5 54.5q6 9 6 18t-12 33q-36 69 -94 225q-20 62 -29 66z" />
    <glyph glyph-name="quotesingle" unicode="'" horiz-adv-x="561" 
d="M596 1364q4 2 16 2q35 0 92 -29.5t66 -56.5q2 -2 2 -12q0 -42 -67 -215q-51 -123 -89 -226q-14 -42 -20 -53t-14 -16q-8 -4 -17 -4q-28 0 -71 19.5t-76.5 46.5t-36.5 48v4q0 29 42 136t103 233q7 15 16 33.5t15 31.5t8 17q18 33 31 41z" />
    <glyph glyph-name="parenleft" unicode="(" horiz-adv-x="684" 
d="M748 1354q4 2 14 2q30 0 75.5 -19t71.5 -43q15 -15 15 -24q0 -24 -74 -101q-121 -124 -186 -219q-83 -126 -135 -248t-93 -288q-24 -101 -24 -197q0 -25 4 -61q1 -5 2 -21.5t2 -23.5q3 -44 22 -101q11 -37 11 -43q0 -14 -23 -14q-30 0 -93 31t-93 59q-44 41 -54 145
q-6 59 -6 148q2 88 9.5 132.5t42.5 168.5q51 184 150.5 350.5t211.5 255.5q122 100 150 111z" />
    <glyph glyph-name="parenright" unicode=")" horiz-adv-x="747" 
d="M512 1346q2 2 12 2q33 0 97.5 -33.5t76.5 -59.5q14 -28 19 -65q12 -78 12 -131v-12q-1 -7 -2 -31t-2 -35q0 -43 -4 -63q0 -18 -4 -46q-19 -203 -99 -399q-60 -147 -192.5 -314t-194.5 -175h-6q-37 0 -105 33t-87 61q-6 9 -6 16q0 16 36 43q40 31 73 67t95 118
q96 128 147 240.5t85 268.5q21 91 34 207.5t13 192.5q0 31 -2 43q-6 50 -6 53q0 2 1 4.5t1 3.5q5 9 8 11z" />
    <glyph glyph-name="asterisk" unicode="*" 
d="M791 1415q12 4 20 4q59 0 139 -55q25 -19 35 -32.5t10 -35.5q0 -18 -10 -63q-6 -24 -6 -37q0 -14 12 -14t58 16q73 23 88 23q14 0 22 -2q47 -11 105.5 -43t68.5 -54q4 -8 4 -12q0 -12 -18 -21.5t-70 -27.5q-145 -46 -180 -55q-38 -10 -50.5 -16t-12.5 -17q0 -13 30 -74
q70 -143 72 -156v-4q0 -16 -25 -16q-39 0 -106 37q-59 33 -80.5 56.5t-50.5 88.5q-17 41 -31 41q-12 0 -67 -41q-15 -10 -41.5 -28t-30.5 -21q-26 -14 -64 -47q-26 -21 -49 -21q-38 3 -104.5 37.5t-83.5 59.5q-6 9 -6 16q0 17 20.5 35t69.5 49q30 19 106 74q40 28 53 35
q35 24 37 32q0 11 -57 59q-10 8 -16 13q-130 113 -142 148q-2 4 -2 10q0 16 25 16q34 0 92.5 -31t106.5 -77l8.5 -8.5l7.5 -7.5l6.5 -6.5t6 -5.5t5 -4.5t4.5 -4t4 -2.5t3.5 -1.5t3.5 -0.5q8 0 14 15.5t20 68.5q18 63 26.5 82.5t19.5 25.5z" />
    <glyph glyph-name="plus" unicode="+" horiz-adv-x="1189" 
d="M655 874q6 3 15 3q39 0 104 -35t72 -62q2 -4 2 -10q0 -9 -23 -82q-18 -63 -18 -70q0 -16 57 -17q12 -1 19 -1q71 -2 94 -6t57 -21q50 -24 77.5 -48t27.5 -42t-37 -18h-15q-23 2 -90 2q-229 0 -254 -14q-11 -8 -63 -162q-36 -103 -50.5 -129.5t-35.5 -26.5h-4
q-34 3 -95.5 33.5t-84.5 56.5q-15 15 -15 25q0 7 19 53q44 130 45 133v6q0 10 -12.5 14t-51.5 7q-52 3 -111 26.5t-106 57.5q-24 18 -24 35q0 15 26 18q21 0 137 -8q16 -2 78 -2q101 0 113 4q9 4 19 25.5t38 95.5q20 55 42.5 100t33.5 53q2 1 7 3t7 3z" />
    <glyph glyph-name="comma" unicode="," horiz-adv-x="573" 
d="M152 291q4 2 12 2q39 0 112 -44t91 -81q18 -38 18 -96q0 -89 -35 -154q-38 -72 -121.5 -144.5t-134.5 -78.5h-4q-47 0 -125.5 41.5t-81.5 70.5v5q0 7 6 12t25 14q59 29 120 89.5t89 115.5q33 64 33 156q0 28 -9 55q-6 12 -6 22q0 8 11 15z" />
    <glyph glyph-name="hyphen" unicode="-" horiz-adv-x="983" 
d="M168 633q6 2 96 2q96 -2 453 -2h14q13 0 26.5 -4t22.5 -9t30 -17.5t36 -20.5q100 -47 100 -78q0 -17 -28 -23q-24 -4 -156 -4q-374 0 -412 10q-71 17 -132.5 59.5t-61.5 71.5q0 9 12 15z" />
    <glyph glyph-name="period" unicode="." horiz-adv-x="595" 
d="M141 287q4 2 15 2q50 0 135 -43t100 -78q4 -8 4 -25q0 -43 -44 -86t-91 -43q-10 0 -16 2q-66 13 -130 51.5t-73 69.5q-2 4 -2 13q0 34 34.5 81t67.5 56z" />
    <glyph glyph-name="slash" unicode="/" 
d="M1182 1253q0 -29 -33 -71l-205 -273q-190 -231 -405 -481q-5 -5 -52 -62t-77 -92q-28 -33 -83.5 -98t-66.5 -78q-71 -80 -74 -82q-11 -13 -17 -16.5t-17 -3.5q-33 2 -92.5 44.5t-63.5 68.5q0 2 -1 5t-1 5q0 13 22 42.5t123 157.5q18 22 68 82q70 93 233 285
q35 44 129.5 156t108.5 129q9 11 25.5 31t19.5 24q6 8 59 74q137 174 209 246q17 20 35 20q32 -1 91.5 -44.5t64.5 -68.5z" />
    <glyph glyph-name="zero" unicode="0" horiz-adv-x="1380" 
d="M946 1247q6 0 18.5 1t18.5 1q168 0 324 -106q147 -99 147 -264q0 -127 -86 -301q-72 -144 -203 -299q-93 -108 -204 -181t-207 -88q-28 -4 -47 -4q-84 0 -186.5 42.5t-190.5 113.5q-76 62 -100.5 103.5t-39.5 135.5q-6 35 -6 62q0 62 43 184q19 48 41 96
q97 211 285.5 351.5t392.5 152.5zM1184 1106q-9 6 -29 6q-38 0 -100 -15t-115 -38q-82 -35 -137 -74.5t-115 -105.5q-216 -245 -246 -494q-2 -10 -2 -35q0 -69 23.5 -135t52.5 -72h6q32 0 99 23q217 81 423 375q77 109 127 232t50 202q0 35 -12.5 78.5t-24.5 52.5z" />
    <glyph glyph-name="one" unicode="1" horiz-adv-x="808" 
d="M713 1194q12 4 20 4q59 0 148 -59q29 -20 40 -35t11 -39q0 -9 -4 -37q-8 -53 -22 -92t-70 -164q-4 -10 -18.5 -41.5t-18.5 -44.5q-4 -9 -10 -22t-10 -21.5t-5 -11.5q-37 -77 -104 -283q-9 -30 -33 -96q-23 -63 -37 -107q-40 -120 -57 -131q-4 -2 -13 -2
q-39 0 -114.5 38.5t-87.5 66.5q-2 4 -2 14q0 17 18 62q1 4 13.5 38t35.5 101.5t56 163.5q72 210 116 307q35 74 35 86q0 6 -6 6q-8 0 -78 -43q-75 -49 -102 -49q-18 0 -39 8q-51 15 -85 40.5t-34 47.5v6q12 45 295 195q12 6 37 20.5t33 18.5q24 16 44 27.5t33.5 19t14.5 8.5
z" />
    <glyph glyph-name="two" unicode="2" horiz-adv-x="1216" 
d="M82 104q-11 7 -9 26.5t9 23.5q9 3 68 39q49 28 157 81q222 112 297 162q166 107 270 252.5t123 294.5q2 10 2 25q0 39 -28 39q-2 0 -7 -1.5t-8 -1.5q-106 -22 -216.5 -101.5t-178.5 -182.5q-18 -27 -20 -31q-8 -14 -35 -14q-40 0 -105 39q-34 19 -48.5 35.5t-14.5 37.5
q0 19 16 56q51 109 177.5 196t261.5 107q14 2 45 2q149 0 297 -105q48 -33 70 -71t22 -94q0 -54 -25 -146q-38 -149 -157.5 -282t-307.5 -238q-81 -44 -86 -49q-6 -3 -6 -6q0 -11 62 -17q115 -12 151 -12h16q31 0 76 -23q40 -22 74.5 -52.5t34.5 -45.5q0 -9 -7.5 -12.5
t-29.5 -3.5q-37 0 -102 8q-20 4 -41 4q-6 1 -22.5 3t-22.5 3q-22 0 -50 4t-47 4q-46 4 -65 4q-8 0 -20 -1t-17 -1q-7 -1 -27.5 -2t-29.5 -2q-76 -3 -230 -35q-52 -10 -63 -10t-47 8q-74 22 -142 72q-5 4 -8.5 8.5t-5.5 5.5z" />
    <glyph glyph-name="three" unicode="3" horiz-adv-x="1261" 
d="M647 1178h8q54 0 86 -4q92 -12 187.5 -53t138.5 -87q25 -28 25 -61q0 -63 -91 -154q-32 -32 -32 -39q0 -8 26 -22q63 -37 78 -49q123 -89 129 -244v-16q0 -121 -71 -207t-238 -168q-154 -74 -277 -74q-110 0 -245 66q-94 45 -160 112t-66 115q0 13 5 20q12 21 49 21
t86 -19t90 -51q18 -15 18 -37q0 -14 -4 -20q-6 -12 -6 -21q0 -16 18 -34q12 -15 45 -15q53 0 139 31.5t173 83.5q168 102 196 207q13 50 13 96q0 54 -13 93.5t-36 43.5q-8 2 -29 2q-77 0 -205 -43q-90 -28 -106 -28q-44 0 -124.5 42t-84.5 68v6q0 11 15.5 19t74.5 28
q158 54 256 113q55 35 97 75.5t42 57.5q0 4 -4 8q-4 2 -21 2q-76 0 -217 -41q-59 -16 -82 -16q-28 0 -84 27q-75 40 -75 69q0 7 2 11q12 22 94 49t156 33q4 1 11 1.5t10 1t3 1.5z" />
    <glyph glyph-name="four" unicode="4" horiz-adv-x="1413" 
d="M764 1169q2 0 5 1t5 1q25 0 82 -26q70 -37 70 -70q0 -22 -21 -49q-88 -132 -276 -299q-43 -37 -43 -43q0 -4 16 -4h23q205 0 223 6q10 5 17.5 18t29.5 64q15 31 62 132t85.5 183t42.5 88q11 11 17 13q1 0 4.5 1t5.5 1q36 0 99.5 -34t70.5 -60q2 -4 2 -17q0 -14 -5 -33.5
t-16 -50.5t-23.5 -61.5t-34 -85t-40.5 -103.5q-14 -44 -14 -47q0 -11 12 -13.5t58 -6.5q99 -9 186 -66q47 -30 47 -51q0 -20 -53 -20q-23 0 -37 2q-54 6 -55 6q-14 2 -121 2q-13 0 -30 -0.5t-25 -0.5t-18.5 -1t-15.5 -1.5t-10.5 -2.5t-9.5 -4t-7 -7t-5.5 -10t-7 -16.5
t-8.5 -20.5q-4 -11 -17.5 -39.5t-17.5 -37.5l-15 -33t-12 -27q-7 -12 -18 -39q-5 -10 -25 -55q-31 -69 -67.5 -141t-42.5 -76q-8 -4 -17 -4q-26 0 -63 16q-57 23 -95.5 49t-44.5 45q0 1 -1 4.5t-1 4.5q0 18 37 88q4 9 26.5 53.5t29.5 60.5q11 28 41 90q32 72 32 84
q0 15 -22 15q-7 0 -47 -4q-20 0 -60 -5q-31 0 -47 -4q-10 -2 -67 -2q-93 0 -121 4q-68 14 -134.5 53.5t-66.5 67.5q0 36 127 135q94 73 147.5 121t106.5 104.5t86 88.5q61 61 82 69z" />
    <glyph glyph-name="five" unicode="5" horiz-adv-x="1232" 
d="M1153 1229q2 0 14 1t19 1q31 0 51 -4q71 -20 130.5 -57t59.5 -60q0 -4 -2 -6q-5 -9 -11.5 -11.5t-51.5 -5t-150 -2.5q-32 0 -79 -3t-60 -3q-118 0 -174 -8l-23 -1q-22 -1 -38 -1q-54 0 -64 -6q-7 -5 -16 -33q-24 -81 -86 -227q-17 -39 -17 -47q0 -12 21 -15
q130 -19 248.5 -80t167.5 -137q36 -53 36 -125q0 -77 -44 -158t-123 -145q-68 -54 -135 -75t-179 -21h-18q-168 3 -244 16.5t-145 51.5q-86 50 -86 75q0 22 49 31q24 6 41 6q23 0 57 -22q24 -12 53.5 -16.5t102.5 -4.5h8q125 0 214 48.5t163 156.5q51 76 51 162q0 55 -25 86
q-18 18 -71 18q-4 0 -11 -1t-10 -1q-5 0 -17.5 -1t-17.5 -1q-39 -3 -95.5 -19t-98.5 -36q-16 -8 -41 -8q-65 0 -160 65q-43 27 -43 47q0 11 21 43q86 129 180 387q31 84 44.5 106.5t35.5 22.5q4 0 28 -4q12 -2 35 -2q20 4 74 4q159 6 162 9h5q4 0 11 0.5t16 1t20.5 0.5h22.5
q157 3 195 8z" />
    <glyph glyph-name="six" unicode="6" horiz-adv-x="1230" 
d="M846 1235q12 2 33 2q64 0 127 -35q57 -26 57 -51v-4q0 -14 -57 -31q-195 -65 -369 -260q-49 -55 -49 -68q0 -6 10 -6q13 0 23 2q51 9 106 9q181 0 373 -129q131 -88 131 -213q0 -73 -43 -158q-55 -114 -165 -192t-239 -95q-12 -2 -41 -2q-99 0 -229 59q-259 119 -305 394
q-4 18 -4 59q0 122 65 257.5t170 230.5q232 213 406 231zM958 651q-9 6 -59 6h-18q-2 -2 -31 -6q-153 -26 -264 -100q-38 -27 -86 -71t-56 -58q-4 -6 -4 -29q0 -39 19 -101t45 -104q18 -29 28.5 -38t28.5 -9q15 0 25 2q148 20 264.5 126.5t142.5 244.5q2 12 2 35
q0 36 -10 64.5t-27 37.5z" />
    <glyph glyph-name="seven" unicode="7" horiz-adv-x="1216" 
d="M989 1231q10 1 26 3.5t31.5 3.5t47.5 1q66 -1 145.5 -46.5t79.5 -80.5q0 -41 -102 -149q-109 -127 -132 -160q-12 -15 -12 -23t23 -18q38 -13 83 -39.5t58 -42.5q6 -9 6 -18q0 -10 -8 -15q-8 -4 -47 -4q-9 0 -23 1t-18 1q-32 8 -139 8h-7q-24 0 -33.5 -8.5t-52.5 -66.5
q-145 -197 -196 -291q-44 -76 -86 -127q-1 -2 -22.5 -31t-28.5 -41q-33 -44 -43.5 -54.5t-24.5 -10.5h-8q-38 0 -111.5 38t-85.5 64q-2 4 -2 10q0 10 16 34.5t74 102.5q54 73 90 136q56 95 131 200q27 39 27 45q0 11 -41 17q-71 9 -142 46.5t-71 63.5q0 11 19 17q6 2 106 2
q84 -2 172 -2q62 0 66 2q14 10 57 69q55 70 96 123q56 64 56 74q0 2 -11 6q-4 2 -92 2q-120 0 -190 -2h-35q-51 0 -90 14q-61 22 -101.5 49t-40.5 46q0 5 5 10q18 15 204 18l95 4h5q4 0 11.5 0.5t16.5 1t21 0.5h23q111 5 205 17z" />
    <glyph glyph-name="eight" unicode="8" horiz-adv-x="1212" 
d="M825 1214q21 3 43 3q128 0 265 -91q110 -73 110 -184q0 -114 -115 -209q-24 -18 -24 -26q0 -9 26 -29q95 -77 95 -180q0 -67 -37 -148q-70 -158 -307 -284q-105 -54 -209 -54q-148 0 -307 101q-191 120 -191 333v15q3 92 76.5 183t179.5 132q39 14 39 23q0 6 -16 35
q-13 22 -17 36.5t-4 44.5v33l8 25q25 74 88 137q50 50 101 71.5t127 26.5q6 0 20 1t19 1q16 4 30 4zM1010 1071q-4 4 -23 4q-29 0 -74 -11.5t-79 -29.5q-50 -25 -92 -70t-62 -96q-11 -27 -18 -39q-9 -18 -9 -34q0 -31 33 -31q58 0 135 35.5t125 83.5q33 33 54.5 76.5
t21.5 76.5q0 23 -12 35zM725 649q-32 8 -39 8q-12 0 -65 -24q-92 -47 -152.5 -127.5t-60.5 -155.5q0 -63 22 -127.5t47 -70.5q4 -2 17 -2q52 0 124 28q61 23 148.5 83.5t124.5 103.5q44 55 72 121t28 116q0 27 -4 36t-18 9t-41 -6q-48 -10 -86 -10q-58 0 -117 18z" />
    <glyph glyph-name="nine" unicode="9" horiz-adv-x="1112" 
d="M618 1174q30 6 64 6q80 0 172 -34.5t168 -94.5q47 -38 71.5 -101t36.5 -178q3 -18 3 -43q0 -118 -46 -258q-12 -37 -45 -97.5t-59 -94.5q-54 -71 -188 -170.5t-207 -122.5q-70 -23 -127 -23q-53 0 -103 21q-61 24 -97 50.5t-36 45.5q0 15 29 18q91 6 154 35
q51 25 125 75.5t131 100.5q53 47 53 58q0 10 -31 10q-47 0 -113 16q-129 32 -231 115q-106 83 -106 211q0 44 10 80q31 124 141.5 235.5t230.5 139.5zM860 1032q-6 6 -20 6q-31 0 -87.5 -27.5t-105.5 -66.5q-85 -69 -133.5 -157t-48.5 -166q0 -47 18 -84q8 -16 22 -21.5
t48 -5.5h27q110 0 204 31q47 15 58.5 28t25.5 64q29 116 29 201q0 70 -14 133q-13 52 -23 65z" />
    <glyph glyph-name="colon" unicode=":" horiz-adv-x="595" 
d="M141 287q4 2 15 2q50 0 135 -43t100 -78q4 -8 4 -25q0 -43 -44 -86t-91 -43q-10 0 -16 2q-66 13 -130 51.5t-73 69.5q-2 4 -2 13q0 34 34.5 81t67.5 56zM358 834q2 0 6.5 1t6.5 1q45 0 122.5 -40t90.5 -71q4 -8 4 -25q0 -39 -33 -81t-72 -46h-6q-44 0 -123 41t-96 72
q-6 9 -6 25q0 51 41 92q20 20 65 31z" />
    <glyph glyph-name="semicolon" unicode=";" horiz-adv-x="595" 
d="M358 834q2 0 6.5 1t6.5 1q45 0 122.5 -40t90.5 -71q4 -8 4 -25q0 -39 -33 -81t-72 -46h-6q-44 0 -123 41t-96 72q-6 9 -6 25q0 51 41 92q20 20 65 31zM111 291q4 2 12 2q39 0 112 -44t91 -81q18 -38 18 -96q0 -89 -35 -154q-38 -72 -121.5 -144.5t-134.5 -78.5h-4
q-47 0 -125.5 41.5t-81.5 70.5v5q0 7 6 12t25 14q59 29 120 89.5t89 115.5q33 64 33 156q0 28 -9 55q-6 12 -6 22q0 8 11 15z" />
    <glyph glyph-name="equal" unicode="=" horiz-adv-x="1134" 
d="M537 780q10 2 65 2q85 0 105 -2q46 -4 127 -4q98 0 106 -2q56 -12 117.5 -47t66.5 -57v-4q0 -25 -71 -25h-25q-37 2 -223 2q-180 0 -207 -2q-20 -2 -56.5 -5t-58.5 -5q-55 -6 -69 -6q-3 0 -9 1t-8 1q-65 12 -128.5 47.5t-63.5 60.5q0 20 52.5 28t205.5 13q66 4 74 4z
M838 506q20 2 39 2q12 0 18 -2q59 -9 123.5 -48.5t64.5 -64.5v-4q-6 -13 -45.5 -17.5t-187.5 -9.5q-70 0 -94 -4q-14 -2 -131 -2q-255 0 -273 6q-72 19 -130 54.5t-58 60.5v4q1 4 2.5 5.5t13.5 3.5t37 2q8 0 43.5 -1.5t63.5 -1.5q45 0 84.5 0.5t62 1.5t25.5 1q24 4 94 4
q213 6 215 8h5q5 1 13 1.5t15 0.5z" />
    <glyph glyph-name="question" unicode="?" horiz-adv-x="1026" 
d="M782 1427q21 3 41 3q135 0 274.5 -76.5t188.5 -179.5q21 -47 21 -97q0 -76 -46.5 -147t-123.5 -109q-43 -20 -176 -51q-161 -38 -248.5 -100t-153.5 -185q-25 -45 -55 -96q-25 -45 -31 -59q-21 -41 -45 -41q-2 0 -6 1t-6 1q-43 8 -108 42t-77 56q-4 8 -4 14q0 15 54 107
q13 23 34 63q60 111 117 170q63 64 141.5 99.5t245.5 75.5q88 20 138 51.5t90 91.5q34 48 34 115q0 44 -18 84q-11 22 -22.5 31t-32.5 9q-28 0 -64 -8q-57 -12 -129 -48t-135 -83q-116 -87 -178 -174q-13 -17 -20 -21.5t-19 -4.5q-29 2 -80 30.5t-61 50.5q-7 10 -7 23
q0 50 99 170q62 71 170 127t198 65zM201 262q2 0 6 1t6 1q42 0 120 -40t93 -70q4 -12 4 -21q0 -30 -19 -66t-40 -42q-4 -2 -17 -2q-49 0 -131.5 38.5t-99.5 71.5q-4 8 -4 17q0 26 35 73q22 33 47 39z" />
    <glyph glyph-name="at" unicode="@" horiz-adv-x="1564" 
d="M840 1225q12 2 75 2q62 0 74 -4q109 -20 215 -67t180 -107q81 -65 131 -170.5t50 -204.5q0 -38 -9 -72q-20 -84 -50.5 -139.5t-92.5 -120.5q-68 -70 -115.5 -100.5t-93.5 -30.5q-51 0 -119 35q-61 33 -96 65q-22 25 -28 25q-4 0 -35 -21q-89 -63 -158 -63q-57 0 -131 39
q-72 36 -104.5 72.5t-32.5 85.5q0 54 37 129q45 96 129.5 162.5t158.5 66.5h17q66 -8 148 -53.5t97 -83.5q8 -21 29 -39q29 -20 29 -41q0 -14 -6 -41q-1 -8 -4.5 -31t-4.5 -31q-5 -42 -6 -45q-2 -14 -2 -65v-21q3 -12 11 -12q16 0 90 74q70 73 97.5 123.5t45.5 132.5
q6 27 6 59q0 122 -80 254q-41 68 -82 88.5t-133 20.5q-100 0 -178.5 -24.5t-173.5 -92.5q-292 -206 -356 -533q-9 -38 -9 -79q0 -79 28 -160.5t77 -140.5q25 -30 40.5 -37.5t59.5 -8.5q60 0 121.5 13t99.5 33q15 9 33 18q20 8 35 8q56 0 120 -39.5t64 -75.5q0 -8 -2 -12
q-14 -28 -79.5 -49.5t-165.5 -30.5q-5 0 -15.5 -1t-15.5 -1q-123 0 -278 75.5t-236 176.5q-92 115 -92 291q0 72 20 154q40 156 119 274t211 215q96 73 174 109t162 47zM958 676q-3 6 -12 6q-29 0 -85.5 -41.5t-94.5 -91.5q-29 -36 -49.5 -76t-20.5 -59q0 -4 4 -8q3 -3 7 -3
q14 0 51 24t78 62q3 3 45 39q37 34 59.5 71t22.5 60q0 12 -5 17z" />
    <glyph glyph-name="A" unicode="A" horiz-adv-x="1345" 
d="M1012 1350q3 0 9 1t9 1q62 0 158.5 -43.5t148.5 -96.5q35 -35 35 -79q0 -45 -31 -175q-15 -67 -24 -100q-49 -201 -78 -311q-7 -25 -25 -98q-12 -44 -24 -97q-26 -97 -49 -209q-15 -68 -22.5 -99t-15.5 -52.5t-14 -26t-16 -4.5h-6q-35 0 -109 38t-96 67q-6 9 -6 16
q0 15 4 27q18 55 33 129q4 23 16 71q11 48 11 64q0 9 -5 14q-4 4 -49 4h-55q-36 0 -90 -4q-26 -2 -80 -6q-19 -2 -26.5 -6t-16.5 -17q-24 -35 -100 -168q-18 -28 -29 -51q-19 -34 -41 -82q-17 -45 -49 -45q-22 0 -74 25q-51 25 -71.5 45.5t-20.5 52.5q0 44 47 156q6 12 6 18
q0 10 -18 10q-3 0 -35 -4q-24 -4 -35 -4q-28 0 -94 29q-88 48 -88 72q0 22 55 43q91 31 285 55q34 3 45 9.5t29 31.5q60 96 98 151q14 20 44.5 65t39.5 58q90 135 141 205q42 58 209 264q25 32 38.5 42.5t31.5 13.5zM1081 1020q0 6 -4 6q-26 0 -221 -283q-23 -34 -63 -92
q-7 -12 -24 -36t-21 -31t-12 -18.5t-10.5 -16.5t-2.5 -10q0 -8 18.5 -10.5t69.5 -2.5q24 0 70 -5t51 -5q12 0 18 6q13 10 33 86q9 31 25 94q73 280 73 318z" />
    <glyph glyph-name="B" unicode="B" horiz-adv-x="1413" 
d="M825 1331q16 2 52 2q84 0 184 -25.5t190 -70.5q116 -58 165.5 -108t49.5 -115q0 -36 -20 -101q-19 -57 -96.5 -119.5t-190.5 -113.5q-55 -23 -55 -33q0 -6 29 -22q111 -60 150.5 -110.5t39.5 -133.5q0 -63 -18.5 -105.5t-77.5 -111.5q-46 -55 -132.5 -114t-154.5 -81
q-74 -22 -154 -22q-124 0 -270 49q-32 10 -77.5 34t-71.5 44q-2 2 -35 24q-45 27 -60.5 40.5t-15.5 29.5q0 17 8 33q42 109 60 159q28 89 69 197q64 175 86 223q31 74 76 164q43 86 43 94q0 9 -6 9q-2 0 -29 -11q-12 -4 -20 -4q-27 0 -80 27q-74 39 -74 63q0 17 21 35
q53 52 151.5 98.5t188.5 63.5q10 2 75 12zM1100 1206q-20 2 -43 2q-123 -7 -146 -22q-6 -3 -6 -8q0 -4 15 -19q20 -20 20 -37q0 -14 -18 -55q-16 -44 -45 -92q-1 -3 -8.5 -15t-10.5 -18q-13 -26 -22 -41q-19 -31 -40.5 -76.5t-21.5 -54.5q0 -10 10 -10q12 0 76 24
q99 38 193 93q178 106 178 251q0 28 -6 41.5t-23 20.5q-32 12 -102 16zM743 567q-36 8 -43 8q-8 0 -12 -4q-6 -4 -14 -24t-37 -101q-3 -7 -10.5 -26.5t-10.5 -26.5q-39 -100 -69 -200q-10 -30 -19 -54q-12 -30 -12 -41q0 -4 4 -8q12 -8 62 -8q38 0 92 8q105 22 224.5 114.5
t164.5 188.5q22 49 22 103q0 58 -22 67q-24 12 -98 12q-64 0 -129 -10q-27 -6 -50 -6q-24 0 -43 8z" />
    <glyph glyph-name="C" unicode="C" horiz-adv-x="1286" 
d="M967 1346q46 8 57 8q42 0 106.5 -18.5t120.5 -47.5q113 -57 169.5 -122t66.5 -152q2 -10 2 -29q0 -53 -23.5 -97t-52.5 -44q-34 0 -101.5 37t-80.5 65q3 19 7 41.5t5.5 31t3 20.5t2 21t0.5 23q0 41 -10.5 79t-24.5 46q-4 2 -14 2q-46 0 -143 -41q-81 -35 -173 -104
t-151 -139q-5 -6 -14 -17t-12 -14q-36 -37 -85 -107t-81 -129q-109 -201 -109 -360q0 -67 21 -117q10 -27 22 -38t31 -11q73 0 184.5 61t177.5 136q3 3 13 13.5t14 14.5q22 25 47 66q8 14 23 14q44 0 130.5 -45t86.5 -78q0 -22 -43 -73q-90 -109 -213 -176.5t-230 -67.5
q-30 0 -57 6q-186 42 -324 150q-127 100 -127 256q0 64 21 141q81 294 332 545q61 61 104 94q68 55 158.5 98.5t163.5 57.5z" />
    <glyph glyph-name="D" unicode="D" horiz-adv-x="1400" 
d="M647 1413q29 4 86 4q200 0 408 -98q213 -101 284 -246q41 -78 41 -194q0 -163 -80 -293q-34 -56 -96 -129q-15 -19 -75 -79t-87 -85q-30 -25 -38 -33q-109 -94 -215 -156.5t-252 -119.5q-83 -35 -136 -35q-47 0 -112 33q-119 58 -119 94q0 5 1 18t1 19q0 19 12 61
q45 171 72 244q43 122 49 139q9 17 19 45q36 100 69 184q63 163 127 314q21 48 27 65q14 32 14 45q0 11 -8 11q-5 0 -31 -11q-99 -45 -139 -92q-15 -18 -33 -18q-32 0 -103 36t-83 60q-4 8 -4 16q0 26 45 62q142 116 356 139zM995 1255q-7 1 -17.5 2t-17.5 2t-12 1
q-33 0 -33 -13q0 -3 7 -14q14 -21 14 -31q0 -9 -31 -94q-6 -17 -32 -71.5t-27 -57.5q-13 -29 -70 -170q-20 -45 -63 -162q-4 -12 -17.5 -45t-17.5 -45q-79 -204 -109 -295q-14 -43 -14 -57q0 -10 10 -10q23 0 110.5 57.5t162.5 122.5q21 15 34 28q44 37 106.5 99t94.5 102
q78 98 112.5 175t47.5 186q2 10 2 32q0 56 -24.5 112t-65.5 97q-23 23 -53 33t-97 16z" />
    <glyph glyph-name="E" unicode="E" horiz-adv-x="964" 
d="M776 1294q11 0 44.5 2t72.5 2q123 0 133 -2q68 -15 140.5 -56t72.5 -64q0 -8 -13 -9.5t-75 -1.5q-128 0 -182 -8q-3 0 -19.5 -1t-25.5 -1q-8 0 -27 -1t-25 -1q-20 -4 -32 -4q-25 0 -32.5 -7t-16.5 -38q-23 -74 -195 -422q-63 -132 -64 -141v-6q0 -4 2.5 -6.5t10.5 -4
t22.5 -2t40.5 -0.5q61 0 94 -8q70 -18 133.5 -55t63.5 -58q0 -7 -6 -10q-8 -4 -16 -4q-2 0 -18.5 1t-31.5 1q-51 0 -71 -2q-36 -4 -76 -4q-60 0 -74 -2q-78 -10 -92 -10q-9 0 -24.5 3t-18.5 3q-17 0 -31 -28t-51 -128q-18 -46 -18 -61q0 -13 18 -13h17q16 0 126 7h17
q122 0 235 -80q39 -26 39 -41q0 -10 -14 -12.5t-74 -4.5q-98 -3 -135 -8q-125 -15 -145 -18q-49 -7 -93 -15q-54 -8 -61 -8q-11 0 -27 4q-55 12 -123 49.5t-79 61.5q-4 8 -4 14q0 9 12 39l6 21t10 33.5t17 48.5q34 103 92 243q38 85 49 107q10 25 31 67l17 38q18 38 32 65
q148 303 151 311q2 4 7.5 15.5t7.5 15.5t7 15t7 15q1 4 9.5 24.5t13.5 31.5q20 46 20 59v8q0 15 8.5 20.5t34.5 8.5q22 3 68.5 5.5t60.5 4.5q16 2 47 2z" />
    <glyph glyph-name="F" unicode="F" horiz-adv-x="1021" 
d="M825 1370q28 4 66 4q150 0 158 -2q20 -3 131 -8q50 -2 92 -16q54 -19 109 -52t55 -51t-23 -18q-1 0 -4.5 1t-5.5 1q-17 0 -137 6q-54 4 -60 4q-8 2 -57 2q-47 0 -55 -2q-11 0 -47 -4q-42 -1 -97 -9.5t-76 -15.5q-13 -5 -17 -10.5t-5 -23.5q-14 -85 -166 -388l-19.5 -39
t-16 -31t-10.5 -21t-7 -17t-2 -10q0 -8 14 -8q1 0 9 1t12 1q25 0 71 -11q105 -25 164 -82q21 -18 21 -30t-25 -15q-21 0 -59 -6q-14 -2 -39.5 -4.5t-30.5 -3.5q-73 -8 -158 -25q-45 -10 -55 -10q-22 -5 -29.5 -11t-17.5 -32q-3 -5 -8.5 -17.5t-7.5 -15.5q-52 -119 -91 -221
q-6 -17 -65 -168q-13 -33 -19.5 -40t-21.5 -7q-38 0 -118 40.5t-95 66.5q-4 8 -4 14q0 12 16 43q40 97 66 168q14 37 73 184q11 19 29 62q16 39 76.5 159.5t87.5 167.5q18 33 71.5 145t80.5 173q18 44 18 57q0 10 -10 23q-15 18 -15 32q0 25 72 43q82 18 182 27z" />
    <glyph glyph-name="G" unicode="G" horiz-adv-x="1353" 
d="M983 1343q35 5 43 5q82 0 195 -58q96 -47 142 -96.5t60 -120.5q2 -6 2 -22q0 -69 -55 -160q-24 -43 -35.5 -56.5t-27.5 -13.5q-11 0 -41 10q-44 15 -84.5 41t-46.5 43q-2 4 -2 15q0 18 24 94q31 91 31 129q0 41 -29 41q-4 0 -20 -4q-102 -30 -215.5 -108.5t-208.5 -182.5
q-24 -26 -64 -74q-105 -128 -169 -270t-64 -244q0 -25 2 -35q7 -58 27 -104.5t42 -58.5q14 -7 33 -7q51 0 127 27q90 32 187.5 109.5t152.5 160.5q33 47 33 62q0 14 -39 14q-65 0 -159.5 48t-94.5 79q0 14 77.5 42t147.5 40t127 12q113 0 226 -61q49 -28 66.5 -43.5
t17.5 -36.5q0 -13 -8 -31.5t-17.5 -34.5t-32.5 -53q-94 -147 -147 -256q-40 -77 -99 -217t-79 -207q-7 -22 -19 -28q-2 -2 -10 -2q-33 0 -101.5 32t-101.5 64q-16 16 -16 27q0 10 22 71q9 24 9 33q0 6 -2.5 9.5t-11.5 4.5t-17 1.5t-27 0.5q-114 0 -253 62.5t-218 150.5
q-40 46 -64 111t-24 129q0 17 4 45q20 141 112 300t234 300q107 107 229.5 179.5t229.5 92.5z" />
    <glyph glyph-name="H" unicode="H" horiz-adv-x="1370" 
d="M1440 1425q10 5 18 5q27 0 71 -19t83 -47q41 -28 41 -53q0 -5 -4 -21q-6 -21 -16 -40t-62 -107q-29 -49 -60 -105q-15 -30 -30 -55q-3 -6 -15 -27.5t-18 -33.5q-44 -88 -109 -211l-196 -392q-81 -163 -105 -247q-12 -52 -26 -66q-8 -4 -17 -4q-33 0 -92.5 26.5
t-103.5 61.5q-23 20 -23 37q0 22 39 123q27 70 76 170q16 32 16 43q0 12 -26 12h-13q-82 -5 -104 -8q-12 0 -62 -8q-70 -10 -145 -33.5t-90 -38.5q-2 -2 -12 -22q-6 -20 -17 -48.5t-14 -37.5q-12 -35 -23 -76q-47 -165 -53 -189q-10 -42 -15.5 -50.5t-19.5 -8.5
q-44 0 -124 44t-91 71q-2 4 -2 12q0 17 19 84q53 178 55 186q52 176 154 387q20 46 34 74q32 70 158 320.5t143 275.5q10 16 37 16q64 0 162 -67q17 -11 23.5 -16t12 -12.5t5.5 -16.5q0 -20 -55 -127q-46 -88 -140 -278.5t-126 -260.5q-9 -18 -9 -26q0 -13 21 -13q3 0 57 1
t86 1q17 0 38 -1t24 -1q11 -1 39.5 -3t47 -4t36.5 -7q24 -6 34 -6q19 0 33 22t59 117q24 48 148 285q4 8 12.5 24.5t15.5 29.5t11 21q37 68 57 103q15 25 66 115l18 30q48 81 68 90z" />
    <glyph glyph-name="I" unicode="I" horiz-adv-x="1073" 
d="M944 1350q67 6 141 6q129 0 207 -19q65 -15 127 -51.5t62 -58.5q0 -17 -29 -17q-5 0 -37 4q-31 5 -115 5q-85 0 -129 -5q-36 -5 -45.5 -10t-21.5 -28q-1 -3 -14 -26.5t-21 -37.5q-49 -81 -98 -182t-137 -297q-82 -189 -140 -328q-53 -128 -53 -147q0 -6 2.5 -9t5 -4
t10.5 -4q86 -20 134 -45q53 -26 82.5 -49t29.5 -37q0 -12 -16 -12q-12 0 -39 6q-71 14 -158 14q-96 0 -266 -22q-144 -21 -170 -21q-21 0 -45 7q-57 18 -104.5 47t-47.5 49q0 39 213 65q46 6 58 13q9 4 18 26q4 10 20 48t43.5 102t51.5 123q155 377 291 649q14 32 14 37
q0 10 -18 10q-16 0 -54 -6q-107 -15 -116 -15q-33 0 -76 19q-78 31 -78 63q0 14 12 23q31 28 182 62t324 53z" />
    <glyph glyph-name="J" unicode="J" horiz-adv-x="1429" 
d="M1167 1337q12 4 21 4q14 0 47 -10q58 -15 68 -16q81 -10 192 -35q65 -17 111 -20q35 -1 64 -13t75 -43q65 -44 65 -63q0 -13 -28 -13q-24 0 -64 9q-148 36 -299 53q-8 2 -22 2q-16 0 -24.5 -10t-22.5 -45q-2 -7 -9 -23t-8 -18q-20 -40 -104 -271q-60 -175 -99 -254
q-8 -20 -14 -32q-77 -185 -169.5 -332t-158.5 -187q-61 -36 -126 -36q-19 0 -27 2q-13 0 -25 4q-78 12 -170.5 61t-130.5 99q-32 41 -47.5 88.5t-25.5 140.5q-5 45 -5 59q0 63 14 130t36 110q13 29 37 58.5t38 35.5q4 2 17 2q50 0 139.5 -47.5t89.5 -73.5q0 -12 -16 -18
q-50 -24 -80.5 -111.5t-30.5 -197.5q0 -64 8 -113q13 -78 33 -78q51 0 149 132t171 300q10 16 22 49q2 5 18.5 42t32.5 77q46 111 64 164q12 32 23 64t17.5 48.5t10.5 28.5q6 20 20 58q29 74 29 86q0 4 -4 8q-2 2 -18 2q-66 0 -234 -35q-127 -26 -158 -26q-42 0 -110 36
q-82 43 -82 72q0 10 12 19q34 19 166 43.5t221 29.5q8 0 21.5 1t15.5 1q10 2 92 2q51 0 86 -2t37 -2q29 0 49 4z" />
    <glyph glyph-name="K" unicode="K" horiz-adv-x="1251" 
d="M215 440l66 183q102 245 223 467q3 9 11.5 26l10.5 21q22 42 51 86t37 51q4 4 19 4q29 0 78.5 -25.5t89.5 -60.5q20 -20 20 -39q0 -38 -90 -203q-41 -75 -41 -98q0 -10 8 -10q15 0 84 49q128 86 156 108q84 68 121 95q3 2 20.5 17.5t48 41t56.5 47.5q17 14 45 38
q53 46 68.5 56.5t29.5 10.5q40 0 105 -45q34 -21 48.5 -35.5t14.5 -28.5q0 -26 -43 -78q-57 -75 -190 -186q-34 -27 -70 -53.5t-70.5 -50.5t-44.5 -31q-8 -8 -114 -82q-22 -15 -27 -28.5t-8 -59.5q-2 -35 -2 -78t6 -111q24 -286 125 -481q20 -39 20 -49q0 -12 -14 -12
q-31 0 -110.5 48t-102.5 81q-41 62 -80.5 182t-54.5 225q-7 52 -11.5 68t-15.5 16q-3 0 -7.5 -1.5t-11 -4.5t-12 -6.5t-16 -9.5t-18.5 -11q-36 -22 -74 -43q-10 -6 -20.5 -13t-16 -10t-11.5 -7t-8.5 -6t-5 -4.5l-4 -4t-2.5 -4.5q-9 -19 -40.5 -107t-55.5 -167
q-24 -76 -32.5 -96t-20.5 -21q-1 0 -3.5 -1t-4.5 -1q-23 0 -71.5 23.5t-88.5 54.5q-29 24 -38 34t-9 21q0 14 8 35q7 17 27 86q47 143 63 188z" />
    <glyph glyph-name="L" unicode="L" horiz-adv-x="946" 
d="M627 1348q1 0 4.5 1t5.5 1q34 0 98 -35t74 -60q6 -12 6 -34q0 -93 -133 -430q-6 -17 -27.5 -73.5t-29.5 -82.5q-12 -29 -30.5 -77t-19.5 -52q-11 -25 -30 -80q-25 -74 -66 -162q-10 -23 -10 -33q0 -16 27 -19t131 -3q10 0 33 0.5t36.5 0.5t32.5 -1.5t35 -5.5
q27 -5 66.5 -29.5t62.5 -44.5q27 -34 27 -47q0 -19 -37 -19q-15 0 -33 3q-25 2 -154 2q-110 0 -140.5 -3t-94.5 -22q-53 -12 -76 -12q-17 0 -55 10q-58 19 -122.5 58t-70.5 59q0 2 -1 5t-1 5q0 13 84 209q2 3 72 176q5 13 12 32.5t12 33t7 18.5q22 50 28 72q13 39 84 223
q4 10 15.5 37t15.5 37q17 46 63 157q17 34 29 70q41 105 70 115z" />
    <glyph glyph-name="M" unicode="M" horiz-adv-x="1519" 
d="M1237 1071q102 98 190.5 166t108.5 68q37 0 114 -48t87 -79q2 -6 2 -17q0 -19 -25 -90l-8 -24t-7.5 -20.5t-4.5 -10.5q-3 -9 -15 -37q-141 -317 -215 -514q-42 -105 -43 -109q-22 -54 -51 -133.5t-35 -103.5q-8 -27 -16 -96q-5 -37 -11.5 -51t-19.5 -15q-32 0 -106 41
t-97 72q-10 13 -10 24q0 4 1 9.5t3 16t4 19.5q16 80 67 234.5t112 298.5q51 119 51 127q0 4 -2 4q-7 0 -60.5 -55.5t-121.5 -136t-107 -138.5q-79 -116 -90 -143q-8 -19 -21 -19q-41 0 -106.5 31.5t-93.5 63.5q-15 15 -21 42t-12 99q-1 7 -5.5 39t-6.5 49q-18 117 -29 117
t-51 -105q-111 -288 -137 -395q-68 -232 -68 -252q-3 -41 -23 -41h-4q-35 0 -116.5 49.5t-90.5 77.5q-2 6 -2 25q0 15 13 65q11 52 69 246q3 12 17.5 55t32.5 96t24 70q6 13 15.5 38.5t11.5 31.5q92 249 194 440q1 2 11 20.5t12 24.5q58 110 92 113h8q14 0 32.5 -7.5
t41.5 -22.5t40 -27t42.5 -32t34.5 -26q15 -15 18.5 -28.5t3.5 -49.5v-55q0 -150 4 -232q1 -37 1.5 -52.5t3 -37t7 -29t11.5 -7.5q12 0 53 47q40 41 81.5 89t45.5 52q30 31 83 88.5t89 89.5z" />
    <glyph glyph-name="N" unicode="N" horiz-adv-x="1236" 
d="M1380 1430q8 4 17 4q26 0 73 -21q71 -34 97 -55q41 -33 41 -51q0 -16 -105 -172q-20 -27 -49.5 -71.5t-30.5 -45.5q-41 -71 -75 -135q-23 -42 -66 -133q-6 -15 -20 -43q-43 -90 -111 -301q-8 -20 -18 -62q-3 -15 -12.5 -41.5t-10.5 -32.5q-3 -15 -7.5 -31.5t-13.5 -48.5
t-18 -67q-33 -124 -44 -159.5t-19 -41.5q-4 -4 -17 -4q-30 0 -91 29t-103 65q-18 15 -28 37t-38 113q-14 47 -35 110q-62 188 -100 349q-12 49 -21 49t-20 -33q-31 -73 -84.5 -226.5t-77.5 -238.5q-41 -127 -41 -203q0 -32 6 -59q2 -10 2 -25q0 -11 -8 -16q-2 -2 -10 -2
q-28 0 -92.5 33.5t-97.5 66.5q-20 20 -27.5 39.5t-7.5 56.5q0 5 1 17t1 20q2 57 7 88t26 99q42 140 149 434q101 277 131 353t64 140q22 42 31 48q6 4 14 4q9 0 67 -23q69 -25 94.5 -47t30.5 -59q0 -8 3 -25.5t9 -52t11 -64.5q25 -171 32 -221q4 -64 30.5 -191t39.5 -159
q6 -12 10 -12q9 0 31 73q70 231 157 415.5t216 373.5q20 30 37.5 55.5t25 36t11.5 18.5q24 39 34 46z" />
    <glyph glyph-name="O" unicode="O" horiz-adv-x="1257" 
d="M932 1366q8 2 24 2q84 0 201 -55.5t164 -118.5q53 -71 53 -197q0 -51 -12 -106q-34 -148 -115 -303t-198 -293q-7 -9 -32 -35.5t-46.5 -49t-22.5 -22.5q-14 -12 -30 -28q-104 -98 -200 -150.5t-171 -52.5h-17q-68 5 -164 51t-147 98q-69 69 -69 209q0 153 77 340
q33 85 101 199.5t116 167.5q9 9 25 29q27 33 78 80t92 77q123 92 175.5 120.5t117.5 37.5zM1112 1214q-3 3 -10 3q-21 0 -60.5 -20t-72.5 -48q-66 -53 -107 -66q-41 -19 -94 -79q-42 -48 -72 -86q-168 -216 -237 -404q-11 -28 -13 -37q-28 -72 -47 -178q-8 -53 -8 -98
q0 -48 6 -68t21 -20h8q29 7 100 53t115 86q3 2 15.5 13t19.5 16q35 31 117 118q137 157 225.5 334t111.5 340q3 18 3 39q0 84 -21 102z" />
    <glyph glyph-name="P" unicode="P" horiz-adv-x="1370" 
d="M850 1427q231 -9 418 -133q47 -32 82.5 -68t52.5 -61t43 -69q41 -74 41 -158q0 -111 -68 -229q-77 -135 -251 -232.5t-330 -97.5q-43 0 -74 8q-14 3 -86 23q-24 8 -39 8q-12 0 -18 -12q-5 -11 -19.5 -55t-35 -111.5t-29.5 -94.5q-14 -49 -39 -125t-29 -81q-7 -7 -18 -7
q-27 0 -72.5 21t-89.5 57q-3 2 -10.5 8.5t-9.5 8t-7.5 6t-7 6.5t-4.5 6.5t-3.5 7.5t-1.5 7.5t-1 9.5q0 23 37 135l45 149q14 50 55 166q54 160 92 252q79 189 109 248q49 106 49 117q0 8 -4 8q-9 0 -52 -37q-97 -78 -114 -147q-3 -23 -23 -23q-23 0 -73 33q-95 54 -95 104v4
q6 78 98.5 164.5t219.5 130.5q144 53 262 53zM1153 1262q-47 14 -147 14q-47 0 -101.5 -10t-89.5 -23t-35 -22q0 -7 27 -25q53 -31 73.5 -51t20.5 -41q0 -16 -10 -39q-1 -3 -5.5 -12.5t-8 -18.5t-5.5 -16q-8 -19 -35 -79.5t-30 -68.5q-22 -43 -72.5 -162.5t-58.5 -146.5
q-2 -4 -2 -12q0 -14 18 -14q3 0 31 4q152 28 291.5 128t195.5 222q45 102 45 188q0 79 -36 135q-15 24 -27 33t-39 17z" />
    <glyph glyph-name="Q" unicode="Q" horiz-adv-x="1359" 
d="M942 1364q10 2 33 2q113 0 251.5 -66t192.5 -147q47 -70 47 -178q0 -178 -127 -432q-46 -87 -71 -127q-67 -113 -157.5 -210t-178.5 -151q-21 -12 -28 -19.5t-7 -17.5t2 -18q25 -147 98 -299q9 -18 9 -29q0 -14 -19 -14q-29 0 -94 33q-78 38 -114.5 85.5t-76.5 160.5
q-10 34 -19.5 41t-55.5 14q-99 15 -197.5 68.5t-138.5 113.5q-53 77 -53 199q0 146 77 323q24 48 35 107q13 75 35 127t70 129q83 129 208.5 207.5t278.5 97.5zM1190 1225q-8 4 -23 4q-32 0 -82 -12t-73 -25q-22 -13 -43 -23q-61 -31 -140 -102q-65 -61 -161 -197
q-49 -67 -101 -192q-15 -35 -55 -113q-28 -47 -49 -131.5t-21 -144.5q0 -58 15 -112.5t32 -63.5q12 -4 29 -4q55 0 107 20q20 9 20 27q0 14 -6 49q-14 116 -14 117q0 20 -2 32q-5 45 -5 80q0 80 7 90q5 11 22 11q42 0 103 -43q38 -25 51 -46t28 -81t25 -60q4 0 6 2
q17 9 67 76.5t91 134.5q99 165 155 316t56 253q0 18 -4 46q-15 81 -35 92z" />
    <glyph glyph-name="R" unicode="R" horiz-adv-x="1333" 
d="M692 1366q87 7 150 0q178 -10 358 -93.5t246 -185.5q45 -65 45 -159q0 -112 -57 -197q-76 -113 -238.5 -191.5t-318.5 -78.5q-29 0 -43 2h-17q-20 0 -20 -10q0 -11 16 -43q2 -4 8.5 -16t13.5 -25t11 -23q27 -51 31 -57q17 -30 49.5 -92.5t36.5 -75.5q5 -16 26 -53
q25 -48 45 -70q39 -45 39 -61q0 -17 -24 -17q-52 0 -142 53q-58 32 -80.5 58t-62.5 106q-59 122 -107 215q-24 41 -32 41q-7 0 -14.5 -18t-22.5 -66q-33 -110 -45 -164q-20 -86 -31.5 -108.5t-34.5 -22.5h-6q-40 0 -114 38t-83 63q-2 4 -2 12q0 19 39 174q15 63 45.5 156
t55.5 153q30 74 105.5 233t135.5 273q29 54 29 62q0 6 -10 6q-29 0 -98.5 -35.5t-116.5 -73.5q-26 -20 -37 -20q-17 0 -54 15t-63 32q-43 27 -43 47q0 15 29 47q69 66 178.5 113.5t224.5 56.5zM1024 1225q-36 4 -133 4q-25 0 -49 -4q-21 -2 -42 -6.5t-33.5 -9t-12.5 -7.5
t32 -16q80 -34 99 -66q12 -20 12 -26q0 -15 -74 -191q-5 -11 -15.5 -35.5t-10.5 -25.5q-12 -33 -19 -43l-14 -35q-2 -4 -10.5 -24t-12.5 -31q-36 -82 -36 -95q0 -6 2 -8q3 -6 22 -6q26 0 92 16q107 28 223.5 101t167.5 145q56 77 56 162q0 87 -56 143q-39 42 -188 58z" />
    <glyph glyph-name="S" unicode="S" horiz-adv-x="1083" 
d="M770 1376q16 4 55 4q78 0 165.5 -31t162.5 -87q68 -51 68 -134q0 -20 -2 -32q-5 -47 -31 -106.5t-51 -76.5q-9 -6 -25 -6q-41 0 -102 39q-45 27 -45 60q0 18 10 51q18 65 18 123q0 35 -8 43q-3 6 -16 6q-22 0 -58.5 -16t-62.5 -39q-57 -49 -91 -125t-34 -150q0 -23 2 -35
q8 -81 35 -145q2 -9 9.5 -27.5t8.5 -21.5t27 -72q11 -38 33 -88q51 -136 51 -254q0 -34 -12 -83t-29 -81q-23 -47 -48 -70.5t-83 -52.5q-83 -41 -144 -41q-20 0 -32 2q-105 15 -202 63.5t-156.5 114.5t-59.5 128q0 63 12.5 107.5t42.5 92.5q20 29 39 29t43 -8
q42 -12 97.5 -43.5t72.5 -53.5q8 -11 8 -20q0 -11 -12 -29q-23 -31 -35.5 -61.5t-21.5 -79.5q-2 -8 -2 -25q0 -25 6.5 -44.5t15.5 -22.5q1 0 3.5 -1t4.5 -1q26 0 83.5 29t82.5 55q35 35 55.5 94.5t20.5 124.5q0 29 -2 41q-6 63 -14.5 97.5t-32.5 96.5q-24 59 -33 86
q0 2 -31 84q-51 125 -51 228q0 125 86 243q72 97 209 121z" />
    <glyph glyph-name="T" unicode="T" horiz-adv-x="1134" 
d="M862 1274q96 0 201 -10q49 -7 57 -7q70 -9 111 -20q58 -17 114 -52.5t56 -54.5q0 -12 -27 -12q-22 0 -74 6q-10 2 -34 2q-4 0 -13 1t-12 1q-44 7 -115 7q-37 0 -39 -2q-10 -7 -45 -72.5t-67 -134.5q-11 -28 -23 -49q-109 -247 -215 -598q-2 -8 -9.5 -33t-10.5 -37
q-26 -77 -51 -168q-8 -28 -14.5 -38.5t-18.5 -10.5q-2 0 -6 1t-6 1q-53 9 -124 35.5t-83 48.5q-4 8 -4 14q0 28 69 248q2 8 17.5 55.5t21.5 69.5q47 151 86 258q3 9 8.5 23t9 25t5.5 17q49 133 121 285q14 31 14 37q0 11 -14 13.5t-58 2.5q-115 0 -221 70q-41 25 -41 43
q0 21 76 21q22 0 77.5 4.5t71.5 5.5q2 0 37 1t74 1q21 0 44 0.5t38 1t16 0.5z" />
    <glyph glyph-name="U" unicode="U" horiz-adv-x="1171" 
d="M973 63q-8 -28 -14.5 -38.5t-18.5 -10.5q-2 0 -6 1t-6 1q-41 7 -101.5 27.5t-89.5 40.5q-73 -53 -141 -53q-69 0 -175.5 49.5t-156.5 107.5q-69 81 -69 213q0 186 139 502q15 30 22 51q12 20 19 41q4 6 11.5 22.5t8.5 18.5q20 47 66 131.5t55 92.5q8 8 25 8q31 0 96 -33
q50 -25 71 -43t21 -37v-6q-5 -38 -45 -123q0 -1 -8 -20.5t-12 -28.5q-2 -5 -13 -28t-16 -34q-106 -230 -151 -370t-46 -250q0 -54 5 -77t18 -23q19 0 69 41q113 90 242 307q198 328 295 592q30 82 43 107t27 28q2 0 6 1t6 1q45 0 130 -45.5t85 -71.5q0 -10 -16 -39
q-19 -37 -35 -88q-42 -115 -101 -240q-88 -224 -168 -487q-2 -8 -9.5 -33t-10.5 -37q-26 -77 -51 -168z" />
    <glyph glyph-name="V" unicode="V" horiz-adv-x="1079" 
d="M557 -88q-1 0 -4.5 -1t-5.5 -1q-39 0 -121.5 43.5t-97.5 73.5t-15 73q0 13 -4 41q-2 18 -2 117q0 101 2 117q4 24 4 51q0 8 1 30t1 31q5 42 7 56q20 229 84 448q138 485 210 522q6 3 15 3q58 0 143 -58q35 -20 35 -39q0 -8 -6 -20q-14 -31 -31 -90q-8 -25 -32.5 -82.5
t-48 -129.5t-46.5 -175q-9 -29 -20 -91q-35 -202 -45 -264q-2 -9 -3.5 -22t-3 -21.5t-2.5 -11.5q-2 -10 -2 -29q0 -26 4 -26q3 0 17.5 20.5t27.5 44.5t68 113t84 139q101 168 205 328q92 138 178 284q30 50 39 68q28 44 41 72q35 57 43 62q6 5 16 5q38 0 104.5 -36.5
t80.5 -57.5q6 -9 6 -16q0 -9 -21 -43q-9 -16 -42.5 -73t-41.5 -71q-80 -138 -211 -340q-95 -143 -188 -297q-116 -195 -150 -262l-28 -49q-33 -59 -60 -112q-8 -12 -32 -60q-41 -74 -56 -108q-45 -91 -64 -121t-32 -35z" />
    <glyph glyph-name="W" unicode="W" horiz-adv-x="1497" 
d="M1102 -53q-10 -17 -29 -17q-37 0 -117 56q-40 27 -55.5 45.5t-21.5 42.5q-11 34 -11 121q0 49 1 108.5t2.5 133.5t2.5 114q0 17 1.5 38t1.5 25q0 13 -5 13q-6 0 -23 -27t-48 -83q-6 -12 -10 -19q-57 -96 -127 -237t-107 -238q-21 -51 -28.5 -62.5t-20.5 -11.5h-8
q-33 3 -92 40t-91 72q-30 40 -30 97v84q0 34 6 100t12 98q14 74 19 127q14 133 71 406q0 4 11 37q37 158 96 297q21 43 30.5 56.5t20.5 16.5h6q23 0 74 -27.5t82 -56.5q18 -18 18 -30t-10 -35q-43 -127 -61 -203q-21 -84 -41 -182q-2 -7 -6.5 -26.5t-6.5 -26.5
q-20 -113 -20 -131v-5q0 -6 4 -6q7 0 70 101q18 28 28 45q100 152 101 153q42 68 120 160t99 100q2 2 10 2q31 0 93 -40t73 -66q0 -1 1 -4.5t1 -5.5q0 -4 -10 -82q-3 -20 -14 -75t-17 -95q-1 -11 -8.5 -61t-12 -87.5t-4.5 -54.5q0 -3 1 -6t1 -4q2 -2 6 -2q22 0 93 145
q41 78 49 92q115 201 229 340q39 48 51 60t25 12h6q33 -5 96 -44.5t80 -68.5q4 -8 4 -14q0 -16 -30 -49q-196 -238 -361 -570q-32 -66 -147 -327q-74 -172 -123 -258z" />
    <glyph glyph-name="X" unicode="X" horiz-adv-x="1073" 
d="M1165 1528q4 2 17 2q48 0 129 -49q53 -29 53 -56q0 -11 -10 -28q-12 -21 -50 -72.5t-61 -77.5q-79 -94 -233 -293q-29 -38 -146 -184q-10 -15 -35 -45q-19 -27 -36 -47q-25 -31 -33 -45.5t-8 -28.5q0 -3 1 -9t1 -9q19 -149 49.5 -260t97.5 -275q8 -24 8 -26
q0 -15 -18 -15q-13 0 -31 6q-40 10 -92 39.5t-78 55.5q-21 16 -65 137q-27 71 -35 87.5t-15 16.5q-14 0 -43 -57q-6 -12 -26 -47q-53 -101 -115 -246q-31 -77 -37.5 -89t-15.5 -17q-2 -2 -12 -2q-36 0 -116.5 40t-92.5 66q-4 8 -4 14q0 18 55 148q114 269 278 493q6 9 15 21
t13 17.5t10 14t8 11.5t5.5 9t4.5 9l2.5 7.5t1.5 8.5v9q0 3 -1 15t-1 20q0 19 -1 74t-1 85q0 33 1 80t1 54q8 119 28 197.5t46 90.5q12 4 22 4q31 0 79.5 -20.5t86.5 -50.5q20 -14 20 -33q0 -4 -1 -11t-3 -19.5t-4 -22.5q-18 -89 -18 -121q0 -13 4 -17q2 -2 4 -2q6 0 57 64
q26 32 55.5 69t49 61.5t37.5 45.5q52 63 69 80q4 5 17.5 19.5t19.5 21.5q23 25 82 76q2 2 10 6z" />
    <glyph glyph-name="Y" unicode="Y" horiz-adv-x="1140" 
d="M477 1358q4 2 15 2q24 0 65.5 -16.5t77.5 -40.5q32 -22 43 -43t16 -68q0 -7 1 -20t1 -15q2 -6 2 -49q0 -35 4 -55q0 -1 1.5 -34.5t1.5 -57.5q1 -37 8 -154q6 -68 20 -139t23 -82q4 -4 6 -4q5 0 12 10.5t27 48.5q80 149 125.5 266t91.5 287q36 122 47 131q6 6 20 6
q35 0 94 -28.5t87 -61.5q14 -17 14 -47q0 -56 -66 -272q-56 -181 -161 -383q-73 -135 -76 -140q-21 -38 -31 -59q-5 -9 -100 -176q-140 -241 -187 -264q-8 -4 -16 -4q-31 0 -84 21.5t-95 50.5t-42 48q0 6 12.5 22.5t22.5 22.5q15 9 63.5 83t106.5 178q30 52 30 63
q0 10 -24 37q-46 46 -76 121q-54 134 -78 303q-5 43 -6 49q-6 71 -8 127q0 52 -4 68q0 1 -1 37t-1 63q0 28 1 65l1 37q4 16 4 33q3 27 12 33z" />
    <glyph glyph-name="Z" unicode="Z" horiz-adv-x="1169" 
d="M754 1260q2 0 20 0.5t46 1t54 0.5q170 0 205 -5q12 -2 33 -2q10 0 88 -10q62 -9 138.5 -51.5t76.5 -71.5q0 -11 -35 -37q-54 -40 -102 -81q-68 -58 -74 -64q-2 -4 -22 -20t-45 -41q-6 -6 -29.5 -27.5t-34.5 -32.5q-50 -45 -55 -49q-15 -15 -35 -31q-4 -4 -14 -13.5
t-13 -12.5q-3 -2 -15 -13.5t-19 -17.5q-21 -16 -116.5 -112t-117.5 -121q-20 -25 -24 -29q-1 -1 -5.5 -5t-8.5 -8t-7 -8q-22 -28 -135 -145q-68 -68 -68 -78q3 -8 27 -8q22 0 113 14q6 0 21 2t20 2q12 2 36.5 8t62 12.5t91.5 10.5q26 3 70 -2q6 -1 24.5 -3t24.5 -3
q38 -1 60.5 -14t39.5 -43q12 -21 12 -35q0 -15 -16 -25q-11 -5 -76.5 -20t-95.5 -19q-17 0 -41 -4q-7 -1 -26.5 -3t-24.5 -3q-6 -1 -24 -3t-25 -3q-6 -1 -22.5 -3t-22.5 -3q-28 -2 -150 -17q-5 -1 -19.5 -3t-19.5 -3q-7 -1 -82 -10q-75 -10 -104 -10q-58 0 -141 41
q-111 55 -111 90v4q4 21 61 82q22 22 25 26q2 2 13.5 14t29 30t33.5 34q70 74 90 94l43 43q17 17 33 37q5 6 17.5 20t16.5 19q25 25 31 33q29 35 131.5 137t145.5 139q5 5 17.5 17t16.5 16q5 4 19 17t20 18q77 67 144 131q12 10 37 35q61 49 61 65q0 7 -65 7
q-113 0 -273 -25q-53 -11 -61 -12q-54 -8 -58 -8q-28 0 -71 22q-82 40 -82 66q0 10 16 20q48 28 197 47q17 0 37 4q15 0 47 4q26 0 41 5z" />
    <glyph glyph-name="bracketleft" unicode="[" horiz-adv-x="757" 
d="M840 1343q3 0 8 1.5t8 1.5q29 0 84 -25q92 -47 92 -78q0 -35 -104 -47q-84 -9 -154 -12q-30 0 -36.5 -7t-24.5 -51q-11 -33 -15 -41q-8 -27 -59 -159q-68 -168 -86 -230q-46 -145 -84 -231q-38 -88 -59 -150q-9 -25 -52 -127q-39 -85 -39 -108q0 -5 3 -8q10 -13 65 -13
q31 0 47 2l58 5q50 0 112 -37q86 -50 86 -76q0 -19 -41 -25q-30 -6 -57 -6q-5 0 -111 8q-12 2 -51 2q-114 -5 -145 -10q-16 -2 -35 -2q-21 0 -33 4q-44 10 -93.5 35t-74.5 49q-18 18 -18 35t12 47q2 6 12 29t13 33q27 74 59 147q27 59 47 115q8 23 31.5 83.5t30.5 77.5
q27 63 81 218q27 83 107 284q9 24 25 68t26 69q16 49 24 68.5t19 26.5q16 12 86 12q70 4 74 4q7 0 39 4t45 4q4 1 41 6q28 4 37 4z" />
    <glyph glyph-name="bracketright" unicode="]" horiz-adv-x="788" 
d="M483 1360h11q44 0 153 -14q17 -2 36.5 -4t32 -3.5t21.5 -1.5q11 0 35 4q2 0 6.5 1t7.5 1q65 0 150 -57q34 -23 46.5 -35.5t12.5 -29.5q0 -20 -32 -95q-1 -1 -19 -41t-26 -61q-8 -19 -25 -56.5t-19 -43.5q-54 -117 -100 -256q-45 -126 -67 -176q-57 -144 -66 -170
q-4 -14 -15 -41t-14 -35q-21 -47 -41 -103q-39 -107 -49.5 -130t-23.5 -29q-23 -14 -144 -33q-27 -6 -49 -6q-55 0 -133 41q-100 49 -100 82q0 12 14 20q12 6 29 6q12 0 20 -2q16 -4 25 -4q12 0 65 12q56 11 66 27q5 7 53 137q3 9 37 94q7 18 19.5 51t15.5 40q20 55 67 174
q23 53 80 215q33 89 84 206q67 155 70 168v2q0 16 -21 19q-114 14 -188 63q-41 24 -41 47q0 14 16 17z" />
    <glyph glyph-name="asciicircum" unicode="^" 
d="M967 635q6 -12 6 -27q0 -30 -31 -94q-44 -92 -74 -92q-11 0 -18 7.5t-35 47.5q-5 8 -20.5 30t-20.5 30q-6 10 -28 40.5t-31 43.5q-38 55 -62 86q-24 34 -39 53q-11 19 -32 43q-4 7 -14.5 22t-12.5 19q-17 26 -29 26q-4 0 -12 -4q-21 -12 -60.5 -49.5t-68.5 -71.5
q-68 -77 -98 -118q-27 -36 -39 -54q-45 -61 -70 -61q-9 0 -12 6q-4 8 -4 14q0 34 34 102t66 99q3 3 43 53q10 15 29 40.5t22 29.5q17 17 29 33q50 58 68 76q6 7 18.5 19.5t15.5 16.5q27 29 73.5 65t64.5 42q12 4 14 4q13 0 29 -31q4 -6 14 -21.5t14 -21.5q235 -318 271 -403
z" />
    <glyph glyph-name="underscore" unicode="_" horiz-adv-x="1185" 
d="M659 -23q12 3 29 3q50 0 112 -31.5t107 -75.5q17 -17 17 -27q0 -18 -95 -26q-72 -5 -161 -8q-13 0 -26 -0.5t-20 -1.5h-8q0 -1 -47 -5q-66 -3 -121 -4.5t-79.5 -1.5t-36.5 -2t-101 -2q-88 0 -98 2q-46 6 -114.5 51t-77.5 74q-2 4 -2 10q0 9 17 12t73 5h22.5t20 0.5t15 1
t11.5 0.5h4q4 4 50 4q128 7 131 8l8 1q8 0 20.5 0.5t24.5 0.5q13 1 47.5 2t48.5 2q63 6 156 6h47q5 0 14 1t12 1z" />
    <glyph glyph-name="grave" unicode="`" 
d="M639 1323q6 2 25 2q32 0 79.5 -10t69.5 -23q23 -15 59 -57q39 -45 81.5 -83.5t62.5 -45.5q61 -27 61 -45q0 -19 -49 -19q-95 0 -201 45q-69 29 -135.5 100.5t-66.5 112.5q0 17 14 23z" />
    <glyph glyph-name="a" unicode="a" horiz-adv-x="1165" 
d="M711 117q-139 -109 -258 -109q-15 0 -43 4q-125 28 -217.5 99t-112.5 155q-4 14 -4 47q0 91 54.5 193.5t134 181.5t172.5 131.5t165 52.5q44 0 109 -18q76 -22 139 -63q32 -19 39 -19q8 0 24 19q28 28 54 28q27 0 77 -24q73 -36 76 -64v-4q0 -13 -94 -180
q-119 -221 -119 -332q0 -28 4 -39.5t15 -11.5q16 0 73 31q89 46 195 159q61 64 115 136t73 106q13 23 21 27q2 2 12 2q37 0 105.5 -46.5t68.5 -74.5q-1 -10 -22.5 -42.5t-67.5 -88.5t-102 -115q-91 -97 -178 -154q-136 -88 -224 -88q-20 0 -28 2q-76 13 -189 103
q-24 18 -33 18q-6 0 -34 -22zM748 719q-3 6 -15 6q-32 0 -105.5 -46.5t-125.5 -100.5q-130 -139 -168 -259q-27 -92 -27 -122q0 -22 15 -37q8 -4 18 -4q41 0 121.5 50.5t130.5 110.5q56 67 109 190.5t53 184.5q0 18 -6 27z" />
    <glyph glyph-name="b" unicode="b" horiz-adv-x="1177" 
d="M1323 578q70 36 90 36q12 0 33 -30q37 -48 37 -119q0 -4 -4 -8q-13 -13 -129 -64q-15 -8 -52.5 -31t-48.5 -30q-33 -19 -77 -45.5t-72 -42.5l-119 -68q-308 -168 -496 -196q-72 -11 -104 -11q-86 0 -193 45q-4 1 -36 4q-37 0 -83.5 18.5t-84.5 49.5q-29 23 -29 37
q0 17 35 70q67 99 172 303q51 102 137 252q61 100 72 120l53 88q5 10 131 228q57 101 118 215q36 65 45.5 80t20.5 18q4 2 15 2q40 0 99.5 -35.5t59.5 -60.5q0 -20 -106 -209q-23 -57 -96 -180q-22 -43 -93 -170q-34 -61 -34 -70q0 -6 4 -6q8 0 45 16q97 43 170 43
q46 0 82 -10q49 -13 107.5 -45t82.5 -57q29 -40 29 -97q0 -46 -19 -120q-8 -32 -8 -35q0 -6 4 -6q8 0 90 45q24 13 79.5 40t72.5 36zM891 684q-4 4 -8 4q-10 0 -45 -14q-95 -40 -209 -128.5t-209 -197.5q-20 -24 -33 -37q-35 -42 -94 -114q-55 -69 -55 -78q0 -4 10 -4h6
q24 0 94 20q210 72 319.5 154.5t178.5 220.5q20 37 34.5 86t14.5 74q0 10 -4 14z" />
    <glyph glyph-name="c" unicode="c" horiz-adv-x="983" 
d="M1282 373q-99 -107 -164 -154q-183 -138 -237 -173q-135 -87 -226 -87q-84 0 -187 41.5t-187.5 107t-116.5 132.5q-27 56 -27 120q0 170 164 342q127 134 277 148q18 2 57 2q138 0 235 -56.5t97 -160.5q0 -33 -17 -86q-5 -13 -10 -27.5t-8 -22.5t-6 -16.5t-5 -12.5
t-4 -7.5t-4.5 -4.5t-5.5 -1q-28 0 -72.5 13.5t-80.5 35.5q-22 15 -30.5 25t-8.5 26q0 25 20 86q6 21 6 39q0 33 -12 39h-4q-20 0 -72.5 -27t-95.5 -57q-77 -58 -124.5 -156.5t-47.5 -187.5q0 -30 6 -57q21 -67 70 -101q15 -12 45 -12q92 0 256.5 93.5t281.5 213.5
q70 70 111 121q33 39 48 52t30 13q8 0 12 -2q20 -4 57 -40t50 -60q10 -13 10 -31q0 -30 -31 -61z" />
    <glyph glyph-name="d" unicode="d" horiz-adv-x="1224" 
d="M727 104q-74 -56 -161 -89t-158 -33q-21 0 -31 2q-76 7 -163.5 55.5t-119.5 99.5q-41 56 -41 129q0 15 4 35q37 186 189 332q103 102 180.5 152t167.5 75q36 8 57 8q89 0 236 -86q11 -8 24 -8q31 0 58 49q158 281 282 445q4 6 20 27.5t23 31.5q39 57 63 81t46 30
q6 2 20 2q30 0 82 -27q45 -26 45 -57q0 -30 -30 -82q-24 -45 -181 -307q-13 -19 -34 -60q-6 -12 -19.5 -34.5t-31.5 -53.5t-29 -51q-57 -94 -64 -111q-6 -10 -18 -34q-12 -16 -37 -68q-66 -118 -88 -158q-57 -103 -57 -202q0 -54 16 -54q16 3 54 26t71 50q11 9 43 34
t50.5 40.5t50 49t63.5 73.5q30 39 100 133q31 44 42 54.5t26 10.5h10q26 -4 73.5 -32t73.5 -52q19 -25 19 -32q0 -10 -15 -25q-81 -106 -157 -194q-91 -104 -179.5 -175.5t-154.5 -93.5q-24 -8 -62 -8q-66 0 -146.5 28.5t-147.5 78.5q-20 14 -29 14q-10 0 -35 -19zM807 717
q-4 4 -12 4q-28 0 -90 -30t-111 -68q-40 -30 -106.5 -95t-96.5 -104q-48 -59 -78 -134.5t-30 -127.5q0 -43 24 -49q1 0 3 -1t3 -1q22 0 74 22.5t94 48.5q98 61 187.5 159.5t119.5 182.5q29 79 29 150q0 36 -10 43z" />
    <glyph glyph-name="e" unicode="e" horiz-adv-x="841" 
d="M1198 426q-134 -121 -212 -186.5t-171 -129t-176.5 -96t-181.5 -49.5q-28 -4 -47 -4q-144 0 -299 102q-160 106 -160 267q0 92 51 194q57 117 186.5 216t255.5 124q24 4 41 4q101 0 220 -75q108 -67 108 -160q0 -39 -25 -84q-65 -106 -251.5 -227t-343.5 -158
q0 -1 -1.5 -4t-1.5 -4q0 -17 11 -35t22 -23q4 -2 17 -2q42 0 137.5 27t161.5 57q104 47 212.5 124t258.5 210q73 65 86 80q10 14 12 14q2 2 10 2q49 0 129 -55q31 -19 31 -33q0 -12 -21 -33q-1 -1 -8.5 -10t-21 -23.5t-29.5 -29.5zM254 457q-57 -94 -57 -111q3 0 14.5 3
t41.5 15.5t64 30.5q82 41 158.5 106.5t102.5 108.5q26 45 26 88q0 13 -4 17t-16 4h-6q-92 -34 -184.5 -108.5t-139.5 -153.5z" />
    <glyph glyph-name="f" unicode="f" horiz-adv-x="997" 
d="M-365 -588q-4 32 -4 51q0 145 81.5 363t205.5 414q96 178 246 387q75 111 160 207q33 43 140 163.5t150 163.5q189 186 332 228q21 6 62 6q6 0 17.5 -1t16.5 -1q81 -13 163.5 -60.5t109.5 -93.5q20 -36 20 -82q0 -119 -157 -293q-60 -66 -125 -123q-5 -4 -11.5 -9.5
t-11 -9t-6.5 -5.5q-51 -46 -139 -111q-79 -58 -256 -180q-32 -23 -137 -92q-74 -51 -279 -180q-29 -17 -29 -25q0 -4 6 -4q14 0 70 16q98 28 216.5 71t166.5 69q169 78 295 155q61 35 159.5 97t114.5 75q12 15 27 15q2 0 4.5 -1t6.5 -2t7 -2q28 -12 58 -61.5t39 -83.5
q0 -2 1 -5t1 -5q0 -12 -15.5 -24.5t-68.5 -45.5q-76 -49 -111 -67q-150 -98 -356 -193q-219 -102 -438 -141q-19 -3 -19 -10q0 -8 29 -62q72 -130 72 -301q0 -183 -74 -305q-51 -83 -136.5 -147.5t-158.5 -86.5q-31 -8 -78 -8q-131 0 -221 64q-114 80 -146 276zM1112 1257
q-3 3 -6 3q-23 0 -87 -39.5t-120 -90.5q-72 -69 -94 -92q-35 -35 -45 -47q-47 -45 -96 -102q-10 -12 -50 -62q-109 -124 -196 -241q-43 -62 -43 -70q0 -4 2 -4q4 0 10 3t19 11.5t24.5 16t36.5 24.5t43 29q82 55 227 166q120 94 220 200.5t135 178.5q24 53 24 98q0 16 -4 18z
M104 -2q-18 6 -24 6t-12 -6q-32 -38 -122.5 -269t-90.5 -323v-10q4 -53 18.5 -97.5t28.5 -50.5q2 -2 10 -2q19 0 53 14.5t66 39.5q98 83 148 186.5t50 214.5q0 125 -57 233q-21 37 -31 47t-37 17z" />
    <glyph glyph-name="g" unicode="g" horiz-adv-x="1271" 
d="M1231 319q151 130 246 256q19 24 28.5 32.5t20.5 8.5q9 0 24 -6q45 -17 87 -56.5t42 -64.5v-4q-5 -25 -69 -102t-133 -133q-135 -117 -306.5 -218t-349.5 -169q-40 -14 -50.5 -20t-18.5 -15q-8 -12 -49 -83.5t-58 -104.5q-7 -17 -29 -54q-5 -9 -17.5 -34l-16.5 -33
q-86 -159 -139.5 -250.5t-106.5 -164.5t-95 -104t-87 -36q-3 0 -9.5 -1t-9.5 -1q-68 0 -166 49.5t-133 103.5q-41 59 -41 140q0 164 139 339q78 102 177.5 165.5t287.5 131.5q101 38 117 50q9 7 29 41q10 20 10 26t-8 6q-17 0 -29 -4q-56 -12 -106 -12q-152 0 -267 94
q-34 31 -47 82q-12 46 -12 49q-8 24 -8 58q0 66 45 172q66 153 241 298.5t322 170.5q8 2 29 2q121 0 278 -103q29 -20 39 -20q7 0 21 14q14 15 22 19t27 4q36 -3 92.5 -33t65.5 -51q4 -8 4 -15q0 -18 -58 -114q-3 -5 -8.5 -15t-14 -23t-12.5 -20q-71 -127 -108 -188
q-131 -232 -131 -242q0 -4 6 -4q16 0 112.5 60.5t180.5 125.5zM840 743q-6 2 -19 2q-27 0 -69 -24q-117 -57 -226 -157.5t-153 -192.5q-24 -45 -37.5 -97t-13.5 -88q0 -45 20 -45h2q60 10 196 105t201 170q105 119 133 233q5 20 5 29q0 56 -39 65zM18 -831q0 -35 11 -35
q14 0 53.5 45t83.5 110q59 88 130 224t71 155q0 6 -7 6q-6 0 -30 -12q-91 -50 -172.5 -158.5t-118.5 -216.5q-21 -61 -21 -118z" />
    <glyph glyph-name="h" unicode="h" horiz-adv-x="1146" 
d="M1092 276q121 109 221 256q67 97 84 99h6q31 0 95.5 -43t70.5 -68v-4q0 -10 -39 -63q-87 -113 -156 -187q-125 -132 -196 -186t-126.5 -80t-121.5 -35q-3 0 -10 -1t-11 -1q-68 0 -159 49q-74 37 -106 74.5t-32 89.5q0 25 6 55q9 52 44 140q3 5 8.5 17t7.5 15
q23 60 123 215q39 59 39 72q0 4 -4 4q-6 0 -23 -10q-30 -15 -119 -90q-64 -56 -137 -148q-91 -110 -201 -282q-3 -5 -12.5 -19.5l-19 -29t-15.5 -25.5q-34 -56 -43 -72q-16 -29 -23 -37t-20 -8h-8q-37 3 -105.5 39.5t-80.5 59.5q-4 12 -4 16q0 14 22 68q82 188 96 219
q93 205 230 465q15 30 47 90.5t59 111.5q155 308 260 461q25 39 37 41q4 2 15 2q37 0 100 -33t70 -57v-6q0 -11 -19 -45q-3 -7 -22 -43t-29 -57q-25 -55 -47 -91q-172 -344 -174 -352q-2 -4 -2 -10q0 -4 4 -4t47 16q54 23 83.5 30t74.5 7q36 0 49.5 -2t46.5 -12
q61 -20 127 -70q24 -21 24 -53q0 -19 -6 -43q-12 -40 -31 -75.5t-94 -160.5q-71 -116 -104.5 -186t-50.5 -139q-2 -7 -4 -16t-3.5 -14t-1.5 -9q0 -12 11 -12q12 0 47 18q133 66 205 149z" />
    <glyph glyph-name="i" unicode="i" horiz-adv-x="665" 
d="M524 1212q4 2 15 2q50 0 135 -42.5t100 -77.5q4 -8 4 -25q0 -43 -44 -86t-91 -43q-10 0 -16 2q-66 13 -130 51.5t-73 69.5q-2 4 -2 12q0 34 34.5 81t67.5 56zM887 266q-99 -115 -229.5 -200.5t-221.5 -92.5h-8q-68 0 -169.5 50.5t-135.5 101.5q-39 58 -39 139q0 27 6 51
q38 179 219 435q7 13 35 51q31 45 42 57t24 16q6 3 12 3q52 0 139 -56q47 -28 47 -57q0 -26 -39 -82q-104 -151 -145.5 -223t-77.5 -166q-33 -87 -33 -133q0 -25 11 -29h4q16 0 56 16.5t77 38.5q133 80 217 164q70 70 131 152q60 79 73.5 93.5t26.5 16.5h6q30 0 88.5 -48
t61.5 -75q0 -14 -25 -43q-11 -11 -59 -71q-36 -44 -94 -109z" />
    <glyph glyph-name="j" unicode="j" horiz-adv-x="675" 
d="M528 1223q6 2 13 2q20 0 59 -13q60 -21 115 -54.5t67 -57.5q6 -12 6 -25q0 -37 -36 -77.5t-86 -59.5q-27 -9 -29 -10q-4 -2 -14 -2q-42 0 -120 45t-95 80q-5 10 -5 24q0 44 40 93t85 55zM1044 469q0 -18 -14 -29l-108 -71q-56 -35 -199 -115q-113 -62 -141 -76
q-8 -5 -20.5 -11.5t-21.5 -11.5t-12 -8q-4 -1 -18 -8.5t-21 -9.5q-21 -13 -139 -74q-98 -54 -120.5 -67.5t-30.5 -22.5q-14 -19 -142 -278q-107 -210 -139 -260q-75 -123 -193.5 -218t-201.5 -100h-8q-85 0 -208.5 62.5t-158.5 123.5q-16 24 -16 68q0 74 47 139
q117 163 571 430q5 3 35.5 21.5t46.5 26.5q12 8 41.5 25.5t38.5 23.5q33 21 43 33.5t43 76.5q46 95 88 187q28 67 78 170q56 124 127 240.5t100 131.5q8 4 21 4q28 0 70.5 -17.5t80.5 -45.5q27 -20 27 -35q0 -18 -47 -102q-21 -35 -29 -51q-8 -20 -65 -121q-22 -39 -70 -144
q-27 -58 -27 -69q0 -6 6 -6q5 0 9 2q52 14 350 200q31 20 98.5 58.5t81.5 44.5q43 26 53 26h4q21 -4 55.5 -61t34.5 -82zM-225 -291q0 2 -4 2q-18 0 -131 -78q-130 -92 -201 -172q-45 -50 -64 -90t-24 -90v-4q0 -25 16 -25q21 0 80 39q135 91 231 230q29 44 63 109t34 77v2z
" />
    <glyph glyph-name="k" unicode="k" horiz-adv-x="1204" 
d="M1413 276l-158 -129q-64 -53 -143 -102q-121 -76 -207 -76q-74 0 -190 58q-95 47 -139 102t-54 141q-12 103 -26 131q-7 7 -11 7q-12 0 -59 -50q-90 -91 -140 -158t-108 -171q-20 -37 -29 -49t-18 -15h-8q-39 0 -116.5 39.5t-86.5 65.5q0 1 -1 4.5t-1 5.5q0 20 57 117
q9 17 52 88q30 50 36 59q143 234 177 301q96 181 176 311q9 13 35 53t47.5 71.5t33.5 47.5q36 48 48 66q141 196 161 209q8 4 19 4q44 0 113 -41t69 -70v-2q-3 -20 -48.5 -90t-105.5 -149q-16 -27 -45 -64q-20 -32 -41 -59q-59 -85 -59 -101q0 -6 4 -6q10 0 33 13
q92 45 148.5 62.5t111.5 17.5q111 0 242 -87q38 -26 54.5 -49.5t16.5 -56.5q0 -35 -18 -94q-25 -82 -111.5 -147.5t-212.5 -96.5q-86 -22 -143 -25q-21 -1 -30 -2.5t-14 -5.5t-5 -12q0 -5 8 -37q13 -50 18 -92q6 -53 12 -71.5t15 -18.5h6q35 4 130 62.5t165 117.5
q12 11 36 31t73 61.5t112 96.5q45 42 113 100q26 26 41 26q12 0 20 -4q33 -13 79 -64.5t52 -78.5v-8q0 -25 -65 -82q-82 -73 -121 -105zM598 504q2 -2 14 -2q29 0 89 14.5t106 34.5q77 34 137 91.5t60 98.5v11h-11q-26 0 -123.5 -55t-184.5 -115.5t-87 -75.5v-2z" />
    <glyph glyph-name="l" unicode="l" horiz-adv-x="727" 
d="M279 27q-84 55 -125 134.5t-41 207.5q0 7 1 22t1 23q0 27 10.5 94t26.5 119q32 114 95.5 246t135.5 235q85 120 168 178q43 32 88 53q67 33 123 41q4 4 41 4q36 0 59 -6q53 -10 96 -28q102 -47 129 -90q19 -32 19 -54q0 -20 -16 -49q-18 -35 -105 -129
q-139 -139 -213 -217q-100 -100 -182 -186q-90 -98 -189 -201q-46 -49 -49 -55q-2 -8 -2 -50q0 -93 17.5 -133.5t58.5 -40.5t84 35q62 46 119 107q92 96 227 213q20 18 39 36t30 28.5t21.5 20.5t15.5 14.5t10.5 8.5t9 5t7.5 1h8q12 0 24 -5.5t26 -17.5t22.5 -20.5t23.5 -25
t19 -21.5q14 -17 14 -24q0 -6 -2 -8q-8 -11 -180 -177q-10 -11 -54 -50.5t-67 -63.5q-77 -77 -159 -142t-125 -79q-37 -11 -76 -11q-94 0 -184 58zM459 733v-2q2 0 9 6.5t22 23t30.5 34.5t45 51.5t55.5 62.5q228 258 258 301q22 26 22 43v2q0 2 -4 2q-5 0 -35 -10
q-53 -22 -91.5 -50t-82.5 -77q-87 -96 -139 -178q-32 -54 -61 -123.5t-29 -85.5z" />
    <glyph glyph-name="m" unicode="m" horiz-adv-x="1806" 
d="M1626 197q124 93 266 245q39 39 86 107q30 38 44.5 51.5t33.5 22.5q16 4 27 4q36 0 75 -21.5t62 -54.5q14 -20 14 -41q0 -27 -22 -49q-3 -3 -8.5 -9.5t-13 -16t-13.5 -15.5q-162 -199 -301 -311q-39 -37 -96 -71.5t-99 -49.5q-50 -17 -108 -17q-130 0 -258 78
q-52 31 -73.5 54t-27.5 55q-2 6 -2 22q0 78 76 205q15 24 33 51q29 47 88 133q35 50 35 60q0 4 -4 4q-6 0 -54 -23q-121 -58 -211.5 -144t-232.5 -276q-106 -142 -129 -170q-27 -33 -36 -41t-21 -8q-23 0 -69.5 18.5t-84.5 43.5q-49 32 -49 55q0 18 20 51q58 103 168 269
q181 279 181 294q0 7 -11 7q-20 0 -64 -20t-85 -50q-52 -34 -119 -93.5t-111 -109.5q-25 -25 -45 -49q-50 -51 -139.5 -160t-120.5 -155q-13 -22 -19.5 -26.5t-21.5 -4.5q-37 0 -112 39.5t-84 62.5q-2 2 -2 11q0 80 233 411q126 182 171.5 242t62.5 67q6 3 16 3
q52 0 137 -50q21 -12 33 -12q8 0 29 6q71 23 139 23q93 0 181.5 -32t148.5 -89q17 -14 24 -14q10 0 29 8q126 52 268 90q46 12 74 12q32 0 96 -28q62 -31 80.5 -52t18.5 -61q0 -56 -20 -102.5t-83 -137.5q-10 -14 -51 -76q-15 -21 -25 -36q-42 -62 -71 -120.5t-29 -80.5
q0 -6 2 -8t8 -2q23 0 73.5 24t92.5 58z" />
    <glyph glyph-name="n" unicode="n" horiz-adv-x="1310" 
d="M1161 -2q-42 -10 -78 -10q-124 0 -270 96q-82 54 -82 121q0 58 53 155t177 277q30 47 30 53q0 4 -8 4q-19 0 -105 -42t-157 -85q-172 -106 -301 -241q-147 -160 -209 -275q-19 -34 -24.5 -39.5t-22.5 -5.5q-33 0 -103.5 35.5t-85.5 60.5q-6 8 -6 25q1 27 44.5 114.5
t109.5 196.5q4 5 39 64q29 47 76 113.5t82.5 113t78 102t43.5 56.5q5 8 21 8q22 0 94 -31q105 -54 105 -92v-4q0 -2 -9 -20q102 49 147 69.5t116 44.5t128 31h17q86 0 178 -53q43 -26 59.5 -43t16.5 -39q0 -5 -4 -25q-6 -25 -30 -63.5t-120 -175.5q-90 -130 -142 -224
t-52 -123q0 -6 4 -10q2 -2 8 -2q22 0 75 26t103 62q47 33 117.5 97.5t120.5 119.5q95 105 123 150q17 26 36 26q20 0 78 -34q88 -50 88 -86q-3 -37 -194 -238q-62 -65 -103 -100q-158 -137 -262 -160z" />
    <glyph glyph-name="o" unicode="o" horiz-adv-x="1275" 
d="M1198 311q-19 -1 -27.5 -7t-27.5 -30q-84 -112 -205.5 -190.5t-237.5 -97.5q-28 -4 -45 -4q-77 0 -174.5 39t-179.5 104q-65 52 -100 126t-35 157q0 98 47 190q47 98 160 183.5t211 97.5q121 92 213 110q16 4 53 4q96 0 211 -63q123 -65 174 -139.5t51 -192.5v-57
q2 -2 8 -2q24 0 97.5 28.5t126.5 57.5q45 20 59 20q23 0 39 -24q28 -34 47.5 -74.5t19.5 -63.5q0 -6 -4 -14q-8 -12 -49.5 -35.5t-103.5 -50t-151.5 -48t-176.5 -24.5zM1022 836q-11 14 -39 14q-61 0 -124.5 -62.5t-63.5 -154.5q0 -26 6 -53q13 -55 44 -80t85 -25
q28 0 37 6.5t26 38.5q58 119 58 217q0 67 -29 99zM580 625q-4 4 -9 4q-12 0 -41 -33q-118 -127 -118 -281q0 -69 26 -125q13 -28 22 -37.5t27 -9.5q7 0 31 4q86 21 192 81.5t164 125.5q15 19 15 23q0 11 -60 39q-168 83 -235 188q-11 18 -14 21z" />
    <glyph glyph-name="p" unicode="p" horiz-adv-x="1216" 
d="M1204 467q107 67 234 160q36 26 49 26q11 0 25 -6.5t32 -21t28 -23t31.5 -29.5t22.5 -22q10 -10 10 -21q0 -17 -37 -38q-197 -148 -375.5 -244.5t-381.5 -169.5q-74 -27 -113 -43q-112 -41 -172 -57.5t-106 -16.5q-66 0 -166 47q-41 21 -66 21q-12 0 -18 -6
q-9 -9 -93 -176t-124 -257q-84 -191 -99 -233q-16 -39 -34.5 -85t-29 -71.5t-11.5 -27.5q-10 -13 -29 -13q-32 0 -96 31q-103 50 -103 86v2q2 9 52.5 134.5t78.5 189.5q45 105 86 192q12 29 76 156.5t82 161.5l94 180q68 132 215 397q78 143 101 166q9 12 28 12
q33 0 119 -47q16 -8 25 -8q11 0 41 12q119 52 219 52q106 0 219 -58q111 -55 141 -114q19 -43 19 -103q0 -54 -15 -115q-8 -36 -8 -38q0 -7 6 -7q4 0 43 25zM948 741q-4 4 -16 4q-35 0 -109.5 -28.5t-136.5 -65.5q-64 -39 -110 -76t-113 -104l-18.5 -18.5t-16.5 -16
t-12 -12.5t-11.5 -14.5t-9.5 -14.5q-17 -23 -76 -139q-8 -15 -21.5 -41t-16.5 -31q-17 -31 -17 -39q0 -10 21 -10q19 0 65 6q175 23 324 120.5t229 240.5q22 40 37.5 100.5t15.5 102.5q0 28 -8 36z" />
    <glyph glyph-name="q" unicode="q" horiz-adv-x="1169" 
d="M1587 502v-4q0 -21 -84 -125q-97 -122 -259.5 -237.5t-293.5 -151.5q-35 -8 -35 -17q0 -6 15 -24q47 -61 47 -146q0 -87 -51 -211q-28 -67 -92 -178q-69 -118 -176 -198.5t-201 -86.5h-15q-96 0 -209.5 57.5t-119.5 110.5v4q0 59 161 351q4 6 10.5 18.5t16.5 31t16 28.5
q35 64 39 69q2 4 13 24t18 31q13 26 31 56q47 90 47 102q0 4 -2 4q-15 0 -29 -4q-39 -8 -69 -8q-25 0 -35 2q-92 15 -181 69t-106 105q-8 21 -8 55q0 67 45 174q49 115 114 191t173 147q82 54 217 72q20 4 53 4q39 0 80 -10q78 -20 137 -53q40 -21 45 -21q6 0 25 19
q18 18 26 22q2 0 6.5 1t6.5 1q25 0 66 -17.5t73 -43.5q22 -16 22 -31q0 -19 -32 -82q-39 -83 -154 -274q-90 -150 -98 -181v-2q0 -6 8 -6q30 0 130 60t183 133q49 42 112.5 113.5t106.5 132.5q22 36 39 38h4q31 0 94 -43.5t70 -70.5zM797 686q-8 4 -21 4q-61 0 -129 -33
q-78 -38 -157.5 -109t-122.5 -140q-33 -52 -62 -137.5t-29 -123.5q0 -10 3 -16q4 -4 10 -4q8 0 71 29q265 138 379 325q28 45 46 97.5t18 83.5q0 18 -6 24zM752 -41q-4 4 -9 4q-9 0 -24 -31q-1 -1 -10 -18t-13 -25q-17 -29 -26 -51q-10 -15 -21 -37q-6 -9 -26 -49
q-39 -65 -60 -106q-89 -163 -112 -207q-26 -47 -37 -72q-34 -62 -35 -69v-3q0 -6 6 -6q7 0 51 29q113 85 211 240.5t125 285.5q2 10 2 31q0 65 -22 84z" />
    <glyph glyph-name="r" unicode="r" horiz-adv-x="1003" 
d="M573 1073q2 0 6.5 1t6.5 1q39 0 100.5 -33.5t61.5 -56.5q0 -7 -23 -33q-53 -67 -63 -88l-9 -18q0 -6 11 -6q12 0 53 12q71 22 98 22q33 0 94 -30q59 -30 82 -48t23 -42q0 -23 -19 -54.5t-67 -93.5q-105 -136 -164 -241q-64 -113 -78 -181q-2 -6 -2 -14q0 -12 10 -12
q13 0 62 22q147 66 263 167t220 253q12 18 19 23.5t16 5.5h10q26 -3 100 -64q35 -32 38 -43q1 -3 1 -6q0 -15 -18 -33q-4 -4 -8.5 -10.5t-9.5 -13.5t-7 -10q-88 -110 -122.5 -151.5t-89 -91.5t-128.5 -102q-64 -44 -145 -77.5t-129 -36.5h-10q-64 0 -159 49t-122 98
q-29 53 -29 107v8q3 60 53.5 164t133.5 221q26 36 26 47q0 10 -36 21q-71 25 -128.5 62t-70.5 67q-8 13 -8 38q0 41 28 86q23 33 66 71t63 44z" />
    <glyph glyph-name="s" unicode="s" horiz-adv-x="1085" 
d="M604 641q0 76 -29 109q-12 15 -31 24t-53.5 19.5t-52.5 17.5q-24 9 -24 33q0 31 49 92q32 39 63 55q9 6 21 6t39 -6q155 -32 190 -67q10 -10 10 -25q0 -8 -7 -36t-7 -46q0 -31 21 -69q51 -84 51 -220q0 -150 -53 -303q-9 -24 -9 -30q0 -5 4 -5q5 0 11 3q57 19 270 186
q22 18 133 113q45 42 113 100q26 26 41 26q12 0 20 -4q27 -10 63 -67.5t36 -87.5v-8q0 -24 -66 -82q-60 -54 -96 -80q-273 -223 -523 -307q-119 -41 -215 -41q-65 0 -145 18q-21 5 -68 8q-87 1 -182.5 39t-159.5 94q-90 75 -90 140q0 54 68 84q28 14 55 14q64 0 80 -90
q1 -3 5 -17.5t10.5 -36.5t11.5 -42q9 -31 18.5 -41.5t28.5 -10.5q14 0 22 2q208 25 314 199q51 84 63 313v27z" />
    <glyph glyph-name="t" unicode="t" horiz-adv-x="655" 
d="M520 -16q-64 -31 -117 -31q-75 0 -178 53q-88 43 -126 86.5t-38 102.5q0 43 25 116q52 150 205 426q29 53 86 148q-42 4 -43 4q-67 15 -125.5 50.5t-58.5 59.5q0 9 12 15q6 2 96 2q11 0 80.5 -1t118.5 -1q49 77 69 106q6 7 13 17.5t12 17.5t8 10l8 11q12 4 21 4
q26 0 84 -23q82 -32 102 -42.5t23 -22.5q2 -4 2 -11q0 -9 -29 -57l-6 -10h61q49 0 105 -31q100 -47 100 -78q0 -16 -29 -22q-24 -4 -180 -4h-149q-56 -85 -104 -168t-72.5 -130.5t-96.5 -187.5q-54 -105 -86 -192q-18 -59 -18 -76q0 -12 8 -12q1 0 3 1t3 1q36 11 135 77.5
t172 131.5q158 138 269 266q10 14 22 26q2 2 8 2q32 0 97 -43t69 -71v-2q0 -29 -114 -156q-94 -101 -152 -149q-58 -49 -153.5 -119t-141.5 -94z" />
    <glyph glyph-name="u" unicode="u" horiz-adv-x="1239" 
d="M1446 285q-37 -37 -66.5 -63t-59 -49.5t-38.5 -31.5q-23 -16 -65 -51q-170 -133 -252 -133q-15 0 -23 2q-69 10 -147.5 50.5t-124.5 88.5q-15 15 -21 15q-8 0 -49 -41q-52 -49 -90 -64q-43 -16 -86 -16q-89 0 -195 59q-81 41 -116 80.5t-35 97.5q0 61 49 187
q30 78 103 212.5t124 202.5q26 35 34 38q5 3 13 3q35 0 103.5 -34.5t87.5 -61.5q6 -9 6 -16q0 -13 -59 -113q-99 -164 -142 -252q-35 -71 -60.5 -141t-25.5 -98q0 -9 2 -11t6 -2q30 0 89 52q7 10 34 32q24 20 154 150q112 112 147 153q28 34 162 232q34 51 49 65.5t35 14.5
h6q27 -1 82 -28.5t80 -51.5q14 -14 14 -31q0 -30 -59 -115q-142 -206 -191 -295.5t-61 -168.5q-2 -8 -2 -15q0 -16 12 -16q10 0 33 10q160 68 348 240q22 17 78 69q80 77 125 150q17 26 37 26t78 -34q71 -39 71 -60q-3 -36 -194 -237z" />
    <glyph glyph-name="v" unicode="v" horiz-adv-x="1177" 
d="M997 903q6 6 11 6h6q41 -5 71 -20q122 -56 136 -92q8 -20 8 -62q0 -20 -2 -30q-5 -56 -27.5 -127.5t-56.5 -126.5q-120 -195 -305 -316q-106 -69 -212.5 -114.5t-164.5 -45.5q-23 0 -53 9q-46 12 -89 30q-82 42 -116 76q-17 22 -19 43q0 13 11 49q20 67 98 262
q66 166 90.5 238.5t44.5 151.5q2 6 4.5 15t4 14t1.5 7q6 11 25 11q17 0 29 -4q4 -1 9 -2.5t7.5 -3t3.5 -1.5t33 -12q112 -54 121 -90v-8q0 -14 -17 -78q-39 -134 -123 -344q-59 -149 -59 -156q0 -2 2 -2q7 0 31 15q176 92 288 204q68 71 111 142q36 64 64 140t32 130
q0 5 1 13t1 10q0 10 -6 57q0 8 6 12z" />
    <glyph glyph-name="w" unicode="w" horiz-adv-x="1536" 
d="M182 547q114 197 234 348q1 0 4.5 1t5.5 1q36 0 107 -35.5t83 -60.5l5 -15q0 -2 -0.5 -4.5t-2.5 -6.5l-3.5 -7t-5.5 -9t-7.5 -11t-10 -13.5t-12 -16t-15 -20.5t-17.5 -24q-98 -134 -178.5 -286t-87.5 -220v-8q0 -10 4 -10q11 0 84 53q55 45 100 82q43 37 106 100t105 113
q66 77 91 111.5t50 86.5q33 64 50.5 85.5t37.5 21.5h6q44 -6 109.5 -42.5t73.5 -58.5q0 -1 1 -3.5t1 -4.5q0 -31 -74 -141q-34 -54 -49.5 -89.5t-46.5 -125.5q-41 -127 -41 -195q1 -15 2.5 -22.5t4.5 -12t9 -4.5q11 0 51 19q145 76 232 207q55 90 55 100q0 1 12 29
q38 83 64.5 176.5t26.5 146.5q0 16 -3 25q-4 14 -4 31q0 14 13 20q2 2 10 2q33 0 100.5 -33t96.5 -63q20 -23 20 -66q0 -39 -23 -116q-85 -289 -200 -424q-73 -85 -170.5 -140.5t-179.5 -60.5h-5q-47 0 -116.5 28.5t-128.5 71.5q-42 31 -60 76q-9 25 -18 25q-6 0 -43 -29
q-191 -154 -279 -154h-8q-46 4 -115.5 36t-113.5 69q-60 54 -60 133q0 113 123 334z" />
    <glyph glyph-name="x" unicode="x" 
d="M1040 1022q4 2 15 2q40 0 99.5 -29.5t66.5 -54.5v-6q0 -40 -109 -152q-70 -74 -100 -110q-7 -6 -19.5 -20.5t-15.5 -18.5q-4 -4 -14.5 -16.5t-14.5 -16.5q-67 -77 -86 -104q-3 -3 -33 -39q-63 -81 -67 -95v-4q0 -24 38.5 -108t63.5 -111q14 -14 21 -28q14 -21 18 -25
q35 -38 35 -66q0 -18 -23 -18q-2 0 -6 1t-6 1q-41 8 -102 39.5t-90 60.5q-2 2 -13.5 16.5t-17.5 22.5q-25 37 -31 37q-5 0 -10 -8q-18 -18 -72 -156q-13 -35 -20 -44.5t-19 -12.5q-2 0 -5 -1t-5 -1q-38 0 -103.5 33.5t-82.5 62.5q-8 12 -8 23q0 18 24 76q57 141 133 256
q4 7 10 16t9 13t7 10t5.5 9t3 6.5t2 6.5t0.5 6t-8 35q-45 196 -47 207q-3 16 -7.5 36t-9.5 38.5t-6 23.5q-8 40 -8 45q0 21 25 21q38 -2 86 -12.5t67 -28.5q12 -12 18.5 -25.5t16.5 -45t19 -54.5q13 -35 20 -35t88 96q5 6 19.5 21.5t19.5 21.5q17 17 37 41
q49 57 107.5 105.5t84.5 56.5z" />
    <glyph glyph-name="y" unicode="y" horiz-adv-x="1251" 
d="M1235 383q116 88 227 215q33 39 45 39q8 0 31 -10q40 -21 74.5 -64.5t34.5 -70.5v-7q-5 -21 -56 -80t-112 -106q-263 -205 -553 -336q-48 -33 -56 -45q-8 -13 -24 -61q-41 -114 -78 -205q-9 -23 -28 -68t-27 -67q-60 -138 -137.5 -236t-159.5 -139q-102 -51 -197 -51
q-115 0 -237 73q-56 33 -79.5 61.5t-23.5 67.5q0 28 17 84q24 78 159 199q4 4 12.5 11t14.5 12t10 8t14.5 12t26 22.5t35.5 30.5q4 3 17.5 14.5t17.5 14.5q135 114 389 295q53 39 53 61q0 6 -4 6q-5 0 -35 -18q-107 -70 -186 -70q-69 0 -156 43q-189 91 -192 207v8
q0 73 49 177q44 96 112 224t115 191q26 35 34 38q5 3 13 3q35 0 103.5 -34.5t87.5 -61.5q6 -9 6 -16q0 -12 -60 -113q-94 -156 -141 -252q-66 -130 -82 -190q-10 -38 -10 -52q0 -18 12 -18q9 0 21 6q66 31 150 108t161 177q12 16 33 43q141 183 221 297q20 28 27 35t16 8h6
q36 0 112 -40.5t83 -64.5q2 -6 2 -18q0 -35 -43 -135q-1 -4 -37 -90q-72 -182 -109 -258q14 0 106 60.5t175 125.5zM487 -352l-4 4q-16 0 -227 -176q-146 -125 -164 -199q-4 -12 -4 -29q0 -16 14 -16q9 0 39 10q66 23 119.5 65t108.5 115q33 43 75.5 124.5t42.5 99.5v2z" />
    <glyph glyph-name="z" unicode="z" horiz-adv-x="1353" 
d="M1032 166q16 3 109.5 64t171.5 122q116 88 227 215q33 39 45 39q8 0 31 -10q43 -23 79 -66t36 -69v-6q-5 -20 -58.5 -78.5t-116.5 -108.5q-278 -214 -557 -338q-37 -153 -59 -223q-18 -54 -33 -88q-5 -7 -14 -35q-12 -30 -96 -231q-47 -112 -94 -182.5t-107 -120.5
q-98 -82 -168 -82q-49 0 -111 26q-136 58 -163 146q-19 62 -19 106q0 74 46 156.5t157 210.5q25 29 78.5 83t81.5 77q18 18 26 24q17 17 35 29q24 20 33 29q12 10 75 58t81 60q30 22 36 35.5t15 77.5q4 28 4 68q0 47 -4 55t-13 8q-10 0 -47 -16q-55 -27 -107 -75t-114 -128
q-21 -27 -35 -27q-12 0 -30 6q-50 13 -102 44.5t-60 52.5q-2 4 -2 10q0 11 47 78q109 155 182 295q44 85 74.5 166t30.5 106q0 10 -7 10t-98 -86q-44 15 -79 39t-44 45q-10 20 -10 39q0 37 41 84q82 94 188 94q15 0 39 -4q55 -12 117 -45t82 -61q18 -24 18 -74
q0 -127 -108 -352q-23 -48 -23 -53q0 -14 41 -25q77 -26 132 -65.5t79 -84.5q13 -26 29 -26q2 0 6 1t6 1zM655 -373q0 4 -2 4q-10 0 -71 -61q-58 -58 -66 -68q-2 -3 -17.5 -21t-23.5 -28q-78 -92 -112.5 -159.5t-34.5 -127.5v-6q3 -32 12 -32q11 0 37 20q111 82 198 279
q80 178 80 200z" />
    <glyph glyph-name="bar" unicode="|" horiz-adv-x="552" 
d="M532 1458q8 4 17 4q42 0 115.5 -40.5t80.5 -71.5v-9q0 -67 -112 -362q-27 -69 -160 -428q-4 -10 -14.5 -38t-14.5 -38q-20 -57 -59 -162t-76 -209q-26 -77 -35.5 -89.5t-40.5 -12.5q-84 3 -151 70q-3 3 -9 8.5t-8 8t-5.5 6.5t-5 7t-2.5 7t-1 8q0 15 37 119q55 129 82 225
q7 21 27 71q4 12 12 34.5t8 23.5q5 17 24.5 69.5t52 139.5t54.5 147q127 327 164 467q10 40 20 45z" />
    <glyph glyph-name="asciitilde" unicode="~" horiz-adv-x="2" 
 />
    <glyph glyph-name="nbspace" unicode="&#xa0;" horiz-adv-x="460" 
 />
    <glyph glyph-name="exclamdown" unicode="&#xa1;" horiz-adv-x="552" 
d="M254 2q-8 -4 -16 -4q-42 0 -116 41t-81 72v8q0 64 113 362q46 119 71 185q4 10 14.5 37.5t14.5 37.5q10 28 82 228q26 77 35.5 89.5t40.5 12.5q84 -3 151 -70q3 -3 9 -8.5t8 -8t5.5 -6.5t5 -7t2.5 -7t1 -8q0 -14 -37 -118q-18 -44 -29 -82q-14 -42 -26 -72
q-3 -12 -11.5 -32.5t-9.5 -24.5q-2 -5 -8.5 -22.5t-16.5 -43.5t-18 -47q-127 -327 -164 -467q-10 -40 -20 -45zM678 1208q-8 -4 -19 -4q-45 0 -125.5 42.5t-87.5 72.5q-2 4 -2 16q0 31 19 72t39 51q12 4 20 4q50 0 129 -45q51 -27 72.5 -47.5t21.5 -44.5q0 -23 -26 -70
q-19 -34 -41 -47z" />
    <glyph glyph-name="cent" unicode="&#xa2;" horiz-adv-x="1097" 
d="M768 920q9 6 23 6q26 0 83 -31q30 -16 42 -29t12 -32q0 -22 -19 -74q-18 -52 -18 -66q0 -16 24 -37q48 -39 48 -63q0 -21 -29 -21q-18 0 -45 9q-19 8 -31 8q-10 0 -16 -15q-46 -107 -76 -200q-8 -28 -8 -31q0 -6 6 -6q4 0 29 14q53 35 96 35q46 0 108 -41q22 -15 36 -36
t14 -38q0 -2 -1.5 -5.5t-1.5 -4.5q-6 -22 -68 -64.5t-118 -62.5q-99 -35 -160 -35q-23 0 -32 -18q-5 -10 -26 -73t-28 -91q-9 -31 -15.5 -39.5t-23.5 -9.5h-4q-26 0 -78.5 24t-84.5 50q-21 18 -21 43q0 27 21 94q18 55 18 70q0 12 -6.5 18t-26.5 17l-6 3q-231 130 -231 277
q0 33 12 70q23 72 92.5 144.5t140.5 98.5q77 25 142 25h8q60 -9 74 -12q32 -7 39 -7q11 0 16.5 6t17.5 27q48 91 72 103zM596 627q-3 6 -8 6q-21 0 -74 -48t-86 -98q-41 -62 -41 -125q0 -58 41 -102q11 -14 21 -14q12 0 34 65q60 172 88 240q25 71 25 76z" />
    <glyph glyph-name="sterling" unicode="&#xa3;" horiz-adv-x="1155" 
d="M788 1386q28 7 54 7q119 0 272 -101q117 -79 117 -196q0 -70 -47 -129q-16 -19 -45 -19q-33 0 -80 27q-28 15 -38.5 29t-10.5 38q0 19 2 31q6 34 6 64q0 48 -11.5 79t-31.5 31q-23 0 -60.5 -22t-68.5 -54q-64 -63 -107.5 -161t-58.5 -215q0 -7 -1 -16t-1 -11
q0 -18 7.5 -23t35.5 -8q48 -9 76.5 -21.5t68.5 -41.5q43 -34 43 -47q0 -1 -1 -3t-1 -3q-3 -17 -41 -17q-7 0 -57 4q-35 2 -88 2q-7 0 -17 -0.5t-14 -1t-9 -1.5t-8 -2.5t-5 -4.5q-7 -7 -13 -47q-12 -83 -30 -137q-14 -42 -43 -94.5t-52 -77.5q-16 -19 -16 -27q2 -2 2 -4
q1 -4 39 -29q6 -4 21.5 -15t21.5 -15q3 -2 8 -6t7 -5.5t5.5 -4t5.5 -3.5l5 -2.5t5 -1.5t5 -1t6.5 -1h7.5q53 0 116.5 44t98.5 108q16 29 37 38q14 7 29 7q47 0 103.5 -36.5t68.5 -76.5q0 -2 1 -6t1 -6q0 -46 -68.5 -113t-136.5 -86q-27 -8 -67 -8q-76 0 -164 29t-162 79
q-39 28 -49 30q-6 1 -19 1h-10q-30 0 -53 -6t-84 -31q-27 -10 -45 -10q-29 0 -96 31q-103 53 -103 86q0 32 86 53q90 25 164 108t100 189q2 10 2 20t-6 14.5t-28 10.5q-46 14 -93.5 40t-60.5 46q-8 12 -8 18q0 33 184 41q28 1 35 8.5t10 36.5q0 4 3 27t7 55
q25 217 114.5 352.5t227.5 163.5z" />
    <glyph glyph-name="yen" unicode="&#xa5;" horiz-adv-x="1140" 
d="M659 -100q-8 -4 -16 -4q-31 0 -84 21.5t-95 50.5t-42 48q0 6 12.5 22.5t22.5 22.5q12 6 75 103q-24 3 -30 6q-63 23 -116.5 65t-53.5 66q0 11 14 14q20 0 96 -10q47 -8 162 -22q4 6 11.5 19.5t11.5 19.5q5 10 12 22t10.5 19t5.5 12q-131 20 -206 84q-37 34 -37 49
q0 16 39 16h20q20 -2 43 -2h51q-1 2 -4 9t-4 12q-54 134 -78 303q-5 43 -6 49q-6 71 -8 127q0 52 -4 68q0 1 -1 37t-1 63q0 28 1 65l1 37q4 16 4 33q3 27 12 33q4 2 15 2q24 0 65.5 -16.5t77.5 -40.5q32 -22 43 -43t16 -68q0 -7 1 -20t1 -15q2 -6 2 -49q0 -35 4 -55
q0 -1 1.5 -34.5t1.5 -57.5q1 -37 8 -154q6 -68 20 -139t23 -82q4 -4 6 -4q5 0 12 10.5t27 48.5q80 149 125.5 266t91.5 287q36 122 47 131q6 6 20 6q35 0 94 -28.5t87 -61.5q14 -17 14 -47q0 -56 -66 -272q-56 -181 -161 -383q-19 -33 -37 -70q57 -22 104 -60t47 -61
q0 -6 -4 -10q-4 -8 -20 -8q-18 0 -129 12q-42 4 -64 8l-4 -10q-7 -14 -53 -92q30 -1 53.5 -10.5t59.5 -32.5q90 -58 90 -88q0 -18 -33 -21h-4q-24 0 -238 27q-121 -205 -162 -223z" />
    <glyph glyph-name="dieresis" unicode="&#xa8;" 
d="M578 1217q8 2 28 2q78 0 156 -31q33 -11 33 -33q0 -18 -33 -65q-25 -39 -47.5 -53.5t-57.5 -14.5q-13 0 -49 4q-121 21 -121 72v4q3 25 36 67t55 48zM977 1206q8 2 29 2q45 0 100 -16q43 -13 60.5 -24.5t17.5 -30.5q0 -26 -33 -76q-24 -38 -42.5 -52t-49.5 -14
q-23 0 -58 6q-114 15 -114 74q0 32 35 82q19 27 28 35t27 14z" />
    <glyph glyph-name="copyright" unicode="&#xa9;" horiz-adv-x="1591" 
d="M825 1190q12 2 72 2q91 0 119 -4q136 -23 276.5 -99.5t206.5 -162.5q40 -54 66 -141t26 -164q0 -33 -6 -60q-22 -105 -86 -224t-139 -192q-44 -43 -115.5 -87.5t-134.5 -69.5q-107 -43 -242 -43q-157 0 -311 59q-215 86 -308 211.5t-95 327.5q0 51 1.5 67.5t10.5 55.5
q69 271 340 434q65 39 127 57.5t192 32.5zM1171 1057q-40 4 -112 4h-25q-13 0 -45 -4q-132 -9 -212 -31.5t-140 -64.5q-211 -148 -268 -422q-4 -32 -4 -60q0 -75 16 -153q15 -71 52.5 -137t72.5 -83q56 -32 184 -32q117 0 216.5 30t197.5 103q101 75 181.5 236.5t80.5 279.5
q0 59 -22 133t-52 119q-28 41 -53 58t-68 24zM846 922q8 2 24 2q79 0 187.5 -56t134.5 -114q12 -27 12 -56q0 -37 -20.5 -64.5t-50.5 -27.5q-5 0 -21 4q-41 13 -59 31.5t-21 48.5q-8 80 -35 80q-17 0 -45 -14q-83 -41 -160 -154.5t-77 -193.5q0 -39 14 -39q13 0 53 24
q44 24 88 80q26 35 43 35q2 0 8 -1t9 -1q57 -6 120.5 -46t63.5 -69q0 -47 -96.5 -115t-167.5 -71h-6q-77 0 -192 65.5t-144 126.5q-27 62 -27 105q0 64 43 151q116 229 322 269z" />
    <glyph glyph-name="ordfeminine" unicode="&#xaa;" horiz-adv-x="860" 
d="M727 1358q6 2 21 2q82 0 178 -68q7 -3 14 -7t10 -5.5t6 -1.5t4.5 1.5t6 7.5t8.5 11q12 20 20.5 27.5t20.5 7.5q8 0 12 -2q41 -10 86.5 -30.5t56.5 -36.5q5 -2 5 -13q0 -8 -11 -30q-14 -28 -26 -58q-23 -46 -25 -49q-28 -51 -57 -123q-49 -125 -49 -200q0 -8 2 -24t2 -24
q0 -18 -17 -18q-33 0 -98 29q-39 20 -58 36.5t-28 40.5q-6 17 -8 17q-9 0 -23 -14q-85 -67 -143 -97t-107 -30q-12 0 -36 4q-45 11 -95.5 38.5t-72.5 53.5q-41 54 -41 106q0 72 49 159t137 165q116 102 256 125zM803 1200q0 4 -6 4q-5 0 -21 -8q-69 -31 -133.5 -103.5
t-87.5 -144.5q-12 -54 -12 -67q0 -25 10 -25q12 0 74 43q67 54 113 121t61 133q4 24 4 35q0 4 -1 8z" />
    <glyph glyph-name="guillemotleft" unicode="&#xab;" horiz-adv-x="1228" 
d="M541 885q12 6 26 6q31 0 95 -31q92 -44 92 -74q0 -10 -7.5 -17.5t-48.5 -35.5q-8 -5 -29.5 -20.5t-29.5 -20.5q-10 -6 -40.5 -28t-43.5 -31q-55 -38 -86 -62q-34 -24 -53 -39q-19 -11 -43 -32q-7 -4 -22 -14.5t-19 -12.5q-27 -18 -27 -29q0 -4 4 -12q12 -21 49.5 -60.5
t71.5 -68.5q72 -63 119 -98q44 -33 53 -39q62 -46 62 -70q0 -8 -7 -12q-8 -4 -14 -4q-34 0 -102 34t-99 66q-3 3 -53 43q-15 10 -40.5 29t-29.5 22q-20 20 -32 29q-58 50 -76 68q-7 6 -20 19t-17 16q-29 27 -64.5 73t-41.5 64q-1 2 -2 5t-2 5t-1 4q0 13 31 29q6 4 21.5 14
t21.5 14q316 234 404 271zM1042 819q4 2 13 2q36 0 97 -33t73 -61q2 -4 2 -12q0 -17 -49 -66q-95 -90 -205 -162q-18 -10 -50.5 -31.5t-39.5 -25.5q-29 -22 -107 -65q-31 -19 -31 -31q0 -10 25 -29q27 -17 98 -74q19 -16 56 -43q37 -23 69 -55q1 -1 5 -4.5t10.5 -9
t11.5 -10.5q29 -26 29 -39q0 -9 -11 -13q-4 -2 -14 -2q-32 0 -96 34.5t-115 80.5q-7 7 -47 39q-30 20 -49 39q-59 46 -103 78q-63 44 -89.5 68t-26.5 42q0 16 18.5 31t61.5 37q3 2 100 63q23 18 74 49q47 29 143 103q122 92 147 100z" />
    <glyph glyph-name="registered" unicode="&#xae;" horiz-adv-x="1654" 
d="M850 1282q61 10 100 2q15 0 43 -4q41 -5 181 -43q109 -33 214.5 -92.5t147.5 -114.5q47 -56 79 -140t38 -157q0 -4 1 -12t1 -12q0 -103 -57.5 -244.5t-133.5 -226.5q-96 -111 -280 -196t-330 -85q-134 0 -305 73t-268 171q-61 61 -94 151t-33 189q0 71 18 141
q67 272 254 418q89 68 209.5 120.5t214.5 61.5zM1163 1147q-14 2 -94 2h-29q-105 -14 -216.5 -57t-182.5 -101q-64 -51 -122.5 -146.5t-90.5 -201.5q-37 -118 -37 -207q0 -83 31 -148.5t96 -127.5q14 -12 41 -39q19 -19 37.5 -24t69.5 -5q213 0 448 141q119 70 190 175.5
t121 285.5q15 49 15 92q0 59 -33 150q-57 148 -107 172q-15 9 -60 21.5t-77 17.5zM874 999q8 2 29 2q61 0 139.5 -24.5t135.5 -61.5q86 -56 86 -157q0 -22 -7 -53q-9 -41 -41 -70t-98 -55q-24 -8 -24 -19q0 -6 10 -33q21 -43 35 -94q12 -37 12 -53q0 -21 -29 -21
q-27 0 -79.5 26.5t-77.5 51.5q-17 19 -23 45q-12 41 -18 47q-4 6 -39 9q-41 3 -58 8q-21 6 -32 6q-13 0 -19.5 -14.5t-17.5 -63.5q-27 -120 -45 -135q-6 -6 -21 -6q-47 0 -121 49q-27 15 -38 27.5t-11 29.5q0 12 10 39q29 83 37 109q60 207 142 305q5 6 14.5 20t11.5 17
q38 57 137 69zM1067 895q-6 4 -31 4q-50 0 -100 -18q-37 -15 -53.5 -34.5t-30.5 -62.5q-11 -39 -18 -55q-9 -27 -9 -37q0 -12 21 -12q39 0 109.5 26.5t95.5 49.5q32 32 32 94q0 37 -16 45z" />
    <glyph glyph-name="macron" unicode="&#xaf;" 
d="M850 1233l82 2q60 2 116 -22.5t80 -65.5q10 -17 7 -27q-4 -10 -25.5 -14.5t-77.5 -9.5q-97 -9 -221 -9h-100q-27 0 -61.5 1.5t-35.5 1.5q-49 0 -102 47.5t-45 70.5q3 9 22.5 12.5t71.5 2.5q61 -1 171.5 4.5t117.5 5.5z" />
    <glyph glyph-name="degree" unicode="&#xb0;" horiz-adv-x="788" 
d="M713 702h-6q-44 0 -142 37q-118 51 -183 121.5t-65 147.5q0 16 2 24q13 82 57.5 149.5t112.5 108.5q108 68 216 68q14 0 38 -4q77 -14 160.5 -63.5t108.5 -96.5q32 -66 32 -121q0 -108 -118 -244q-100 -118 -213 -127zM561 856q2 -2 8 -2q29 0 92 57.5t105 124.5
q53 87 53 148q0 10 -4 18q-3 6 -14 6t-51 -16q-172 -76 -203 -252q-4 -20 -4 -29q0 -44 18 -55z" />
    <glyph glyph-name="twosuperior" unicode="&#xb2;" horiz-adv-x="790" 
d="M485 1196q12 4 39 4q53 0 116.5 -25.5t115.5 -68.5q49 -37 49 -117q0 -37 -12 -80q-14 -44 -48.5 -84t-128.5 -118q-61 -53 -61 -62q0 -2 2 -4t66 -2q67 0 79 2q10 2 29 2q28 0 76 -22q40 -20 63 -41t23 -37q0 -23 -45 -23h-4q-133 2 -348 2q-68 -3 -154 -33
q-16 -4 -29 -4q-52 0 -120 45q-41 27 -41 43q0 13 18.5 29.5t65.5 50.5q7 6 27.5 21.5t27.5 21.5q6 4 16.5 12.5t19 14.5t13.5 10q44 32 78 62q20 20 35 32q73 64 106 104t43 79q6 21 6 32q0 15 -10 15q-12 0 -51 -31q-22 -19 -31 -23t-27 -4q-31 0 -67.5 20.5t-46.5 43.5
q-4 12 -4 18q0 31 35 67t79 48z" />
    <glyph glyph-name="threesuperior" unicode="&#xb3;" horiz-adv-x="860" 
d="M573 1307q16 4 54 4q70 0 145.5 -26t136.5 -71q64 -49 64 -100q0 -20 -6 -41q-7 -39 -23.5 -63.5t-50.5 -51.5q-27 -20 -27 -24q0 -7 31 -29q37 -29 49 -54t12 -71v-8q0 -49 -17 -81.5t-58 -61.5q-82 -60 -178 -60t-222 60q-88 44 -127 86.5t-39 93.5q0 27 7 34t36 7
q47 0 113 -41q33 -21 46 -38t16 -44q2 -21 7.5 -29t20.5 -8q14 0 41 6q64 18 107.5 56.5t50.5 87.5q2 8 2 18q0 12 -9 15.5t-36 5.5q-59 2 -131 37t-72 63q0 11 10.5 17.5t44.5 15.5q118 36 164 82q18 18 29.5 40.5t11.5 36.5q0 9 -4 13t-16 4q-25 0 -69.5 -17.5
t-76.5 -40.5q-38 -28 -51 -28q-9 0 -24 6q-47 12 -89.5 42t-42.5 52q0 28 52.5 60.5t117.5 44.5z" />
    <glyph glyph-name="acute" unicode="&#xb4;" 
d="M952 1305h23q75 0 145 -27q37 -15 37 -33q0 -7 -6 -16q-6 -10 -42 -32t-71 -38q-97 -43 -120 -51q-134 -55 -216 -55q-28 0 -55 6q-104 17 -104 47q0 9 11.5 16t55.5 21q93 30 178 70.5t119 70.5q21 19 45 21z" />
    <glyph glyph-name="cedilla" unicode="&#xb8;" 
d="M254 39l188 -33l-41 -47q25 -4 72 -20q59 -22 89.5 -49.5t39.5 -67.5q2 -6 2 -21q0 -42 -29 -65q-59 -47 -180 -47q-104 0 -196 32q-48 17 -75.5 37.5t-27.5 38.5q0 24 49 27q8 1 17 2t14 1.5t8 0.5q46 0 103 -31q32 -14 43 -14q4 0 20 4q47 16 47 53q0 12 -6 21
q-6 11 -14 13t-49 7q-44 5 -97 21q-59 18 -59 41q0 16 45 55q9 8 23 23t14 18z" />
    <glyph glyph-name="onesuperior" unicode="&#xb9;" horiz-adv-x="561" 
d="M459 1169q4 2 14 2q37 0 96.5 -29.5t71.5 -56.5q2 -4 2 -18q0 -55 -49 -209q-29 -85 -68 -225q-12 -44 -16 -54.5t-12 -15.5q-8 -4 -17 -4q-44 0 -116 42t-78 73v6q0 33 32 138.5t80 228.5q8 21 20 50t13 31q14 33 27 41z" />
    <glyph glyph-name="ordmasculine" unicode="&#xba;" horiz-adv-x="788" 
d="M713 702h-6q-44 0 -142 37q-118 51 -183 121.5t-65 147.5q0 16 2 24q13 82 57.5 149.5t112.5 108.5q108 68 216 68q14 0 38 -4q77 -14 160.5 -63.5t108.5 -96.5q32 -66 32 -121q0 -108 -118 -244q-100 -118 -213 -127zM561 856q2 -2 8 -2q29 0 92 57.5t105 124.5
q53 87 53 148q0 10 -4 18q-3 6 -14 6t-51 -16q-172 -76 -203 -252q-4 -20 -4 -29q0 -44 18 -55z" />
    <glyph glyph-name="guillemotright" unicode="&#xbb;" horiz-adv-x="1228" 
d="M250 125q-4 -2 -12 -2q-36 0 -97 33t-73 61q-2 4 -2 12q0 17 49 66q97 92 204 162q18 10 51 31.5t40 25.5q37 28 106 66q31 19 31 30q0 10 -25 29q-27 17 -98 74q-23 20 -55 43q-40 25 -70 55q-1 1 -5 4.5t-10.5 9.5t-11.5 11q-28 25 -28 38q0 10 10 13q4 2 14 2
q32 0 96 -34.5t115 -80.5q7 -7 47 -39q30 -20 49 -39q59 -46 103 -78q64 -44 90.5 -68t26.5 -42q0 -16 -18.5 -31t-61.5 -37q-10 -6 -101 -63q-27 -21 -73 -49q-52 -32 -144 -103q-122 -92 -147 -100zM752 59q-12 -6 -27 -6q-30 0 -94 31q-92 44 -92 74q0 11 7.5 18t47.5 35
q8 5 29.5 20.5t29.5 20.5q10 6 40.5 28t43.5 31q55 38 86 62q42 29 54 39q19 11 43 32q7 4 22 14.5t19 12.5q26 17 26 29q0 4 -4 12q-12 21 -49.5 60.5t-71.5 68.5q-72 63 -119 98q-44 33 -53 39q-61 45 -61 70q0 9 6 12q8 4 14 4q34 0 102 -34t99 -66q3 -3 53 -43
q15 -10 40.5 -29t29.5 -22q17 -17 33 -29q51 -44 75 -68q7 -6 20 -18.5t17 -15.5q29 -27 65 -73.5t42 -64.5q4 -12 4 -14q0 -13 -31 -29q-6 -4 -21.5 -14t-21.5 -14q-318 -235 -403 -271z" />
    <glyph glyph-name="onequarter" unicode="&#xbc;" horiz-adv-x="1744" 
d="M1159 1403q4 2 15 2q36 0 93 -31.5t64 -56.5q0 -1 1 -4t1 -4q0 -68 -219 -375q-82 -117 -135 -205q-23 -34 -41 -67q-100 -159 -131 -216q-2 -3 -24 -39.5t-33 -54.5q-54 -91 -158 -272q-41 -76 -57 -101t-27 -28q-2 0 -5 -1t-5 -1q-39 0 -111.5 36.5t-85.5 65.5
q-4 4 -4 15q0 14 31 67q4 9 11.5 22t16 27.5t11.5 20.5q34 65 108 190q174 292 246 408q78 128 149 230t193 261q67 90 78 99q7 9 18 12zM514 1364q4 2 12 2q35 0 98.5 -33.5t75.5 -60.5q5 -10 5 -21q0 -59 -105 -340q-23 -58 -33 -63q-4 -2 -14 -2q-41 0 -112.5 36
t-86.5 66q-2 4 -2 15q0 30 56 163q65 165 73 187q17 46 33 51zM1241 825q1 0 4 1t4 1q27 0 67 -22t50 -43q4 -12 4 -19q0 -17 -18.5 -49.5t-73.5 -113.5q-33 -50 -33 -62q0 -7 8 -8.5t33 -1.5q79 0 100 14q13 7 35 49q71 131 125 209q13 19 35 19q3 0 9 -1t9 -1
q41 -7 88 -35.5t56 -50.5q2 -4 2 -13q0 -37 -84 -204q-11 -21 -25.5 -50.5t-24 -48t-12.5 -24.5q-32 -65 -94 -232q-15 -44 -25 -60t-22 -18h-8q-36 0 -109 36.5t-86 62.5q-4 8 -4 12q0 2 17 55q45 112 45 135v5q-6 6 -41 6q-25 0 -39 -2q-88 -9 -94 -9q-35 0 -61.5 8.5
t-69.5 30.5q-53 27 -74 44t-21 36q0 14 39 60q15 20 33 41q65 80 145 149q13 13 58 53q36 36 53 41z" />
    <glyph glyph-name="onehalf" unicode="&#xbd;" horiz-adv-x="1533" 
d="M983 1182q4 2 12 2q27 0 72.5 -21.5t67.5 -44.5q12 -12 12 -24q0 -20 -41 -103q-78 -164 -113 -227q-38 -76 -67 -133q-13 -25 -27 -52.5t-23 -44.5t-10 -20q-9 -14 -58 -112.5t-60 -122.5q-3 -8 -13.5 -30.5t-13.5 -29.5q-2 -5 -13.5 -30t-17.5 -35q-3 -7 -15 -33
l-18 -39q-18 -36 -30 -64q-12 -29 -18.5 -37.5t-18.5 -11.5q-1 0 -4 -1t-4 -1q-36 0 -102.5 35t-76.5 61q-2 4 -2 13q0 22 45 117q13 27 31 64.5t33 70.5q68 153 149 303q26 46 70 131q28 58 102 190q7 16 23 43q92 174 129 187zM377 1169q4 2 14 2q37 0 96.5 -29.5
t71.5 -56.5q2 -4 2 -18q0 -55 -49 -209q-29 -85 -68 -225q-12 -44 -16 -54.5t-12 -15.5q-8 -4 -17 -4q-44 0 -116 42t-78 73v6q0 33 32 138.5t80 228.5q8 21 20 50t13 31q14 33 27 41zM1085 700q15 5 39 5q52 0 115.5 -26t116.5 -69q49 -37 49 -116q0 -36 -12 -80
q-14 -45 -48.5 -85.5t-127.5 -117.5q-58 -51 -61 -58q-1 -1 -1 -3q0 -3 2 -5t66 -2q68 0 80 2q10 2 28 2q28 0 76 -22q40 -20 63 -41t23 -37q0 -22 -45 -22h-4q-133 2 -348 2q-68 -3 -154 -33q-16 -4 -29 -4q-52 0 -120 45q-41 27 -41 43q0 13 18.5 29.5t65.5 50.5
q7 6 27.5 21.5t27.5 21.5q6 4 16.5 12.5t19 14.5t13.5 10q50 35 78 61q25 25 35 33q74 64 106.5 103.5t42.5 78.5q6 21 6 33q0 14 -10 14q-12 0 -51 -31q-22 -19 -30 -22.5t-27 -3.5q-31 0 -68 20t-47 43q-4 12 -4 19q0 31 35 66.5t79 47.5z" />
    <glyph glyph-name="threequarters" unicode="&#xbe;" horiz-adv-x="2467" 
d="M1563 1317q4 2 12 2q36 0 99.5 -33t76.5 -59q4 -8 4 -15q0 -18 -14 -43q-53 -109 -125 -233q-34 -54 -109 -180q-79 -122 -137 -221q-10 -15 -30 -49.5t-40.5 -70.5t-25.5 -44q-62 -117 -84 -162q-51 -94 -123 -205q-7 -11 -20 -31t-15 -24q-12 -20 -20 -25.5t-23 -5.5
q-41 3 -111.5 41t-82.5 64q-7 11 -7 16q0 9 21 39q85 119 170 282q129 260 358 607q96 143 164 262q30 55 40.5 70t21.5 18zM625 1307q16 4 53 4q70 0 146 -26t137 -71q63 -48 63 -100q0 -20 -6 -41q-7 -39 -23.5 -63.5t-50.5 -51.5q-26 -20 -26 -24q0 -8 30 -29
q37 -29 49.5 -54t12.5 -71v-8q0 -49 -17 -81.5t-59 -61.5q-82 -60 -178 -60q-95 0 -221 60q-88 44 -127 86.5t-39 93.5q0 27 7 34t36 7q46 0 112 -41q33 -21 46 -38t16 -44q2 -21 7.5 -29t20.5 -8q14 0 41 6q64 18 107.5 56.5t50.5 87.5q2 8 2 18q0 12 -9 15.5t-36 5.5
q-59 2 -131 37t-72 63q0 11 11 17.5t45 15.5q117 36 163 82q18 18 29.5 40.5t11.5 36.5q0 9 -4 13t-16 4q-25 0 -69 -17.5t-76 -40.5q-38 -28 -52 -28q-9 0 -24 6q-47 12 -89 42t-42 52q0 28 52.5 60.5t117.5 44.5zM2238 786q4 2 19 2q37 0 87.5 -27t65.5 -56q7 -14 7 -29
q0 -52 -80 -211q-10 -23 -27.5 -59t-19.5 -41q-42 -90 -58 -119q-5 -6 -63 -125q-43 -85 -54.5 -102.5t-25.5 -22.5h-8q-37 0 -112 36.5t-85 63.5q-2 2 -2 10q0 28 72 164q24 50 24 56q0 2 -4 6q-2 2 -12 2q-44 0 -219 -33q-54 -8 -64 -8q-35 0 -102 31q-55 27 -79.5 47.5
t-24.5 40.5q0 6 4 14q5 6 96 94t113 107q4 2 26 24q4 4 23 21t28 26l17.5 15t18.5 16t11 10q22 19 43 19t45 -8q35 -11 75 -38t44 -44q2 -4 2 -11q0 -34 -86 -120q-39 -42 -39 -50t23 -8q3 0 12.5 1t14.5 1q16 2 65 2q39 0 48.5 7.5t33.5 54.5q31 69 70 135q28 45 37 61
q26 43 40 45z" />
    <glyph glyph-name="questiondown" unicode="&#xbf;" horiz-adv-x="1026" 
d="M563 25q-14 -2 -41 -2q-135 0 -274.5 76.5t-188.5 179.5q-20 44 -20 96q0 76 46.5 147t123.5 109q43 20 176 51q161 38 248 100t153 185q11 20 56 96q21 37 30 59q21 41 46 41q2 0 6 -1t6 -1q43 -8 107.5 -42t76.5 -56q4 -8 4 -14q0 -17 -53 -107q-25 -43 -35 -63
q-60 -111 -117 -170q-63 -64 -141 -99t-246 -75q-87 -20 -137 -52t-90 -92q-35 -49 -35 -115q0 -40 19 -83q11 -23 22.5 -32t32.5 -9q27 0 63 8q57 12 129.5 48t135.5 83q116 87 178 174q14 18 20.5 22.5t18.5 4.5q29 -2 80 -30.5t61 -51.5q6 -9 6 -23q0 -51 -98 -170
q-62 -71 -170.5 -127t-198.5 -65zM1145 1190q-2 0 -6 -1t-6 -1q-42 0 -120 40t-93 70q-5 15 -5 21q0 30 19.5 66t40.5 42q6 3 16 3q49 0 132 -39t100 -72q4 -8 4 -16q0 -27 -35 -74q-22 -33 -47 -39z" />
    <glyph glyph-name="Agrave" unicode="&#xc0;" horiz-adv-x="1345" 
d="M1012 1350q3 0 9 1t9 1q62 0 158.5 -43.5t148.5 -96.5q35 -35 35 -79q0 -45 -31 -175q-15 -67 -24 -100q-49 -201 -78 -311q-7 -25 -25 -98q-12 -44 -24 -97q-26 -97 -49 -209q-15 -68 -22.5 -99t-15.5 -52.5t-14 -26t-16 -4.5h-6q-35 0 -109 38t-96 67q-6 9 -6 16
q0 15 4 27q18 55 33 129q4 23 16 71q11 48 11 64q0 9 -5 14q-4 4 -49 4h-55q-36 0 -90 -4q-26 -2 -80 -6q-19 -2 -26.5 -6t-16.5 -17q-24 -35 -100 -168q-18 -28 -29 -51q-19 -34 -41 -82q-17 -45 -49 -45q-22 0 -74 25q-51 25 -71.5 45.5t-20.5 52.5q0 44 47 156q6 12 6 18
q0 10 -18 10q-3 0 -35 -4q-24 -4 -35 -4q-28 0 -94 29q-88 48 -88 72q0 22 55 43q91 31 285 55q34 3 45 9.5t29 31.5q60 96 98 151q14 20 44.5 65t39.5 58q90 135 141 205q42 58 209 264q25 32 38.5 42.5t31.5 13.5zM1081 1020q0 6 -4 6q-26 0 -221 -283q-23 -34 -63 -92
q-7 -12 -24 -36t-21 -31t-12 -18.5t-10.5 -16.5t-2.5 -10q0 -8 18.5 -10.5t69.5 -2.5q24 0 70 -5t51 -5q12 0 18 6q13 10 33 86q9 31 25 94q73 280 73 318zM1063 1716q6 2 24 2q33 0 80.5 -9.5t69.5 -22.5q21 -14 59 -58q39 -45 81.5 -83.5t62.5 -45.5q61 -27 61 -45
t-49 -18q-95 0 -201 45q-69 29 -135.5 100.5t-66.5 112.5q0 16 14 22z" />
    <glyph glyph-name="Aacute" unicode="&#xc1;" horiz-adv-x="1345" 
d="M1012 1350q3 0 9 1t9 1q62 0 158.5 -43.5t148.5 -96.5q35 -35 35 -79q0 -45 -31 -175q-15 -67 -24 -100q-49 -201 -78 -311q-7 -25 -25 -98q-12 -44 -24 -97q-26 -97 -49 -209q-15 -68 -22.5 -99t-15.5 -52.5t-14 -26t-16 -4.5h-6q-35 0 -109 38t-96 67q-6 9 -6 16
q0 15 4 27q18 55 33 129q4 23 16 71q11 48 11 64q0 9 -5 14q-4 4 -49 4h-55q-36 0 -90 -4q-26 -2 -80 -6q-19 -2 -26.5 -6t-16.5 -17q-24 -35 -100 -168q-18 -28 -29 -51q-19 -34 -41 -82q-17 -45 -49 -45q-22 0 -74 25q-51 25 -71.5 45.5t-20.5 52.5q0 44 47 156q6 12 6 18
q0 10 -18 10q-3 0 -35 -4q-24 -4 -35 -4q-28 0 -94 29q-88 48 -88 72q0 22 55 43q91 31 285 55q34 3 45 9.5t29 31.5q60 96 98 151q14 20 44.5 65t39.5 58q90 135 141 205q42 58 209 264q25 32 38.5 42.5t31.5 13.5zM1081 1020q0 6 -4 6q-26 0 -221 -283q-23 -34 -63 -92
q-7 -12 -24 -36t-21 -31t-12 -18.5t-10.5 -16.5t-2.5 -10q0 -8 18.5 -10.5t69.5 -2.5q24 0 70 -5t51 -5q12 0 18 6q13 10 33 86q9 31 25 94q73 280 73 318zM1446 1698h22q76 0 146 -27q37 -15 37 -33q0 -7 -6 -16q-6 -10 -42 -32t-71 -38q-92 -41 -121 -51
q-134 -55 -215 -55q-28 0 -55 6q-105 18 -105 47q0 9 11.5 15.5t56.5 21.5q93 30 178 70.5t119 70.5q21 19 45 21z" />
    <glyph glyph-name="Acircumflex" unicode="&#xc2;" horiz-adv-x="1345" 
d="M1012 1350q3 0 9 1t9 1q62 0 158.5 -43.5t148.5 -96.5q35 -35 35 -79q0 -45 -31 -175q-15 -67 -24 -100q-49 -201 -78 -311q-7 -25 -25 -98q-12 -44 -24 -97q-26 -97 -49 -209q-15 -68 -22.5 -99t-15.5 -52.5t-14 -26t-16 -4.5h-6q-35 0 -109 38t-96 67q-6 9 -6 16
q0 15 4 27q18 55 33 129q4 23 16 71q11 48 11 64q0 9 -5 14q-4 4 -49 4h-55q-36 0 -90 -4q-26 -2 -80 -6q-19 -2 -26.5 -6t-16.5 -17q-24 -35 -100 -168q-18 -28 -29 -51q-19 -34 -41 -82q-17 -45 -49 -45q-22 0 -74 25q-51 25 -71.5 45.5t-20.5 52.5q0 44 47 156q6 12 6 18
q0 10 -18 10q-3 0 -35 -4q-24 -4 -35 -4q-28 0 -94 29q-88 48 -88 72q0 22 55 43q91 31 285 55q34 3 45 9.5t29 31.5q60 96 98 151q14 20 44.5 65t39.5 58q90 135 141 205q42 58 209 264q25 32 38.5 42.5t31.5 13.5zM1081 1020q0 6 -4 6q-26 0 -221 -283q-23 -34 -63 -92
q-7 -12 -24 -36t-21 -31t-12 -18.5t-10.5 -16.5t-2.5 -10q0 -8 18.5 -10.5t69.5 -2.5q24 0 70 -5t51 -5q12 0 18 6q13 10 33 86q9 31 25 94q73 280 73 318zM1339 1733q6 2 23 2q26 0 64 -10.5t57 -22.5q22 -15 45 -68q22 -46 39 -71.5t53 -63.5q39 -44 39 -53q0 -2 -4 -10
q-11 -11 -39 -11q-74 0 -146 35q-27 11 -43.5 27t-58.5 74q-10 16 -18 16q-6 0 -47 -21q-150 -78 -209 -81h-7q-31 0 -70.5 10t-51.5 22q-11 11 -11 17q0 15 45 30q123 47 222 101q41 21 82 51q28 25 36 27z" />
    <glyph glyph-name="Atilde" unicode="&#xc3;" horiz-adv-x="1345" 
d="M1012 1350q3 0 9 1t9 1q62 0 158.5 -43.5t148.5 -96.5q35 -35 35 -79q0 -45 -31 -175q-15 -67 -24 -100q-49 -201 -78 -311q-7 -25 -25 -98q-12 -44 -24 -97q-26 -97 -49 -209q-15 -68 -22.5 -99t-15.5 -52.5t-14 -26t-16 -4.5h-6q-35 0 -109 38t-96 67q-6 9 -6 16
q0 15 4 27q18 55 33 129q4 23 16 71q11 48 11 64q0 9 -5 14q-4 4 -49 4h-55q-36 0 -90 -4q-26 -2 -80 -6q-19 -2 -26.5 -6t-16.5 -17q-24 -35 -100 -168q-18 -28 -29 -51q-19 -34 -41 -82q-17 -45 -49 -45q-22 0 -74 25q-51 25 -71.5 45.5t-20.5 52.5q0 44 47 156q6 12 6 18
q0 10 -18 10q-3 0 -35 -4q-24 -4 -35 -4q-28 0 -94 29q-88 48 -88 72q0 22 55 43q91 31 285 55q34 3 45 9.5t29 31.5q60 96 98 151q14 20 44.5 65t39.5 58q90 135 141 205q42 58 209 264q25 32 38.5 42.5t31.5 13.5zM1081 1020q0 6 -4 6q-26 0 -221 -283q-23 -34 -63 -92
q-7 -12 -24 -36t-21 -31t-12 -18.5t-10.5 -16.5t-2.5 -10q0 -8 18.5 -10.5t69.5 -2.5q24 0 70 -5t51 -5q12 0 18 6q13 10 33 86q9 31 25 94q73 280 73 318zM1223 1677q27 0 49.5 -8t93.5 -41q11 -5 42 -22.5t52.5 -27t34.5 -9.5q14 0 24 4t28.5 13t41.5 16q39 14 72 14
q30 0 27 -17q-2 -23 -40 -56.5t-95.5 -60t-106.5 -26.5h-53q-50 0 -142 53q-71 39 -94 41q-9 1 -21 -3.5t-29.5 -13.5t-29.5 -13q-72 -31 -94 -29q-15 1 -24 10t-9 23q0 16 45 47q50 33 78 50t72 35.5t78 20.5z" />
    <glyph glyph-name="Adieresis" unicode="&#xc4;" horiz-adv-x="1345" 
d="M1012 1350q3 0 9 1t9 1q62 0 158.5 -43.5t148.5 -96.5q35 -35 35 -79q0 -45 -31 -175q-15 -67 -24 -100q-49 -201 -78 -311q-7 -25 -25 -98q-12 -44 -24 -97q-26 -97 -49 -209q-15 -68 -22.5 -99t-15.5 -52.5t-14 -26t-16 -4.5h-6q-35 0 -109 38t-96 67q-6 9 -6 16
q0 15 4 27q18 55 33 129q4 23 16 71q11 48 11 64q0 9 -5 14q-4 4 -49 4h-55q-36 0 -90 -4q-26 -2 -80 -6q-19 -2 -26.5 -6t-16.5 -17q-24 -35 -100 -168q-18 -28 -29 -51q-19 -34 -41 -82q-17 -45 -49 -45q-22 0 -74 25q-51 25 -71.5 45.5t-20.5 52.5q0 44 47 156q6 12 6 18
q0 10 -18 10q-3 0 -35 -4q-24 -4 -35 -4q-28 0 -94 29q-88 48 -88 72q0 22 55 43q91 31 285 55q34 3 45 9.5t29 31.5q60 96 98 151q14 20 44.5 65t39.5 58q90 135 141 205q42 58 209 264q25 32 38.5 42.5t31.5 13.5zM1081 1020q0 6 -4 6q-26 0 -221 -283q-23 -34 -63 -92
q-7 -12 -24 -36t-21 -31t-12 -18.5t-10.5 -16.5t-2.5 -10q0 -8 18.5 -10.5t69.5 -2.5q24 0 70 -5t51 -5q12 0 18 6q13 10 33 86q9 31 25 94q73 280 73 318zM1024 1610q8 2 29 2q77 0 155 -31q33 -11 33 -33q0 -18 -33 -65q-25 -39 -47 -53.5t-57 -14.5q-13 0 -49 4
q-121 21 -121 72v4q3 25 35.5 67t54.5 48zM1423 1599q12 3 29 3q42 0 100 -17q43 -13 60.5 -24.5t17.5 -30.5q0 -26 -33 -76q-24 -38 -42.5 -51.5t-49.5 -13.5q-23 0 -57 6q-115 15 -115 73q0 32 35 82q19 27 28 35t27 14z" />
    <glyph glyph-name="Aring" unicode="&#xc5;" horiz-adv-x="1345" 
d="M1012 1350q3 0 9 1t9 1q62 0 158.5 -43.5t148.5 -96.5q35 -35 35 -79q0 -45 -31 -175q-15 -67 -24 -100q-49 -201 -78 -311q-7 -25 -25 -98q-12 -44 -24 -97q-26 -97 -49 -209q-15 -68 -22.5 -99t-15.5 -52.5t-14 -26t-16 -4.5h-6q-35 0 -109 38t-96 67q-6 9 -6 16
q0 15 4 27q18 55 33 129q4 23 16 71q11 48 11 64q0 9 -5 14q-4 4 -49 4h-55q-36 0 -90 -4q-26 -2 -80 -6q-19 -2 -26.5 -6t-16.5 -17q-24 -35 -100 -168q-18 -28 -29 -51q-19 -34 -41 -82q-17 -45 -49 -45q-22 0 -74 25q-51 25 -71.5 45.5t-20.5 52.5q0 44 47 156q6 12 6 18
q0 10 -18 10q-3 0 -35 -4q-24 -4 -35 -4q-28 0 -94 29q-88 48 -88 72q0 22 55 43q91 31 285 55q34 3 45 9.5t29 31.5q60 96 98 151q14 20 44.5 65t39.5 58q90 135 141 205q42 58 209 264q25 32 38.5 42.5t31.5 13.5zM1081 1020q0 6 -4 6q-26 0 -221 -283q-23 -34 -63 -92
q-7 -12 -24 -36t-21 -31t-12 -18.5t-10.5 -16.5t-2.5 -10q0 -8 18.5 -10.5t69.5 -2.5q24 0 70 -5t51 -5q12 0 18 6q13 10 33 86q9 31 25 94q73 280 73 318zM1376 1434q-8 -1 -55 6q-72 15 -144.5 60t-91.5 85q-8 16 -8 45q0 52 32 114.5t79 100.5q45 35 137 35q71 0 160 -51
q49 -27 71.5 -56.5t22.5 -70.5q0 -37 -22 -95t-60 -96q-71 -71 -121 -77zM1253 1544q17 -9 34.5 -6t53.5 23q23 12 47 45t39 73q11 34 11 72q0 10 -8.5 23t-20.5 16q-13 1 -31.5 2t-46 -12t-47.5 -39q-22 -29 -35.5 -72.5t-13.5 -71.5q0 -44 18 -53z" />
    <glyph glyph-name="AE" unicode="&#xc6;" horiz-adv-x="1490" 
d="M1223 -8q-93 0 -150.5 -7t-144.5 -28q-6 -4 -19 -4q-31 0 -81 23t-88.5 53.5t-37.5 50.5q2 8 21 61q26 81 37 133q2 11 5.5 24.5t5 21t1.5 12.5q0 8 -2 10q-2 10 -29 10h-26q-150 -3 -232 -22l-43 -6q-22 -2 -34 -19q-12 -15 -55 -90.5t-70 -130.5q-34 -61 -43 -68
q-4 -2 -13 -2q-36 0 -94.5 33.5t-64.5 58.5q-3 12 -3 27q6 71 103 258q20 37 37 68q23 47 94 164q18 27 51 79t45 70q8 11 44.5 64t49.5 69q54 78 123 160q54 68 58 72q32 40 85.5 95t69.5 62q4 2 17 2q122 0 204 -8h418q34 0 74 -14q58 -21 112.5 -54t55.5 -51v-4
q0 -6 -23.5 -7t-160.5 -3h-287l-8 -43q-8 -46 -21.5 -108t-37 -168t-40.5 -183q-5 -22 -14.5 -59t-11.5 -47q36 0 67 -2q96 -3 170 -33q46 -20 75.5 -43.5t29.5 -38.5q3 -5 -4 -12q-4 -4 -68 -6q-62 0 -74 -4q-2 0 -14 -1t-18 -1q-26 0 -35 -3q-37 -6 -94 -6q-42 0 -78 4
q-23 -76 -47 -176q-7 -27 -16 -60.5t-11 -39.5q6 1 34.5 4t47.5 4q72 0 129 -14q75 -20 145 -58.5t72 -58.5q0 -10 -22 -10h-166zM961 1059q0 12 -7 12q-15 0 -57 -57q-5 -5 -26 -31.5t-33 -40.5q-149 -183 -260 -356q-50 -73 -50 -82q-1 -8 6 -11.5t27 -5t45 -2.5h17
q76 0 122 -4q18 -2 41 -2q20 0 25.5 8t15.5 45q16 55 17 58q12 37 20 74q11 37 51 206q13 42 27 105q4 20 8.5 39t7 29.5t3.5 15.5z" />
    <glyph glyph-name="Ccedilla" unicode="&#xc7;" horiz-adv-x="1286" 
d="M903 -264q-59 -47 -180 -47q-105 0 -197 32q-48 17 -75 37.5t-27 38.5q0 24 49 27q8 1 17 2t14 1.5t8 0.5q45 0 102 -31q32 -14 43 -14q5 0 21 4q47 16 47 53q0 12 -6 21q-6 10 -14 12.5t-50 7.5q-43 5 -96 21q-59 18 -59 41q0 16 45 55q3 3 11.5 12t12.5 13
q-142 45 -254 131q-127 100 -127 256q0 64 21 141q81 294 332 545q61 61 104 94q68 55 158.5 98.5t163.5 57.5q46 8 57 8q42 0 106.5 -18.5t120.5 -47.5q113 -57 169.5 -122t66.5 -152q2 -10 2 -29q0 -53 -23.5 -97t-52.5 -44q-34 0 -101.5 37t-80.5 65q3 19 7 41.5t5.5 31
t3 20.5t2 21t0.5 23q0 41 -10.5 79t-24.5 46q-4 2 -14 2q-46 0 -143 -41q-81 -35 -173 -104t-151 -139q-5 -6 -14 -17t-12 -14q-36 -37 -85 -107t-81 -129q-109 -201 -109 -360q0 -67 21 -117q10 -27 22 -38t31 -11q73 0 184.5 61t177.5 136q3 3 13 13.5t14 14.5
q22 25 47 66q8 14 23 14q44 0 130.5 -45t86.5 -78q0 -22 -43 -73q-74 -91 -173.5 -154t-195.5 -82l-41 -47q25 -4 72 -20q59 -22 89.5 -49.5t39.5 -67.5q2 -6 2 -21q0 -42 -29 -65z" />
    <glyph glyph-name="Egrave" unicode="&#xc8;" horiz-adv-x="964" 
d="M776 1294q11 0 44.5 2t72.5 2q123 0 133 -2q68 -15 140.5 -56t72.5 -64q0 -8 -13 -9.5t-75 -1.5q-128 0 -182 -8q-3 0 -19.5 -1t-25.5 -1q-8 0 -27 -1t-25 -1q-20 -4 -32 -4q-25 0 -32.5 -7t-16.5 -38q-23 -74 -195 -422q-63 -132 -64 -141v-6q0 -4 2.5 -6.5t10.5 -4
t22.5 -2t40.5 -0.5q61 0 94 -8q70 -18 133.5 -55t63.5 -58q0 -7 -6 -10q-8 -4 -16 -4q-2 0 -18.5 1t-31.5 1q-51 0 -71 -2q-36 -4 -76 -4q-60 0 -74 -2q-78 -10 -92 -10q-9 0 -24.5 3t-18.5 3q-17 0 -31 -28t-51 -128q-18 -46 -18 -61q0 -13 18 -13h17q16 0 126 7h17
q122 0 235 -80q39 -26 39 -41q0 -10 -14 -12.5t-74 -4.5q-98 -3 -135 -8q-125 -15 -145 -18q-49 -7 -93 -15q-54 -8 -61 -8q-11 0 -27 4q-55 12 -123 49.5t-79 61.5q-4 8 -4 14q0 9 12 39l6 21t10 33.5t17 48.5q34 103 92 243q38 85 49 107q10 25 31 67l17 38q18 38 32 65
q148 303 151 311q2 4 7.5 15.5t7.5 15.5t7 15t7 15q1 4 9.5 24.5t13.5 31.5q20 46 20 59v8q0 15 8.5 20.5t34.5 8.5q22 3 68.5 5.5t60.5 4.5q16 2 47 2zM786 1716q6 2 25 2q33 0 80.5 -9.5t69.5 -22.5q21 -14 59 -58q39 -45 81 -83.5t62 -45.5q35 -15 48.5 -25t13.5 -20
q0 -18 -49 -18q-95 0 -201 45q-69 29 -136 100.5t-67 112.5q0 16 14 22z" />
    <glyph glyph-name="Eacute" unicode="&#xc9;" horiz-adv-x="964" 
d="M776 1294q11 0 44.5 2t72.5 2q123 0 133 -2q68 -15 140.5 -56t72.5 -64q0 -8 -13 -9.5t-75 -1.5q-128 0 -182 -8q-3 0 -19.5 -1t-25.5 -1q-8 0 -27 -1t-25 -1q-20 -4 -32 -4q-25 0 -32.5 -7t-16.5 -38q-23 -74 -195 -422q-63 -132 -64 -141v-6q0 -4 2.5 -6.5t10.5 -4
t22.5 -2t40.5 -0.5q61 0 94 -8q70 -18 133.5 -55t63.5 -58q0 -7 -6 -10q-8 -4 -16 -4q-2 0 -18.5 1t-31.5 1q-51 0 -71 -2q-36 -4 -76 -4q-60 0 -74 -2q-78 -10 -92 -10q-9 0 -24.5 3t-18.5 3q-17 0 -31 -28t-51 -128q-18 -46 -18 -61q0 -13 18 -13h17q16 0 126 7h17
q122 0 235 -80q39 -26 39 -41q0 -10 -14 -12.5t-74 -4.5q-98 -3 -135 -8q-125 -15 -145 -18q-49 -7 -93 -15q-54 -8 -61 -8q-11 0 -27 4q-55 12 -123 49.5t-79 61.5q-4 8 -4 14q0 9 12 39l6 21t10 33.5t17 48.5q34 103 92 243q38 85 49 107q10 25 31 67l17 38q18 38 32 65
q148 303 151 311q2 4 7.5 15.5t7.5 15.5t7 15t7 15q1 4 9.5 24.5t13.5 31.5q20 46 20 59v8q0 15 8.5 20.5t34.5 8.5q22 3 68.5 5.5t60.5 4.5q16 2 47 2zM1169 1698h23q74 0 145 -27q37 -15 37 -33q0 -7 -6 -16q-6 -10 -42 -32t-71 -38q-97 -43 -120 -51q-134 -55 -215 -55
q-29 0 -56 6q-104 17 -104 47q0 9 11.5 16t55.5 21q93 30 178 70.5t119 70.5q21 19 45 21z" />
    <glyph glyph-name="Ecircumflex" unicode="&#xca;" horiz-adv-x="964" 
d="M776 1294q11 0 44.5 2t72.5 2q123 0 133 -2q68 -15 140.5 -56t72.5 -64q0 -8 -13 -9.5t-75 -1.5q-128 0 -182 -8q-3 0 -19.5 -1t-25.5 -1q-8 0 -27 -1t-25 -1q-20 -4 -32 -4q-25 0 -32.5 -7t-16.5 -38q-23 -74 -195 -422q-63 -132 -64 -141v-6q0 -4 2.5 -6.5t10.5 -4
t22.5 -2t40.5 -0.5q61 0 94 -8q70 -18 133.5 -55t63.5 -58q0 -7 -6 -10q-8 -4 -16 -4q-2 0 -18.5 1t-31.5 1q-51 0 -71 -2q-36 -4 -76 -4q-60 0 -74 -2q-78 -10 -92 -10q-9 0 -24.5 3t-18.5 3q-17 0 -31 -28t-51 -128q-18 -46 -18 -61q0 -13 18 -13h17q16 0 126 7h17
q122 0 235 -80q39 -26 39 -41q0 -10 -14 -12.5t-74 -4.5q-98 -3 -135 -8q-125 -15 -145 -18q-49 -7 -93 -15q-54 -8 -61 -8q-11 0 -27 4q-55 12 -123 49.5t-79 61.5q-4 8 -4 14q0 9 12 39l6 21t10 33.5t17 48.5q34 103 92 243q38 85 49 107q10 25 31 67l17 38q18 38 32 65
q148 303 151 311q2 4 7.5 15.5t7.5 15.5t7 15t7 15q1 4 9.5 24.5t13.5 31.5q20 46 20 59v8q0 15 8.5 20.5t34.5 8.5q22 3 68.5 5.5t60.5 4.5q16 2 47 2zM1063 1733q6 2 22 2q26 0 64 -10.5t57 -22.5q22 -15 45 -68q22 -46 39 -71.5t53 -63.5q39 -44 39 -53q0 -2 -4 -10
q-11 -11 -39 -11q-73 0 -145 35q-27 11 -43.5 27t-58.5 74q-10 16 -19 16q-7 0 -47 -21q-150 -78 -209 -81h-6q-31 0 -71 10t-52 22q-10 10 -10 17q0 15 45 30q120 46 221 101q41 21 82 51q28 25 37 27z" />
    <glyph glyph-name="Edieresis" unicode="&#xcb;" horiz-adv-x="964" 
d="M776 1294q11 0 44.5 2t72.5 2q123 0 133 -2q68 -15 140.5 -56t72.5 -64q0 -8 -13 -9.5t-75 -1.5q-128 0 -182 -8q-3 0 -19.5 -1t-25.5 -1q-8 0 -27 -1t-25 -1q-20 -4 -32 -4q-25 0 -32.5 -7t-16.5 -38q-23 -74 -195 -422q-63 -132 -64 -141v-6q0 -4 2.5 -6.5t10.5 -4
t22.5 -2t40.5 -0.5q61 0 94 -8q70 -18 133.5 -55t63.5 -58q0 -7 -6 -10q-8 -4 -16 -4q-2 0 -18.5 1t-31.5 1q-51 0 -71 -2q-36 -4 -76 -4q-60 0 -74 -2q-78 -10 -92 -10q-9 0 -24.5 3t-18.5 3q-17 0 -31 -28t-51 -128q-18 -46 -18 -61q0 -13 18 -13h17q16 0 126 7h17
q122 0 235 -80q39 -26 39 -41q0 -10 -14 -12.5t-74 -4.5q-98 -3 -135 -8q-125 -15 -145 -18q-49 -7 -93 -15q-54 -8 -61 -8q-11 0 -27 4q-55 12 -123 49.5t-79 61.5q-4 8 -4 14q0 9 12 39l6 21t10 33.5t17 48.5q34 103 92 243q38 85 49 107q10 25 31 67l17 38q18 38 32 65
q148 303 151 311q2 4 7.5 15.5t7.5 15.5t7 15t7 15q1 4 9.5 24.5t13.5 31.5q20 46 20 59v8q0 15 8.5 20.5t34.5 8.5q22 3 68.5 5.5t60.5 4.5q16 2 47 2zM748 1610q8 2 28 2q78 0 156 -31q33 -11 33 -33q0 -18 -33 -65q-25 -39 -47.5 -53.5t-57.5 -14.5q-13 0 -49 4
q-121 21 -121 72v4q3 25 36 67t55 48zM1147 1599q12 3 29 3q42 0 100 -17q43 -13 60.5 -24.5t17.5 -30.5q0 -26 -33 -76q-24 -38 -42.5 -51.5t-49.5 -13.5q-23 0 -58 6q-114 15 -114 73q0 32 35 82q19 27 28 35t27 14z" />
    <glyph glyph-name="Igrave" unicode="&#xcc;" horiz-adv-x="1073" 
d="M944 1350q67 6 141 6q129 0 207 -19q65 -15 127 -51.5t62 -58.5q0 -17 -29 -17q-5 0 -37 4q-31 5 -115 5q-85 0 -129 -5q-36 -5 -45.5 -10t-21.5 -28q-1 -3 -14 -26.5t-21 -37.5q-49 -81 -98 -182t-137 -297q-82 -189 -140 -328q-53 -128 -53 -147q0 -6 2.5 -9t5 -4
t10.5 -4q86 -20 134 -45q53 -26 82.5 -49t29.5 -37q0 -12 -16 -12q-12 0 -39 6q-71 14 -158 14q-96 0 -266 -22q-144 -21 -170 -21q-21 0 -45 7q-57 18 -104.5 47t-47.5 49q0 39 213 65q46 6 58 13q9 4 18 26q4 10 20 48t43.5 102t51.5 123q155 377 291 649q14 32 14 37
q0 10 -18 10q-16 0 -54 -6q-107 -15 -116 -15q-33 0 -76 19q-78 31 -78 63q0 14 12 23q31 28 182 62t324 53zM838 1751q6 2 24 2q32 0 80 -10t70 -23q23 -15 59 -57q39 -45 81 -83.5t62 -45.5q35 -15 48.5 -25t13.5 -20q0 -19 -49 -19q-93 0 -201 46q-69 29 -136 100.5
t-67 112.5q0 16 15 22z" />
    <glyph glyph-name="Iacute" unicode="&#xcd;" horiz-adv-x="1073" 
d="M944 1350q67 6 141 6q129 0 207 -19q65 -15 127 -51.5t62 -58.5q0 -17 -29 -17q-5 0 -37 4q-31 5 -115 5q-85 0 -129 -5q-36 -5 -45.5 -10t-21.5 -28q-1 -3 -14 -26.5t-21 -37.5q-49 -81 -98 -182t-137 -297q-82 -189 -140 -328q-53 -128 -53 -147q0 -6 2.5 -9t5 -4
t10.5 -4q86 -20 134 -45q53 -26 82.5 -49t29.5 -37q0 -12 -16 -12q-12 0 -39 6q-71 14 -158 14q-96 0 -266 -22q-144 -21 -170 -21q-21 0 -45 7q-57 18 -104.5 47t-47.5 49q0 39 213 65q46 6 58 13q9 4 18 26q4 10 20 48t43.5 102t51.5 123q155 377 291 649q14 32 14 37
q0 10 -18 10q-16 0 -54 -6q-107 -15 -116 -15q-33 0 -76 19q-78 31 -78 63q0 14 12 23q31 28 182 62t324 53zM1221 1733h22q75 0 146 -27q36 -14 36 -33q0 -7 -6 -16q-6 -10 -41.5 -32.5t-70.5 -37.5q-92 -41 -121 -51q-134 -55 -215 -55q-29 0 -56 6q-104 17 -104 47
q0 9 11.5 15.5t56.5 21.5q93 30 178 70.5t119 70.5q21 19 45 21z" />
    <glyph glyph-name="Icircumflex" unicode="&#xce;" horiz-adv-x="1073" 
d="M944 1350q67 6 141 6q129 0 207 -19q65 -15 127 -51.5t62 -58.5q0 -17 -29 -17q-5 0 -37 4q-31 5 -115 5q-85 0 -129 -5q-36 -5 -45.5 -10t-21.5 -28q-1 -3 -14 -26.5t-21 -37.5q-49 -81 -98 -182t-137 -297q-82 -189 -140 -328q-53 -128 -53 -147q0 -6 2.5 -9t5 -4
t10.5 -4q86 -20 134 -45q53 -26 82.5 -49t29.5 -37q0 -12 -16 -12q-12 0 -39 6q-71 14 -158 14q-96 0 -266 -22q-144 -21 -170 -21q-21 0 -45 7q-57 18 -104.5 47t-47.5 49q0 39 213 65q46 6 58 13q9 4 18 26q4 10 20 48t43.5 102t51.5 123q155 377 291 649q14 32 14 37
q0 10 -18 10q-16 0 -54 -6q-107 -15 -116 -15q-33 0 -76 19q-78 31 -78 63q0 14 12 23q31 28 182 62t324 53zM1114 1767q6 2 23 2q26 0 63.5 -10t56.5 -22q23 -17 46 -68q22 -46 39 -71.5t53 -63.5q39 -44 39 -53q0 -3 -4 -11q-10 -10 -39 -10q-74 0 -146 35
q-27 11 -43.5 27t-58.5 73q-10 17 -19 17q-6 0 -47 -21q-152 -79 -209 -82h-6q-31 0 -71 10.5t-52 22.5q-10 10 -10 17q0 15 45 30q120 46 221 101q41 21 82 51q26 23 37 26z" />
    <glyph glyph-name="Idieresis" unicode="&#xcf;" horiz-adv-x="1073" 
d="M944 1350q67 6 141 6q129 0 207 -19q65 -15 127 -51.5t62 -58.5q0 -17 -29 -17q-5 0 -37 4q-31 5 -115 5q-85 0 -129 -5q-36 -5 -45.5 -10t-21.5 -28q-1 -3 -14 -26.5t-21 -37.5q-49 -81 -98 -182t-137 -297q-82 -189 -140 -328q-53 -128 -53 -147q0 -6 2.5 -9t5 -4
t10.5 -4q86 -20 134 -45q53 -26 82.5 -49t29.5 -37q0 -12 -16 -12q-12 0 -39 6q-71 14 -158 14q-96 0 -266 -22q-144 -21 -170 -21q-21 0 -45 7q-57 18 -104.5 47t-47.5 49q0 39 213 65q46 6 58 13q9 4 18 26q4 10 20 48t43.5 102t51.5 123q155 377 291 649q14 32 14 37
q0 10 -18 10q-16 0 -54 -6q-107 -15 -116 -15q-33 0 -76 19q-78 31 -78 63q0 14 12 23q31 28 182 62t324 53zM799 1645q8 2 28 2q79 0 156 -31q33 -11 33 -33q0 -18 -33 -65q-25 -39 -47 -53.5t-57 -14.5q-14 0 -50 4q-120 21 -120 72v4q3 25 35.5 67t54.5 48zM1198 1634
q8 2 29 2q45 0 100 -16q43 -13 60.5 -24.5t17.5 -30.5q0 -26 -33 -76q-24 -38 -42.5 -52t-49.5 -14q-17 0 -57 7q-115 15 -115 73q0 32 35 82q19 27 28 35t27 14z" />
    <glyph glyph-name="Eth" unicode="&#xd0;" horiz-adv-x="1400" 
d="M623 -16q-83 -35 -136 -35q-47 0 -112 33q-119 58 -119 94q0 5 1 18t1 19q0 19 12 61q45 171 72 244q43 122 49 139q9 17 19 45q4 8 4 12l-35 4q-71 17 -133 60t-62 72q0 8 13 14q6 2 96 2q14 0 75 -1t103 -1q1 4 4 11t4 11q63 163 127 314q21 48 27 65q14 32 14 45
q0 11 -8 11q-5 0 -31 -11q-99 -45 -139 -92q-15 -18 -33 -18q-32 0 -103 36t-83 60q-4 8 -4 16q0 26 45 62q142 116 356 139q29 4 86 4q200 0 408 -98q213 -101 284 -246q41 -78 41 -194q0 -163 -80 -293q-34 -56 -96 -129q-15 -19 -75 -79t-87 -85q-30 -25 -38 -33
q-109 -94 -215 -156.5t-252 -119.5zM555 205q0 -10 10 -10q23 0 110.5 57.5t162.5 122.5q21 15 34 28q44 37 106.5 99t94.5 102q78 98 112.5 175t47.5 186q2 10 2 32q0 56 -24.5 112t-65.5 97q-23 23 -53 33t-97 16q-7 1 -17.5 2t-17.5 2t-12 1q-33 0 -33 -13q0 -3 7 -14
q14 -21 14 -31q0 -9 -31 -94q-6 -17 -32 -71.5t-27 -57.5q-13 -29 -70 -170l-18 -45h2q13 0 26 -4t22.5 -9t30 -17.5t35.5 -20.5q101 -47 101 -78q0 -17 -29 -23q-24 -4 -155 -4h-93q-12 -27 -20 -51q-79 -204 -109 -295q-14 -43 -14 -57z" />
    <glyph glyph-name="Ntilde" unicode="&#xd1;" horiz-adv-x="1236" 
d="M1380 1430q8 4 17 4q26 0 73 -21q71 -34 97 -55q41 -33 41 -51q0 -16 -105 -172q-20 -27 -49.5 -71.5t-30.5 -45.5q-41 -71 -75 -135q-23 -42 -66 -133q-6 -15 -20 -43q-43 -90 -111 -301q-8 -20 -18 -62q-3 -15 -12.5 -41.5t-10.5 -32.5q-3 -15 -7.5 -31.5t-13.5 -48.5
t-18 -67q-33 -124 -44 -159.5t-19 -41.5q-4 -4 -17 -4q-30 0 -91 29t-103 65q-18 15 -28 37t-38 113q-14 47 -35 110q-62 188 -100 349q-12 49 -21 49t-20 -33q-31 -73 -84.5 -226.5t-77.5 -238.5q-41 -127 -41 -203q0 -32 6 -59q2 -10 2 -25q0 -11 -8 -16q-2 -2 -10 -2
q-28 0 -92.5 33.5t-97.5 66.5q-20 20 -27.5 39.5t-7.5 56.5q0 5 1 17t1 20q2 57 7 88t26 99q42 140 149 434q101 277 131 353t64 140q22 42 31 48q6 4 14 4q9 0 67 -23q69 -25 94.5 -47t30.5 -59q0 -8 3 -25.5t9 -52t11 -64.5q25 -171 32 -221q4 -64 30.5 -191t39.5 -159
q6 -12 10 -12q9 0 31 73q70 231 157 415.5t216 373.5q20 30 37.5 55.5t25 36t11.5 18.5q24 39 34 46zM1026 1724q27 0 49.5 -8t93.5 -41q11 -5 42 -22.5t52.5 -27t34.5 -9.5q14 0 24.5 4t29 13t41.5 16q38 14 71 14q30 0 27 -16q-2 -23 -40 -57t-95.5 -60.5t-106.5 -26.5
h-53q-49 0 -141 53q-71 39 -94 41q-9 1 -21 -3.5t-29.5 -13.5t-29.5 -13q-72 -32 -95 -29q-32 3 -32 33q0 16 45 47q51 34 78 50.5t71 35t78 20.5z" />
    <glyph glyph-name="Ograve" unicode="&#xd2;" horiz-adv-x="1257" 
d="M932 1366q8 2 24 2q84 0 201 -55.5t164 -118.5q53 -71 53 -197q0 -51 -12 -106q-34 -148 -115 -303t-198 -293q-7 -9 -32 -35.5t-46.5 -49t-22.5 -22.5q-14 -12 -30 -28q-104 -98 -200 -150.5t-171 -52.5h-17q-68 5 -164 51t-147 98q-69 69 -69 209q0 153 77 340
q33 85 101 199.5t116 167.5q9 9 25 29q27 33 78 80t92 77q123 92 175.5 120.5t117.5 37.5zM1112 1214q-3 3 -10 3q-21 0 -60.5 -20t-72.5 -48q-66 -53 -107 -66q-41 -19 -94 -79q-42 -48 -72 -86q-168 -216 -237 -404q-11 -28 -13 -37q-28 -72 -47 -178q-8 -53 -8 -98
q0 -48 6 -68t21 -20h8q29 7 100 53t115 86q3 2 15.5 13t19.5 16q35 31 117 118q137 157 225.5 334t111.5 340q3 18 3 39q0 84 -21 102zM922 1761q6 2 24 2q33 0 80.5 -9.5t69.5 -22.5q21 -14 59 -58q39 -45 81 -83.5t62 -45.5q35 -15 48.5 -25t13.5 -20q0 -18 -49 -18
q-95 0 -201 45q-69 29 -136 100.5t-67 112.5q0 16 15 22z" />
    <glyph glyph-name="Oacute" unicode="&#xd3;" horiz-adv-x="1257" 
d="M932 1366q8 2 24 2q84 0 201 -55.5t164 -118.5q53 -71 53 -197q0 -51 -12 -106q-34 -148 -115 -303t-198 -293q-7 -9 -32 -35.5t-46.5 -49t-22.5 -22.5q-14 -12 -30 -28q-104 -98 -200 -150.5t-171 -52.5h-17q-68 5 -164 51t-147 98q-69 69 -69 209q0 153 77 340
q33 85 101 199.5t116 167.5q9 9 25 29q27 33 78 80t92 77q123 92 175.5 120.5t117.5 37.5zM1112 1214q-3 3 -10 3q-21 0 -60.5 -20t-72.5 -48q-66 -53 -107 -66q-41 -19 -94 -79q-42 -48 -72 -86q-168 -216 -237 -404q-11 -28 -13 -37q-28 -72 -47 -178q-8 -53 -8 -98
q0 -48 6 -68t21 -20h8q29 7 100 53t115 86q3 2 15.5 13t19.5 16q35 31 117 118q137 157 225.5 334t111.5 340q3 18 3 39q0 84 -21 102zM1305 1743h22q75 0 146 -27q36 -14 36 -33q0 -7 -6 -16q-6 -10 -41.5 -32.5t-70.5 -37.5q-92 -41 -121 -51q-134 -55 -215 -55
q-29 0 -56 6q-104 17 -104 47q0 9 11.5 15.5t56.5 21.5q93 30 178 70.5t119 70.5q21 19 45 21z" />
    <glyph glyph-name="Ocircumflex" unicode="&#xd4;" horiz-adv-x="1257" 
d="M932 1366q8 2 24 2q84 0 201 -55.5t164 -118.5q53 -71 53 -197q0 -51 -12 -106q-34 -148 -115 -303t-198 -293q-7 -9 -32 -35.5t-46.5 -49t-22.5 -22.5q-14 -12 -30 -28q-104 -98 -200 -150.5t-171 -52.5h-17q-68 5 -164 51t-147 98q-69 69 -69 209q0 153 77 340
q33 85 101 199.5t116 167.5q9 9 25 29q27 33 78 80t92 77q123 92 175.5 120.5t117.5 37.5zM1112 1214q-3 3 -10 3q-21 0 -60.5 -20t-72.5 -48q-66 -53 -107 -66q-41 -19 -94 -79q-42 -48 -72 -86q-168 -216 -237 -404q-11 -28 -13 -37q-28 -72 -47 -178q-8 -53 -8 -98
q0 -48 6 -68t21 -20h8q29 7 100 53t115 86q3 2 15.5 13t19.5 16q35 31 117 118q137 157 225.5 334t111.5 340q3 18 3 39q0 84 -21 102zM1198 1778q6 2 23 2q26 0 63.5 -10.5t56.5 -22.5q22 -15 45 -68q21 -45 38.5 -71t54.5 -64q39 -44 39 -53l-5 -10q-11 -11 -38 -11
q-74 0 -146 35q-27 11 -43.5 27t-58.5 74q-10 16 -19 16q-8 0 -47 -20q-152 -79 -209 -82h-6q-32 0 -71.5 10t-51.5 22q-10 10 -10 17q0 15 45 30q120 46 221 101q41 21 82 51q28 25 37 27z" />
    <glyph glyph-name="Otilde" unicode="&#xd5;" horiz-adv-x="1257" 
d="M932 1366q8 2 24 2q84 0 201 -55.5t164 -118.5q53 -71 53 -197q0 -51 -12 -106q-34 -148 -115 -303t-198 -293q-7 -9 -32 -35.5t-46.5 -49t-22.5 -22.5q-14 -12 -30 -28q-104 -98 -200 -150.5t-171 -52.5h-17q-68 5 -164 51t-147 98q-69 69 -69 209q0 153 77 340
q33 85 101 199.5t116 167.5q9 9 25 29q27 33 78 80t92 77q123 92 175.5 120.5t117.5 37.5zM1112 1214q-3 3 -10 3q-21 0 -60.5 -20t-72.5 -48q-66 -53 -107 -66q-41 -19 -94 -79q-42 -48 -72 -86q-168 -216 -237 -404q-11 -28 -13 -37q-28 -72 -47 -178q-8 -53 -8 -98
q0 -48 6 -68t21 -20h8q29 7 100 53t115 86q3 2 15.5 13t19.5 16q35 31 117 118q137 157 225.5 334t111.5 340q3 18 3 39q0 84 -21 102zM1081 1722q27 0 50 -8t94 -41q11 -5 42 -22.5t52.5 -27t34.5 -9.5q14 0 24 4t28.5 13t41.5 16q38 14 72 14q15 0 21.5 -4t4.5 -12
q-2 -23 -39.5 -57t-95 -60.5t-106.5 -26.5h-54q-49 0 -141 53q-71 39 -94 41q-9 1 -21 -3.5t-29.5 -13.5t-29.5 -13q-72 -31 -94 -29q-15 2 -24 11t-9 22q0 16 45 47q51 34 78 50.5t71 35t78 20.5z" />
    <glyph glyph-name="Odieresis" unicode="&#xd6;" horiz-adv-x="1257" 
d="M932 1366q8 2 24 2q84 0 201 -55.5t164 -118.5q53 -71 53 -197q0 -51 -12 -106q-34 -148 -115 -303t-198 -293q-7 -9 -32 -35.5t-46.5 -49t-22.5 -22.5q-14 -12 -30 -28q-104 -98 -200 -150.5t-171 -52.5h-17q-68 5 -164 51t-147 98q-69 69 -69 209q0 153 77 340
q33 85 101 199.5t116 167.5q9 9 25 29q27 33 78 80t92 77q123 92 175.5 120.5t117.5 37.5zM1112 1214q-3 3 -10 3q-21 0 -60.5 -20t-72.5 -48q-66 -53 -107 -66q-41 -19 -94 -79q-42 -48 -72 -86q-168 -216 -237 -404q-11 -28 -13 -37q-28 -72 -47 -178q-8 -53 -8 -98
q0 -48 6 -68t21 -20h8q29 7 100 53t115 86q3 2 15.5 13t19.5 16q35 31 117 118q137 157 225.5 334t111.5 340q3 18 3 39q0 84 -21 102zM883 1655q8 2 28 2q79 0 156 -31q33 -11 33 -33q0 -18 -33 -65q-25 -39 -47 -53.5t-57 -14.5q-14 0 -50 4q-120 21 -120 72v4
q3 25 35.5 67t54.5 48zM1282 1645q8 2 29 2q42 0 100 -17q43 -13 60.5 -24.5t17.5 -30.5q0 -26 -33 -76q-24 -38 -42.5 -51.5t-49.5 -13.5q-22 0 -57 6q-115 15 -115 73q0 32 35 82q20 28 28.5 36t26.5 14z" />
    <glyph glyph-name="Oslash" unicode="&#xd8;" horiz-adv-x="1257" 
d="M217 -106q-18 -21 -35 -21q-12 0 -33 23.5t-24 37.5q0 2 -1 5.5t-1 5.5q0 13 17 37t89 114l-10 10q-69 69 -69 209q0 153 77 340q33 85 101 199.5t116 167.5q9 9 25 29q27 33 78 80t92 77q123 92 175.5 120.5t117.5 37.5q8 2 24 2q101 0 242 -76q74 94 96 117
q18 21 35 21q11 0 32.5 -24t24.5 -38q0 -32 -32 -72l-58 -75q12 -9 25 -27q53 -71 53 -197q0 -51 -12 -106q-34 -148 -115 -303t-198 -293q-7 -9 -32 -35.5t-46.5 -49t-22.5 -22.5q-14 -12 -30 -28q-104 -98 -200 -150.5t-171 -52.5h-17q-86 7 -196 68q-8 -8 -43 -50
q-69 -77 -74 -81zM446 477q-23 -61 -45 -164l203 244q35 44 129.5 156t108.5 129q9 11 25.5 31t19.5 24q6 8 59 74q61 77 176 225q-3 11 -10 18q-3 3 -10 3q-21 0 -60.5 -20t-72.5 -48q-66 -53 -107 -66q-41 -19 -94 -79q-42 -48 -72 -86q-168 -216 -237 -404
q-11 -28 -13 -37zM418 113h8q29 7 100 53t115 86q3 2 15.5 13t19.5 16q35 31 117 118q113 130 194.5 277t120.5 289l-98 -134q-170 -208 -406 -481q-3 -4 -51 -61t-78 -92q-48 -59 -67 -82q6 -2 10 -2z" />
    <glyph glyph-name="Ugrave" unicode="&#xd9;" horiz-adv-x="1171" 
d="M973 63q-8 -28 -14.5 -38.5t-18.5 -10.5q-2 0 -6 1t-6 1q-41 7 -101.5 27.5t-89.5 40.5q-73 -53 -141 -53q-69 0 -175.5 49.5t-156.5 107.5q-69 81 -69 213q0 186 139 502q15 30 22 51q12 20 19 41q4 6 11.5 22.5t8.5 18.5q20 47 66 131.5t55 92.5q8 8 25 8q31 0 96 -33
q50 -25 71 -43t21 -37v-6q-5 -38 -45 -123q0 -1 -8 -20.5t-12 -28.5q-2 -5 -13 -28t-16 -34q-106 -230 -151 -370t-46 -250q0 -54 5 -77t18 -23q19 0 69 41q113 90 242 307q198 328 295 592q30 82 43 107t27 28q2 0 6 1t6 1q45 0 130 -45.5t85 -71.5q0 -10 -16 -39
q-19 -37 -35 -88q-42 -115 -101 -240q-88 -224 -168 -487q-2 -8 -9.5 -33t-10.5 -37q-26 -77 -51 -168zM791 1700q6 2 24 2q32 0 80 -10t70 -23q23 -15 59 -57q39 -45 81 -83.5t62 -45.5q35 -15 48.5 -25t13.5 -20q0 -19 -49 -19q-95 0 -201 45q-69 29 -136 100.5t-67 112.5
q0 17 15 23z" />
    <glyph glyph-name="Uacute" unicode="&#xda;" horiz-adv-x="1171" 
d="M973 63q-8 -28 -14.5 -38.5t-18.5 -10.5q-2 0 -6 1t-6 1q-41 7 -101.5 27.5t-89.5 40.5q-73 -53 -141 -53q-69 0 -175.5 49.5t-156.5 107.5q-69 81 -69 213q0 186 139 502q15 30 22 51q12 20 19 41q4 6 11.5 22.5t8.5 18.5q20 47 66 131.5t55 92.5q8 8 25 8q31 0 96 -33
q50 -25 71 -43t21 -37v-6q-5 -38 -45 -123q0 -1 -8 -20.5t-12 -28.5q-2 -5 -13 -28t-16 -34q-106 -230 -151 -370t-46 -250q0 -54 5 -77t18 -23q19 0 69 41q113 90 242 307q198 328 295 592q30 82 43 107t27 28q2 0 6 1t6 1q45 0 130 -45.5t85 -71.5q0 -10 -16 -39
q-19 -37 -35 -88q-42 -115 -101 -240q-88 -224 -168 -487q-2 -8 -9.5 -33t-10.5 -37q-26 -77 -51 -168zM1174 1681h22q77 0 145 -26q37 -15 37 -33q0 -7 -6 -16q-6 -10 -41.5 -32.5t-70.5 -37.5q-92 -41 -121 -51q-134 -55 -215 -55q-29 0 -56 6q-104 17 -104 47
q0 9 11.5 16t55.5 21q93 30 178 70.5t119 70.5q20 17 46 20z" />
    <glyph glyph-name="Ucircumflex" unicode="&#xdb;" horiz-adv-x="1171" 
d="M973 63q-8 -28 -14.5 -38.5t-18.5 -10.5q-2 0 -6 1t-6 1q-41 7 -101.5 27.5t-89.5 40.5q-73 -53 -141 -53q-69 0 -175.5 49.5t-156.5 107.5q-69 81 -69 213q0 186 139 502q15 30 22 51q12 20 19 41q4 6 11.5 22.5t8.5 18.5q20 47 66 131.5t55 92.5q8 8 25 8q31 0 96 -33
q50 -25 71 -43t21 -37v-6q-5 -38 -45 -123q0 -1 -8 -20.5t-12 -28.5q-2 -5 -13 -28t-16 -34q-106 -230 -151 -370t-46 -250q0 -54 5 -77t18 -23q19 0 69 41q113 90 242 307q198 328 295 592q30 82 43 107t27 28q2 0 6 1t6 1q45 0 130 -45.5t85 -71.5q0 -10 -16 -39
q-19 -37 -35 -88q-42 -115 -101 -240q-88 -224 -168 -487q-2 -8 -9.5 -33t-10.5 -37q-26 -77 -51 -168zM1067 1716q6 2 23 2q26 0 63.5 -10t56.5 -22q22 -15 45 -68q21 -45 38.5 -71t54.5 -64q38 -43 38 -53q0 -3 -4 -11q-10 -10 -39 -10q-73 0 -145 35q-27 11 -43.5 27
t-58.5 73q-10 17 -19 17q-7 0 -47 -21q-152 -79 -209 -82h-6q-31 0 -71 10.5t-52 22.5q-10 10 -10 16q0 16 45 31q126 49 221 100q36 19 82 52q26 23 37 26z" />
    <glyph glyph-name="Udieresis" unicode="&#xdc;" horiz-adv-x="1171" 
d="M973 63q-8 -28 -14.5 -38.5t-18.5 -10.5q-2 0 -6 1t-6 1q-41 7 -101.5 27.5t-89.5 40.5q-73 -53 -141 -53q-69 0 -175.5 49.5t-156.5 107.5q-69 81 -69 213q0 186 139 502q15 30 22 51q12 20 19 41q4 6 11.5 22.5t8.5 18.5q20 47 66 131.5t55 92.5q8 8 25 8q31 0 96 -33
q50 -25 71 -43t21 -37v-6q-5 -38 -45 -123q0 -1 -8 -20.5t-12 -28.5q-2 -5 -13 -28t-16 -34q-106 -230 -151 -370t-46 -250q0 -54 5 -77t18 -23q19 0 69 41q113 90 242 307q198 328 295 592q30 82 43 107t27 28q2 0 6 1t6 1q45 0 130 -45.5t85 -71.5q0 -10 -16 -39
q-19 -37 -35 -88q-42 -115 -101 -240q-88 -224 -168 -487q-2 -8 -9.5 -33t-10.5 -37q-26 -77 -51 -168zM752 1593q8 2 28 2q81 0 156 -30q33 -11 33 -33q0 -19 -33 -66q-25 -38 -47.5 -52.5t-57.5 -14.5q-13 0 -49 4q-120 21 -120 72v4q3 25 35.5 66.5t54.5 47.5zM1151 1583
q8 2 29 2q45 0 100 -16q43 -13 60.5 -24.5t17.5 -31.5q0 -25 -33 -75q-24 -38 -42.5 -52t-49.5 -14q-23 0 -57 6q-115 15 -115 74q0 32 35 82q19 27 28 35t27 14z" />
    <glyph glyph-name="Yacute" unicode="&#xdd;" horiz-adv-x="1140" 
d="M477 1358q4 2 15 2q24 0 65.5 -16.5t77.5 -40.5q32 -22 43 -43t16 -68q0 -7 1 -20t1 -15q2 -6 2 -49q0 -35 4 -55q0 -1 1.5 -34.5t1.5 -57.5q1 -37 8 -154q6 -68 20 -139t23 -82q4 -4 6 -4q5 0 12 10.5t27 48.5q80 149 125.5 266t91.5 287q36 122 47 131q6 6 20 6
q35 0 94 -28.5t87 -61.5q14 -17 14 -47q0 -56 -66 -272q-56 -181 -161 -383q-73 -135 -76 -140q-21 -38 -31 -59q-5 -9 -100 -176q-140 -241 -187 -264q-8 -4 -16 -4q-31 0 -84 21.5t-95 50.5t-42 48q0 6 12.5 22.5t22.5 22.5q15 9 63.5 83t106.5 178q30 52 30 63
q0 10 -24 37q-46 46 -76 121q-54 134 -78 303q-5 43 -6 49q-6 71 -8 127q0 52 -4 68q0 1 -1 37t-1 63q0 28 1 65l1 37q4 16 4 33q3 27 12 33zM1092 1718h22q78 0 146 -26q36 -14 36 -33q0 -8 -6 -17q-6 -10 -41.5 -31.5t-70.5 -37.5q-92 -41 -121 -51q-136 -56 -215 -56
q-24 0 -56 7q-104 17 -104 47q0 9 11.5 15t56.5 21q92 30 177.5 71t119.5 71q13 12 21 15t24 5z" />
    <glyph glyph-name="Thorn" unicode="&#xde;" horiz-adv-x="1370" 
d="M612 352q0 -14 19 -14q3 0 31 4q152 28 291.5 128t195.5 222q45 102 45 189q0 77 -37 135q-15 24 -26.5 32.5t-38.5 16.5q-47 14 -148 14h-41q-137 -354 -158 -405q-22 -43 -72.5 -162.5t-58.5 -146.5q-2 -4 -2 -13zM279 205l2 2q27 86 38 117q48 140 93 251
q85 201 108 248q49 106 49 117l9 23q-7 -6 -29 -24t-35 -28q-98 -79 -115 -147q-3 -23 -22 -23q-24 0 -74 33q-94 54 -94 105v4q0 77 94 163.5t223 131.5q80 27 150 41l53 139l8 26q6 20 18.5 37.5t33 30.5t51.5 9.5t67 -27.5q53 -31 73.5 -51t20.5 -42q0 -15 -10 -38
q-16 -40 -18 -48q-15 -35 -19 -47q142 -37 252 -110q47 -32 82.5 -68t52.5 -61.5t43 -69.5q41 -74 41 -158q0 -113 -67 -229q-51 -89 -150 -165.5t-215 -120.5t-217 -44q-43 0 -74 8q-14 3 -86 23q-24 8 -38 8q-13 0 -19 -12q0 -1 -4.5 -13.5t-9.5 -27t-8 -23.5
q-14 -49 -39 -125t-29 -81q-7 -7 -18 -7q-27 0 -72.5 21t-89.5 57q-3 2 -10.5 8.5t-9.5 8t-7.5 6t-7 6.5t-4.5 6.5t-3.5 7.5t-1.5 7.5t-1 9.5q0 29 35 135z" />
    <glyph glyph-name="germandbls" unicode="&#xdf;" horiz-adv-x="1308" 
d="M-258 -705q-53 -20 -109 -20q-73 0 -174 43q-75 34 -75 49q0 17 86 41q104 29 173 79.5t144 152.5q71 99 115 188q50 107 102 256q24 65 158 401q13 39 31 74q7 22 37.5 96t35.5 86q22 55 66 148q31 66 37 78q72 152 158 249.5t196 151.5q75 45 117 45q83 0 207 -60
t165 -120q29 -47 29 -103q0 -113 -96 -245q-10 -14 -18.5 -24t-24 -27t-29.5 -33q-32 -33 -42.5 -46.5t-10.5 -23.5q0 -9 27 -24q95 -51 139.5 -110.5t44.5 -135.5q0 -51 -23 -125q-6 -18 -8 -21q39 27 129 97q18 14 40 35t50 45q45 42 113 100q26 26 41 26q12 0 20 -4
q31 -12 74 -58.5t49 -72.5v-8q0 -25 -65 -82q-71 -63 -121 -104q-232 -191 -479 -275q-119 -41 -215 -41q-62 0 -154 21q-68 19 -130.5 53.5t-62.5 54.5q0 6 7 9l5 1q5 0 12.5 0.5t14.5 0.5q85 10 197 65q73 36 147 119t99 154q22 77 22 129q0 31 -6 55q-6 18 -15.5 24.5
t-43.5 12.5q-82 15 -191 84q-37 24 -37 39q0 12 27 32q138 101 217 232q25 38 41 94t16 98q0 34 -12 43q-9 6 -20 6q-27 0 -66 -36q-107 -106 -188.5 -229t-157.5 -296q-4 -7 -14 -28.5t-15 -30.5q-124 -282 -278 -692q-45 -121 -86 -219q-3 -6 -13 -30t-16 -34
q-25 -59 -75.5 -135.5t-104.5 -136.5q-39 -42 -97 -80t-116 -58z" />
    <glyph glyph-name="agrave" unicode="&#xe0;" horiz-adv-x="1165" 
d="M711 117q-139 -109 -258 -109q-15 0 -43 4q-125 28 -217.5 99t-112.5 155q-4 14 -4 47q0 91 54.5 193.5t134 181.5t172.5 131.5t165 52.5q44 0 109 -18q76 -22 139 -63q32 -19 39 -19q8 0 24 19q28 28 54 28q27 0 77 -24q73 -36 76 -64v-4q0 -13 -94 -180
q-119 -221 -119 -332q0 -28 4 -39.5t15 -11.5q16 0 73 31q89 46 195 159q61 64 115 136t73 106q13 23 21 27q2 2 12 2q37 0 105.5 -46.5t68.5 -74.5q-1 -10 -22.5 -42.5t-67.5 -88.5t-102 -115q-91 -97 -178 -154q-136 -88 -224 -88q-20 0 -28 2q-76 13 -189 103
q-24 18 -33 18q-6 0 -34 -22zM748 719q-3 6 -15 6q-32 0 -105.5 -46.5t-125.5 -100.5q-130 -139 -168 -259q-27 -92 -27 -122q0 -22 15 -37q8 -4 18 -4q41 0 121.5 50.5t130.5 110.5q56 67 109 190.5t53 184.5q0 18 -6 27zM571 1288q6 2 25 2q32 0 79.5 -10t69.5 -23
q26 -17 60 -57q39 -45 81 -83.5t62 -45.5q35 -15 48.5 -25t13.5 -20q0 -18 -49 -18q-95 0 -201 45q-69 29 -136 100.5t-67 112.5q0 16 14 22z" />
    <glyph glyph-name="aacute" unicode="&#xe1;" horiz-adv-x="1165" 
d="M711 117q-139 -109 -258 -109q-15 0 -43 4q-125 28 -217.5 99t-112.5 155q-4 14 -4 47q0 91 54.5 193.5t134 181.5t172.5 131.5t165 52.5q44 0 109 -18q76 -22 139 -63q32 -19 39 -19q8 0 24 19q28 28 54 28q27 0 77 -24q73 -36 76 -64v-4q0 -13 -94 -180
q-119 -221 -119 -332q0 -28 4 -39.5t15 -11.5q16 0 73 31q89 46 195 159q61 64 115 136t73 106q13 23 21 27q2 2 12 2q37 0 105.5 -46.5t68.5 -74.5q-1 -10 -22.5 -42.5t-67.5 -88.5t-102 -115q-91 -97 -178 -154q-136 -88 -224 -88q-20 0 -28 2q-76 13 -189 103
q-24 18 -33 18q-6 0 -34 -22zM748 719q-3 6 -15 6q-32 0 -105.5 -46.5t-125.5 -100.5q-130 -139 -168 -259q-27 -92 -27 -122q0 -22 15 -37q8 -4 18 -4q41 0 121.5 50.5t130.5 110.5q56 67 109 190.5t53 184.5q0 18 -6 27zM954 1270h23q75 0 145 -27q37 -15 37 -33
q0 -7 -6 -16q-6 -10 -42 -32t-71 -38q-97 -43 -120 -51q-134 -55 -215 -55q-29 0 -56 6q-104 17 -104 47q0 9 11.5 16t55.5 21q93 30 178 70.5t119 70.5q21 19 45 21z" />
    <glyph glyph-name="acircumflex" unicode="&#xe2;" horiz-adv-x="1165" 
d="M711 117q-139 -109 -258 -109q-15 0 -43 4q-125 28 -217.5 99t-112.5 155q-4 14 -4 47q0 91 54.5 193.5t134 181.5t172.5 131.5t165 52.5q44 0 109 -18q76 -22 139 -63q32 -19 39 -19q8 0 24 19q28 28 54 28q27 0 77 -24q73 -36 76 -64v-4q0 -13 -94 -180
q-119 -221 -119 -332q0 -28 4 -39.5t15 -11.5q16 0 73 31q89 46 195 159q61 64 115 136t73 106q13 23 21 27q2 2 12 2q37 0 105.5 -46.5t68.5 -74.5q-1 -10 -22.5 -42.5t-67.5 -88.5t-102 -115q-91 -97 -178 -154q-136 -88 -224 -88q-20 0 -28 2q-76 13 -189 103
q-24 18 -33 18q-6 0 -34 -22zM748 719q-3 6 -15 6q-32 0 -105.5 -46.5t-125.5 -100.5q-130 -139 -168 -259q-27 -92 -27 -122q0 -22 15 -37q8 -4 18 -4q41 0 121.5 50.5t130.5 110.5q56 67 109 190.5t53 184.5q0 18 -6 27zM848 1305q6 2 22 2q26 0 64 -10.5t57 -22.5
q22 -15 45 -68q22 -46 39 -71.5t53 -63.5q39 -44 39 -53q0 -2 -4 -10q-11 -11 -39 -11q-73 0 -145 35q-27 11 -43.5 27t-58.5 74q-10 16 -19 16q-6 0 -47 -21q-150 -78 -209 -81h-6q-32 0 -71.5 10t-51.5 22q-10 10 -10 17q0 15 45 30q120 46 221 101q41 21 82 51
q28 25 37 27z" />
    <glyph glyph-name="atilde" unicode="&#xe3;" horiz-adv-x="1165" 
d="M711 117q-139 -109 -258 -109q-15 0 -43 4q-125 28 -217.5 99t-112.5 155q-4 14 -4 47q0 91 54.5 193.5t134 181.5t172.5 131.5t165 52.5q44 0 109 -18q76 -22 139 -63q32 -19 39 -19q8 0 24 19q28 28 54 28q27 0 77 -24q73 -36 76 -64v-4q0 -13 -94 -180
q-119 -221 -119 -332q0 -28 4 -39.5t15 -11.5q16 0 73 31q89 46 195 159q61 64 115 136t73 106q13 23 21 27q2 2 12 2q37 0 105.5 -46.5t68.5 -74.5q-1 -10 -22.5 -42.5t-67.5 -88.5t-102 -115q-91 -97 -178 -154q-136 -88 -224 -88q-20 0 -28 2q-76 13 -189 103
q-24 18 -33 18q-6 0 -34 -22zM748 719q-3 6 -15 6q-32 0 -105.5 -46.5t-125.5 -100.5q-130 -139 -168 -259q-27 -92 -27 -122q0 -22 15 -37q8 -4 18 -4q41 0 121.5 50.5t130.5 110.5q56 67 109 190.5t53 184.5q0 18 -6 27zM731 1249q27 0 49.5 -8t93.5 -41q11 -5 42.5 -22.5
t53 -27t34.5 -9.5q14 0 24 4t28.5 13t41.5 16q38 14 71 14q30 0 27 -17q-2 -23 -40 -56.5t-95.5 -60t-106.5 -26.5h-53q-49 0 -141 53q-71 39 -94 41q-9 1 -21 -3.5t-29.5 -13.5t-29.5 -13q-72 -31 -94 -29q-15 1 -24 10t-9 23q0 16 45 47q51 34 78 50.5t71 35t78 20.5z" />
    <glyph glyph-name="adieresis" unicode="&#xe4;" horiz-adv-x="1165" 
d="M711 117q-139 -109 -258 -109q-15 0 -43 4q-125 28 -217.5 99t-112.5 155q-4 14 -4 47q0 91 54.5 193.5t134 181.5t172.5 131.5t165 52.5q44 0 109 -18q76 -22 139 -63q32 -19 39 -19q8 0 24 19q28 28 54 28q27 0 77 -24q73 -36 76 -64v-4q0 -13 -94 -180
q-119 -221 -119 -332q0 -28 4 -39.5t15 -11.5q16 0 73 31q89 46 195 159q61 64 115 136t73 106q13 23 21 27q2 2 12 2q37 0 105.5 -46.5t68.5 -74.5q-1 -10 -22.5 -42.5t-67.5 -88.5t-102 -115q-91 -97 -178 -154q-136 -88 -224 -88q-20 0 -28 2q-76 13 -189 103
q-24 18 -33 18q-6 0 -34 -22zM748 719q-3 6 -15 6q-32 0 -105.5 -46.5t-125.5 -100.5q-130 -139 -168 -259q-27 -92 -27 -122q0 -22 15 -37q8 -4 18 -4q41 0 121.5 50.5t130.5 110.5q56 67 109 190.5t53 184.5q0 18 -6 27zM532 1182q8 2 29 2q79 0 156 -31q33 -11 33 -33
q0 -18 -33 -65q-25 -39 -47.5 -53.5t-57.5 -14.5q-13 0 -49 4q-121 21 -121 72v4q3 25 35.5 67t54.5 48zM932 1171q12 3 29 3q42 0 100 -17q43 -13 60.5 -24.5t17.5 -30.5q0 -26 -33 -76q-24 -38 -42.5 -51.5t-49.5 -13.5q-24 0 -58 6q-114 15 -114 73q0 32 35 82
q19 27 28 35t27 14z" />
    <glyph glyph-name="aring" unicode="&#xe5;" horiz-adv-x="1165" 
d="M711 117q-139 -109 -258 -109q-15 0 -43 4q-125 28 -217.5 99t-112.5 155q-4 14 -4 47q0 91 54.5 193.5t134 181.5t172.5 131.5t165 52.5q44 0 109 -18q76 -22 139 -63q32 -19 39 -19q8 0 24 19q28 28 54 28q27 0 77 -24q73 -36 76 -64v-4q0 -13 -94 -180
q-119 -221 -119 -332q0 -28 4 -39.5t15 -11.5q16 0 73 31q89 46 195 159q61 64 115 136t73 106q13 23 21 27q2 2 12 2q37 0 105.5 -46.5t68.5 -74.5q-1 -10 -22.5 -42.5t-67.5 -88.5t-102 -115q-91 -97 -178 -154q-136 -88 -224 -88q-20 0 -28 2q-76 13 -189 103
q-24 18 -33 18q-6 0 -34 -22zM748 719q-3 6 -15 6q-32 0 -105.5 -46.5t-125.5 -100.5q-130 -139 -168 -259q-27 -92 -27 -122q0 -22 15 -37q8 -4 18 -4q41 0 121.5 50.5t130.5 110.5q56 67 109 190.5t53 184.5q0 18 -6 27zM885 1006q-8 -1 -56 6q-72 15 -144 60t-91 85
q-8 16 -8 45q0 52 31.5 114.5t78.5 100.5q45 35 138 35q70 0 159 -51q49 -27 71.5 -56.5t22.5 -70.5q0 -37 -22 -95.5t-59 -95.5q-71 -71 -121 -77zM762 1116q17 -9 34.5 -6t53.5 23q23 12 47 45t39 73q10 31 10 72q0 11 -8 23.5t-20 15.5q-13 1 -31.5 2t-46 -12t-47.5 -39
q-22 -29 -36 -72.5t-14 -71.5q0 -43 19 -53z" />
    <glyph glyph-name="ae" unicode="&#xe6;" horiz-adv-x="1456" 
d="M911 135q40 0 133 26.5t158 55.5q95 43 192.5 111.5t229.5 185.5q73 65 86 80q10 14 12 14q2 2 11 2q49 0 129 -55q30 -18 30 -33q0 -13 -20 -33q-1 -1 -9 -10t-21.5 -23.5t-29.5 -29.5q-121 -108 -197 -171t-161.5 -120t-163.5 -87t-170 -46q-28 -4 -47 -4
q-116 0 -254 80q-78 44 -121 98q-25 31 -32 31q-2 0 -4.5 -1t-5.5 -4t-5 -5.5t-6.5 -8t-7.5 -8.5q-63 -71 -86 -94q-42 -44 -75 -61t-73 -17q-53 0 -136.5 39t-135.5 88q-49 53 -59.5 127.5t22 165.5t107.5 182q76 93 131 135t137 76q40 18 80 27q98 19 237 -55
q32 -17 41 -18t29 13q91 60 175 63.5t190 -48.5q136 -69 127 -135q-9 -63 -69 -141.5t-124 -110.5q-45 -23 -111 -33.5t-106 -1.5q-29 6 -38 5t-13 -11q-17 -56 -17 -119q0 -121 41 -121zM1122 666q2 15 -25 8q-37 -10 -81 -56q-50 -52 -55 -96q-3 -20 9 -19q1 0 3 1
q35 10 92 72t57 90zM666 662q0 7 -3 10.5t-8 1.5q-46 -10 -88 -47q-45 -39 -129 -166t-116 -207q-28 -69 -14 -108q6 -18 22 -15q37 11 98 85.5t133 197.5q42 71 73.5 145.5t31.5 102.5z" />
    <glyph glyph-name="ccedilla" unicode="&#xe7;" horiz-adv-x="983" 
d="M805 -270q-59 -47 -180 -47q-105 0 -197 32q-48 17 -75 37.5t-27 38.5q0 24 49 27q8 1 17 2t14 1.5t8 0.5q45 0 102 -31q32 -14 43 -14q5 0 21 4q47 16 47 53q0 12 -6 21q-6 10 -14 12.5t-50 7.5q-43 5 -96 21q-60 18 -60 41q0 16 45 55q2 1 13 12q-99 41 -181 105.5
t-114 130.5q-27 56 -27 120q0 170 164 342q127 134 277 148q18 2 57 2q138 0 235 -56.5t97 -160.5q0 -33 -17 -86q-5 -13 -10 -27.5t-8 -22.5t-6 -16.5t-5 -12.5t-4 -7.5t-4.5 -4.5t-5.5 -1q-28 0 -72.5 13.5t-80.5 35.5q-22 15 -30.5 25t-8.5 26q0 25 20 86q6 21 6 39
q0 33 -12 39h-4q-20 0 -72.5 -27t-95.5 -57q-77 -58 -124.5 -156.5t-47.5 -187.5q0 -30 6 -57q21 -67 70 -101q15 -12 45 -12q92 0 256.5 93.5t281.5 213.5q70 70 111 121q33 39 48 52t30 13q8 0 12 -2q20 -4 57 -40t50 -60q10 -13 10 -31q0 -30 -31 -61l-49 -49
q-99 -107 -164 -154q-183 -138 -237 -173q-135 -87 -226 -87h-18l-6 -6q17 -3 71 -21q59 -22 89.5 -49.5t39.5 -66.5q3 -9 3 -21q0 -42 -29 -65z" />
    <glyph glyph-name="egrave" unicode="&#xe8;" horiz-adv-x="841" 
d="M1198 426q-134 -121 -212 -186.5t-171 -129t-176.5 -96t-181.5 -49.5q-28 -4 -47 -4q-144 0 -299 102q-160 106 -160 267q0 92 51 194q57 117 186.5 216t255.5 124q24 4 41 4q101 0 220 -75q108 -67 108 -160q0 -39 -25 -84q-65 -106 -251.5 -227t-343.5 -158
q0 -1 -1.5 -4t-1.5 -4q0 -17 11 -35t22 -23q4 -2 17 -2q42 0 137.5 27t161.5 57q104 47 212.5 124t258.5 210q73 65 86 80q10 14 12 14q2 2 10 2q49 0 129 -55q31 -19 31 -33q0 -12 -21 -33q-1 -1 -8.5 -10t-21 -23.5t-29.5 -29.5zM254 457q-57 -94 -57 -111q3 0 14.5 3
t41.5 15.5t64 30.5q82 41 158.5 106.5t102.5 108.5q26 45 26 88q0 13 -4 17t-16 4h-6q-92 -34 -184.5 -108.5t-139.5 -153.5zM455 1282q6 2 24 2q32 0 80 -10t70 -23q23 -15 59 -57q39 -45 81 -83.5t62 -45.5q35 -15 48.5 -25t13.5 -20q0 -19 -49 -19q-93 0 -201 46
q-69 29 -136 100.5t-67 112.5q0 16 15 22z" />
    <glyph glyph-name="eacute" unicode="&#xe9;" horiz-adv-x="841" 
d="M1198 426q-134 -121 -212 -186.5t-171 -129t-176.5 -96t-181.5 -49.5q-28 -4 -47 -4q-144 0 -299 102q-160 106 -160 267q0 92 51 194q57 117 186.5 216t255.5 124q24 4 41 4q101 0 220 -75q108 -67 108 -160q0 -39 -25 -84q-65 -106 -251.5 -227t-343.5 -158
q0 -1 -1.5 -4t-1.5 -4q0 -17 11 -35t22 -23q4 -2 17 -2q42 0 137.5 27t161.5 57q104 47 212.5 124t258.5 210q73 65 86 80q10 14 12 14q2 2 10 2q49 0 129 -55q31 -19 31 -33q0 -12 -21 -33q-1 -1 -8.5 -10t-21 -23.5t-29.5 -29.5zM254 457q-57 -94 -57 -111q3 0 14.5 3
t41.5 15.5t64 30.5q82 41 158.5 106.5t102.5 108.5q26 45 26 88q0 13 -4 17t-16 4h-6q-92 -34 -184.5 -108.5t-139.5 -153.5zM838 1264h22q76 0 146 -27q36 -14 36 -33q0 -7 -6 -16q-6 -10 -41.5 -32.5t-70.5 -37.5q-92 -41 -121 -51q-134 -55 -215 -55q-29 0 -56 6
q-104 17 -104 47q0 9 11.5 15.5t56.5 21.5q93 30 178 70.5t119 70.5q21 19 45 21z" />
    <glyph glyph-name="ecircumflex" unicode="&#xea;" horiz-adv-x="841" 
d="M1198 426q-134 -121 -212 -186.5t-171 -129t-176.5 -96t-181.5 -49.5q-28 -4 -47 -4q-144 0 -299 102q-160 106 -160 267q0 92 51 194q57 117 186.5 216t255.5 124q24 4 41 4q101 0 220 -75q108 -67 108 -160q0 -39 -25 -84q-65 -106 -251.5 -227t-343.5 -158
q0 -1 -1.5 -4t-1.5 -4q0 -17 11 -35t22 -23q4 -2 17 -2q42 0 137.5 27t161.5 57q104 47 212.5 124t258.5 210q73 65 86 80q10 14 12 14q2 2 10 2q49 0 129 -55q31 -19 31 -33q0 -12 -21 -33q-1 -1 -8.5 -10t-21 -23.5t-29.5 -29.5zM254 457q-57 -94 -57 -111q3 0 14.5 3
t41.5 15.5t64 30.5q82 41 158.5 106.5t102.5 108.5q26 45 26 88q0 13 -4 17t-16 4h-6q-92 -34 -184.5 -108.5t-139.5 -153.5zM731 1298q6 2 23 2q26 0 63.5 -10t56.5 -22q23 -17 46 -68q22 -46 39 -71.5t53 -63.5q39 -44 39 -53q0 -3 -4 -11q-10 -10 -39 -10q-74 0 -146 35
q-27 11 -43.5 27t-58.5 73q-10 17 -19 17q-7 0 -47 -21q-152 -79 -209 -82h-6q-31 0 -71 10.5t-52 22.5q-10 10 -10 17q0 15 45 30q120 46 221 101q41 21 82 51q26 23 37 26z" />
    <glyph glyph-name="edieresis" unicode="&#xeb;" horiz-adv-x="841" 
d="M1198 426q-134 -121 -212 -186.5t-171 -129t-176.5 -96t-181.5 -49.5q-28 -4 -47 -4q-144 0 -299 102q-160 106 -160 267q0 92 51 194q57 117 186.5 216t255.5 124q24 4 41 4q101 0 220 -75q108 -67 108 -160q0 -39 -25 -84q-65 -106 -251.5 -227t-343.5 -158
q0 -1 -1.5 -4t-1.5 -4q0 -17 11 -35t22 -23q4 -2 17 -2q42 0 137.5 27t161.5 57q104 47 212.5 124t258.5 210q73 65 86 80q10 14 12 14q2 2 10 2q49 0 129 -55q31 -19 31 -33q0 -12 -21 -33q-1 -1 -8.5 -10t-21 -23.5t-29.5 -29.5zM254 457q-57 -94 -57 -111q3 0 14.5 3
t41.5 15.5t64 30.5q82 41 158.5 106.5t102.5 108.5q26 45 26 88q0 13 -4 17t-16 4h-6q-92 -34 -184.5 -108.5t-139.5 -153.5zM416 1176q8 2 28 2q78 0 156 -31q33 -11 33 -33q0 -18 -33 -65q-25 -39 -47 -53.5t-57 -14.5q-14 0 -50 4q-120 21 -120 72v4q3 25 35.5 67
t54.5 48zM815 1165q8 2 29 2q45 0 100 -16q43 -13 60.5 -24.5t17.5 -30.5q0 -26 -33 -76q-24 -38 -42.5 -52t-49.5 -14q-17 0 -57 7q-115 15 -115 73q0 32 35 82q19 27 28 35t27 14z" />
    <glyph glyph-name="igrave" unicode="&#xec;" horiz-adv-x="665" 
d="M887 266q-99 -115 -229.5 -200.5t-221.5 -92.5h-8q-68 0 -169.5 50.5t-135.5 101.5q-39 58 -39 139q0 27 6 51q38 179 219 435q7 13 35 51q31 45 42 57t24 16q6 3 12 3q52 0 139 -56q47 -28 47 -57q0 -26 -39 -82q-104 -151 -145.5 -223t-77.5 -166q-33 -87 -33 -133
q0 -25 11 -29h4q16 0 56 16.5t77 38.5q133 80 217 164q70 70 131 152q60 79 73.5 93.5t26.5 16.5h6q30 0 88.5 -48t61.5 -75q0 -14 -25 -43q-11 -11 -59 -71q-36 -44 -94 -109zM453 1323q6 2 24 2q32 0 80 -10t70 -23q23 -15 59 -57q39 -45 81 -83.5t62 -45.5
q35 -15 48.5 -25t13.5 -20q0 -19 -49 -19q-95 0 -201 45q-69 29 -136 100.5t-67 112.5q0 17 15 23z" />
    <glyph glyph-name="iacute" unicode="&#xed;" horiz-adv-x="665" 
d="M887 266q-99 -115 -229.5 -200.5t-221.5 -92.5h-8q-68 0 -169.5 50.5t-135.5 101.5q-39 58 -39 139q0 27 6 51q38 179 219 435q7 13 35 51q31 45 42 57t24 16q6 3 12 3q52 0 139 -56q47 -28 47 -57q0 -26 -39 -82q-104 -151 -145.5 -223t-77.5 -166q-33 -87 -33 -133
q0 -25 11 -29h4q16 0 56 16.5t77 38.5q133 80 217 164q70 70 131 152q60 79 73.5 93.5t26.5 16.5h6q30 0 88.5 -48t61.5 -75q0 -14 -25 -43q-11 -11 -59 -71q-36 -44 -94 -109zM836 1305h22q76 0 146 -27q36 -14 36 -33q0 -7 -6 -16q-6 -10 -41.5 -32.5t-70.5 -37.5
q-92 -41 -121 -51q-134 -55 -215 -55q-29 0 -56 6q-104 17 -104 47q0 9 11.5 15.5t56.5 21.5q93 30 178 70.5t119 70.5q21 19 45 21z" />
    <glyph glyph-name="icircumflex" unicode="&#xee;" horiz-adv-x="665" 
d="M887 266q-99 -115 -229.5 -200.5t-221.5 -92.5h-8q-68 0 -169.5 50.5t-135.5 101.5q-39 58 -39 139q0 27 6 51q38 179 219 435q7 13 35 51q31 45 42 57t24 16q6 3 12 3q52 0 139 -56q47 -28 47 -57q0 -26 -39 -82q-104 -151 -145.5 -223t-77.5 -166q-33 -87 -33 -133
q0 -25 11 -29h4q16 0 56 16.5t77 38.5q133 80 217 164q70 70 131 152q60 79 73.5 93.5t26.5 16.5h6q30 0 88.5 -48t61.5 -75q0 -14 -25 -43q-11 -11 -59 -71q-36 -44 -94 -109zM729 1339q6 2 23 2q26 0 63.5 -10t56.5 -22q23 -17 46 -68q22 -46 39 -71.5t53 -63.5
q39 -44 39 -53q0 -1 -5 -11q-10 -10 -38 -10q-74 0 -146 35q-27 11 -43.5 27t-58.5 73q-10 17 -19 17q-7 0 -47 -21q-152 -79 -209 -82h-6q-31 0 -71 10.5t-52 22.5q-10 10 -10 16q0 16 45 31q120 46 221 101q41 21 82 51q26 23 37 26z" />
    <glyph glyph-name="idieresis" unicode="&#xef;" horiz-adv-x="665" 
d="M887 266q-99 -115 -229.5 -200.5t-221.5 -92.5h-8q-68 0 -169.5 50.5t-135.5 101.5q-39 58 -39 139q0 27 6 51q38 179 219 435q7 13 35 51q31 45 42 57t24 16q6 3 12 3q52 0 139 -56q47 -28 47 -57q0 -26 -39 -82q-104 -151 -145.5 -223t-77.5 -166q-33 -87 -33 -133
q0 -25 11 -29h4q16 0 56 16.5t77 38.5q133 80 217 164q70 70 131 152q60 79 73.5 93.5t26.5 16.5h6q30 0 88.5 -48t61.5 -75q0 -14 -25 -43q-11 -11 -59 -71q-36 -44 -94 -109zM414 1217q8 2 28 2q78 0 156 -31q33 -11 33 -33q0 -18 -33 -65q-25 -39 -47 -53.5t-57 -14.5
q-14 0 -50 4q-120 21 -120 72v4q3 25 35.5 67t54.5 48zM813 1206q8 2 29 2q45 0 100 -16q43 -13 60.5 -24.5t17.5 -30.5q0 -26 -33 -76q-24 -38 -42.5 -52t-49.5 -14q-23 0 -57 6q-115 15 -115 74q0 32 35 82q19 27 28 35t27 14z" />
    <glyph glyph-name="eth" unicode="&#xf0;" horiz-adv-x="1134" 
d="M379 1661q7 2 22 0q46 -11 115.5 -44t134.5 -77q23 -14 53 -36t33 -27q14 -17 31.5 -16t56.5 20q6 3 22.5 11t22.5 11q24 8 31 15q22 9 37.5 8.5t50.5 -10.5q56 -19 115.5 -54.5t69.5 -56.5q5 -11 -2 -17q-11 -8 -113 -53q-36 -16 -47 -22q-6 -3 -19.5 -9t-17.5 -8
q-31 -11 -57 -28q-11 -14 14 -68q35 -81 51 -125q12 -32 18 -53q39 -109 50 -180q18 -106 18 -156q0 -108 -40.5 -232t-125.5 -239q-61 -80 -100 -111q-11 -11 -31 -26q-57 -51 -124.5 -76t-121.5 -16q-83 12 -195 72.5t-153 115.5q-32 41 -44 93.5t-3 105.5q19 100 51 166
q2 4 7.5 14t7.5 14q20 53 73 127q72 103 165.5 179.5t191.5 109.5q69 23 114 10q33 -9 37 7q4 17 -24 106q-10 33 -16.5 46t-16.5 13t-55 -28q-64 -38 -78 -44t-37 -6q-53 3 -116.5 39t-63.5 64q0 23 59.5 71t147.5 95q41 22 46 30.5t-8 34.5q-43 82 -108 115
q-87 46 -126 93q-23 27 -3 32zM795 829q-13 7 -76 -43q-19 -17 -61 -59t-54 -57q-32 -36 -49 -62q-78 -108 -125.5 -230.5t-38.5 -195.5q1 -20 5 -26t12 -6q40 0 130 82t144 167q66 106 102 244q13 56 17 86q5 31 3 64t-9 36z" />
    <glyph glyph-name="ntilde" unicode="&#xf1;" horiz-adv-x="1310" 
d="M1161 -2q-42 -10 -78 -10q-124 0 -270 96q-82 54 -82 121q0 58 53 155t177 277q30 47 30 53q0 4 -8 4q-19 0 -105 -42t-157 -85q-172 -106 -301 -241q-147 -160 -209 -275q-19 -34 -24.5 -39.5t-22.5 -5.5q-33 0 -103.5 35.5t-85.5 60.5q-6 8 -6 25q1 27 44.5 114.5
t109.5 196.5q4 5 39 64q29 47 76 113.5t82.5 113t78 102t43.5 56.5q5 8 21 8q22 0 94 -31q105 -54 105 -92v-4q0 -2 -9 -20q102 49 147 69.5t116 44.5t128 31h17q86 0 178 -53q43 -26 59.5 -43t16.5 -39q0 -5 -4 -25q-6 -25 -30 -63.5t-120 -175.5q-90 -130 -142 -224
t-52 -123q0 -6 4 -10q2 -2 8 -2q22 0 75 26t103 62q47 33 117.5 97.5t120.5 119.5q95 105 123 150q17 26 36 26q20 0 78 -34q88 -50 88 -86q-3 -37 -194 -238q-62 -65 -103 -100q-158 -137 -262 -160zM995 1270q27 0 50 -8t94 -41q12 -6 42.5 -23t52 -27t34.5 -10q14 0 24 4
t28.5 13t41.5 16q38 14 72 14q15 0 21.5 -4t4.5 -12q-2 -23 -39.5 -56.5t-95 -60t-106.5 -26.5h-54q-49 0 -141 53q-71 39 -94 41q-9 1 -21 -4t-29.5 -14t-29.5 -13q-72 -31 -94 -29q-15 1 -24 10t-9 23q0 16 45 47q53 35 78.5 51t70 35t78.5 21z" />
    <glyph glyph-name="ograve" unicode="&#xf2;" horiz-adv-x="1275" 
d="M1198 311q-19 -1 -27.5 -7t-27.5 -30q-84 -112 -205.5 -190.5t-237.5 -97.5q-28 -4 -45 -4q-77 0 -174.5 39t-179.5 104q-65 52 -100 126t-35 157q0 98 47 190q47 98 160 183.5t211 97.5q121 92 213 110q16 4 53 4q96 0 211 -63q123 -65 174 -139.5t51 -192.5v-57
q2 -2 8 -2q24 0 97.5 28.5t126.5 57.5q45 20 59 20q23 0 39 -24q28 -34 47.5 -74.5t19.5 -63.5q0 -6 -4 -14q-8 -12 -49.5 -35.5t-103.5 -50t-151.5 -48t-176.5 -24.5zM1022 836q-11 14 -39 14q-61 0 -124.5 -62.5t-63.5 -154.5q0 -26 6 -53q13 -55 44 -80t85 -25
q28 0 37 6.5t26 38.5q58 119 58 217q0 67 -29 99zM580 625q-4 4 -9 4q-12 0 -41 -33q-118 -127 -118 -281q0 -69 26 -125q13 -28 22 -37.5t27 -9.5q7 0 31 4q86 21 192 81.5t164 125.5q15 19 15 23q0 11 -60 39q-168 83 -235 188q-11 18 -14 21zM748 1393q6 2 24 2
q32 0 80 -10t70 -23q23 -15 59 -57q39 -45 81 -83.5t62 -45.5q62 -28 62 -46t-49 -18q-95 0 -201 45q-69 29 -136 100.5t-67 112.5q0 17 15 23z" />
    <glyph glyph-name="oacute" unicode="&#xf3;" horiz-adv-x="1275" 
d="M1198 311q-19 -1 -27.5 -7t-27.5 -30q-84 -112 -205.5 -190.5t-237.5 -97.5q-28 -4 -45 -4q-77 0 -174.5 39t-179.5 104q-65 52 -100 126t-35 157q0 98 47 190q47 98 160 183.5t211 97.5q121 92 213 110q16 4 53 4q96 0 211 -63q123 -65 174 -139.5t51 -192.5v-57
q2 -2 8 -2q24 0 97.5 28.5t126.5 57.5q45 20 59 20q23 0 39 -24q28 -34 47.5 -74.5t19.5 -63.5q0 -6 -4 -14q-8 -12 -49.5 -35.5t-103.5 -50t-151.5 -48t-176.5 -24.5zM1022 836q-11 14 -39 14q-61 0 -124.5 -62.5t-63.5 -154.5q0 -26 6 -53q13 -55 44 -80t85 -25
q28 0 37 6.5t26 38.5q58 119 58 217q0 67 -29 99zM580 625q-4 4 -9 4q-12 0 -41 -33q-118 -127 -118 -281q0 -69 26 -125q13 -28 22 -37.5t27 -9.5q7 0 31 4q86 21 192 81.5t164 125.5q15 19 15 23q0 11 -60 39q-168 83 -235 188q-11 18 -14 21zM1130 1374h23q77 0 145 -26
q37 -15 37 -33q0 -8 -6 -17q-6 -10 -41.5 -31.5t-70.5 -37.5q-92 -41 -121 -51q-136 -56 -215 -56q-29 0 -56 6q-104 17 -104 48q0 9 11 15t56 21q92 30 177.5 71t119.5 71q13 12 21 15t24 5z" />
    <glyph glyph-name="ocircumflex" unicode="&#xf4;" horiz-adv-x="1275" 
d="M1198 311q-19 -1 -27.5 -7t-27.5 -30q-84 -112 -205.5 -190.5t-237.5 -97.5q-28 -4 -45 -4q-77 0 -174.5 39t-179.5 104q-65 52 -100 126t-35 157q0 98 47 190q47 98 160 183.5t211 97.5q121 92 213 110q16 4 53 4q96 0 211 -63q123 -65 174 -139.5t51 -192.5v-57
q2 -2 8 -2q24 0 97.5 28.5t126.5 57.5q45 20 59 20q23 0 39 -24q28 -34 47.5 -74.5t19.5 -63.5q0 -6 -4 -14q-8 -12 -49.5 -35.5t-103.5 -50t-151.5 -48t-176.5 -24.5zM1022 836q-11 14 -39 14q-61 0 -124.5 -62.5t-63.5 -154.5q0 -26 6 -53q13 -55 44 -80t85 -25
q28 0 37 6.5t26 38.5q58 119 58 217q0 67 -29 99zM580 625q-4 4 -9 4q-12 0 -41 -33q-118 -127 -118 -281q0 -69 26 -125q13 -28 22 -37.5t27 -9.5q7 0 31 4q86 21 192 81.5t164 125.5q15 19 15 23q0 11 -60 39q-168 83 -235 188q-11 18 -14 21zM1024 1409q6 2 23 2
q26 0 63.5 -10.5t56.5 -22.5q22 -16 45 -67q21 -45 38.5 -71t54.5 -64q38 -43 38 -54q0 -2 -4 -10q-10 -10 -39 -10q-73 0 -145 35q-27 11 -43.5 27t-58.5 73q-10 16 -19 16q-8 0 -47 -20q-152 -79 -209 -82h-6q-31 0 -71 10.5t-52 22.5q-10 10 -10 16q0 16 45 31
q126 49 221 100q41 21 82 51q28 25 37 27z" />
    <glyph glyph-name="otilde" unicode="&#xf5;" horiz-adv-x="1275" 
d="M1198 311q-19 -1 -27.5 -7t-27.5 -30q-84 -112 -205.5 -190.5t-237.5 -97.5q-28 -4 -45 -4q-77 0 -174.5 39t-179.5 104q-65 52 -100 126t-35 157q0 98 47 190q47 98 160 183.5t211 97.5q121 92 213 110q16 4 53 4q96 0 211 -63q123 -65 174 -139.5t51 -192.5v-57
q2 -2 8 -2q24 0 97.5 28.5t126.5 57.5q45 20 59 20q23 0 39 -24q28 -34 47.5 -74.5t19.5 -63.5q0 -6 -4 -14q-8 -12 -49.5 -35.5t-103.5 -50t-151.5 -48t-176.5 -24.5zM1022 836q-11 14 -39 14q-61 0 -124.5 -62.5t-63.5 -154.5q0 -26 6 -53q13 -55 44 -80t85 -25
q28 0 37 6.5t26 38.5q58 119 58 217q0 67 -29 99zM580 625q-4 4 -9 4q-12 0 -41 -33q-118 -127 -118 -281q0 -69 26 -125q13 -28 22 -37.5t27 -9.5q7 0 31 4q86 21 192 81.5t164 125.5q15 19 15 23q0 11 -60 39q-168 83 -235 188q-11 18 -14 21zM907 1354q27 0 50 -8t94 -41
q12 -6 42.5 -23t52 -27t34.5 -10q14 0 24 4t28.5 13t41.5 16q38 14 72 14q15 0 21.5 -4t4.5 -12q-2 -23 -40 -56.5t-95.5 -60t-106.5 -26.5h-53q-49 0 -141 53q-71 39 -94 41q-9 1 -21 -4t-29.5 -14t-29.5 -13q-72 -31 -94 -29q-15 1 -24 10t-9 23q0 16 45 47q53 35 78.5 51
t70 35t78.5 21z" />
    <glyph glyph-name="odieresis" unicode="&#xf6;" horiz-adv-x="1275" 
d="M1198 311q-19 -1 -27.5 -7t-27.5 -30q-84 -112 -205.5 -190.5t-237.5 -97.5q-28 -4 -45 -4q-77 0 -174.5 39t-179.5 104q-65 52 -100 126t-35 157q0 98 47 190q47 98 160 183.5t211 97.5q121 92 213 110q16 4 53 4q96 0 211 -63q123 -65 174 -139.5t51 -192.5v-57
q2 -2 8 -2q24 0 97.5 28.5t126.5 57.5q45 20 59 20q23 0 39 -24q28 -34 47.5 -74.5t19.5 -63.5q0 -6 -4 -14q-8 -12 -49.5 -35.5t-103.5 -50t-151.5 -48t-176.5 -24.5zM1022 836q-11 14 -39 14q-61 0 -124.5 -62.5t-63.5 -154.5q0 -26 6 -53q13 -55 44 -80t85 -25
q28 0 37 6.5t26 38.5q58 119 58 217q0 67 -29 99zM580 625q-4 4 -9 4q-12 0 -41 -33q-118 -127 -118 -281q0 -69 26 -125q13 -28 22 -37.5t27 -9.5q7 0 31 4q86 21 192 81.5t164 125.5q15 19 15 23q0 11 -60 39q-168 83 -235 188q-11 18 -14 21zM709 1286q8 2 28 2
q79 0 156 -31q33 -11 33 -32q0 -19 -33 -66q-25 -38 -47.5 -52.5t-57.5 -14.5q-13 0 -49 4q-121 21 -121 71v4q3 25 36 67t55 48zM1108 1276q8 2 29 2q45 0 100 -16q43 -13 60.5 -24.5t17.5 -31.5q0 -26 -33 -76q-24 -38 -42.5 -51.5t-49.5 -13.5q-22 0 -57 6
q-115 15 -115 74q0 32 35 82q19 27 28 35t27 14z" />
    <glyph glyph-name="oslash" unicode="&#xf8;" horiz-adv-x="1275" 
d="M293 -119q-17 -20 -35 -20q-12 0 -33 23.5t-24 37.5q0 2 -1 5t-1 5q0 30 49 93q27 33 67 81l4 5q-3 2 -9 7t-9 7q-65 52 -100 126t-35 157q0 98 47 190q47 98 160 183.5t211 97.5q121 92 213 110q16 4 53 4q73 0 160 -37q26 31 55.5 68t44 54.5t20.5 23.5q11 13 17 16.5
t18 3.5t33.5 -23.5t24.5 -37.5q0 -30 -33 -72q-14 -20 -40.5 -55t-29.5 -39q89 -57 127.5 -125.5t38.5 -171.5q-26 -189 -143 -324q-84 -112 -205.5 -190.5t-237.5 -97.5q-28 -4 -45 -4q-100 0 -225 61q-2 -2 -5 -6t-5 -6q-6 -8 -18 -23.5t-21 -27t-14 -17.5
q-71 -80 -74 -82zM412 315q0 -44 10 -75q15 17 34 39.5t46 55.5t47 56q35 45 129.5 156.5t107.5 128.5q9 11 25.5 31t19.5 24q27 33 60 74q7 10 33 41q-106 -14 -200.5 -77.5t-193.5 -172.5q-118 -127 -118 -281zM549 184q-13 -13 -31 -37q86 21 192 81.5t164 125.5
q70 73 119 166q58 119 58 217q0 28 -7 56q-239 -313 -495 -609z" />
    <glyph glyph-name="ugrave" unicode="&#xf9;" horiz-adv-x="1239" 
d="M1446 285q-37 -37 -66.5 -63t-59 -49.5t-38.5 -31.5q-23 -16 -65 -51q-170 -133 -252 -133q-15 0 -23 2q-69 10 -147.5 50.5t-124.5 88.5q-15 15 -21 15q-8 0 -49 -41q-52 -49 -90 -64q-43 -16 -86 -16q-89 0 -195 59q-81 41 -116 80.5t-35 97.5q0 61 49 187
q30 78 103 212.5t124 202.5q26 35 34 38q5 3 13 3q35 0 103.5 -34.5t87.5 -61.5q6 -9 6 -16q0 -13 -59 -113q-99 -164 -142 -252q-35 -71 -60.5 -141t-25.5 -98q0 -9 2 -11t6 -2q30 0 89 52q7 10 34 32q24 20 154 150q112 112 147 153q28 34 162 232q34 51 49 65.5t35 14.5
h6q27 -1 82 -28.5t80 -51.5q14 -14 14 -31q0 -30 -59 -115q-142 -206 -191 -295.5t-61 -168.5q-2 -8 -2 -15q0 -16 12 -16q10 0 33 10q160 68 348 240q22 17 78 69q80 77 125 150q17 26 37 26t78 -34q71 -39 71 -60q-3 -36 -194 -237zM670 1323q6 2 24 2q32 0 80 -10t70 -23
q23 -15 59 -57q39 -45 81.5 -83.5t62.5 -45.5q61 -27 61 -45q0 -19 -49 -19q-95 0 -201 45q-69 29 -136 100.5t-67 112.5q0 17 15 23z" />
    <glyph glyph-name="uacute" unicode="&#xfa;" horiz-adv-x="1239" 
d="M1446 285q-37 -37 -66.5 -63t-59 -49.5t-38.5 -31.5q-23 -16 -65 -51q-170 -133 -252 -133q-15 0 -23 2q-69 10 -147.5 50.5t-124.5 88.5q-15 15 -21 15q-8 0 -49 -41q-52 -49 -90 -64q-43 -16 -86 -16q-89 0 -195 59q-81 41 -116 80.5t-35 97.5q0 61 49 187
q30 78 103 212.5t124 202.5q26 35 34 38q5 3 13 3q35 0 103.5 -34.5t87.5 -61.5q6 -9 6 -16q0 -13 -59 -113q-99 -164 -142 -252q-35 -71 -60.5 -141t-25.5 -98q0 -9 2 -11t6 -2q30 0 89 52q7 10 34 32q24 20 154 150q112 112 147 153q28 34 162 232q34 51 49 65.5t35 14.5
h6q27 -1 82 -28.5t80 -51.5q14 -14 14 -31q0 -30 -59 -115q-142 -206 -191 -295.5t-61 -168.5q-2 -8 -2 -15q0 -16 12 -16q10 0 33 10q160 68 348 240q22 17 78 69q80 77 125 150q17 26 37 26t78 -34q71 -39 71 -60q-3 -36 -194 -237zM1053 1305h22q75 0 146 -27
q36 -14 36 -33q0 -7 -6 -16q-6 -10 -41.5 -32.5t-70.5 -37.5q-92 -41 -121 -51q-134 -55 -215 -55q-28 0 -55 6q-105 17 -105 47q0 9 11.5 15.5t56.5 21.5q93 30 178 70.5t119 70.5q21 19 45 21z" />
    <glyph glyph-name="ucircumflex" unicode="&#xfb;" horiz-adv-x="1239" 
d="M1446 285q-37 -37 -66.5 -63t-59 -49.5t-38.5 -31.5q-23 -16 -65 -51q-170 -133 -252 -133q-15 0 -23 2q-69 10 -147.5 50.5t-124.5 88.5q-15 15 -21 15q-8 0 -49 -41q-52 -49 -90 -64q-43 -16 -86 -16q-89 0 -195 59q-81 41 -116 80.5t-35 97.5q0 61 49 187
q30 78 103 212.5t124 202.5q26 35 34 38q5 3 13 3q35 0 103.5 -34.5t87.5 -61.5q6 -9 6 -16q0 -13 -59 -113q-99 -164 -142 -252q-35 -71 -60.5 -141t-25.5 -98q0 -9 2 -11t6 -2q30 0 89 52q7 10 34 32q24 20 154 150q112 112 147 153q28 34 162 232q34 51 49 65.5t35 14.5
h6q27 -1 82 -28.5t80 -51.5q14 -14 14 -31q0 -30 -59 -115q-142 -206 -191 -295.5t-61 -168.5q-2 -8 -2 -15q0 -16 12 -16q10 0 33 10q160 68 348 240q22 17 78 69q80 77 125 150q17 26 37 26t78 -34q71 -39 71 -60q-3 -36 -194 -237zM946 1339q6 2 23 2q26 0 64 -10t57 -22
q22 -15 45 -68q22 -46 39 -71.5t53 -63.5q39 -44 39 -53q0 -3 -4 -11q-10 -10 -39 -10q-74 0 -146 35q-27 11 -43.5 27t-58.5 73q-10 17 -19 17q-6 0 -47 -21q-152 -79 -209 -82h-6q-31 0 -71 10.5t-52 22.5q-10 10 -10 16q0 16 45 31q120 46 221 101q41 21 82 51
q26 23 37 26z" />
    <glyph glyph-name="udieresis" unicode="&#xfc;" horiz-adv-x="1239" 
d="M1446 285q-37 -37 -66.5 -63t-59 -49.5t-38.5 -31.5q-23 -16 -65 -51q-170 -133 -252 -133q-15 0 -23 2q-69 10 -147.5 50.5t-124.5 88.5q-15 15 -21 15q-8 0 -49 -41q-52 -49 -90 -64q-43 -16 -86 -16q-89 0 -195 59q-81 41 -116 80.5t-35 97.5q0 61 49 187
q30 78 103 212.5t124 202.5q26 35 34 38q5 3 13 3q35 0 103.5 -34.5t87.5 -61.5q6 -9 6 -16q0 -13 -59 -113q-99 -164 -142 -252q-35 -71 -60.5 -141t-25.5 -98q0 -9 2 -11t6 -2q30 0 89 52q7 10 34 32q24 20 154 150q112 112 147 153q28 34 162 232q34 51 49 65.5t35 14.5
h6q27 -1 82 -28.5t80 -51.5q14 -14 14 -31q0 -30 -59 -115q-142 -206 -191 -295.5t-61 -168.5q-2 -8 -2 -15q0 -16 12 -16q10 0 33 10q160 68 348 240q22 17 78 69q80 77 125 150q17 26 37 26t78 -34q71 -39 71 -60q-3 -36 -194 -237zM631 1217q8 2 28 2q79 0 156 -31
q33 -11 33 -33q0 -18 -33 -65q-25 -39 -47 -53.5t-57 -14.5q-13 0 -49 4q-121 21 -121 72v4q3 25 35.5 67t54.5 48zM1030 1206q8 2 29 2q45 0 100 -16q43 -13 60.5 -24.5t17.5 -30.5q0 -26 -33 -76q-24 -38 -42.5 -52t-49.5 -14q-22 0 -57 6q-115 15 -115 74q0 32 35 82
q19 27 28 35t27 14z" />
    <glyph glyph-name="yacute" unicode="&#xfd;" horiz-adv-x="1251" 
d="M1235 383q116 88 227 215q33 39 45 39q8 0 31 -10q40 -21 74.5 -64.5t34.5 -70.5v-7q-5 -21 -56 -80t-112 -106q-263 -205 -553 -336q-48 -33 -56 -45q-8 -13 -24 -61q-41 -114 -78 -205q-9 -23 -28 -68t-27 -67q-60 -138 -137.5 -236t-159.5 -139q-102 -51 -197 -51
q-115 0 -237 73q-56 33 -79.5 61.5t-23.5 67.5q0 28 17 84q24 78 159 199q4 4 12.5 11t14.5 12t10 8t14.5 12t26 22.5t35.5 30.5q4 3 17.5 14.5t17.5 14.5q135 114 389 295q53 39 53 61q0 6 -4 6q-5 0 -35 -18q-107 -70 -186 -70q-69 0 -156 43q-189 91 -192 207v8
q0 73 49 177q44 96 112 224t115 191q26 35 34 38q5 3 13 3q35 0 103.5 -34.5t87.5 -61.5q6 -9 6 -16q0 -12 -60 -113q-94 -156 -141 -252q-66 -130 -82 -190q-10 -38 -10 -52q0 -18 12 -18q9 0 21 6q66 31 150 108t161 177q12 16 33 43q141 183 221 297q20 28 27 35t16 8h6
q36 0 112 -40.5t83 -64.5q2 -6 2 -18q0 -35 -43 -135q-1 -4 -37 -90q-72 -182 -109 -258q14 0 106 60.5t175 125.5zM487 -352l-4 4q-16 0 -227 -176q-146 -125 -164 -199q-4 -12 -4 -29q0 -16 14 -16q9 0 39 10q66 23 119.5 65t108.5 115q33 43 75.5 124.5t42.5 99.5v2z
M1053 1280h22q75 0 146 -27q36 -14 36 -32q0 -8 -6 -17q-6 -10 -41.5 -31.5t-70.5 -37.5q-106 -46 -121 -52q-134 -55 -215 -55q-28 0 -55 6q-105 18 -105 47q0 9 11.5 15.5t56.5 21.5q92 30 177.5 71t119.5 71q13 12 21 15t24 5z" />
    <glyph glyph-name="thorn" unicode="&#xfe;" horiz-adv-x="1216" 
d="M-190 -827q-10 -13 -29 -13q-32 0 -96 31q-103 50 -103 86v2q2 9 52.5 134.5t78.5 189.5q45 105 86 192q12 29 76 156.5t82 161.5l94 180q68 132 215 397q0 1 47 84q113 208 144 268q155 308 260 461q25 39 37 41q4 2 14 2q37 0 100 -33t70 -57v-6q0 -13 -18 -45
q-3 -6 -22 -42t-30 -58q-103 -222 -243 -461q88 33 174 33q106 0 219 -58q111 -55 141 -114q19 -43 19 -103q0 -54 -15 -115q-8 -36 -8 -38q0 -7 6 -7q4 0 43 25q123 78 221 151q27 20 34 23.5t16 3.5q30 -9 77 -38.5t74 -55.5q10 -10 10 -21q0 -17 -37 -38
q-197 -148 -375.5 -244.5t-381.5 -169.5q-74 -27 -113 -43q-112 -41 -172 -57.5t-106 -16.5q-66 0 -166 47q-41 21 -66 21q-12 0 -18 -6q-9 -9 -93 -176t-124 -257q-84 -191 -99 -233q-16 -39 -34.5 -85t-29 -71.5t-11.5 -27.5zM948 741q-4 4 -16 4q-35 0 -109.5 -28.5
t-136.5 -65.5q-64 -39 -110 -76t-113 -104l-18.5 -18.5t-16.5 -16t-12 -12.5t-11.5 -14.5t-9.5 -14.5q-17 -23 -76 -139q-8 -15 -21.5 -41t-16.5 -31q-17 -31 -17 -39q0 -10 21 -10q19 0 65 6q175 23 324 120.5t229 240.5q22 40 37.5 100.5t15.5 102.5q0 28 -8 36z" />
    <glyph glyph-name="ydieresis" unicode="&#xff;" horiz-adv-x="1251" 
d="M1235 383q116 88 227 215q33 39 45 39q8 0 31 -10q40 -21 74.5 -64.5t34.5 -70.5v-7q-5 -21 -56 -80t-112 -106q-263 -205 -553 -336q-48 -33 -56 -45q-8 -13 -24 -61q-41 -114 -78 -205q-9 -23 -28 -68t-27 -67q-60 -138 -137.5 -236t-159.5 -139q-102 -51 -197 -51
q-115 0 -237 73q-56 33 -79.5 61.5t-23.5 67.5q0 28 17 84q24 78 159 199q4 4 12.5 11t14.5 12t10 8t14.5 12t26 22.5t35.5 30.5q4 3 17.5 14.5t17.5 14.5q135 114 389 295q53 39 53 61q0 6 -4 6q-5 0 -35 -18q-107 -70 -186 -70q-69 0 -156 43q-189 91 -192 207v8
q0 73 49 177q44 96 112 224t115 191q26 35 34 38q5 3 13 3q35 0 103.5 -34.5t87.5 -61.5q6 -9 6 -16q0 -12 -60 -113q-94 -156 -141 -252q-66 -130 -82 -190q-10 -38 -10 -52q0 -18 12 -18q9 0 21 6q66 31 150 108t161 177q12 16 33 43q141 183 221 297q20 28 27 35t16 8h6
q36 0 112 -40.5t83 -64.5q2 -6 2 -18q0 -35 -43 -135q-1 -4 -37 -90q-72 -182 -109 -258q14 0 106 60.5t175 125.5zM487 -352l-4 4q-16 0 -227 -176q-146 -125 -164 -199q-4 -12 -4 -29q0 -16 14 -16q9 0 39 10q66 23 119.5 65t108.5 115q33 43 75.5 124.5t42.5 99.5v2z
M631 1192q8 2 28 2q79 0 156 -31q33 -11 33 -33q0 -18 -33 -65q-25 -39 -47 -53.5t-57 -14.5q-13 0 -49 4q-121 21 -121 72v4q3 25 35.5 67t54.5 48zM1030 1182q8 2 29 2q42 0 100 -17q43 -13 60.5 -24.5t17.5 -30.5q0 -26 -33 -76q-24 -38 -42.5 -51.5t-49.5 -13.5
q-22 0 -57 6q-115 15 -115 74q0 32 35 82q19 27 28 35t27 14z" />
    <glyph glyph-name="Amacron" unicode="&#x100;" horiz-adv-x="1345" 
d="M1012 1350q3 0 9 1t9 1q62 0 158.5 -43.5t148.5 -96.5q35 -35 35 -79q0 -45 -31 -175q-15 -67 -24 -100q-49 -201 -78 -311q-7 -25 -25 -98q-12 -44 -24 -97q-26 -97 -49 -209q-15 -68 -22.5 -99t-15.5 -52.5t-14 -26t-16 -4.5h-6q-35 0 -109 38t-96 67q-6 9 -6 16
q0 15 4 27q18 55 33 129q4 23 16 71q11 48 11 64q0 9 -5 14q-4 4 -49 4h-55q-36 0 -90 -4q-26 -2 -80 -6q-19 -2 -26.5 -6t-16.5 -17q-24 -35 -100 -168q-18 -28 -29 -51q-19 -34 -41 -82q-17 -45 -49 -45q-22 0 -74 25q-51 25 -71.5 45.5t-20.5 52.5q0 44 47 156q6 12 6 18
q0 10 -18 10q-3 0 -35 -4q-24 -4 -35 -4q-28 0 -94 29q-88 48 -88 72q0 22 55 43q91 31 285 55q34 3 45 9.5t29 31.5q60 96 98 151q14 20 44.5 65t39.5 58q90 135 141 205q42 58 209 264q25 32 38.5 42.5t31.5 13.5zM1081 1020q0 6 -4 6q-26 0 -221 -283q-23 -34 -63 -92
q-7 -12 -24 -36t-21 -31t-12 -18.5t-10.5 -16.5t-2.5 -10q0 -8 18.5 -10.5t69.5 -2.5q24 0 70 -5t51 -5q12 0 18 6q13 10 33 86q9 31 25 94q73 280 73 318zM1305 1626l81 2q60 2 116.5 -23t80.5 -65q10 -16 6 -27q-4 -10 -25 -14.5t-77 -9.5q-86 -8 -221 -8h-101
q-27 0 -61 1t-35 1q-49 0 -102 48t-45 71q3 9 22 12t72 2q61 -1 171.5 4.5t117.5 5.5z" />
    <glyph glyph-name="amacron" unicode="&#x101;" horiz-adv-x="1165" 
d="M711 117q-139 -109 -258 -109q-15 0 -43 4q-125 28 -217.5 99t-112.5 155q-4 14 -4 47q0 91 54.5 193.5t134 181.5t172.5 131.5t165 52.5q44 0 109 -18q76 -22 139 -63q32 -19 39 -19q8 0 24 19q28 28 54 28q27 0 77 -24q73 -36 76 -64v-4q0 -13 -94 -180
q-119 -221 -119 -332q0 -28 4 -39.5t15 -11.5q16 0 73 31q89 46 195 159q61 64 115 136t73 106q13 23 21 27q2 2 12 2q37 0 105.5 -46.5t68.5 -74.5q-1 -10 -22.5 -42.5t-67.5 -88.5t-102 -115q-91 -97 -178 -154q-136 -88 -224 -88q-20 0 -28 2q-76 13 -189 103
q-24 18 -33 18q-6 0 -34 -22zM748 719q-3 6 -15 6q-32 0 -105.5 -46.5t-125.5 -100.5q-130 -139 -168 -259q-27 -92 -27 -122q0 -22 15 -37q8 -4 18 -4q41 0 121.5 50.5t130.5 110.5q56 67 109 190.5t53 184.5q0 18 -6 27zM813 1198l82 2q60 2 116.5 -23t80.5 -65
q10 -16 6 -27q-4 -10 -25.5 -14.5t-77.5 -9.5q-86 -8 -221 -8h-100q-27 0 -61 1t-35 1q-49 0 -102.5 48t-45.5 71q3 9 22 12t72 2q61 -1 171.5 4.5t117.5 5.5z" />
    <glyph glyph-name="Abreve" unicode="&#x102;" horiz-adv-x="1345" 
d="M1012 1350q3 0 9 1t9 1q62 0 158.5 -43.5t148.5 -96.5q35 -35 35 -79q0 -45 -31 -175q-15 -67 -24 -100q-49 -201 -78 -311q-7 -25 -25 -98q-12 -44 -24 -97q-26 -97 -49 -209q-15 -68 -22.5 -99t-15.5 -52.5t-14 -26t-16 -4.5h-6q-35 0 -109 38t-96 67q-6 9 -6 16
q0 15 4 27q18 55 33 129q4 23 16 71q11 48 11 64q0 9 -5 14q-4 4 -49 4h-55q-36 0 -90 -4q-26 -2 -80 -6q-19 -2 -26.5 -6t-16.5 -17q-24 -35 -100 -168q-18 -28 -29 -51q-19 -34 -41 -82q-17 -45 -49 -45q-22 0 -74 25q-51 25 -71.5 45.5t-20.5 52.5q0 44 47 156q6 12 6 18
q0 10 -18 10q-3 0 -35 -4q-24 -4 -35 -4q-28 0 -94 29q-88 48 -88 72q0 22 55 43q91 31 285 55q34 3 45 9.5t29 31.5q60 96 98 151q14 20 44.5 65t39.5 58q90 135 141 205q42 58 209 264q25 32 38.5 42.5t31.5 13.5zM1081 1020q0 6 -4 6q-26 0 -221 -283q-23 -34 -63 -92
q-7 -12 -24 -36t-21 -31t-12 -18.5t-10.5 -16.5t-2.5 -10q0 -8 18.5 -10.5t69.5 -2.5q24 0 70 -5t51 -5q12 0 18 6q13 10 33 86q9 31 25 94q73 280 73 318zM1028 1669q9 13 52 6.5t90.5 -27t43.5 -34.5q-18 -76 13 -92q17 -13 53 -2q34 9 77.5 47.5t74.5 89.5q6 8 51.5 10.5
t88 -1t40.5 -9.5q-14 -44 -52 -100t-92 -89q-88 -53 -211 -53q-88 0 -149.5 51t-79.5 154q-4 29 0 49z" />
    <glyph glyph-name="abreve" unicode="&#x103;" horiz-adv-x="1165" 
d="M711 117q-139 -109 -258 -109q-15 0 -43 4q-125 28 -217.5 99t-112.5 155q-4 14 -4 47q0 91 54.5 193.5t134 181.5t172.5 131.5t165 52.5q44 0 109 -18q76 -22 139 -63q32 -19 39 -19q8 0 24 19q28 28 54 28q27 0 77 -24q73 -36 76 -64v-4q0 -13 -94 -180
q-119 -221 -119 -332q0 -28 4 -39.5t15 -11.5q16 0 73 31q89 46 195 159q61 64 115 136t73 106q13 23 21 27q2 2 12 2q37 0 105.5 -46.5t68.5 -74.5q-1 -10 -22.5 -42.5t-67.5 -88.5t-102 -115q-91 -97 -178 -154q-136 -88 -224 -88q-20 0 -28 2q-76 13 -189 103
q-24 18 -33 18q-6 0 -34 -22zM748 719q-3 6 -15 6q-32 0 -105.5 -46.5t-125.5 -100.5q-130 -139 -168 -259q-27 -92 -27 -122q0 -22 15 -37q8 -4 18 -4q41 0 121.5 50.5t130.5 110.5q56 67 109 190.5t53 184.5q0 18 -6 27zM537 1241q9 13 52 6.5t90.5 -27t43.5 -34.5
q-18 -76 12 -92q17 -13 53 -2q34 9 77.5 47.5t74.5 89.5q6 8 51.5 10.5t88 -1t40.5 -9.5q-14 -44 -51.5 -100t-91.5 -89q-88 -53 -211 -53q-88 0 -149.5 51t-79.5 154q-4 29 0 49z" />
    <glyph glyph-name="Aogonek" unicode="&#x104;" horiz-adv-x="1345" 
d="M1178 -393q-64 -39 -134 -39q-92 0 -151 29q-56 30 -79.5 65t-25.5 84q0 52 49.5 130.5t120.5 121.5q-80 45 -96 68q-6 9 -6 16q0 15 4 27q18 55 33 129q4 23 16 71q11 48 11 64q0 9 -5 14q-4 4 -49 4h-55q-36 0 -90 -4q-26 -2 -80 -6q-19 -2 -26.5 -6t-16.5 -17
q-24 -35 -100 -168q-18 -28 -29 -51q-19 -34 -41 -82q-17 -45 -49 -45q-22 0 -74 25q-51 25 -71.5 45.5t-20.5 52.5q0 44 47 156q6 12 6 18q0 10 -18 10q-3 0 -35 -4q-24 -4 -35 -4q-28 0 -94 29q-88 48 -88 72q0 22 55 43q91 31 285 55q34 3 45 9.5t29 31.5q60 96 98 151
q14 20 44.5 65t39.5 58q90 135 141 205q42 58 209 264q25 32 38.5 42.5t31.5 13.5q3 0 9 1t9 1q62 0 158.5 -43.5t148.5 -96.5q35 -35 35 -79q0 -45 -31 -175q-15 -67 -24 -100q-49 -201 -78 -311q-7 -25 -25 -98q-12 -44 -24 -97q-26 -97 -49 -209q-20 -92 -35 -143v-2
q-10 -31 -25 -35q-75 -117 -95.5 -155.5t-20.5 -59.5q5 -34 53 -28t106 38q25 14 48.5 -20t25 -73.5t-19.5 -57.5zM1081 1020q0 6 -4 6q-26 0 -221 -283q-23 -34 -63 -92q-7 -12 -24 -36t-21 -31t-12 -18.5t-10.5 -16.5t-2.5 -10q0 -8 18.5 -10.5t69.5 -2.5q24 0 70 -5
t51 -5q12 0 18 6q13 10 33 86q9 31 25 94q73 280 73 318z" />
    <glyph glyph-name="aogonek" unicode="&#x105;" horiz-adv-x="1165" 
d="M1151 -358q-64 -39 -133 -39q-95 0 -152 28q-55 30 -78.5 65.5t-25.5 84.5q0 51 48.5 128t117.5 120q-69 28 -150 92q-24 18 -33 18q-6 0 -34 -22q-139 -109 -258 -109q-15 0 -43 4q-125 28 -217.5 99t-112.5 155q-4 14 -4 47q0 91 54.5 193.5t134 181.5t172.5 131.5
t165 52.5q44 0 109 -18q76 -22 139 -63q32 -19 39 -19q8 0 24 19q28 28 54 28q27 0 77 -24q73 -36 76 -64v-4q0 -13 -94 -180q-119 -221 -119 -332q0 -28 4 -39.5t15 -11.5q16 0 73 31q89 46 195 159q61 64 115 136t73 106q13 23 21 27q2 2 12 2q37 0 105.5 -46.5
t68.5 -74.5q-1 -10 -22.5 -42.5t-67.5 -88.5t-102 -115q-91 -97 -178 -154q-77 -50 -142 -71q-90 -139 -114.5 -183t-24.5 -67q5 -34 53.5 -28t106.5 38q25 14 48 -20t24.5 -73.5t-19.5 -57.5zM748 719q-3 6 -15 6q-32 0 -105.5 -46.5t-125.5 -100.5q-130 -139 -168 -259
q-27 -92 -27 -122q0 -22 15 -37q8 -4 18 -4q41 0 121.5 50.5t130.5 110.5q56 67 109 190.5t53 184.5q0 18 -6 27z" />
    <glyph glyph-name="Cacute" unicode="&#x106;" horiz-adv-x="1286" 
d="M967 1346q46 8 57 8q42 0 106.5 -18.5t120.5 -47.5q113 -57 169.5 -122t66.5 -152q2 -10 2 -29q0 -53 -23.5 -97t-52.5 -44q-34 0 -101.5 37t-80.5 65q3 19 7 41.5t5.5 31t3 20.5t2 21t0.5 23q0 41 -10.5 79t-24.5 46q-4 2 -14 2q-46 0 -143 -41q-81 -35 -173 -104
t-151 -139q-5 -6 -14 -17t-12 -14q-36 -37 -85 -107t-81 -129q-109 -201 -109 -360q0 -67 21 -117q10 -27 22 -38t31 -11q73 0 184.5 61t177.5 136q3 3 13 13.5t14 14.5q22 25 47 66q8 14 23 14q44 0 130.5 -45t86.5 -78q0 -22 -43 -73q-90 -109 -213 -176.5t-230 -67.5
q-30 0 -57 6q-186 42 -324 150q-127 100 -127 256q0 64 21 141q81 294 332 545q61 61 104 94q68 55 158.5 98.5t163.5 57.5zM1513 1710h23q74 0 145 -27q37 -15 37 -32q0 -8 -6 -17q-6 -10 -42 -31.5t-71 -37.5q-110 -49 -120 -52q-134 -55 -215 -55q-29 0 -56 6
q-104 17 -104 47q0 9 11.5 16t55.5 21q92 30 177.5 71t119.5 71q13 12 21 15t24 5z" />
    <glyph glyph-name="cacute" unicode="&#x107;" horiz-adv-x="983" 
d="M1282 373q-99 -107 -164 -154q-183 -138 -237 -173q-135 -87 -226 -87q-84 0 -187 41.5t-187.5 107t-116.5 132.5q-27 56 -27 120q0 170 164 342q127 134 277 148q18 2 57 2q138 0 235 -56.5t97 -160.5q0 -33 -17 -86q-5 -13 -10 -27.5t-8 -22.5t-6 -16.5t-5 -12.5
t-4 -7.5t-4.5 -4.5t-5.5 -1q-28 0 -72.5 13.5t-80.5 35.5q-22 15 -30.5 25t-8.5 26q0 25 20 86q6 21 6 39q0 33 -12 39h-4q-20 0 -72.5 -27t-95.5 -57q-77 -58 -124.5 -156.5t-47.5 -187.5q0 -30 6 -57q21 -67 70 -101q15 -12 45 -12q92 0 256.5 93.5t281.5 213.5
q70 70 111 121q33 39 48 52t30 13q8 0 12 -2q20 -4 57 -40t50 -60q10 -13 10 -31q0 -30 -31 -61zM973 1264h22q75 0 146 -27q37 -15 37 -33q0 -6 -7 -16q-6 -10 -41.5 -32.5t-70.5 -37.5q-92 -41 -121 -51q-134 -55 -215 -55q-28 0 -55 6q-105 18 -105 47q0 9 11.5 15.5
t56.5 21.5q93 30 178 70.5t119 70.5q21 19 45 21z" />
    <glyph glyph-name="Ccircumflex" unicode="&#x108;" horiz-adv-x="1286" 
d="M967 1346q46 8 57 8q42 0 106.5 -18.5t120.5 -47.5q113 -57 169.5 -122t66.5 -152q2 -10 2 -29q0 -53 -23.5 -97t-52.5 -44q-34 0 -101.5 37t-80.5 65q3 19 7 41.5t5.5 31t3 20.5t2 21t0.5 23q0 41 -10.5 79t-24.5 46q-4 2 -14 2q-46 0 -143 -41q-81 -35 -173 -104
t-151 -139q-5 -6 -14 -17t-12 -14q-36 -37 -85 -107t-81 -129q-109 -201 -109 -360q0 -67 21 -117q10 -27 22 -38t31 -11q73 0 184.5 61t177.5 136q3 3 13 13.5t14 14.5q22 25 47 66q8 14 23 14q44 0 130.5 -45t86.5 -78q0 -22 -43 -73q-90 -109 -213 -176.5t-230 -67.5
q-30 0 -57 6q-186 42 -324 150q-127 100 -127 256q0 64 21 141q81 294 332 545q61 61 104 94q68 55 158.5 98.5t163.5 57.5zM1407 1745q6 2 23 2q26 0 63.5 -10.5t56.5 -22.5q22 -16 45 -67q22 -46 39.5 -72t53.5 -64q38 -43 38 -53q0 -2 -4 -10q-10 -10 -39 -10
q-73 0 -145 35q-27 11 -43.5 27t-58.5 73q-10 16 -19 16q-8 0 -47 -20q-152 -79 -209 -82h-6q-31 0 -71 10.5t-52 22.5q-10 10 -10 16q0 16 45 31q126 49 221 100q41 21 82 51q28 25 37 27z" />
    <glyph glyph-name="ccircumflex" unicode="&#x109;" horiz-adv-x="983" 
d="M1282 373q-99 -107 -164 -154q-183 -138 -237 -173q-135 -87 -226 -87q-84 0 -187 41.5t-187.5 107t-116.5 132.5q-27 56 -27 120q0 170 164 342q127 134 277 148q18 2 57 2q138 0 235 -56.5t97 -160.5q0 -33 -17 -86q-5 -13 -10 -27.5t-8 -22.5t-6 -16.5t-5 -12.5
t-4 -7.5t-4.5 -4.5t-5.5 -1q-28 0 -72.5 13.5t-80.5 35.5q-22 15 -30.5 25t-8.5 26q0 25 20 86q6 21 6 39q0 33 -12 39h-4q-20 0 -72.5 -27t-95.5 -57q-77 -58 -124.5 -156.5t-47.5 -187.5q0 -30 6 -57q21 -67 70 -101q15 -12 45 -12q92 0 256.5 93.5t281.5 213.5
q70 70 111 121q33 39 48 52t30 13q8 0 12 -2q20 -4 57 -40t50 -60q10 -13 10 -31q0 -30 -31 -61zM866 1298q6 2 23 2q26 0 64 -10t57 -22q22 -15 45 -68q22 -46 39 -71.5t53 -63.5q39 -44 39 -53q0 -3 -4 -11q-10 -10 -39 -10q-74 0 -146 35q-27 11 -43.5 27t-58.5 73
q-10 17 -18 17q-7 0 -48 -21q-152 -79 -208 -82h-7q-31 0 -70.5 10.5t-51.5 22.5q-11 11 -11 17q0 15 45 30q123 47 222 101q37 19 81 51q26 23 37 26z" />
    <glyph glyph-name="Cdotaccent" unicode="&#x10a;" horiz-adv-x="1286" 
d="M967 1346q46 8 57 8q42 0 106.5 -18.5t120.5 -47.5q113 -57 169.5 -122t66.5 -152q2 -10 2 -29q0 -53 -23.5 -97t-52.5 -44q-34 0 -101.5 37t-80.5 65q3 19 7 41.5t5.5 31t3 20.5t2 21t0.5 23q0 41 -10.5 79t-24.5 46q-4 2 -14 2q-46 0 -143 -41q-81 -35 -173 -104
t-151 -139q-5 -6 -14 -17t-12 -14q-36 -37 -85 -107t-81 -129q-109 -201 -109 -360q0 -67 21 -117q10 -27 22 -38t31 -11q73 0 184.5 61t177.5 136q3 3 13 13.5t14 14.5q22 25 47 66q8 14 23 14q44 0 130.5 -45t86.5 -78q0 -22 -43 -73q-90 -109 -213 -176.5t-230 -67.5
q-30 0 -57 6q-186 42 -324 150q-127 100 -127 256q0 64 21 141q81 294 332 545q61 61 104 94q68 55 158.5 98.5t163.5 57.5zM1292 1653q4 2 15 2q50 0 135 -43t100 -78q4 -8 4 -25q0 -43 -44 -86t-91 -43q-10 0 -16 2q-66 13 -130 51.5t-73 69.5q-2 4 -2 13q0 34 34.5 81
t67.5 56z" />
    <glyph glyph-name="cdotaccent" unicode="&#x10b;" horiz-adv-x="983" 
d="M1282 373q-99 -107 -164 -154q-183 -138 -237 -173q-135 -87 -226 -87q-84 0 -187 41.5t-187.5 107t-116.5 132.5q-27 56 -27 120q0 170 164 342q127 134 277 148q18 2 57 2q138 0 235 -56.5t97 -160.5q0 -33 -17 -86q-5 -13 -10 -27.5t-8 -22.5t-6 -16.5t-5 -12.5
t-4 -7.5t-4.5 -4.5t-5.5 -1q-28 0 -72.5 13.5t-80.5 35.5q-22 15 -30.5 25t-8.5 26q0 25 20 86q6 21 6 39q0 33 -12 39h-4q-20 0 -72.5 -27t-95.5 -57q-77 -58 -124.5 -156.5t-47.5 -187.5q0 -30 6 -57q21 -67 70 -101q15 -12 45 -12q92 0 256.5 93.5t281.5 213.5
q70 70 111 121q33 39 48 52t30 13q8 0 12 -2q20 -4 57 -40t50 -60q10 -13 10 -31q0 -30 -31 -61zM752 1206q4 2 14 2q50 0 135 -43t100 -78q5 -10 5 -24q0 -43 -44.5 -86t-91.5 -43q-10 0 -16 2q-66 13 -130 51.5t-73 69.5q-2 4 -2 12q0 34 35 81t68 56z" />
    <glyph glyph-name="Ccaron" unicode="&#x10c;" horiz-adv-x="1286" 
d="M967 1346q46 8 57 8q42 0 106.5 -18.5t120.5 -47.5q113 -57 169.5 -122t66.5 -152q2 -10 2 -29q0 -53 -23.5 -97t-52.5 -44q-34 0 -101.5 37t-80.5 65q3 19 7 41.5t5.5 31t3 20.5t2 21t0.5 23q0 41 -10.5 79t-24.5 46q-4 2 -14 2q-46 0 -143 -41q-81 -35 -173 -104
t-151 -139q-5 -6 -14 -17t-12 -14q-36 -37 -85 -107t-81 -129q-109 -201 -109 -360q0 -67 21 -117q10 -27 22 -38t31 -11q73 0 184.5 61t177.5 136q3 3 13 13.5t14 14.5q22 25 47 66q8 14 23 14q44 0 130.5 -45t86.5 -78q0 -22 -43 -73q-90 -109 -213 -176.5t-230 -67.5
q-30 0 -57 6q-186 42 -324 150q-127 100 -127 256q0 64 21 141q81 294 332 545q61 61 104 94q68 55 158.5 98.5t163.5 57.5zM1393 1427q-16 -4 -31 -4q-40 0 -92.5 14t-75.5 31q-18 13 -53 105q-18 53 -51 106q-15 24 -15 29q0 4 2 6q9 15 43 15q36 0 88 -15
q61 -17 85.5 -39t49.5 -78q12 -34 25 -34q12 0 68 26q138 61 170 68q16 4 30 4q19 0 29 -2q86 -15 86 -45q0 -11 -22 -27q-3 -2 -13.5 -7t-29 -13.5t-31.5 -14.5q-68 -30 -223 -106q-30 -19 -39 -19z" />
    <glyph glyph-name="ccaron" unicode="&#x10d;" horiz-adv-x="983" 
d="M1282 373q-99 -107 -164 -154q-183 -138 -237 -173q-135 -87 -226 -87q-84 0 -187 41.5t-187.5 107t-116.5 132.5q-27 56 -27 120q0 170 164 342q127 134 277 148q18 2 57 2q138 0 235 -56.5t97 -160.5q0 -33 -17 -86q-5 -13 -10 -27.5t-8 -22.5t-6 -16.5t-5 -12.5
t-4 -7.5t-4.5 -4.5t-5.5 -1q-28 0 -72.5 13.5t-80.5 35.5q-22 15 -30.5 25t-8.5 26q0 25 20 86q6 21 6 39q0 33 -12 39h-4q-20 0 -72.5 -27t-95.5 -57q-77 -58 -124.5 -156.5t-47.5 -187.5q0 -30 6 -57q21 -67 70 -101q15 -12 45 -12q92 0 256.5 93.5t281.5 213.5
q70 70 111 121q33 39 48 52t30 13q8 0 12 -2q20 -4 57 -40t50 -60q10 -13 10 -31q0 -30 -31 -61zM852 981q-16 -4 -31 -4q-40 0 -92.5 14t-75.5 31q-19 13 -53 104q-19 55 -51 107q-14 22 -14 29q0 4 2 6q8 14 43 14q39 0 88 -14q61 -17 85.5 -39t49.5 -78q12 -35 24 -35
q9 0 68 27q98 43 135.5 57t65.5 14q18 0 28 -2q86 -15 86 -45q0 -10 -22 -26q-3 -2 -13.5 -7t-29 -13.5t-31.5 -14.5q-47 -21 -223 -107q-29 -18 -39 -18z" />
    <glyph glyph-name="Dcaron" unicode="&#x10e;" horiz-adv-x="1400" 
d="M647 1413q29 4 86 4q200 0 408 -98q213 -101 284 -246q41 -78 41 -194q0 -163 -80 -293q-34 -56 -96 -129q-15 -19 -75 -79t-87 -85q-30 -25 -38 -33q-109 -94 -215 -156.5t-252 -119.5q-83 -35 -136 -35q-47 0 -112 33q-119 58 -119 94q0 5 1 18t1 19q0 19 12 61
q45 171 72 244q43 122 49 139q9 17 19 45q36 100 69 184q63 163 127 314q21 48 27 65q14 32 14 45q0 11 -8 11q-5 0 -31 -11q-99 -45 -139 -92q-15 -18 -33 -18q-32 0 -103 36t-83 60q-4 8 -4 16q0 26 45 62q142 116 356 139zM995 1255q-7 1 -17.5 2t-17.5 2t-12 1
q-33 0 -33 -13q0 -3 7 -14q14 -21 14 -31q0 -9 -31 -94q-6 -17 -32 -71.5t-27 -57.5q-13 -29 -70 -170q-20 -45 -63 -162q-4 -12 -17.5 -45t-17.5 -45q-79 -204 -109 -295q-14 -43 -14 -57q0 -10 10 -10q23 0 110.5 57.5t162.5 122.5q21 15 34 28q44 37 106.5 99t94.5 102
q78 98 112.5 175t47.5 186q2 10 2 32q0 56 -24.5 112t-65.5 97q-23 23 -53 33t-97 16zM1307 1434q-16 -4 -31 -4q-40 0 -92.5 14t-75.5 31q-19 13 -53 104q-19 55 -51 107q-15 24 -15 28t2 6q9 15 43 15q36 0 88 -15q61 -17 85.5 -38.5t49.5 -77.5q12 -35 25 -35q12 0 68 26
q138 61 170 68q16 4 30 4q19 0 29 -2q86 -15 86 -45q0 -11 -23 -27q-3 -2 -13.5 -6.5t-28 -12.5t-31.5 -15q-47 -21 -223 -107q-29 -18 -39 -18z" />
    <glyph glyph-name="dcaron" unicode="&#x10f;" horiz-adv-x="1214" 
d="M727 104q-74 -56 -161 -89t-158 -33q-21 0 -31 2q-76 7 -163.5 55.5t-119.5 99.5q-41 56 -41 129q0 15 4 35q37 186 189 332q103 102 180.5 152t167.5 75q36 8 57 8q89 0 236 -86q11 -8 24 -8q31 0 58 49q158 281 282 445q4 6 20 27.5t23 31.5q39 57 63 81t46 30
q6 2 20 2q30 0 82 -27q45 -26 45 -57q0 -30 -30 -82q-24 -45 -181 -307q-13 -19 -34 -60q-6 -12 -19.5 -34.5t-31.5 -53.5t-29 -51q-57 -94 -64 -111q-6 -10 -18 -34q-12 -16 -37 -68q-66 -118 -88 -158q-57 -103 -57 -202q0 -54 16 -54q16 3 54 26t71 50q11 9 43 34
t50.5 40.5t50 49t63.5 73.5q30 39 100 133q31 44 42 54.5t26 10.5h10q26 -4 73.5 -32t73.5 -52q19 -25 19 -32q0 -10 -15 -25q-81 -106 -157 -194q-91 -104 -179.5 -175.5t-154.5 -93.5q-24 -8 -62 -8q-66 0 -146.5 28.5t-147.5 78.5q-20 14 -29 14q-10 0 -35 -19zM807 717
q-4 4 -12 4q-28 0 -90 -30t-111 -68q-40 -30 -106.5 -95t-96.5 -104q-48 -59 -78 -134.5t-30 -127.5q0 -43 24 -49q1 0 3 -1t3 -1q22 0 74 22.5t94 48.5q98 61 187.5 159.5t119.5 182.5q29 79 29 150q0 36 -10 43zM1779 1497q4 1 11 1q28 -4 74 -33.5t53 -51.5q10 -33 4 -81
q-9 -73 -64 -153q-30 -45 -78.5 -84t-77.5 -38q-31 -1 -81.5 27t-51.5 48q0 9 4.5 14t20.5 14q28 14 64 53t62 77q19 24 35 61.5t20 69.5q2 17 -1 46q-4 13 -3 19q2 9 9 11z" />
    <glyph glyph-name="Dcroat" unicode="&#x110;" horiz-adv-x="1400" 
d="M623 -16q-83 -35 -136 -35q-47 0 -112 33q-119 58 -119 94q0 5 1 18t1 19q0 19 12 61q45 171 72 244q43 122 49 139q9 17 19 45q4 8 4 12l-35 4q-71 17 -133 60t-62 72q0 8 13 14q6 2 96 2q14 0 75 -1t103 -1q1 4 4 11t4 11q63 163 127 314q21 48 27 65q14 32 14 45
q0 11 -8 11q-5 0 -31 -11q-99 -45 -139 -92q-15 -18 -33 -18q-32 0 -103 36t-83 60q-4 8 -4 16q0 26 45 62q142 116 356 139q29 4 86 4q200 0 408 -98q213 -101 284 -246q41 -78 41 -194q0 -163 -80 -293q-34 -56 -96 -129q-15 -19 -75 -79t-87 -85q-30 -25 -38 -33
q-109 -94 -215 -156.5t-252 -119.5zM555 205q0 -10 10 -10q23 0 110.5 57.5t162.5 122.5q21 15 34 28q44 37 106.5 99t94.5 102q78 98 112.5 175t47.5 186q2 10 2 32q0 56 -24.5 112t-65.5 97q-23 23 -53 33t-97 16q-7 1 -17.5 2t-17.5 2t-12 1q-33 0 -33 -13q0 -3 7 -14
q14 -21 14 -31q0 -9 -31 -94q-6 -17 -32 -71.5t-27 -57.5q-13 -29 -70 -170l-18 -45h2q13 0 26 -4t22.5 -9t30 -17.5t35.5 -20.5q101 -47 101 -78q0 -17 -29 -23q-24 -4 -155 -4h-93q-12 -27 -20 -51q-79 -204 -109 -295q-14 -43 -14 -57z" />
    <glyph glyph-name="dcroat" unicode="&#x111;" horiz-adv-x="1214" 
d="M727 104q-74 -56 -161 -89t-158 -33q-21 0 -31 2q-76 7 -163.5 55.5t-119.5 99.5q-41 56 -41 129q0 15 4 35q37 186 189 332q103 102 180.5 152t167.5 75q36 8 57 8q89 0 236 -86q11 -8 24 -8q31 0 58 49q16 28 42.5 75t32.5 58q-71 17 -132.5 60t-61.5 72q0 8 12 14
q6 2 96 2q14 0 75.5 -1t101.5 -1q61 92 116 166q4 6 20 27.5t23 31.5q39 57 63 81t46 30q6 2 20 2q30 0 82 -27q45 -26 45 -57q0 -30 -30 -82q-17 -35 -101 -172h6q13 0 26.5 -4t22.5 -9t30 -17.5t36 -20.5q100 -47 100 -78q0 -17 -28 -23q-24 -4 -156 -4h-129
q-3 -6 -11 -20t-11 -19q-6 -12 -19.5 -34.5t-31.5 -53.5t-29 -51q-57 -94 -64 -111q-6 -10 -18 -34q-12 -16 -37 -68q-66 -118 -88 -158q-57 -103 -57 -202q0 -54 16 -54q16 3 54 26t71 50q11 9 43 34t50.5 40.5t50 49t63.5 73.5q30 39 100 133q31 44 42 54.5t26 10.5h10
q26 -4 73.5 -32t73.5 -52q19 -25 19 -32q0 -10 -15 -25q-81 -106 -157 -194q-91 -104 -179.5 -175.5t-154.5 -93.5q-24 -8 -62 -8q-66 0 -146.5 28.5t-147.5 78.5q-20 14 -29 14q-10 0 -35 -19zM807 717q-4 4 -12 4q-28 0 -90 -30t-111 -68q-40 -30 -106.5 -95t-96.5 -104
q-48 -59 -78 -134.5t-30 -127.5q0 -43 24 -49q1 0 3 -1t3 -1q22 0 74 22.5t94 48.5q98 61 187.5 159.5t119.5 182.5q29 79 29 150q0 36 -10 43z" />
    <glyph glyph-name="Emacron" unicode="&#x112;" horiz-adv-x="964" 
d="M776 1294q11 0 44.5 2t72.5 2q123 0 133 -2q68 -15 140.5 -56t72.5 -64q0 -8 -13 -9.5t-75 -1.5q-128 0 -182 -8q-3 0 -19.5 -1t-25.5 -1q-8 0 -27 -1t-25 -1q-20 -4 -32 -4q-25 0 -32.5 -7t-16.5 -38q-23 -74 -195 -422q-63 -132 -64 -141v-6q0 -4 2.5 -6.5t10.5 -4
t22.5 -2t40.5 -0.5q61 0 94 -8q70 -18 133.5 -55t63.5 -58q0 -7 -6 -10q-8 -4 -16 -4q-2 0 -18.5 1t-31.5 1q-51 0 -71 -2q-36 -4 -76 -4q-60 0 -74 -2q-78 -10 -92 -10q-9 0 -24.5 3t-18.5 3q-17 0 -31 -28t-51 -128q-18 -46 -18 -61q0 -13 18 -13h17q16 0 126 7h17
q122 0 235 -80q39 -26 39 -41q0 -10 -14 -12.5t-74 -4.5q-98 -3 -135 -8q-125 -15 -145 -18q-49 -7 -93 -15q-54 -8 -61 -8q-11 0 -27 4q-55 12 -123 49.5t-79 61.5q-4 8 -4 14q0 9 12 39l6 21t10 33.5t17 48.5q34 103 92 243q38 85 49 107q10 25 31 67l17 38q18 38 32 65
q148 303 151 311q2 4 7.5 15.5t7.5 15.5t7 15t7 15q1 4 9.5 24.5t13.5 31.5q20 46 20 59v8q0 15 8.5 20.5t34.5 8.5q22 3 68.5 5.5t60.5 4.5q16 2 47 2zM1028 1626l82 2q60 2 116.5 -23t80.5 -65q10 -16 6 -27q-4 -10 -25.5 -14.5t-77.5 -9.5q-86 -8 -221 -8h-100
q-27 0 -61 1t-35 1q-49 0 -102.5 48t-45.5 71q3 9 22 12t72 2q61 -1 171.5 4.5t117.5 5.5z" />
    <glyph glyph-name="emacron" unicode="&#x113;" horiz-adv-x="841" 
d="M1198 426q-134 -121 -212 -186.5t-171 -129t-176.5 -96t-181.5 -49.5q-28 -4 -47 -4q-144 0 -299 102q-160 106 -160 267q0 92 51 194q57 117 186.5 216t255.5 124q24 4 41 4q101 0 220 -75q108 -67 108 -160q0 -39 -25 -84q-65 -106 -251.5 -227t-343.5 -158
q0 -1 -1.5 -4t-1.5 -4q0 -17 11 -35t22 -23q4 -2 17 -2q42 0 137.5 27t161.5 57q104 47 212.5 124t258.5 210q73 65 86 80q10 14 12 14q2 2 10 2q49 0 129 -55q31 -19 31 -33q0 -12 -21 -33q-1 -1 -8.5 -10t-21 -23.5t-29.5 -29.5zM254 457q-57 -94 -57 -111q3 0 14.5 3
t41.5 15.5t64 30.5q82 41 158.5 106.5t102.5 108.5q26 45 26 88q0 13 -4 17t-16 4h-6q-92 -34 -184.5 -108.5t-139.5 -153.5zM696 1192l82 2q60 2 116.5 -23t80.5 -65q10 -16 6 -27q-4 -10 -25 -14.5t-77 -9.5q-86 -8 -222 -8h-100q-27 0 -61 1t-35 1q-49 0 -102.5 47.5
t-45.5 70.5q6 17 95 15q61 -1 170.5 4.5t117.5 5.5z" />
    <glyph glyph-name="Ebreve" unicode="&#x114;" horiz-adv-x="964" 
d="M776 1294q11 0 44.5 2t72.5 2q123 0 133 -2q68 -15 140.5 -56t72.5 -64q0 -8 -13 -9.5t-75 -1.5q-128 0 -182 -8q-3 0 -19.5 -1t-25.5 -1q-8 0 -27 -1t-25 -1q-20 -4 -32 -4q-25 0 -32.5 -7t-16.5 -38q-23 -74 -195 -422q-63 -132 -64 -141v-6q0 -4 2.5 -6.5t10.5 -4
t22.5 -2t40.5 -0.5q61 0 94 -8q70 -18 133.5 -55t63.5 -58q0 -7 -6 -10q-8 -4 -16 -4q-2 0 -18.5 1t-31.5 1q-51 0 -71 -2q-36 -4 -76 -4q-60 0 -74 -2q-78 -10 -92 -10q-9 0 -24.5 3t-18.5 3q-17 0 -31 -28t-51 -128q-18 -46 -18 -61q0 -13 18 -13h17q16 0 126 7h17
q122 0 235 -80q39 -26 39 -41q0 -10 -14 -12.5t-74 -4.5q-98 -3 -135 -8q-125 -15 -145 -18q-49 -7 -93 -15q-54 -8 -61 -8q-11 0 -27 4q-55 12 -123 49.5t-79 61.5q-4 8 -4 14q0 9 12 39l6 21t10 33.5t17 48.5q34 103 92 243q38 85 49 107q10 25 31 67l17 38q18 38 32 65
q148 303 151 311q2 4 7.5 15.5t7.5 15.5t7 15t7 15q1 4 9.5 24.5t13.5 31.5q20 46 20 59v8q0 15 8.5 20.5t34.5 8.5q22 3 68.5 5.5t60.5 4.5q16 2 47 2zM752 1669q9 13 52 6.5t90.5 -27t43.5 -34.5q-18 -76 12 -92q17 -13 54 -2q33 9 76.5 47.5t74.5 89.5q6 8 51.5 10.5
t88 -1t40.5 -9.5q-14 -44 -51.5 -100t-91.5 -89q-88 -53 -211 -53q-88 0 -149.5 51t-79.5 154q-4 29 0 49z" />
    <glyph glyph-name="ebreve" unicode="&#x115;" horiz-adv-x="841" 
d="M1198 426q-134 -121 -212 -186.5t-171 -129t-176.5 -96t-181.5 -49.5q-28 -4 -47 -4q-144 0 -299 102q-160 106 -160 267q0 92 51 194q57 117 186.5 216t255.5 124q24 4 41 4q101 0 220 -75q108 -67 108 -160q0 -39 -25 -84q-65 -106 -251.5 -227t-343.5 -158
q0 -1 -1.5 -4t-1.5 -4q0 -17 11 -35t22 -23q4 -2 17 -2q42 0 137.5 27t161.5 57q104 47 212.5 124t258.5 210q73 65 86 80q10 14 12 14q2 2 10 2q49 0 129 -55q31 -19 31 -33q0 -12 -21 -33q-1 -1 -8.5 -10t-21 -23.5t-29.5 -29.5zM254 457q-57 -94 -57 -111q3 0 14.5 3
t41.5 15.5t64 30.5q82 41 158.5 106.5t102.5 108.5q26 45 26 88q0 13 -4 17t-16 4h-6q-92 -34 -184.5 -108.5t-139.5 -153.5zM420 1235q9 13 52 6.5t90.5 -27t43.5 -34.5q-18 -77 12 -93q17 -13 54 -2q33 9 76.5 48t74.5 90q6 8 51.5 10.5t88.5 -1t41 -9.5q-14 -44 -52 -100
t-92 -89q-88 -53 -211 -53q-88 0 -149.5 51t-79.5 154q-4 29 0 49z" />
    <glyph glyph-name="Edotaccent" unicode="&#x116;" horiz-adv-x="964" 
d="M776 1294q11 0 44.5 2t72.5 2q123 0 133 -2q68 -15 140.5 -56t72.5 -64q0 -8 -13 -9.5t-75 -1.5q-128 0 -182 -8q-3 0 -19.5 -1t-25.5 -1q-8 0 -27 -1t-25 -1q-20 -4 -32 -4q-25 0 -32.5 -7t-16.5 -38q-23 -74 -195 -422q-63 -132 -64 -141v-6q0 -4 2.5 -6.5t10.5 -4
t22.5 -2t40.5 -0.5q61 0 94 -8q70 -18 133.5 -55t63.5 -58q0 -7 -6 -10q-8 -4 -16 -4q-2 0 -18.5 1t-31.5 1q-51 0 -71 -2q-36 -4 -76 -4q-60 0 -74 -2q-78 -10 -92 -10q-9 0 -24.5 3t-18.5 3q-17 0 -31 -28t-51 -128q-18 -46 -18 -61q0 -13 18 -13h17q16 0 126 7h17
q122 0 235 -80q39 -26 39 -41q0 -10 -14 -12.5t-74 -4.5q-98 -3 -135 -8q-125 -15 -145 -18q-49 -7 -93 -15q-54 -8 -61 -8q-11 0 -27 4q-55 12 -123 49.5t-79 61.5q-4 8 -4 14q0 9 12 39l6 21t10 33.5t17 48.5q34 103 92 243q38 85 49 107q10 25 31 67l17 38q18 38 32 65
q148 303 151 311q2 4 7.5 15.5t7.5 15.5t7 15t7 15q1 4 9.5 24.5t13.5 31.5q20 46 20 59v8q0 15 8.5 20.5t34.5 8.5q22 3 68.5 5.5t60.5 4.5q16 2 47 2zM948 1640q4 2 15 2q50 0 135 -42.5t100 -77.5q4 -8 4 -25q0 -43 -44 -86t-91 -43q-10 0 -16 2q-66 13 -130 51.5
t-73 69.5q-2 4 -2 12q0 34 34.5 81t67.5 56z" />
    <glyph glyph-name="edotaccent" unicode="&#x117;" horiz-adv-x="841" 
d="M1198 426q-134 -121 -212 -186.5t-171 -129t-176.5 -96t-181.5 -49.5q-28 -4 -47 -4q-144 0 -299 102q-160 106 -160 267q0 92 51 194q57 117 186.5 216t255.5 124q24 4 41 4q101 0 220 -75q108 -67 108 -160q0 -39 -25 -84q-65 -106 -251.5 -227t-343.5 -158
q0 -1 -1.5 -4t-1.5 -4q0 -17 11 -35t22 -23q4 -2 17 -2q42 0 137.5 27t161.5 57q104 47 212.5 124t258.5 210q73 65 86 80q10 14 12 14q2 2 10 2q49 0 129 -55q31 -19 31 -33q0 -12 -21 -33q-1 -1 -8.5 -10t-21 -23.5t-29.5 -29.5zM254 457q-57 -94 -57 -111q3 0 14.5 3
t41.5 15.5t64 30.5q82 41 158.5 106.5t102.5 108.5q26 45 26 88q0 13 -4 17t-16 4h-6q-92 -34 -184.5 -108.5t-139.5 -153.5zM616 1206q4 2 15 2q50 0 135 -43t100 -78q4 -8 4 -24q0 -43 -44 -86t-91 -43q-10 0 -16 2q-66 13 -130 51.5t-73 69.5q-2 4 -2 12q0 34 34.5 81
t67.5 56z" />
    <glyph glyph-name="Eogonek" unicode="&#x118;" horiz-adv-x="964" 
d="M874 -365q-63 -38 -133 -38q-94 0 -151 28q-55 30 -79 65.5t-26 84.5q0 47 42.5 118.5t105.5 118.5q-5 -1 -16 -2t-17 -2q-125 -15 -145 -18q-49 -7 -93 -15q-54 -8 -61 -8q-11 0 -27 4q-55 12 -123 49.5t-79 61.5q-4 8 -4 14q0 9 12 39l6 21t10 33.5t17 48.5
q34 103 92 243q38 85 49 107q10 25 31 67l17 38q18 38 32 65q148 303 151 311q2 4 7.5 15.5t7.5 15.5t7 15t7 15q1 4 9.5 24.5t13.5 31.5q20 46 20 59v8q0 15 8.5 20.5t34.5 8.5q22 3 68.5 5.5t60.5 4.5q16 2 47 2q11 0 44.5 2t72.5 2q123 0 133 -2q68 -15 140.5 -56
t72.5 -64q0 -8 -13 -9.5t-75 -1.5q-128 0 -182 -8q-3 0 -19.5 -1t-25.5 -1q-8 0 -27 -1t-25 -1q-20 -4 -32 -4q-25 0 -32.5 -7t-16.5 -38q-23 -74 -195 -422q-63 -132 -64 -141v-6q0 -4 2.5 -6.5t10.5 -4t22.5 -2t40.5 -0.5q61 0 94 -8q70 -18 133.5 -55t63.5 -58
q0 -7 -6 -10q-8 -4 -16 -4q-2 0 -18.5 1t-31.5 1q-51 0 -71 -2q-36 -4 -76 -4q-60 0 -74 -2q-78 -10 -92 -10q-9 0 -24.5 3t-18.5 3q-17 0 -31 -28t-51 -128q-18 -46 -18 -61q0 -13 18 -13h17q16 0 126 7h17q122 0 235 -80q39 -26 39 -41q0 -8 -4.5 -11t-21.5 -4
q-90 -139 -112.5 -179t-22.5 -62q5 -34 53 -28t106 38q25 14 48 -20.5t24.5 -74t-19.5 -57.5z" />
    <glyph glyph-name="eogonek" unicode="&#x119;" horiz-adv-x="841" 
d="M676 -383q-64 -39 -133 -39q-93 0 -152 29q-55 30 -78.5 65t-25.5 84q0 40 30.5 98.5t79.5 106.5q-140 6 -286 102q-160 106 -160 267q0 92 51 194q57 117 186.5 216t255.5 124q24 4 41 4q101 0 220 -75q108 -67 108 -160q0 -39 -25 -84q-65 -106 -251.5 -227
t-343.5 -158q0 -1 -1.5 -4t-1.5 -4q0 -17 11 -35t22 -23q4 -2 17 -2q42 0 137.5 27t161.5 57q104 47 212.5 124t258.5 210q73 65 86 80q10 14 12 14q2 2 10 2q49 0 129 -55q31 -19 31 -33q0 -12 -21 -33q-1 -1 -8.5 -10t-21 -23.5t-29.5 -29.5q-149 -133 -230 -200.5
t-179 -130t-191 -95.5q-89 -138 -112 -178.5t-23 -63.5q6 -34 54 -27.5t106 38.5q25 14 48 -20.5t24.5 -74t-19.5 -57.5zM254 457q-57 -94 -57 -111q3 0 14.5 3t41.5 15.5t64 30.5q82 41 158.5 106.5t102.5 108.5q26 45 26 88q0 13 -4 17t-16 4h-6q-92 -34 -184.5 -108.5
t-139.5 -153.5z" />
    <glyph glyph-name="Ecaron" unicode="&#x11a;" horiz-adv-x="964" 
d="M776 1294q11 0 44.5 2t72.5 2q123 0 133 -2q68 -15 140.5 -56t72.5 -64q0 -8 -13 -9.5t-75 -1.5q-128 0 -182 -8q-3 0 -19.5 -1t-25.5 -1q-8 0 -27 -1t-25 -1q-20 -4 -32 -4q-25 0 -32.5 -7t-16.5 -38q-23 -74 -195 -422q-63 -132 -64 -141v-6q0 -4 2.5 -6.5t10.5 -4
t22.5 -2t40.5 -0.5q61 0 94 -8q70 -18 133.5 -55t63.5 -58q0 -7 -6 -10q-8 -4 -16 -4q-2 0 -18.5 1t-31.5 1q-51 0 -71 -2q-36 -4 -76 -4q-60 0 -74 -2q-78 -10 -92 -10q-9 0 -24.5 3t-18.5 3q-17 0 -31 -28t-51 -128q-18 -46 -18 -61q0 -13 18 -13h17q16 0 126 7h17
q122 0 235 -80q39 -26 39 -41q0 -10 -14 -12.5t-74 -4.5q-98 -3 -135 -8q-125 -15 -145 -18q-49 -7 -93 -15q-54 -8 -61 -8q-11 0 -27 4q-55 12 -123 49.5t-79 61.5q-4 8 -4 14q0 9 12 39l6 21t10 33.5t17 48.5q34 103 92 243q38 85 49 107q10 25 31 67l17 38q18 38 32 65
q148 303 151 311q2 4 7.5 15.5t7.5 15.5t7 15t7 15q1 4 9.5 24.5t13.5 31.5q20 46 20 59v8q0 15 8.5 20.5t34.5 8.5q22 3 68.5 5.5t60.5 4.5q16 2 47 2zM1049 1415q-16 -4 -31 -4q-40 0 -92.5 14t-75.5 31q-18 13 -53 105q-17 49 -52 106q-14 22 -14 29q0 4 2 6q8 14 43 14
q39 0 88 -14q61 -17 85.5 -39t49.5 -78q12 -35 25 -35q10 0 68 27q138 61 170 68q16 4 30 4q19 0 29 -2q86 -15 86 -45q0 -11 -23 -27q-3 -2 -13.5 -7t-28.5 -13.5t-31 -14.5q-78 -34 -224 -106q-30 -19 -38 -19z" />
    <glyph glyph-name="ecaron" unicode="&#x11b;" horiz-adv-x="841" 
d="M1198 426q-134 -121 -212 -186.5t-171 -129t-176.5 -96t-181.5 -49.5q-28 -4 -47 -4q-144 0 -299 102q-160 106 -160 267q0 92 51 194q57 117 186.5 216t255.5 124q24 4 41 4q101 0 220 -75q108 -67 108 -160q0 -39 -25 -84q-65 -106 -251.5 -227t-343.5 -158
q0 -1 -1.5 -4t-1.5 -4q0 -17 11 -35t22 -23q4 -2 17 -2q42 0 137.5 27t161.5 57q104 47 212.5 124t258.5 210q73 65 86 80q10 14 12 14q2 2 10 2q49 0 129 -55q31 -19 31 -33q0 -12 -21 -33q-1 -1 -8.5 -10t-21 -23.5t-29.5 -29.5zM254 457q-57 -94 -57 -111q3 0 14.5 3
t41.5 15.5t64 30.5q82 41 158.5 106.5t102.5 108.5q26 45 26 88q0 13 -4 17t-16 4h-6q-92 -34 -184.5 -108.5t-139.5 -153.5zM717 981q-16 -4 -31 -4q-40 0 -92.5 14t-75.5 31q-19 13 -53 104q-19 55 -51 107q-15 24 -15 29q0 4 2 6q8 14 43 14q39 0 88 -14q61 -17 86 -39
t50 -78q12 -35 24 -35q10 0 68 27q98 43 135.5 57t65.5 14q18 0 28 -2q86 -15 86 -45q0 -10 -22 -26q-3 -2 -13.5 -7t-29 -13.5t-31.5 -14.5q-47 -21 -223 -107q-29 -18 -39 -18z" />
    <glyph glyph-name="Gcircumflex" unicode="&#x11c;" horiz-adv-x="1353" 
d="M983 1343q35 5 43 5q82 0 195 -58q96 -47 142 -96.5t60 -120.5q2 -6 2 -22q0 -69 -55 -160q-24 -43 -35.5 -56.5t-27.5 -13.5q-11 0 -41 10q-44 15 -84.5 41t-46.5 43q-2 4 -2 15q0 18 24 94q31 91 31 129q0 41 -29 41q-4 0 -20 -4q-102 -30 -215.5 -108.5t-208.5 -182.5
q-24 -26 -64 -74q-105 -128 -169 -270t-64 -244q0 -25 2 -35q7 -58 27 -104.5t42 -58.5q14 -7 33 -7q51 0 127 27q90 32 187.5 109.5t152.5 160.5q33 47 33 62q0 14 -39 14q-65 0 -159.5 48t-94.5 79q0 14 77.5 42t147.5 40t127 12q113 0 226 -61q49 -28 66.5 -43.5
t17.5 -36.5q0 -13 -8 -31.5t-17.5 -34.5t-32.5 -53q-94 -147 -147 -256q-40 -77 -99 -217t-79 -207q-7 -22 -19 -28q-2 -2 -10 -2q-33 0 -101.5 32t-101.5 64q-16 16 -16 27q0 10 22 71q9 24 9 33q0 6 -2.5 9.5t-11.5 4.5t-17 1.5t-27 0.5q-114 0 -253 62.5t-218 150.5
q-40 46 -64 111t-24 129q0 17 4 45q20 141 112 300t234 300q107 107 229.5 179.5t229.5 92.5zM1327 1741q6 2 23 2q26 0 63.5 -10.5t56.5 -22.5q23 -17 46 -68q22 -46 39 -71.5t53 -63.5q39 -44 39 -53l-5 -10q-10 -10 -38 -10q-77 0 -146 34q-27 11 -43.5 27t-58.5 74
q-10 16 -19 16q-8 0 -47 -20q-152 -79 -209 -82h-6q-31 0 -71 10.5t-52 22.5q-10 10 -10 16q0 16 45 31q126 49 221 100q41 21 82 51q28 25 37 27z" />
    <glyph glyph-name="gcircumflex" unicode="&#x11d;" horiz-adv-x="1271" 
d="M1231 319q151 130 246 256q19 24 28.5 32.5t20.5 8.5q9 0 24 -6q45 -17 87 -56.5t42 -64.5v-4q-5 -25 -69 -102t-133 -133q-135 -117 -306.5 -218t-349.5 -169q-40 -14 -50.5 -20t-18.5 -15q-8 -12 -49 -83.5t-58 -104.5q-7 -17 -29 -54q-5 -9 -17.5 -34l-16.5 -33
q-86 -159 -139.5 -250.5t-106.5 -164.5t-95 -104t-87 -36q-3 0 -9.5 -1t-9.5 -1q-68 0 -166 49.5t-133 103.5q-41 59 -41 140q0 164 139 339q78 102 177.5 165.5t287.5 131.5q101 38 117 50q9 7 29 41q10 20 10 26t-8 6q-17 0 -29 -4q-56 -12 -106 -12q-152 0 -267 94
q-34 31 -47 82q-12 46 -12 49q-8 24 -8 58q0 66 45 172q66 153 241 298.5t322 170.5q8 2 29 2q121 0 278 -103q29 -20 39 -20q7 0 21 14q14 15 22 19t27 4q36 -3 92.5 -33t65.5 -51q4 -8 4 -15q0 -18 -58 -114q-3 -5 -8.5 -15t-14 -23t-12.5 -20q-71 -127 -108 -188
q-131 -232 -131 -242q0 -4 6 -4q16 0 112.5 60.5t180.5 125.5zM840 743q-6 2 -19 2q-27 0 -69 -24q-117 -57 -226 -157.5t-153 -192.5q-24 -45 -37.5 -97t-13.5 -88q0 -45 20 -45h2q60 10 196 105t201 170q105 119 133 233q5 20 5 29q0 56 -39 65zM18 -831q0 -35 11 -35
q14 0 53.5 45t83.5 110q59 88 130 224t71 155q0 6 -7 6q-6 0 -30 -12q-91 -50 -172.5 -158.5t-118.5 -216.5q-21 -61 -21 -118zM1024 1356q6 2 23 2q26 0 63.5 -10.5t56.5 -22.5q22 -15 45 -68q21 -45 38.5 -71t54.5 -64q38 -43 38 -53q0 -2 -4 -10q-10 -10 -39 -10
q-76 0 -145 34q-27 11 -43.5 27t-58.5 74q-10 16 -19 16q-8 0 -47 -20q-152 -79 -209 -82h-6q-32 0 -71.5 10t-51.5 22q-10 10 -10 17q0 16 45 31q126 49 221 100q41 21 82 51q28 25 37 27z" />
    <glyph glyph-name="Gbreve" unicode="&#x11e;" horiz-adv-x="1353" 
d="M983 1343q35 5 43 5q82 0 195 -58q96 -47 142 -96.5t60 -120.5q2 -6 2 -22q0 -69 -55 -160q-24 -43 -35.5 -56.5t-27.5 -13.5q-11 0 -41 10q-44 15 -84.5 41t-46.5 43q-2 4 -2 15q0 18 24 94q31 91 31 129q0 41 -29 41q-4 0 -20 -4q-102 -30 -215.5 -108.5t-208.5 -182.5
q-24 -26 -64 -74q-105 -128 -169 -270t-64 -244q0 -25 2 -35q7 -58 27 -104.5t42 -58.5q14 -7 33 -7q51 0 127 27q90 32 187.5 109.5t152.5 160.5q33 47 33 62q0 14 -39 14q-65 0 -159.5 48t-94.5 79q0 14 77.5 42t147.5 40t127 12q113 0 226 -61q49 -28 66.5 -43.5
t17.5 -36.5q0 -13 -8 -31.5t-17.5 -34.5t-32.5 -53q-94 -147 -147 -256q-40 -77 -99 -217t-79 -207q-7 -22 -19 -28q-2 -2 -10 -2q-33 0 -101.5 32t-101.5 64q-16 16 -16 27q0 10 22 71q9 24 9 33q0 6 -2.5 9.5t-11.5 4.5t-17 1.5t-27 0.5q-114 0 -253 62.5t-218 150.5
q-40 46 -64 111t-24 129q0 17 4 45q20 141 112 300t234 300q107 107 229.5 179.5t229.5 92.5zM1016 1677q9 13 52 6.5t90.5 -27t43.5 -34.5q-18 -76 12 -92q17 -13 54 -2q33 9 76.5 47.5t74.5 89.5q6 8 51.5 10.5t88 -1t40.5 -9.5q-14 -44 -51.5 -99.5t-91.5 -88.5
q-90 -54 -211 -54q-88 0 -149.5 51t-79.5 154q-4 29 0 49z" />
    <glyph glyph-name="gbreve" unicode="&#x11f;" horiz-adv-x="1271" 
d="M1231 319q151 130 246 256q19 24 28.5 32.5t20.5 8.5q9 0 24 -6q45 -17 87 -56.5t42 -64.5v-4q-5 -25 -69 -102t-133 -133q-135 -117 -306.5 -218t-349.5 -169q-40 -14 -50.5 -20t-18.5 -15q-8 -12 -49 -83.5t-58 -104.5q-7 -17 -29 -54q-5 -9 -17.5 -34l-16.5 -33
q-86 -159 -139.5 -250.5t-106.5 -164.5t-95 -104t-87 -36q-3 0 -9.5 -1t-9.5 -1q-68 0 -166 49.5t-133 103.5q-41 59 -41 140q0 164 139 339q78 102 177.5 165.5t287.5 131.5q101 38 117 50q9 7 29 41q10 20 10 26t-8 6q-17 0 -29 -4q-56 -12 -106 -12q-152 0 -267 94
q-34 31 -47 82q-12 46 -12 49q-8 24 -8 58q0 66 45 172q66 153 241 298.5t322 170.5q8 2 29 2q121 0 278 -103q29 -20 39 -20q7 0 21 14q14 15 22 19t27 4q36 -3 92.5 -33t65.5 -51q4 -8 4 -15q0 -18 -58 -114q-3 -5 -8.5 -15t-14 -23t-12.5 -20q-71 -127 -108 -188
q-131 -232 -131 -242q0 -4 6 -4q16 0 112.5 60.5t180.5 125.5zM840 743q-6 2 -19 2q-27 0 -69 -24q-117 -57 -226 -157.5t-153 -192.5q-24 -45 -37.5 -97t-13.5 -88q0 -45 20 -45h2q60 10 196 105t201 170q105 119 133 233q5 20 5 29q0 56 -39 65zM18 -831q0 -35 11 -35
q14 0 53.5 45t83.5 110q59 88 130 224t71 155q0 6 -7 6q-6 0 -30 -12q-91 -50 -172.5 -158.5t-118.5 -216.5q-21 -61 -21 -118zM713 1292q9 13 52 6.5t90.5 -27t43.5 -34.5q-18 -76 12 -92q17 -13 54 -2q33 9 76.5 47.5t74.5 89.5q6 8 51.5 10.5t88 -1t40.5 -9.5
q-14 -44 -51.5 -99.5t-91.5 -88.5q-90 -54 -211 -54q-88 0 -149.5 51t-79.5 154q-4 29 0 49z" />
    <glyph glyph-name="Gdotaccent" unicode="&#x120;" horiz-adv-x="1353" 
d="M983 1343q35 5 43 5q82 0 195 -58q96 -47 142 -96.5t60 -120.5q2 -6 2 -22q0 -69 -55 -160q-24 -43 -35.5 -56.5t-27.5 -13.5q-11 0 -41 10q-44 15 -84.5 41t-46.5 43q-2 4 -2 15q0 18 24 94q31 91 31 129q0 41 -29 41q-4 0 -20 -4q-102 -30 -215.5 -108.5t-208.5 -182.5
q-24 -26 -64 -74q-105 -128 -169 -270t-64 -244q0 -25 2 -35q7 -58 27 -104.5t42 -58.5q14 -7 33 -7q51 0 127 27q90 32 187.5 109.5t152.5 160.5q33 47 33 62q0 14 -39 14q-65 0 -159.5 48t-94.5 79q0 14 77.5 42t147.5 40t127 12q113 0 226 -61q49 -28 66.5 -43.5
t17.5 -36.5q0 -13 -8 -31.5t-17.5 -34.5t-32.5 -53q-94 -147 -147 -256q-40 -77 -99 -217t-79 -207q-7 -22 -19 -28q-2 -2 -10 -2q-33 0 -101.5 32t-101.5 64q-16 16 -16 27q0 10 22 71q9 24 9 33q0 6 -2.5 9.5t-11.5 4.5t-17 1.5t-27 0.5q-114 0 -253 62.5t-218 150.5
q-40 46 -64 111t-24 129q0 17 4 45q20 141 112 300t234 300q107 107 229.5 179.5t229.5 92.5zM1212 1649q4 2 15 2q50 0 135 -43t100 -78q4 -8 4 -25q0 -43 -44 -86t-91 -43q-10 0 -16 2q-66 13 -130 51.5t-73 69.5q-2 4 -2 12q0 34 34.5 81.5t67.5 56.5z" />
    <glyph glyph-name="gdotaccent" unicode="&#x121;" horiz-adv-x="1271" 
d="M1231 319q151 130 246 256q19 24 28.5 32.5t20.5 8.5q9 0 24 -6q45 -17 87 -56.5t42 -64.5v-4q-5 -25 -69 -102t-133 -133q-135 -117 -306.5 -218t-349.5 -169q-40 -14 -50.5 -20t-18.5 -15q-8 -12 -49 -83.5t-58 -104.5q-7 -17 -29 -54q-5 -9 -17.5 -34l-16.5 -33
q-86 -159 -139.5 -250.5t-106.5 -164.5t-95 -104t-87 -36q-3 0 -9.5 -1t-9.5 -1q-68 0 -166 49.5t-133 103.5q-41 59 -41 140q0 164 139 339q78 102 177.5 165.5t287.5 131.5q101 38 117 50q9 7 29 41q10 20 10 26t-8 6q-17 0 -29 -4q-56 -12 -106 -12q-152 0 -267 94
q-34 31 -47 82q-12 46 -12 49q-8 24 -8 58q0 66 45 172q66 153 241 298.5t322 170.5q8 2 29 2q121 0 278 -103q29 -20 39 -20q7 0 21 14q14 15 22 19t27 4q36 -3 92.5 -33t65.5 -51q4 -8 4 -15q0 -18 -58 -114q-3 -5 -8.5 -15t-14 -23t-12.5 -20q-71 -127 -108 -188
q-131 -232 -131 -242q0 -4 6 -4q16 0 112.5 60.5t180.5 125.5zM840 743q-6 2 -19 2q-27 0 -69 -24q-117 -57 -226 -157.5t-153 -192.5q-24 -45 -37.5 -97t-13.5 -88q0 -45 20 -45h2q60 10 196 105t201 170q105 119 133 233q5 20 5 29q0 56 -39 65zM18 -831q0 -35 11 -35
q14 0 53.5 45t83.5 110q59 88 130 224t71 155q0 6 -7 6q-6 0 -30 -12q-91 -50 -172.5 -158.5t-118.5 -216.5q-21 -61 -21 -118zM909 1264q4 2 15 2q50 0 135 -43t100 -78q4 -8 4 -25q0 -43 -44 -86t-91 -43q-10 0 -16 2q-66 13 -130 51.5t-73 69.5q-2 4 -2 12
q0 34 34.5 81.5t67.5 56.5z" />
    <glyph glyph-name="Gcommaaccent" unicode="&#x122;" horiz-adv-x="1353" 
d="M983 1343q35 5 43 5q82 0 195 -58q96 -47 142 -96.5t60 -120.5q2 -6 2 -22q0 -69 -55 -160q-24 -43 -35.5 -56.5t-27.5 -13.5q-11 0 -41 10q-44 15 -84.5 41t-46.5 43q-2 4 -2 15q0 18 24 94q31 91 31 129q0 41 -29 41q-4 0 -20 -4q-102 -30 -215.5 -108.5t-208.5 -182.5
q-24 -26 -64 -74q-105 -128 -169 -270t-64 -244q0 -25 2 -35q7 -58 27 -104.5t42 -58.5q14 -7 33 -7q51 0 127 27q90 32 187.5 109.5t152.5 160.5q33 47 33 62q0 14 -39 14q-65 0 -159.5 48t-94.5 79q0 14 77.5 42t147.5 40t127 12q113 0 226 -61q49 -28 66.5 -43.5
t17.5 -36.5q0 -13 -8 -31.5t-17.5 -34.5t-32.5 -53q-94 -147 -147 -256q-40 -77 -99 -217t-79 -207q-7 -22 -19 -28q-2 -2 -10 -2q-33 0 -101.5 32t-101.5 64q-16 16 -16 27q0 10 22 71q9 24 9 33q0 6 -2.5 9.5t-11.5 4.5t-17 1.5t-27 0.5q-114 0 -253 62.5t-218 150.5
q-40 46 -64 111t-24 129q0 17 4 45q20 141 112 300t234 300q107 107 229.5 179.5t229.5 92.5zM426 -129q4 2 10 2q33 0 93 -36t75 -66q14 -28 14 -80q0 -71 -28 -125q-19 -37 -66 -75t-75 -38q-41 0 -107 34.5t-66 57.5q0 15 25 27q28 14 58.5 42t43.5 54q27 52 27 127
q0 15 -6 45q-6 12 -6 19q0 8 8 12z" />
    <glyph glyph-name="gcommaaccent" unicode="&#x123;" horiz-adv-x="1271" 
d="M1231 319q151 130 246 256q19 24 28.5 32.5t20.5 8.5q9 0 24 -6q45 -17 87 -56.5t42 -64.5v-4q-5 -25 -69 -102t-133 -133q-135 -117 -306.5 -218t-349.5 -169q-40 -14 -50.5 -20t-18.5 -15q-8 -12 -49 -83.5t-58 -104.5q-7 -17 -29 -54q-5 -9 -17.5 -34l-16.5 -33
q-86 -159 -139.5 -250.5t-106.5 -164.5t-95 -104t-87 -36q-3 0 -9.5 -1t-9.5 -1q-68 0 -166 49.5t-133 103.5q-41 59 -41 140q0 164 139 339q78 102 177.5 165.5t287.5 131.5q101 38 117 50q9 7 29 41q10 20 10 26t-8 6q-17 0 -29 -4q-56 -12 -106 -12q-152 0 -267 94
q-34 31 -47 82q-12 46 -12 49q-8 24 -8 58q0 66 45 172q66 153 241 298.5t322 170.5q8 2 29 2q121 0 278 -103q29 -20 39 -20q7 0 21 14q14 15 22 19t27 4q36 -3 92.5 -33t65.5 -51q4 -8 4 -15q0 -18 -58 -114q-3 -5 -8.5 -15t-14 -23t-12.5 -20q-71 -127 -108 -188
q-131 -232 -131 -242q0 -4 6 -4q16 0 112.5 60.5t180.5 125.5zM840 743q-6 2 -19 2q-27 0 -69 -24q-117 -57 -226 -157.5t-153 -192.5q-24 -45 -37.5 -97t-13.5 -88q0 -45 20 -45h2q60 10 196 105t201 170q105 119 133 233q5 20 5 29q0 56 -39 65zM18 -831q0 -35 11 -35
q14 0 53.5 45t83.5 110q59 88 130 224t71 155q0 6 -7 6q-6 0 -30 -12q-91 -50 -172.5 -158.5t-118.5 -216.5q-21 -61 -21 -118zM1055 997q-4 -2 -11 -2q-33 0 -92.5 36.5t-74.5 66.5t-15 80q0 69 29 125q19 37 66 74.5t75 37.5q40 0 106 -34.5t66 -57.5q0 -9 -4.5 -14.5
t-19.5 -12.5q-28 -14 -59 -42t-44 -54q-26 -50 -26 -127q0 -15 6 -45q6 -12 6 -18q0 -9 -8 -13z" />
    <glyph glyph-name="Hcircumflex" unicode="&#x124;" horiz-adv-x="1370" 
d="M1440 1425q10 5 18 5q27 0 71 -19t83 -47q41 -28 41 -53q0 -5 -4 -21q-6 -21 -16 -40t-62 -107q-29 -49 -60 -105q-15 -30 -30 -55q-3 -6 -15 -27.5t-18 -33.5q-44 -88 -109 -211l-196 -392q-81 -163 -105 -247q-12 -52 -26 -66q-8 -4 -17 -4q-33 0 -92.5 26.5
t-103.5 61.5q-23 20 -23 37q0 22 39 123q27 70 76 170q16 32 16 43q0 12 -26 12h-13q-82 -5 -104 -8q-12 0 -62 -8q-70 -10 -145 -33.5t-90 -38.5q-2 -2 -12 -22q-6 -20 -17 -48.5t-14 -37.5q-12 -35 -23 -76q-47 -165 -53 -189q-10 -42 -15.5 -50.5t-19.5 -8.5
q-44 0 -124 44t-91 71q-2 4 -2 12q0 17 19 84q53 178 55 186q52 176 154 387q20 46 34 74q32 70 158 320.5t143 275.5q10 16 37 16q64 0 162 -67q17 -11 23.5 -16t12 -12.5t5.5 -16.5q0 -20 -55 -127q-46 -88 -140 -278.5t-126 -260.5q-9 -18 -9 -26q0 -13 21 -13q3 0 57 1
t86 1q17 0 38 -1t24 -1q11 -1 39.5 -3t47 -4t36.5 -7q24 -6 34 -6q19 0 33 22t59 117q24 48 148 285q4 8 12.5 24.5t15.5 29.5t11 21q37 68 57 103q15 25 66 115l18 30q48 81 68 90zM1292 1798q6 2 23 2q26 0 64 -10.5t57 -22.5q22 -16 45 -67q22 -46 39 -71.5t53 -63.5
q39 -44 39 -54q0 -2 -4 -10q-10 -10 -39 -10q-74 0 -146 35q-27 11 -43.5 27t-58.5 73q-10 16 -18 16q-9 0 -48 -20q-152 -79 -208 -82h-7q-31 0 -70.5 10.5t-51.5 22.5q-11 11 -11 16q0 16 45 31q129 50 222 100q33 17 81 52q26 23 37 26z" />
    <glyph glyph-name="hcircumflex" unicode="&#x125;" horiz-adv-x="1146" 
d="M1092 276q121 109 221 256q67 97 84 99h6q31 0 95.5 -43t70.5 -68v-4q0 -10 -39 -63q-87 -113 -156 -187q-125 -132 -196 -186t-126.5 -80t-121.5 -35q-3 0 -10 -1t-11 -1q-68 0 -159 49q-74 37 -106 74.5t-32 89.5q0 25 6 55q9 52 44 140q3 5 8.5 17t7.5 15
q23 60 123 215q39 59 39 72q0 4 -4 4q-6 0 -23 -10q-30 -15 -119 -90q-64 -56 -137 -148q-91 -110 -201 -282q-3 -5 -12.5 -19.5l-19 -29t-15.5 -25.5q-34 -56 -43 -72q-16 -29 -23 -37t-20 -8h-8q-37 3 -105.5 39.5t-80.5 59.5q-4 12 -4 16q0 14 22 68q82 188 96 219
q93 205 230 465q15 30 47 90.5t59 111.5q155 308 260 461q25 39 37 41q4 2 15 2q37 0 100 -33t70 -57v-6q0 -11 -19 -45q-3 -7 -22 -43t-29 -57q-25 -55 -47 -91q-172 -344 -174 -352q-2 -4 -2 -10q0 -4 4 -4t47 16q54 23 83.5 30t74.5 7q36 0 49.5 -2t46.5 -12
q61 -20 127 -70q24 -21 24 -53q0 -19 -6 -43q-12 -40 -31 -75.5t-94 -160.5q-71 -116 -104.5 -186t-50.5 -139q-2 -7 -4 -16t-3.5 -14t-1.5 -9q0 -12 11 -12q12 0 47 18q133 66 205 149zM965 1894q6 2 22 2q26 0 64 -10t57 -22q22 -15 45 -68q22 -46 39 -71.5t53 -63.5
q39 -44 39 -53q0 -3 -4 -11q-10 -10 -39 -10q-73 0 -145 35q-27 11 -44.5 27t-58.5 73q-10 17 -18 17q-7 0 -47 -21q-152 -79 -209 -82h-6q-31 0 -71 10.5t-52 22.5q-10 10 -10 17q0 15 45 30q120 46 221 101q41 21 82 51q26 23 37 26z" />
    <glyph glyph-name="Hbar" unicode="&#x126;" horiz-adv-x="1370" 
d="M348 14q-10 -42 -15.5 -50.5t-19.5 -8.5q-44 0 -124 44t-91 71q-2 4 -2 12q0 17 19 84q53 178 55 186q52 176 154 387q10 20 26 56q-23 5 -50.5 19t-45 26.5t-53.5 38.5q-25 22 -25 32q0 9 4 13q6 7 17.5 10t61.5 5t161 3q204 408 239 467q10 16 37 16q64 0 162 -67
q17 -11 23.5 -16t12 -12.5t5.5 -16.5q0 -20 -55 -127q-91 -178 -123 -244h59q97 0 221.5 1t155.5 1q7 14 19 37.5t16 30.5q4 8 12.5 24.5t15.5 29.5t11 21q37 68 57 103q15 25 66 115l18 30q48 81 68 90q10 5 18 5q27 0 71 -19t83 -47q41 -28 41 -53q0 -5 -4 -21
q-6 -21 -16 -40t-62 -107q-29 -49 -60 -105q-15 -30 -30 -55q-1 -3 -6 -11.5t-7 -13.5q44 -7 152 -81q51 -34 51 -52q0 -16 -45 -22q-86 -12 -246 -12q-3 -7 -41 -80l-196 -392q-81 -163 -105 -247q-12 -52 -26 -66q-8 -4 -17 -4q-33 0 -92.5 26.5t-103.5 61.5
q-23 20 -23 37q0 22 39 123q27 70 76 170q16 32 16 43q0 12 -26 12h-13q-82 -5 -104 -8q-12 0 -62 -8q-70 -10 -145 -33.5t-90 -38.5q-2 -2 -12 -22q-6 -20 -17 -48.5t-14 -37.5q-12 -35 -23 -76q-47 -165 -53 -189zM918 594q24 -6 34 -6q19 0 33 22t59 117q4 8 15 29.5
t18 36.5h-430q-37 -76 -69 -146q-9 -18 -9 -26q0 -13 21 -13q3 0 57 1t86 1q17 0 38 -1t24 -1q11 -1 39.5 -3t47 -4t36.5 -7z" />
    <glyph glyph-name="hbar" unicode="&#x127;" horiz-adv-x="1136" 
d="M930 -35q-3 0 -10 -1t-11 -1q-68 0 -159 49q-74 37 -106 74.5t-32 89.5q0 25 6 55q9 52 44 140q3 5 8.5 17t7.5 15q23 60 123 215q39 59 39 72q0 4 -4 4q-6 0 -23 -10q-30 -15 -119 -90q-64 -56 -137 -148q-91 -110 -201 -282q-3 -5 -12.5 -19.5l-19 -29t-15.5 -25.5
q-34 -56 -43 -72q-16 -29 -23 -37t-20 -8h-8q-37 3 -105.5 39.5t-80.5 59.5q-4 12 -4 16q0 14 22 68q82 188 96 219q93 205 230 465q16 31 47.5 91t54.5 105h-2q-71 17 -132.5 59.5t-61.5 71.5q0 9 12 15q6 2 96 2q13 0 69.5 -1t94.5 -1q101 189 188 321q25 39 37 41
q4 2 15 2q37 0 100 -33t70 -57v-6q0 -11 -19 -45q-3 -7 -22 -43t-29 -57q-25 -55 -47 -91q-1 -2 -7 -13t-10 -19h27q13 0 26.5 -4.5t23 -9.5t30 -17.5t35.5 -20.5q100 -47 100 -77q0 -17 -29 -23q-24 -4 -155 -4h-135q-11 -23 -23.5 -48t-22 -44.5t-17 -35.5t-12.5 -25.5
t-5 -10.5q-2 -4 -2 -10q0 -4 4 -4t47 16q54 23 83.5 30t74.5 7q36 0 49.5 -2t46.5 -12q61 -20 127 -70q24 -21 24 -53q0 -19 -6 -43q-12 -40 -31 -75.5t-94 -160.5q-71 -116 -104.5 -186t-50.5 -139q-2 -7 -4 -16t-3.5 -14t-1.5 -9q0 -12 11 -12q12 0 47 18q133 66 205 149
q121 109 221 256q67 97 84 99h6q31 0 95.5 -43t70.5 -68v-4q0 -10 -39 -63q-87 -113 -156 -187q-125 -132 -196 -186t-126.5 -80t-121.5 -35z" />
    </font>
</defs>
</svg>
