<svg xmlns="http://www.w3.org/2000/svg" viewBox="0 0 156.14 39.55"><g fill="#1d1d1b"><path d="M3.04 25.52c-.82 0-2.88-1.08-3.04-1.74v-.13c0-.6.6-2.6 1.74-5.6.25-.63.86-2.18 1.11-2.85.13-.32.32-.86.44-1.17.38-1.08.57-1.58 1.27-3.51q.54-1.58 1.17-1.58c.92.03 1.61.35 2.34 1.08.32.32.47.41.47.7s-.19.76-.57 1.84c-.16.38-.35.95-.44 1.27-.1.29-.29.79-.41 1.11-.09.32-.25.7-.32.89-.06.19-.38.98-.67 1.74-1.74 4.5-2.12 5.64-2.53 7.22-.13.48-.19.63-.32.7-.06.03-.16.06-.25.06ZM9.56 6.87c-.92 0-3.13-1.14-3.29-1.77-.03-.06-.03-.16-.03-.25 0-.63.48-1.68.89-1.9a1 1 0 0 1 .32-.06c.48 0 1.2.25 2 .7 1.01.54 1.46.92 1.46 1.42 0 .29-.16.63-.41 1.08-.22.38-.47.63-.63.73-.06.03-.16.06-.28.06Zm18.78 18.62h-.06c-.7 0-2.94-1.36-3.23-1.9-.03-.13-.06-.25-.06-.44 0-.73.32-2 .92-3.77.09-.25.32-.95.47-1.49.16-.51.44-1.36.6-1.9.32-.95.48-1.42.48-1.61 0-.03 0-.06-.03-.06-.32 0-2.75 3.1-5 6.46-.16.25-.41.6-.54.82-.29.44-.32.54-.6.54-.89 0-2.57-1.08-3.17-1.77-.22-.25-.22-.32-.22-1.49v-4.65c0-.38-.06-.67-.13-.67-.19 0-.63 1.01-2.03 4.56-.32.82-.54 1.36-1.08 2.85-.25.7-.51 1.36-.6 1.52-.22.67-.35 1.01-.6 1.84-.29.92-.35.95-.57.98-.54 0-2.28-.95-2.91-1.61-.19-.19-.29-.38-.29-.63 0-.22.06-.48.19-.82.6-1.93.73-2.19 1.08-3.1.89-2.37 1.14-3.01 2.03-5.16 1.04-2.63 2.15-5.07 3.17-7.06.76-1.46 1.17-2.06 1.46-2.12h.06c.51 0 2 .73 2.6 1.33s.89 1.08.98 1.71c.06.32.16 1.49.16 1.96v.13c0 .29.03 1.04.03 1.58 0 .25 0 .73.03 1.36 0 1.55.06 2.12.29 2.12.09 0 .25-.19.82-.95.57-.73 1.2-1.58 1.77-2.25.7-.85 2.19-2.6 3.07-3.51 1.36-1.42 2.75-2.69 3.33-2.91.06-.03.13-.03.22-.03.7 0 2.22.79 3.07 1.65.19.19.32.41.32.73 0 .38-.16.89-.48 1.71-.63 1.58-2.15 5.32-2.41 6.17-.57 1.55-1.01 2.75-1.58 4.53-.19.67-.47 1.55-.63 2-.35 1.08-.44 1.42-.51 2.09-.13.92-.22 1.23-.41 1.3Zm14.21-.92c-.25 0-.6.09-1.08.32-1.77.92-2.44 1.17-3.23 1.17h-.16c-1.52-.06-4.12-1.42-4.78-2.53-.25-.41-.41-1.08-.41-1.68 0-.16 0-.32.03-.44.25-1.93 1.3-4.34 2.91-6.68 1.14-1.68 2.03-2.66 2.41-2.75h.16c.76 0 2.12.7 2.41 1.3.03.09.06.16.06.25 0 .25-.22.66-.92 1.8-.7 1.2-1.2 2.06-1.58 2.72-1.08 1.87-1.9 4.05-1.9 5.1 0 .32.03.47.19.47.13 0 .38-.13.76-.32 2.09-1.04 4.05-2.91 6.24-5.98 1.11-1.55 2.63-3.58 3.32-4.46.41-.48.57-.67.82-.67.13 0 .32.06.54.13 1.01.28 2.28 1.14 2.41 1.55v.09c0 .25-.25.67-1.77 2.85l-.82 1.24c-1.74 2.66-2.82 4.84-2.82 5.83 0 .19.03.32.09.41.03.03.1.06.16.06.57 0 2.28-.98 4.15-2.41 1.74-1.33 3.23-2.47 3.99-3.17.76-.73 1.3-1.36 1.52-1.71.19-.29.35-.41.57-.41.25 0 .6.19 1.2.54.92.51 1.39.67 1.39.92-.03.41-1.27 1.93-3.36 4.02-.63.67-1.55 1.33-2.38 2.03-1.77 1.46-3.99 2.53-5.22 2.53s-3.42-.92-4.43-1.93a.58.58 0 0 0-.47-.19"/><path d="M55.81 39.55c-1.2 0-2.41-.38-3.67-1.14-1.11-.67-1.58-1.17-1.58-1.99 0-.38.1-.79.25-1.3.25-.82 1.04-1.8 2.47-3.07.19-.16.44-.38.57-.47.22-.19.48-.41 1.17-1.01.13-.09.38-.32.54-.44 1.08-.92 3.8-2.98 6.02-4.56.6-.44.82-.7.82-.95 0-.06 0-.09-.06-.09s-.22.09-.54.29c-1.11.73-1.96 1.08-2.88 1.08-.73 0-1.49-.22-2.41-.67-1.9-.92-2.95-1.93-2.98-3.2v-.13c0-1.01.38-1.9.76-2.72.7-1.52 2.44-4.97 3.51-6.43.38-.51.44-.63.73-.63.73 0 2.56.95 2.94 1.49.06.1.09.16.09.25 0 .22-.22.57-.92 1.74-1.3 2.15-1.62 2.72-2.18 3.89-.47.95-.98 1.9-1.27 2.94-.09.35-.16.6-.16.79s.06.28.19.28c.1 0 .19-.03.32-.09 1.36-.63 3.23-2.34 4.81-4.4.16-.22.38-.51.51-.67 1.27-1.65 3.07-4.08 3.42-4.59.41-.57.47-.63.67-.66h.09c.73 0 2.85 1.11 3.01 1.61.03.09.03.16.03.29 0 .38-.19.98-.67 2.09-.13.35-.38.95-.57 1.39-.44 1.14-1.01 2.31-2.18 5.67 1.36-.6 2.75-1.2 3.99-1.3h.06c.35 0 1.17.28 1.36.41.16.13.22.22.22.35 0 .06-.03.13-.06.19-.06.13-.19.16-.7.35-1.08.32-1.68.57-3.01 1.27-.79.41-1.17.67-1.62.92-.6.41-1.04.7-1.27.89-.06.16-.1.35-.16.51-.47 1.33-.54 1.52-1.2 3.17-.28.73-.6 1.42-.85 2.09-1.23 2.85-2.91 4.94-4.59 5.79-1.01.51-2.03.79-3.04.79Zm4.09-8.68c-.19 0-1.74 1.23-3.51 2.72-1.52 1.3-2.34 2.31-2.53 3.07-.06.19-.06.35-.06.44 0 .16.06.25.22.25.13 0 .32-.06.6-.16 1.36-.47 2.38-1.27 3.51-2.79.7-.92 1.84-3.1 1.84-3.45v-.03l-.06-.06Zm26.24-5.25c-.98 0-1.87-.19-3.04-.57l-.44-.13-.35.03h-.13c-.51 0-1.04-.19-1.84-.67-.57-.32-.82-.51-.82-.85s.22-.82.7-1.77c.73-1.39 1.11-2.03 2.06-3.45 1.04-1.52 2.47-3.7 2.6-3.96.06-.09.06-.16.06-.22 0-.09-.06-.13-.19-.13-.1 0-.16.03-.29.03-.16 0-.38.03-.63.03-.32 0-.63-.03-.79-.06-.82-.16-2.03-.82-2.09-1.14v-.09c0-.16.16-.19.67-.25 1.11-.09 2.34-.38 4.37-1.04.73-.25 1.04-.35 1.3-.51.19-.13.32-.32.57-.67 1.74-2.22 4.56-5.16 6.49-6.74q3.51-2.94 5.7-3.42c.13-.03.29-.03.44-.03 1.08 0 2.63.6 3.61 1.46.35.35.54.79.54 1.33 0 1.11-.79 2.56-2.22 3.83-1.93 1.71-4.62 3.29-7.35 4.34-1.17.44-1.8.63-3.67 1.2-.47.16-.7.22-.95.41-.32.25-.63.73-1.39 1.77-.57.82-.85 1.24-.85 1.39 0 .03.03.06.06.06.13 0 .38-.09.73-.25 2.56-1.04 6.05-2 7.38-2 1.01 0 3.1.98 3.42 1.65.09.16.13.32.13.57 0 .29-.06.6-.16 1.04-.16.7-.35 1.04-1.01 2.03-.19.32-.29.51-.29.57h.06c.13 0 .51-.22.82-.44 1.17-.79 2.38-1.61 3.48-2.41l2.6-2c.25-.16.47-.22.7-.22.63 0 1.17.7 1.58 2.15 0 .03.03.06.03.09 0 .16-.13.29-.32.41-2.44 1.74-6.11 4.15-7.5 4.97-2.79 1.58-6.27 2.6-12.03 3.48-.66.09-1.2.16-1.74.16Zm10.07-9.79c-.22 0-.6.13-1.77.48-2.88.89-5.19 2.09-7.09 3.7-.47.41-1.36 1.23-1.36 1.27 0 0-.32.35-.73.79-.57.57-.82.89-.82 1.01 0 .09.13.13.38.13h.25c2.85-.13 5.51-1.17 7.69-3.04.35-.29 2.44-2.38 2.69-2.69.57-.7.95-1.3.95-1.52 0-.03-.03-.06-.06-.09-.03 0-.06-.03-.13-.03Zm5.07-13.49c-.16 0-.48.16-1.04.51-1.58.98-2.91 2.09-4.88 4.02-.95.98-1.39 1.46-1.39 1.58 0 .03.03.03.06.03.09 0 .29-.06.6-.22 1.93-.89 4.46-2.66 5.7-3.99.57-.63 1.08-1.46 1.08-1.77 0-.03-.03-.06-.03-.1-.03-.03-.06-.06-.09-.06Z"/><path d="M102.76 23.56c-.38-.57-.6-1.39-.6-2.15 0-.29.03-.54.1-.79.38-1.8 1.65-4.24 3.39-6.71.09-.19.35-.54.54-.79.63-.92.73-1.04 1.01-1.14.06-.03.13-.03.19-.03.51 0 1.36.35 2.15.86.51.32.73.57.73.89 0 .28-.19.66-.6 1.27-2.12 3.07-2.69 4.05-3.45 6.02-.29.73-.44 1.3-.44 1.68 0 .22.06.38.16.44.16.13.32.22.54.22.32 0 .79-.16 1.77-.54 1.84-.7 2.79-1.17 3.74-1.74.63-.35.92-.54 1.17-.54.13 0 .22.03.35.1.79.38 1.8 1.14 1.8 1.58v.06c-.09.35-1.33 1.14-3.64 2.06-.13.06-.6.22-1.14.41-1.46.57-2.56.82-3.58.82-.7 0-1.33-.13-1.93-.35-.98-.48-1.87-1.08-2.25-1.62Zm6.43-16.85c1.01 0 3.32 1.14 3.64 1.87.06.13.06.25.06.38 0 .89-1.11 1.99-2.09 1.99-.09 0-.16 0-.25-.03-1.36-.29-2.94-1.24-3.13-1.87-.03-.06-.03-.13-.03-.19 0-.7.89-1.93 1.58-2.12.06-.03.13-.03.22-.03"/><path d="M121.54 25.65c-1.14.63-1.93.85-2.6.85-.13 0-.25 0-.38-.03-1.23-.16-3.39-1.04-4.59-1.93-1.14-.76-2.22-2.44-2.22-4.02 0-.16 0-.32.03-.44.16-1.27.47-2.34 1.17-3.64.76-1.36 1.84-2.53 3.1-3.32.82-.51 1.33-.73 2.44-1.04.32-.06 1.01-.16 1.24-.16 1.39.03 3.26.63 4.34 1.36.63.47.89.82 1.01 1.27 0 .06.03.16.03.22 0 .47-.28.98-.92 1.74-1.11 1.39-2.53 2.53-3.93 3.36-.73.47-2.31 1.55-4.05 2.34-.67.32-.73.35-.76.44 0 .09.35.73.57 1.08.35.54.57.82.76.86.06.03.09.03.19.03.57 0 1.93-.67 3.77-1.77 3.67-2.22 5.76-3.58 11.21-10.29.38-.47.51-.57.76-.57.09 0 .19 0 .35.03.6.03 1.71.57 2.06.86.13.06.19.16.19.25 0 .13-.06.22-.19.38-.09.09-.54.54-.89 1.01-4.65 6.21-7.73 8.39-12.7 11.14Zm-5.92-6.11c.13 0 1.17-.63 1.74-.95 1.27-.79 2.91-2.09 3.77-3.01.32-.35.57-.85.63-1.04.03-.13.06-.25.06-.38 0-.22-.1-.38-.25-.51a.7.7 0 0 0-.19-.06c-.13 0-.57.16-.95.29-.7.25-1.65.76-2.22 1.33-1.01.92-2.12 2.66-2.57 3.96-.03.19-.06.25-.06.32 0 .03 0 .06.03.06Z"/><path d="M132.84 11.87c.54 0 1.49.38 2.09.89.25.22.38.32.54.32s.35-.06.7-.19c1.39-.54 2.98-.85 4.24-.85.22 0 .44 0 .63.03.22 0 .54.03.73.06 1.49.13 3.64 1.17 3.96 1.87.03.09.06.19.06.32 0 .35-.32.85-1.49 2.47-1.8 2.47-3.07 4.75-3.64 6.62-.25.86-.29.98-.32 1.93-.03.89-.09 1.23-.44 1.23-.16 0-.32-.06-.54-.13-1.04-.35-1.93-1.04-2.31-1.84-.16-.32-.25-.73-.25-1.2 0-1.8 1.27-4.59 3.7-8.11.25-.38.38-.6.38-.7q0-.09-.09-.09c-.13 0-.29.06-.54.13-1.96.57-4.69 2.25-6.46 3.96-.16.13-.51.44-.76.7-1.08.95-2.22 2.38-2.5 2.72-.51.54-1.11 1.36-1.52 2.03-.29.54-.41.63-.7.63-.63 0-2.31-.79-2.88-1.36-.16-.16-.25-.29-.25-.44 0-.19.13-.44.35-.85.13-.25.35-.63.44-.86.7-1.3 3.04-4.88 4.37-6.68 1.36-1.8 1.93-2.47 2.22-2.56.06-.03.16-.03.28-.03Zm13.74 9.66c.92 0 3.13 1.14 3.29 1.77.03.06.03.16.03.25 0 .63-.47 1.68-.89 1.9-.1.03-.19.06-.32.06-.47 0-1.2-.25-1.99-.7-1.01-.54-1.46-.92-1.46-1.42 0-.29.16-.63.41-1.08.22-.38.47-.63.63-.73.06-.03.16-.06.29-.06Zm6.52-18.65c.82 0 2.88 1.08 3.04 1.74v.13c0 .6-.6 2.6-1.74 5.6-.25.63-.85 2.18-1.11 2.85-.13.32-.32.86-.44 1.17-.38 1.08-.57 1.58-1.27 3.51q-.54 1.58-1.17 1.58c-.92-.03-1.61-.35-2.34-1.08-.32-.32-.47-.41-.47-.7s.19-.76.57-1.84c.16-.38.35-.95.44-1.27.09-.29.29-.79.41-1.11.09-.32.25-.7.32-.89.06-.19.38-.98.67-1.74 1.74-4.5 2.12-5.64 2.53-7.22.13-.47.19-.63.32-.7.06-.03.16-.06.25-.06Z"/></g></svg>