<svg xmlns="http://www.w3.org/2000/svg" viewBox="0 0 197.13 25.3"><g fill="#ed6a08"><path d="M4.46 3.99H0V0h14.37v3.99H9.91V19H4.46zm11.5 7.91V0h5.51v11.94c0 2.06.54 3.04 2.12 3.04s2.15-.98 2.15-3.04V0h5.38v11.9c0 5.16-3.39 7.47-7.57 7.47s-7.6-2.31-7.6-7.47ZM39.38 0h7.57c4.27 0 6.65 2.66 6.65 6.68s-2.37 6.68-6.65 6.68h-2.12V19h-5.45zm6.37 9.72c1.49 0 2.6-.82 2.6-3.04s-1.11-3.04-2.6-3.04h-.92v6.08zm9.49 2.18V0h5.51v11.94c0 2.06.54 3.04 2.12 3.04s2.15-.98 2.15-3.04V0h5.38v11.9c0 5.16-3.39 7.47-7.57 7.47s-7.6-2.31-7.6-7.47ZM73.38 0h4.08l5.64 8.99V0h4.72v19h-4.08l-5.64-8.99V19h-4.72zm20.49 3.99h-4.46V0h14.38v3.99h-4.46V19h-5.45V3.99ZM108.46 0h4.84l6.4 19h-5.45l-.89-2.94h-5.1l-.85 2.94h-5.35zm3.8 12.47-1.42-5.92-1.46 5.92z"/><path d="M117.96 24.38v-3.01c.38.28 1.24.51 1.77.51.92 0 1.42-.47 1.42-2.22V0h5.45v20.33c0 2.85-1.74 4.97-4.88 4.97-1.65 0-3.13-.44-3.77-.92ZM129.58 0h11.27v3.99h-5.83v3.29h4.56v3.99h-4.56v3.74h5.83V19h-11.27zm19.05 0h10.76v3.99h-5.32v3.55h4.05v3.99h-4.05V19h-5.45V0Zm12.35 11.9V0h5.51v11.94c0 2.06.54 3.04 2.12 3.04s2.15-.98 2.15-3.04V0h5.38v11.9c0 5.16-3.39 7.47-7.57 7.47s-7.6-2.31-7.6-7.47ZM179.12 0h11.27v3.99h-5.83v3.29h4.56v3.99h-4.56v3.74h5.83V19h-11.27zm13.07 7.85c0-1.36 1.11-2.47 2.47-2.47s2.47 1.11 2.47 2.47-1.11 2.47-2.47 2.47-2.47-1.11-2.47-2.47m0 8.9c0-1.36 1.11-2.47 2.47-2.47s2.47 1.11 2.47 2.47-1.11 2.47-2.47 2.47-2.47-1.11-2.47-2.47"/></g></svg>