<svg xmlns="http://www.w3.org/2000/svg" viewBox="0 0 101.31 19.76"><path fill="#1d1d1b" d="M1.9 6.84h2.72l1.9 12.54H0zM.79 2.66C.79 1.3 1.9.19 3.26.19S5.73 1.3 5.73 2.66 4.62 5.13 3.26 5.13.79 4.02.79 2.66M13.52.38h4.84l6.4 19h-5.45l-.89-2.94h-5.1l-.85 2.94H7.12zm3.8 12.47L15.9 6.93l-1.46 5.92zM26.21.38h6.14l3.17 11.27L38.72.38h6.02v19h-4.78v-9.09c0-.13.09-.98.09-.98l-.25 1.01-2.53 9.06h-3.64l-2.53-9.06-.25-1.01s.1.85.1.98v9.09h-4.72v-19Zm21.5 0h7.47c3.89 0 5.54 2.09 5.54 4.97 0 1.62-.92 3.29-2.15 3.74 1.71.51 2.98 2.53 2.98 4.72 0 3.23-1.84 5.57-6.11 5.57h-7.73zm6.01 7.35c1.2 0 2.06-.44 2.06-1.9s-.85-1.9-2.06-1.9h-.82v3.8zm.16 8.1c1.58 0 2.63-.51 2.63-2.28s-1.04-2.28-2.63-2.28h-.98v4.56zm9.02-5.95C62.9 3.26 66.48 0 71.16 0s8.26 3.26 8.26 9.88-3.58 9.88-8.26 9.88-8.26-3.26-8.26-9.88m10.77 0c0-4.27-.6-5.76-2.5-5.76s-2.5 1.49-2.5 5.76.6 5.76 2.5 5.76 2.5-1.49 2.5-5.76m13.2 9.81c-2.82 0-4.88-.92-6.33-2.28l1.3-4.02c1.33 1.08 2.82 2.09 4.94 2.09 1.08 0 1.77-.67 1.74-1.46-.03-.89-.54-1.33-2.44-2-3.74-1.3-5.13-3.1-5.13-5.95 0-3.86 2.53-6.02 6.27-6.02 2.22 0 4.24.76 5.7 1.84l-1.2 3.7c-1.42-.85-2.57-1.39-4.18-1.39-.89 0-1.42.51-1.42 1.17s.44 1.08 1.68 1.52c3.96 1.42 5.86 3.17 5.86 6.27 0 4.91-3.26 6.52-6.78 6.52ZM94.78.38h6.52l-1.9 12.57h-2.72zm.79 16.75c0-1.36 1.11-2.47 2.47-2.47s2.47 1.11 2.47 2.47-1.11 2.47-2.47 2.47-2.47-1.11-2.47-2.47"/></svg>