<svg xmlns="http://www.w3.org/2000/svg" viewBox="0 0 68.4 33.8"><path d="M68.1 23.6c-.2-.2-.6-.4-.9-.6-2.9-1.8-6.7-1.5-8.8 2.3-.2.3-.6 1.1-.6 1.4 0 .5.2.8.6 1 3.3 1.9 5.9 1.6 7.6.2 1.1-.9 2.1-2.5 2.3-3.1.2-.4 0-.8-.2-1.1Z"/><path fill="none" d="M64 23.1c.2.4.3.8.3 1.1h.3c0-.4-.1-.9-.3-1.1zm-1.4.2s0 .1.1.3c-.8.2-1.5.5-2 .8-.2.1-.2.2 0 .1q.75-.3 2.1-.6v.4h.3c0-.4 0-.7-.3-1.1h-.3Zm2.1-.1c.2.3.3.7.3 1.1h.3c0-.3 0-.6-.2-1.1h-.3Zm-1.4 0c.2.3.3.7.3 1.1h.3c0-.3 0-.7-.3-1.1zm2.5.5v-.3h-.3c.1.2.2.6.2 1h.3V24c.2 0 .6 0 .8.1.2 0 0 0 0-.1-.2 0-.5-.2-.8-.3Z"/><path fill="#fff" d="M62.9 24.4V24c-.8.1-1.5.4-2.1.6-.2.1-.2 0 0-.1.5-.3 1.2-.6 2-.8 0-.2-.1-.3-.1-.3h.3c.2.3.3.7.3 1.1H63Zm.7-.1c0-.4 0-.8-.3-1.1h.3c.2.4.3.8.3 1.1zm.6 0c0-.4 0-.8-.3-1.1h.3c.2.3.3.7.3 1.1zm.7 0c0-.4 0-.8-.3-1.1h.3c.2.4.2.8.2 1.1h-.3Zm1.8-.2c-.2 0-.5-.1-.8-.1v.4h-.3c0-.4-.1-.8-.2-1h.3v.3c.2 0 .6.2.8.3.1 0 .2.2 0 .1Z"/><path fill="#ff671b" d="M.3 9.8h3.6l1.8 6.6 1.9-6.6h3.5v11.1H8.3V15v.6c-.1 0-1.6 5.3-1.6 5.3H4.6l-1.5-5.3-.2-.6v5.9H.3zm11.6 0h3.2l1.9 6.3 1.9-6.3H22l-3.7 11.1h-2.6L12 9.8Zm11 0h4.4c2.5 0 3.9 1.6 3.9 3.9s-1.4 3.9-3.9 3.9h-1.2v3.3h-3.2zm3.7 5.7c.9 0 1.5-.5 1.5-1.8s-.6-1.8-1.5-1.8h-.5v3.5h.5Z"/><path d="M32.2 9.8h3.2v11.1h-3.2zm4.4 9.9 3.6-7.6h-3.4V9.8h7.3v1.1l-3.6 7.6H44v2.3h-7.4zm8.3 0 3.6-7.6h-3.4V9.8h7.3v1.1l-3.6 7.6h3.5v2.3h-7.4zm11.6-9.9h2.8L63 20.9h-3.2l-.5-1.7h-3l-.5 1.7h-3.1l3.7-11.1Zm2.2 7.3-.8-3.4-.8 3.4h1.7ZM11.9 29c0-.8.5-1.4 1.1-1.8-.3-.6-.5-1-.5-1.5 0-1.1.9-1.8 1.9-1.8s1.8.6 1.8 1.5-.7 1.4-1.3 1.9c.2.4.5.8.7 1v-1.2h1.8v1h-.8v.4c0 .3-.1.6-.2.9.2.3.4.4.6.4s.5-.2.7-.5l.4.7c-.2.6-.8.9-1.3.9s-.8 0-1.2-.4c-.3.3-.8.4-1.3.4-1.4 0-2.3-.7-2.3-1.9Zm2.8.7c-.3-.3-.7-.8-1-1.3 0 .2-.1.4-.1.6 0 .4.3.8.8.8h.3Zm.1-4.2c0-.2-.1-.4-.4-.4s-.4.3-.4.6 0 .4.2.7c.4-.3.6-.5.6-.9m9 8.3c-1.6 0-2.8-.5-3.7-1.3l.8-2.3c.8.6 1.6 1.2 2.9 1.2s1-.4 1-.9-.3-.8-1.4-1.2c-2.2-.8-3-1.8-3-3.5s1.5-3.5 3.6-3.5 2.5.4 3.3 1.1l-.7 2.2c-.8-.5-1.5-.8-2.4-.8s-.8.3-.8.7.3.6 1 .9c2.3.8 3.4 1.8 3.4 3.6 0 2.9-1.9 3.8-3.9 3.8Zm6.6-8.9h-2.6v-2.3h8.4v2.3h-2.6v8.7h-3.2zm6.7-2.4h3.2v11.1h-3.2zM44 28l-3-5.4h3.5l1.4 2.9 1.4-2.9h3.5l-3 5.4 3.2 5.7h-3.5l-1.6-3.2-1.6 3.2h-3.5l3.2-5.6ZM2 21.5c-.4-.4-.9-.8-1.2-1.3H.6v.2c.2.2.4.5.6.7 2.7 2.8 6.1 4.9 9.7 6.5 0-.1 0-.2.1-.3-3.3-1.4-6.4-3.3-9-5.7Z"/><path d="M56.7 28.6c.2 0 .3-.3.3-.5s-.3-.3-.5-.3c-2 .5-4.1 1-6.1 1.4l.4.6c2-.4 4-.8 5.9-1.3Zm-46.6-3.7c-1.4-.6-2.7-1.3-4-2.1-1-.6-1.9-1.3-2.7-2h-.2v.2l.3.3c1.8 1.6 4 2.8 6.2 3.9.6.3 1.2.5 1.8.8 0-.1 0-.3-.1-.4-.5-.2-.9-.4-1.4-.6Zm47.4-.9c0-.2-.3-.3-.5-.2-2.3.7-4.7 1.4-7.2 2l-.5.8c2.7-.6 5.3-1.4 7.8-2.1.2 0 .3-.3.3-.5Z"/><path fill="none" d="M17.1 28.1"/><path d="M6.2 3.3c.2 0 .5 0 .8.3.2 0 .2.2.2.2 0 .1 0 .2-.3.8 0 .2-.2.4-.2.5 0 0 0 .2-.1.3 0 0 0 .2-.1.3-.2.4-.3.7-.5 1.1 0 0-.7 1.5-.8 2-.3.7-.4.9-.4 1.2 0 .2 0 .3-.1.3-.2 0-.7-.1-1-.4 0 0-.1 0-.1-.2s0-.3.2-.6c0-.1.2-.6.3-.9V8h-.9c-.5.1-1 .3-1.1.4v.1c0 .2-.1.3-.1.4v.4c0 .3-.1.6-.2.9 0 .3 0 .3-.1.3-.3 0-1-.3-1.1-.5v-.4c0-.4 0-.4.2-.9.1-.6.3-1.2.6-1.9 0-.1.1-.3.1-.4.2-.4 1.2-2.8 1.3-3H3c.2 0 .5 0 .8.3.1 0 .2.1.2.2 0 0 0 .3-.2.6-.3.6-.9 2.2-1.1 2.7v.1h1.8c.1 0 .2-.1.4-.7.1-.3.4-1 .6-1.4 0-.1.1-.3.2-.4 0-.2.1-.3.2-.5 0 0 .2-.5.3-.6v-.2c.1-.3.2-.4.3-.5Zm3.3 2.1c.6 0 1.6.4 1.9.8 0 .2.1.3.1.5v1s.2 0 .4-.2c.5-.3.7-.4 1.2-.8h.1c.1 0 .2.1.4.4.1.2.2.3.2.3v.1l-.3.2c-.8.5-1.4.9-2.4 1.1-.2 0-.2 0-.4.2-.3.3-.6.5-.9.7q-.45.3-.9.3c-.45 0-.7 0-1.1-.2-.9-.3-1.4-.8-1.4-1.4v-.5c.2-.7.9-1.4 1.7-1.6h.2l.1-.2q.3-.6 1.2-.9h.2ZM8 7.5l-.2.2c-.4.4-.6.9-.5 1.3 0 .2 0 .3.1.4 0 .1.1.1.3.1.4 0 .9-.3 1.3-.7.1-.1.2-.1.2-.2s0 0-.2-.1c-.4-.3-.7-.5-.9-.9Zm2.2-1.4s-.2 0-.3.1c-.5.3-.8.8-.7 1.3v.2c0 .3.3.7.4.6 0 0 .2-.2.4-.5.2-.4.4-1.1.4-1.5v-.2Z"/><path d="M13.8 10h-.4c-.9 0-1.2-.4-1.3-.5 0 0-.1-.2-.1-.4v-.6c.2-.6.5-1.2.9-2.2l.3-.8h-.3c-.5 0-.9-.3-.9-.5h1.5l.1-.4s0-.1.1-.2c.1-.3.2-.5.4-.6h.2c.2 0 .2 0 .5.1.4.2.5.2.5.3v.2c-.1.2-.2.4-.4.6H16c.3.1.5.3.5.3l-.1.1s-.7 0-1.4.1h-.4l-.4 1-.6 1.4c-.2.5-.4.8-.4 1.1 0 .2 0 .3.2.3s.6-.2 1.1-.8c.1-.2.2-.2.3-.2.2 0 .9.3 1 .4 0 0 0 .1-.1.2-.4.5-1 1-1.9 1.1"/><path d="M16.6 6.5c.5 0 2-.1 2.2-.1s.3 0 .6.2c.3.1.5.3.5.3l-.1.1H19c-.8 0-1.9.1-2 0-.5 0-1-.4-1-.6h.5Zm9.9-5.4c.3 0 1.1.3 1.1.5v.1c-.1 0-.1.1-.5 1.1L26.7 4s0 .2-.1.3c0 0 0 .2-.1.3-.3.7-.4 1-.6 1.6 0 .1-.1.3-.2.5-.2.6-.4 1.3-.5 1.6v.3c0 .1 0 .4-.1.5 0 .2 0 .3-.2.3s-.8-.2-1-.4c-.1-.1-.1-.2-.3-.9q-.15-.75-.3-1.2c0-.5-.1-.8-.2-.9v-.4c0-.3-.1-.5-.2-.5 0 0 0 .1-.2.4 0 0 0 .3-.1.4-.2.6-.3.9-.4 1.1v.3c-.2.5-.3 1.2-.4 1.7v.6c-.2 0-.8-.2-1-.4 0 0-.1-.1-.1-.3 0-.1 0-.4.1-.8.1-.6.4-1.6.7-2.6 0 0 0-.2.1-.3 0-.1 0-.3.1-.3 0 0 0-.2.1-.3 0-.2.2-.5.3-.8 0-.2.3-.7.3-.7h.7c.3 0 .8.3.9.5 0 0 .1.5.2.8v1c0 .2 0 .3.1.5v.3c0 .3 0 .4.1.4s.1-.2.3-.6c0 0 0-.2.1-.3 0-.2.1-.3.2-.6 0-.3.2-.4.2-.7.1-.3.2-.5.3-.7 0 0 0-.2.1-.3s0-.2.1-.3c0 0 0-.2.1-.3 0-.2.1-.3.2-.5 0 0 0-.3.1-.4 0-.1.1-.3.1-.3.1-.3.3-.6.3-.7Zm1.3 4.7h1.8c.5.1.9.4.9.6 0 0-.7 0-1.2.1h-1.6c-.3 0-.6-.3-.8-.4V6c0-.1 0 0 .1-.1h.9Zm5.5-4c1.2 0 2.6.5 3 1.1.2.2.3.5.3.8s0 .7-.2 1c-.5.8-1.6 1.4-2.6 1.5h-.3v.2s.1.2.2.3c0 .1.1.2.2.3.1.2.4.7.5.8 0 0 0 .1.2.2 0 .1.2.2.2.3.1.1.2.2.2.3s0 0-.1 0-.4 0-.7-.2c-.4-.2-.5-.2-.8-.8-.5-.8-.5-.9-.6-1 0-.1-.1-.2-.2-.2s0 .1-.2.4c-.1.5-.1.5-.2.8 0 .6-.1.6-.3.7-.3 0-.9-.3-1-.4 0 0 0-.2.1-.9 0-.4.2-1.2.4-1.5.2-.5.7-1.8 1-2.5 0-.2.1-.3.1-.3-.2 0-.7.3-1 .6 0 0-.1.1-.2.1s-.4 0-.6-.2c-.1 0-.2-.2-.2-.2s0-.1.1-.2c.4-.4 1.1-.9 1.9-1h.7Zm.3.6h-.2c-.2 0-.4.1-.4.1h.2c.2 0 .4.2.5.3v.1s0 .3-.3 1c0 0 0 .2-.1.3v.7c-.1.3-.2.4-.2.5h.1s.2 0 .5-.1c.7-.2 1.5-.8 1.8-1.3.2-.3.2-.5.2-.8s-.1-.5-.3-.7c-.1-.1-.4-.2-.9-.2h-.7Zm5.2 6h-.1c-.4 0-1.1-.3-1.5-.5s-.8-.7-.8-1.2 0-.9.3-1.3c.2-.4.5-.8.9-1.1.2-.2.4-.3.8-.4h.4c.4 0 1 .1 1.4.3.2.1.3.2.3.4s0 .3-.2.6q-.45.75-1.2 1.2c-.2.2-.7.5-1.2.8-.2.1-.2.1-.2.2 0 0 .1.2.2.3.1.2.2.2.3.2.2 0 .6-.3 1.2-.6.6-.4.8-.7 1.4-1.3.3-.3.4-.4.7-.8l.2-.2h.1c.2 0 .5.1.6.2v.1l-1 1.1c-.5.6-1.1 1.1-1.9 1.6-.3.2-.6.3-.8.3Zm-1.2-2.1s.4-.2.5-.3c.4-.3.9-.7 1.1-1 0-.1.2-.3.2-.3v-.3s-.2 0-.3.1c-.2 0-.5.3-.7.5-.3.3-.6.9-.7 1.3Z"/><path d="M45.7 7.5c-.4 0-1-.2-1.3-.5h-.1l-.2.1-.2.2c-.5.4-.8.6-1.2.7-.2 0-.5 0-.8-.2-.6-.2-.8-.4-.9-.9v-.2c0-.8.7-2 1.7-2.6.5-.2.8-.4 1.2-.4.3 0 .6 0 1 .2h.3c0-.1.2-.2.2-.2.1 0 .4 0 .7.2.2 0 .2.1.2.2 0 0 0 .2-.2.3-.2.3-.4.8-.5.9-.2.6-.4 1.2-.4 1.5v.1s.5-.3.9-.7c.5-.4.8-.8 1.3-1.4l.2-.2s0-.1.1-.1c0 0 .2 0 .5.2l.3.3s0 .1-.2.2l-.3.4c-.7.9-1.8 1.8-2.2 1.8Zm-1.3-3.3c-.2 0-.4.1-.7.3-.9.6-1.6 1.7-1.6 2.4v.2c0 .1 0 .2.1.2 0 0 .1 0 .2-.1.2-.1.4-.3.9-.8.2-.2.7-.8.8-1 .1-.1.4-.8.4-.8v-.2Z"/><path d="M48.7 7.5h-.2c-.5 0-1.2-.3-1.4-.7-.1-.2-.2-.4-.2-.6V6c0-.6.3-1.2.8-1.7.6-.7 1-1 1.6-1.2h.3c.3 0 .7 0 1.2.3h.1s.2 0 .3-.3c.5-1 .8-1.6 1.2-2.3 0 0 .1-.2.2-.3.2-.4.4-.5.5-.6 0 .1 0 .1.1.1h.4c.2 0 .2.2.2.3 0 0 0 .2-.1.4-.1.3-.7 1.3-.8 1.6 0 0 0 .2-.2.3 0 .1-.2.5-.3.7-.1.3-.3.5-.3.6v.2s0 .2-.2.3l-.4.8c-.2.4-.2.8-.2 1v.2s.4-.2.6-.4c.3-.3.5-.4.9-1 .2-.2.3-.4.4-.7.2-.3.2-.3.3-.3.2 0 .6.2.8.4v.3c-.3.4-.5.7-.7 1-.5.7-1.1 1.2-1.5 1.4h-.3c-.4 0-1-.1-1.5-.4H50c-.5.4-1.1.7-1.5.7Zm1.7-3.8c-.2 0-.6.3-1 .5-.2.2-.7.8-.9 1-.3.4-.5 1-.4 1.3 0 .1 0 .2.1.2.2 0 .5-.2.8-.4.6-.4 1.2-1.2 1.4-1.8v-.9Z"/><path d="M54.1 11.5c-.7 0-1.7-.4-1.9-.9v-.2c0-.4.2-.8.7-1.4.5-.5 1.6-1.3 2.5-1.8.1 0 .1 0 .2-.4v-.3c0-.1 0 0 0 0h-.2c-.2 0-.3.1-.5.1h-.2c-.7-.1-1.3-.4-1.5-.8-.1-.2-.2-.3-.2-.5 0-.4.1-.8.5-1.5.5-1.1.7-1.3.8-1.4.2 0 .6.2.7.3v.2s-.1.3-.2.3c0 .2-.1.3-.2.6-.4.8-.5 1.4-.5 1.8 0 .2 0 .2.1.2h.1c.2-.1.6-.4.8-.6l.5-.5.2-.2c.2-.3.7-.9.8-1.2.2-.2.2-.4.3-.6.2-.3.2-.3.3-.3.2 0 .8.2.9.4v.1s0 .2-.2.5c0 0-.1.3-.2.4-.1.3-.3.7-.5 1.2-.4.8-.5 1.2-.5 1.2v.3c.2-.1.6-.2.9-.3 0 0 .4.1.4.2v.1c0 .1 0 0 0 0h-.2c-.3 0-.5.2-1 .4-.2.1-.4.2-.5.3h-.1l-.2.5c0 .3-.2.6-.3.8v.3c0 .2-.3.6-.4.8-.5 1-1 1.5-1.7 1.5Zm.7-2.5-.2.1c-.7.5-1.2 1.2-1.3 1.6v.1c0 .1 0 0 0 0 .3-.1.7-.5 1-1.1.2-.3.3-.7.3-.7ZM59 3.4v-.2s0-.1.1-.2 0 0 .2-.1h.6c.1 0 0 0 .1.2v.4s0 .1-.1.2 0 0-.2.1h-.6c-.1 0 0 0-.1-.2zm.1 0v.2c0 .1 0 0 .1.1h.6l.1-.1V3c0-.1 0-.1-.1-.2s0 0-.2 0h-.4l-.1.1c-.1.1 0 0 0 .2v.2Zm.2-.3h.2c.2 0 .2 0 .2.2v.1h-.1l.2.3h-.1l-.2-.3h-.1v.3V3Zm.2.3h-.2v.2Z"/></svg>