<?xml version="1.0" encoding="UTF-8"?>
<svg id="Capa_2" xmlns="http://www.w3.org/2000/svg" version="1.1" viewBox="0 0 68.4 33.8">
  <!-- Generator: Adobe Illustrator 30.0.0, SVG Export Plug-In . SVG Version: 2.1.1 Build 123)  -->
  <defs>
    <style>
      .st0 {
        fill: none;
      }

      .st1 {
        fill: #fff;
      }

      .st2 {
        fill: #ff671b;
      }
    </style>
  </defs>
  <g id="Black">
    <g>
      <g>
        <g>
          <path d="M68.1,23.6c-.2-.2-.6-.4-.9-.6h0c-2.9-1.8-6.7-1.5-8.8,2.3-.2.3-.6,1.1-.6,1.4,0,.5.2.8.6,1,3.3,1.9,5.9,1.6,7.6.2,1.1-.9,2.1-2.5,2.3-3.1.2-.4,0-.8-.2-1.1h0Z"/>
          <path class="st0" d="M64,23.1c.2.4.3.8.3,1.1h.3c0-.4-.1-.9-.3-1.1h-.3Z"/>
          <path class="st0" d="M62.6,23.3s0,.1.1.3c-.8.2-1.5.5-2,.8-.2.1-.2.2,0,.1.5-.2,1.2-.4,2.1-.6,0,.1,0,.2,0,.4,0,0,.2,0,.3,0,0-.4,0-.7-.3-1.1,0,0-.2,0-.3,0h0Z"/>
          <path class="st0" d="M64.7,23.2c.2.3.3.7.3,1.1,0,0,.2,0,.3,0,0-.3,0-.6-.2-1.1,0,0-.2,0-.3,0h0Z"/>
          <path class="st0" d="M63.3,23.2c.2.3.3.7.3,1.1,0,0,.2,0,.3,0,0-.3,0-.7-.3-1.1-.1,0-.3,0-.3,0h0Z"/>
          <path class="st0" d="M65.8,23.7s0-.1,0-.3c0,0-.2,0-.3,0,.1.2.2.6.2,1,0,0,.2,0,.3,0,0,0,0-.2,0-.4.2,0,.6,0,.8.1.2,0,0,0,0-.1-.2,0-.5-.2-.8-.3Z"/>
          <path class="st1" d="M62.9,24.4c0-.1,0-.3,0-.4-.8.1-1.5.4-2.1.6-.2.1-.2,0,0-.1.5-.3,1.2-.6,2-.8,0-.2-.1-.3-.1-.3.1,0,.3,0,.3,0,.2.3.3.7.3,1.1-.1,0-.2,0-.3,0h0ZM63.6,24.3c0-.4,0-.8-.3-1.1,0,0,.2,0,.3,0,.2.4.3.8.3,1.1-.1,0-.2,0-.3,0h0ZM64.2,24.3c0-.4,0-.8-.3-1.1h.3c.2.3.3.7.3,1.1h-.3,0ZM64.9,24.3c0-.4,0-.8-.3-1.1.1,0,.2,0,.3,0,.2.4.2.8.2,1.1-.1,0-.2,0-.3,0h0ZM66.7,24.1c-.2,0-.5-.1-.8-.1,0,.1,0,.3,0,.4,0,0-.2,0-.3,0,0-.4-.1-.8-.2-1,0,0,.2,0,.3,0,0,.1,0,.3,0,.3.2,0,.6.2.8.3.1,0,.2.2,0,.1Z"/>
        </g>
        <path class="st2" d="M.3,9.8h3.6l1.8,6.6,1.9-6.6h3.5v11.1h-2.8v-5.3c0,0,0-.6,0-.6v.6c-.1,0-1.6,5.3-1.6,5.3h-2.1l-1.5-5.3-.2-.6s0,.5,0,.6v5.3H.3v-11.1Z"/>
        <path class="st2" d="M11.9,9.8h3.2l1.9,6.3,1.9-6.3h3.1l-3.7,11.1h-2.6l-3.7-11.1h0Z"/>
        <path class="st2" d="M22.9,9.8h4.4c2.5,0,3.9,1.6,3.9,3.9s-1.4,3.9-3.9,3.9h-1.2v3.3h-3.2v-11.1h0ZM26.6,15.5c.9,0,1.5-.5,1.5-1.8s-.6-1.8-1.5-1.8h-.5v3.5s.5,0,.5,0Z"/>
        <path d="M32.2,9.8h3.2v11.1h-3.2v-11.1Z"/>
        <path d="M36.6,19.7l3.6-7.6h-3.4v-2.3h7.3v1.1l-3.6,7.6h3.5v2.3h-7.4v-1.1h0Z"/>
        <path d="M44.9,19.7l3.6-7.6h-3.4v-2.3h7.3v1.1l-3.6,7.6h3.5v2.3h-7.4v-1.1h0Z"/>
        <path d="M56.5,9.8h2.8l3.7,11.1h-3.2l-.5-1.7h-3l-.5,1.7h-3.1l3.7-11.1h0ZM58.7,17.1l-.8-3.4-.8,3.4h1.7Z"/>
        <path d="M11.9,29c0-.8.5-1.4,1.1-1.8-.3-.6-.5-1-.5-1.5,0-1.1.9-1.8,1.9-1.8s1.8.6,1.8,1.5-.7,1.4-1.3,1.9c.2.4.5.8.7,1,0-.5,0-1,0-1.2h1.8v1h-.8c0,.1,0,.3,0,.4,0,.3-.1.6-.2.9.2.3.4.4.6.4s.5-.2.7-.5l.4.7c-.2.6-.8.9-1.3.9s-.8,0-1.2-.4c-.3.3-.8.4-1.3.4-1.4,0-2.3-.7-2.3-1.9h0ZM14.7,29.7c-.3-.3-.7-.8-1-1.3,0,.2-.1.4-.1.6,0,.4.3.8.8.8s.2,0,.3,0ZM14.8,25.5c0-.2-.1-.4-.4-.4s-.4.3-.4.6,0,.4.2.7c.4-.3.6-.5.6-.9Z"/>
        <path d="M23.8,33.8c-1.6,0-2.8-.5-3.7-1.3l.8-2.3c.8.6,1.6,1.2,2.9,1.2s1-.4,1-.9c0-.5-.3-.8-1.4-1.2-2.2-.8-3-1.8-3-3.5s1.5-3.5,3.6-3.5,2.5.4,3.3,1.1l-.7,2.2c-.8-.5-1.5-.8-2.4-.8s-.8.3-.8.7.3.6,1,.9c2.3.8,3.4,1.8,3.4,3.6,0,2.9-1.9,3.8-3.9,3.8h0Z"/>
        <path d="M30.4,24.9h-2.6v-2.3h8.4v2.3h-2.6v8.7h-3.2s0-8.7,0-8.7Z"/>
        <path d="M37.1,22.5h3.2v11.1h-3.2s0-11.1,0-11.1Z"/>
        <path d="M44,28l-3-5.4h3.5l1.4,2.9,1.4-2.9h3.5l-3,5.4,3.2,5.7h-3.5l-1.6-3.2-1.6,3.2h-3.5l3.2-5.6Z"/>
        <g>
          <path d="M2,21.5c-.4-.4-.9-.8-1.2-1.3,0,0-.1,0-.2,0,0,0,0,.1,0,.2.2.2.4.5.6.7,2.7,2.8,6.1,4.9,9.7,6.5,0-.1,0-.2.1-.3-3.3-1.4-6.4-3.3-9-5.7h0Z"/>
          <path d="M56.7,28.6c.2,0,.3-.3.3-.5,0-.2-.3-.3-.5-.3-2,.5-4.1,1-6.1,1.4l.4.6c2-.4,4-.8,5.9-1.3h0Z"/>
          <path d="M10.1,24.9c-1.4-.6-2.7-1.3-4-2.1-1-.6-1.9-1.3-2.7-2,0,0-.1,0-.2,0,0,0,0,.1,0,.2.1.1.2.2.3.3,1.8,1.6,4,2.8,6.2,3.9.6.3,1.2.5,1.8.8,0-.1,0-.3-.1-.4-.5-.2-.9-.4-1.4-.6Z"/>
          <path d="M57.5,24c0-.2-.3-.3-.5-.2-2.3.7-4.7,1.4-7.2,2l-.5.8c2.7-.6,5.3-1.4,7.8-2.1.2,0,.3-.3.3-.5Z"/>
          <path class="st0" d="M17.1,28.1h0c0,0,0,0,0,0,0,0,0,0,0,0h0Z"/>
        </g>
      </g>
      <g>
        <g>
          <path d="M6.2,3.3c.2,0,.5,0,.8.3.2,0,.2.2.2.2,0,0,0,0,0,0,0,.1,0,.2-.3.8,0,.2-.2.4-.2.5,0,0,0,.2-.1.3,0,0,0,.2-.1.3-.2.4-.3.7-.5,1.1,0,0-.7,1.5-.8,2-.3.7-.4.9-.4,1.2,0,.2,0,.3-.1.3,0,0,0,0,0,0-.2,0-.7-.1-1-.4,0,0-.1,0-.1-.2s0-.3.2-.6c0-.1.2-.6.3-.9,0-.1,0-.2,0-.2s0,0-.1,0h0c-.3,0-.4,0-.5,0,0,0-.2,0-.3,0-.5.1-1,.3-1.1.4,0,0,0,0,0,.1,0,.2-.1.3-.1.4,0,0,0,.2,0,.4,0,.3-.1.6-.2.9,0,.3,0,.3-.1.3-.3,0-1-.3-1.1-.5,0,0,0,0,0,0,0,0,0-.2,0-.4,0-.4,0-.4.2-.9.1-.6.3-1.2.6-1.9,0-.1.1-.3.1-.4.2-.4,1.2-2.8,1.3-3,0,0,0,0,.2,0,.2,0,.5,0,.8.3.1,0,.2.1.2.2,0,0,0,.3-.2.6-.3.6-.9,2.2-1.1,2.7,0,0,0,0,0,.1,0,0,0,0,0,0,0,0,.4,0,.7,0,.1,0,.2,0,.3,0,.2,0,.4,0,.6,0,0,0,.1,0,.2,0,.1,0,.2-.1.4-.7.1-.3.4-1,.6-1.4,0-.1.1-.3.2-.4,0-.2.1-.3.2-.5,0,0,.2-.5.3-.6,0,0,0-.1,0-.2.1-.3.2-.4.3-.5,0,0,0,0,0,0h0Z"/>
          <path d="M9.5,5.4c.6,0,1.6.4,1.9.8,0,.2.1.3.1.5,0,.2,0,.4,0,.6,0,.2,0,.3,0,.4,0,0,0,0,0,0,0,0,.2,0,.4-.2.5-.3.7-.4,1.2-.8,0,0,.1,0,.1,0,.1,0,.2.1.4.4.1.2.2.3.2.3,0,0,0,0,0,.1,0,0,0,0-.3.2-.8.5-1.4.9-2.4,1.1-.2,0-.2,0-.4.2-.3.3-.6.5-.9.7-.3.2-.6.3-.9.3s-.7,0-1.1-.2c-.9-.3-1.4-.8-1.4-1.4,0-.1,0-.3,0-.5.2-.7.9-1.4,1.7-1.6,0,0,.1,0,.2,0,0,0,0,0,.1-.2.2-.4.6-.7,1.2-.9,0,0,.1,0,.2,0h0ZM8,7.5s0,0-.2.2c-.4.4-.6.9-.5,1.3,0,.2,0,.3.1.4,0,.1.1.1.3.1h0c.4,0,.9-.3,1.3-.7.1-.1.2-.1.2-.2s0,0-.2-.1c-.4-.3-.7-.5-.9-.9,0,0,0,0,0,0,0,0,0,0,0,0h0ZM10.2,6.1c0,0-.2,0-.3.1-.5.3-.8.8-.7,1.3,0,0,0,.1,0,.2,0,.3.3.7.4.6h0c0,0,.2-.2.4-.5.2-.4.4-1.1.4-1.5,0,0,0-.2,0-.2h0Z"/>
          <path d="M13.8,10c-.1,0-.3,0-.4,0-.9,0-1.2-.4-1.3-.5,0,0-.1-.2-.1-.4,0-.1,0-.3,0-.6.2-.6.5-1.2.9-2.2l.3-.8c-.2,0-.3,0-.3,0-.5,0-.9-.3-.9-.5,0,0,0,0,0,0,0,0,.1,0,.5,0h1c0,0,.1-.4.1-.4,0,0,0-.1.1-.2.1-.3.2-.5.4-.6,0,0,0,0,.2,0s.2,0,.5.1c.4.2.5.2.5.3,0,0,0,0,0,.2-.1.2-.2.4-.4.6h.6c.2,0,.3,0,.5,0,.3.1.5.3.5.3,0,0,0,0-.1.1,0,0-.7,0-1.4.1h-.4s-.4,1-.4,1l-.6,1.4c-.2.5-.4.8-.4,1.1h0c0,.2,0,.3.2.3h0c.2,0,.6-.2,1.1-.8.1-.2.2-.2.3-.2.2,0,.9.3,1,.4,0,0,0,0,0,0,0,0,0,.1-.1.2-.4.5-1,1-1.9,1.1h0Z"/>
          <path d="M16.6,6.5c.5,0,2-.1,2.2-.1h0c.2,0,.3,0,.6.2.3.1.5.3.5.3,0,0,0,0-.1.1,0,0-.4,0-.8,0-.8,0-1.9.1-2,0-.5,0-1-.4-1-.6,0,0,0,0,0,0,0,0,.1,0,.5,0h0Z"/>
          <path d="M26.5,1.1c.3,0,1.1.3,1.1.5,0,0,0,0,0,0,0,0,0,0,0,.1-.1,0-.1.1-.5,1.1-.1.3-.3.9-.4,1.2,0,0,0,.2-.1.3,0,0,0,.2-.1.3-.3.7-.4,1-.6,1.6,0,.1-.1.3-.2.5-.2.6-.4,1.3-.5,1.6,0,0,0,.2,0,.3,0,.1,0,.4-.1.5,0,.2,0,.3-.2.3-.2,0-.8-.2-1-.4-.1-.1-.1-.2-.3-.9-.1-.5-.2-.9-.3-1.2,0-.5-.1-.8-.2-.9,0,0,0-.1,0-.4,0-.3-.1-.5-.2-.5,0,0,0,.1-.2.4,0,0,0,.3-.1.4-.2.6-.3.9-.4,1.1,0,.1,0,.3,0,.3-.2.5-.3,1.2-.4,1.7,0,.2,0,.2,0,.4,0,.1,0,.1,0,.2,0,0,0,0,0,0-.2,0-.8-.2-1-.4,0,0-.1-.1-.1-.3,0-.1,0-.4.1-.8.1-.6.4-1.6.7-2.6,0,0,0-.2.1-.3,0-.1,0-.3.1-.3,0,0,0-.2.1-.3,0-.2.2-.5.3-.8,0-.2.3-.7.3-.7,0,0,0,0,.2,0s.1,0,.3,0c0,0,.1,0,.2,0,.3,0,.8.3.9.5,0,0,.1.5.2.8,0,0,0,.2,0,.4,0,0,0,.2,0,.2,0,0,0,.2,0,.2,0,0,0,.1,0,.2,0,.2,0,.3.1.5,0,0,0,.2,0,.3,0,.3,0,.4.1.4s.1-.2.3-.6c0,0,0-.2.1-.3,0-.2.1-.3.2-.6,0-.3.2-.4.2-.7.1-.3.2-.5.3-.7,0,0,0-.2.1-.3s0-.2.1-.3c0,0,0-.2.1-.3,0-.2.1-.3.2-.5,0,0,0-.3.1-.4,0-.1.1-.3.1-.3.1-.3.3-.6.3-.7,0,0,0,0,0,0h0Z"/>
          <path d="M27.8,5.8c1,0,1,0,1.4,0h.3s.1,0,.1,0c.5.1.9.4.9.6,0,0,0,0,0,0,0,0-.7,0-1.2.1-.2,0-.3,0-.4,0s-.3,0-.6,0h-.5s-.1,0-.1,0c-.3,0-.6-.3-.8-.4,0,0,0,0,0-.1s0,0,.1-.1c0,0,.4,0,.9,0h0Z"/>
          <path d="M33.3,1.8c1.2,0,2.6.5,3,1.1.2.2.3.5.3.8,0,.3,0,.7-.2,1-.5.8-1.6,1.4-2.6,1.5h-.3c0,0,0,0,0,0s0,.1,0,.2c0,0,.1.2.2.3,0,.1.1.2.2.3.1.2.4.7.5.8,0,0,0,.1.2.2,0,.1.2.2.2.3.1.1.2.2.2.3s0,0-.1,0c-.1,0-.4,0-.7-.2-.4-.2-.5-.2-.8-.8-.5-.8-.5-.9-.6-1,0-.1-.1-.2-.2-.2s0,.1-.2.4c-.1.5-.1.5-.2.8,0,.6-.1.6-.3.7h0c-.3,0-.9-.3-1-.4,0,0,0,0,0,0,0,0,0-.2.1-.9,0-.4.2-1.2.4-1.5.2-.5.7-1.8,1-2.5,0-.2.1-.3.1-.3s0,0,0,0c-.2,0-.7.3-1,.6,0,0-.1.1-.2.1-.1,0-.4,0-.6-.2-.1,0-.2-.2-.2-.2s0-.1.1-.2c.4-.4,1.1-.9,1.9-1,.2,0,.5,0,.7,0h0ZM33.6,2.4c-.1,0-.2,0-.2,0-.2,0-.4.1-.4.1s0,0,.2,0c.2,0,.4.2.5.3,0,0,0,0,0,.1,0,0,0,.3-.3,1,0,0,0,.2-.1.3,0,0,0,.2,0,.2s0,.1,0,.2,0,.2,0,.3c-.1.3-.2.4-.2.5s0,0,0,0c0,0,0,0,.1,0,0,0,.2,0,.5-.1.7-.2,1.5-.8,1.8-1.3.2-.3.2-.5.2-.8s-.1-.5-.3-.7c-.1-.1-.4-.2-.9-.2,0,0-.5,0-.7,0h0Z"/>
          <path d="M38.8,8.4h-.1c-.4,0-1.1-.3-1.5-.5-.4-.2-.8-.7-.8-1.2h0c0-.5,0-.9.3-1.3.2-.4.5-.8.9-1.1.2-.2.4-.3.8-.4,0,0,.3,0,.4,0,.4,0,1,.1,1.4.3.2.1.3.2.3.4,0,0,0,0,0,0,0,.2,0,.3-.2.6-.3.5-.7.9-1.2,1.2-.2.2-.7.5-1.2.8-.2.1-.2.1-.2.2,0,0,.1.2.2.3.1.2.2.2.3.2h0c.2,0,.6-.3,1.2-.6.6-.4.8-.7,1.4-1.3.3-.3.4-.4.7-.8.1-.1.2-.2.2-.2h.1c.2,0,.5.1.6.2,0,0,0,0,0,0s0,0,0,.1l-1,1.1c-.5.6-1.1,1.1-1.9,1.6-.3.2-.6.3-.8.3h0ZM37.6,6.3s.4-.2.5-.3c.4-.3.9-.7,1.1-1,0-.1.2-.3.2-.3,0,0,0,0,0-.1,0,0,0-.1,0-.2,0,0,0,0,0,0,0,0-.2,0-.3.1-.2,0-.5.3-.7.5-.3.3-.6.9-.7,1.3,0,0,0,0,0,0s0,0,0,0h0Z"/>
          <path d="M45.7,7.5c-.4,0-1-.2-1.3-.5,0,0,0,0-.1,0,0,0,0,0-.2.1,0,0-.1.1-.2.2-.5.4-.8.6-1.2.7-.2,0-.5,0-.8-.2-.6-.2-.8-.4-.9-.9,0,0,0-.2,0-.2,0-.8.7-2,1.7-2.6.5-.2.8-.4,1.2-.4.3,0,.6,0,1,.2.1,0,.2,0,.2,0s0,0,.1,0c0-.1.2-.2.2-.2,0,0,0,0,0,0,.1,0,.4,0,.7.2.2,0,.2.1.2.2,0,0,0,.2-.2.3-.2.3-.4.8-.5.9-.2.6-.4,1.2-.4,1.5,0,0,0,.1,0,.1,0,0,.5-.3.9-.7.5-.4.8-.8,1.3-1.4l.2-.2c0,0,0-.1.1-.1,0,0,.2,0,.5.2.2.2.3.3.3.3h0s0,.1-.2.2l-.3.4c-.7.9-1.8,1.8-2.2,1.8h0ZM44.4,4.2c-.2,0-.4.1-.7.3-.9.6-1.6,1.7-1.6,2.4,0,0,0,.1,0,.2,0,.1,0,.2.1.2,0,0,.1,0,.2-.1.2-.1.4-.3.9-.8.2-.2.7-.8.8-1,.1-.1.4-.8.4-.8s0-.2,0-.2c0,0,0,0,0,0h0Z"/>
          <path d="M48.7,7.5h-.2c-.5,0-1.2-.3-1.4-.7-.1-.2-.2-.4-.2-.6v-.2c0-.6.3-1.2.8-1.7.6-.7,1-1,1.6-1.2,0,0,.2,0,.3,0,.3,0,.7,0,1.2.3,0,0,0,0,.1,0,0,0,.2,0,.3-.3.5-1,.8-1.6,1.2-2.3,0,0,.1-.2.2-.3.2-.4.4-.5.5-.6C53.1,0,53.1,0,53.2,0c.1,0,.2,0,.4,0,.2,0,.2.2.2.3,0,0,0,.2-.1.4-.1.3-.7,1.3-.8,1.6,0,0,0,.2-.2.3,0,.1-.2.5-.3.7-.1.3-.3.5-.3.6,0,0,0,.1,0,.2,0,0,0,.2-.2.3-.2.4-.3.6-.4.8-.2.4-.2.8-.2,1,0,.2,0,.3,0,.2,0,0,.4-.2.6-.4.3-.3.5-.4.9-1,.2-.2.3-.4.4-.7.2-.3.2-.3.3-.3h0c.2,0,.6.2.8.4,0,0,0,.1,0,.2s0,0,0,.1c-.3.4-.5.7-.7,1-.5.7-1.1,1.2-1.5,1.4,0,0-.2,0-.3,0-.4,0-1-.1-1.5-.4,0,0-.1,0-.1,0s0,0-.2,0c-.5.4-1.1.7-1.5.7h0ZM50.4,3.7c-.2,0-.6.3-1,.5-.2.2-.7.8-.9,1-.3.4-.5,1-.4,1.3,0,.1,0,.2.1.2h0c.2,0,.5-.2.8-.4.6-.4,1.2-1.2,1.4-1.8,0-.2,0-.5,0-.7,0,0,0-.2,0-.2,0,0,0,0,0,0h0Z"/>
          <path d="M54.1,11.5h0c-.7,0-1.7-.4-1.9-.9,0,0,0-.1,0-.2,0-.4.2-.8.7-1.4.5-.5,1.6-1.3,2.5-1.8.1,0,.1,0,.2-.4,0-.2,0-.2,0-.3s0,0,0,0c0,0,0,0-.2,0-.2,0-.3.1-.5.1h-.2c-.7-.1-1.3-.4-1.5-.8-.1-.2-.2-.3-.2-.5,0-.4.1-.8.5-1.5.5-1.1.7-1.3.8-1.4,0,0,0,0,0,0h0c.2,0,.6.2.7.3,0,0,0,0,0,0,0,0,0,.1,0,.2,0,0-.1.3-.2.3,0,.2-.1.3-.2.6-.4.8-.5,1.4-.5,1.8h0c0,.2,0,.2.1.2,0,0,0,0,.1,0,.2-.1.6-.4.8-.6.2-.2.4-.4.5-.5,0,0,.1-.1.2-.2.2-.3.7-.9.8-1.2.2-.2.2-.4.3-.6.2-.3.2-.3.3-.3h0c.2,0,.8.2.9.4,0,0,0,0,0,.1,0,0,0,.2-.2.5,0,0-.1.3-.2.4-.1.3-.3.7-.5,1.2-.4.8-.5,1.2-.5,1.2v.3c.2-.1.6-.2.9-.3h0c0,0,.4.1.4.2,0,0,0,0,0,.1s0,0,0,0c0,0,0,0-.2,0-.3,0-.5.2-1,.4-.2.1-.4.2-.5.3,0,0,0,0-.1,0l-.2.5c0,.3-.2.6-.3.8,0,0,0,.2,0,.3,0,.2-.3.6-.4.8-.5,1-1,1.5-1.7,1.5h0ZM54.8,9s0,0,0,0,0,0-.2.1c-.7.5-1.2,1.2-1.3,1.6,0,0,0,0,0,.1s0,0,0,0,0,0,0,0c.3-.1.7-.5,1-1.1.2-.3.3-.7.3-.7h0Z"/>
        </g>
        <path d="M59,3.4c0,0,0-.2,0-.2,0,0,0-.1.1-.2s0,0,.2-.1c0,0,.1,0,.2,0s.2,0,.2,0c0,0,.1,0,.2,0s0,0,.1.2c0,0,0,.1,0,.2s0,.2,0,.2c0,0,0,.1-.1.2s0,0-.2.1c0,0-.1,0-.2,0s-.2,0-.2,0c0,0-.1,0-.2,0s0,0-.1-.2c0,0,0-.1,0-.2ZM59.1,3.4c0,0,0,.1,0,.2s0,0,.1.1c0,0,0,0,.2,0,0,0,.1,0,.2,0s.1,0,.2,0c0,0,0,0,.1-.1,0,0,0,0,0-.2s0-.1,0-.2,0-.1,0-.2,0-.1-.1-.2,0,0-.2,0c0,0-.1,0-.2,0s-.1,0-.2,0c0,0,0,0-.1.1s0,0,0,.2,0,.1,0,.2h0ZM59.3,3.1h.2c.2,0,.2,0,.2.2,0,0,0,0,0,.1,0,0,0,0-.1,0l.2.3h-.1l-.2-.3h-.1v.3s0,0,0,0v-.7s0,0,0,0ZM59.5,3.4h0s0,0,0,0,0,0,0,0,0,0,0,0c0,0,0,0,0,0s0,0,0,0c0,0,0,0,0,0,0,0,0,0,0,0h-.2v.2s0,0,0,0Z"/>
      </g>
    </g>
  </g>
</svg>