<svg xmlns="http://www.w3.org/2000/svg" viewBox="0 0 44.36 21.14"><path fill="#101312" d="M4.67 10.51c0-1.13-.68-1.76-2.09-2.28-.44-.16-.6-.3-.6-.55s.19-.43.51-.43c.57 0 .98.2 1.49.51l.43-1.35c-.47-.35-1.1-.61-1.8-.66v-.76a.5.5 0 0 0 .21-.43.5.5 0 0 0-.07-.25c.08-.01.23.01.3-.04.08-.09.12-.24.08-.35-.03-.09-.14-.12-.23-.16l-.4-2.47c-.04-.24-.1-.59-.16-.82 0-.02-.03-.04-.05-.04s-.04.02-.05.04c-.06.23-.12.57-.16.82l-.4 2.47c-.08.03-.2.07-.23.16-.04.11 0 .26.08.35.06.05.21.03.3.04a.5.5 0 0 0-.07.25c0 .22.1.35.22.43v.78C.87 5.91.14 6.67.14 7.93c0 1.04.5 1.69 1.83 2.16.68.24.86.4.87.72.01.29-.24.53-.62.53-.76 0-1.29-.37-1.76-.76L0 12.04c.47.45 1.12.76 1.99.82v2.17h.61v-2.17c1.11-.1 2.06-.74 2.06-2.35ZM7.4 4.69H5.65V1.15L13.1 0v20.7H7.4zm15.56 2.96c3.47 0 5.7 2.6 5.7 6.47 0 4.79-3.34 7.01-7.01 7.01-2.39 0-4.72-.74-5.9-2.06v-4.35c1.45 1.48 3.03 2.29 4.62 2.29s2.73-.71 2.73-2.7c0-1.82-1.18-2.6-2.43-2.6-1.05 0-1.85.57-2.36 1.35l-1.99-1.01V.47h11.67v4.25h-7.42v3.41c.4-.2 1.28-.47 2.39-.47Zm21.4 1.96c0 8.06-3.41 11.53-8.46 11.53-2.29 0-4.45-.94-5.02-1.35v-3.88c1.21.74 2.77 1.08 4.11 1.08 1.92 0 3.54-.61 3.71-4.52-.61.64-2.02 1.32-3.3 1.32-3.14 0-5.53-2.46-5.53-6.44-.01-4.48 2.96-7.32 7.1-7.32 3.2 0 7.38 1.62 7.38 9.58Zm-8.97-2.76c0 2.63.67 3.24 1.62 3.24.84 0 1.85-.54 1.85-3.14 0-1.85-.57-3.3-1.79-3.3-1.08 0-1.69.71-1.69 3.2Z"/></svg>