<svg xmlns="http://www.w3.org/2000/svg" viewBox="0 0 174.66 19.82"><path fill="#fff" d="M0 14.69c0-3.07 1.68-4.65 4.62-6.11l.32-.16.41-1.55h2.79l.41 3.8-1.17.73c-1.58.98-1.99 2.03-1.99 2.72 0 .79.44 1.52 1.55 1.52 1.17 0 2.22-.6 3.99-2.25v4.31c-1.2 1.24-3.32 2.12-5.22 2.12-2.94 0-5.7-1.55-5.7-5.13Zm4.27-12C4.27 1.33 5.38.22 6.74.22s2.47 1.11 2.47 2.47S8.1 5.16 6.74 5.16 4.27 4.05 4.27 2.69M12.79.41h7.57c4.27 0 6.65 2.66 6.65 6.68s-2.37 6.68-6.65 6.68h-2.12v5.64h-5.45zm6.36 9.72c1.49 0 2.6-.82 2.6-3.04s-1.11-3.04-2.6-3.04h-.92v6.08zm9.5-9.72h5.45v19h-5.45zm7.66 17.04 6.14-13.04h-5.89v-4h12.63v1.96l-6.14 13.04h6.02v3.99H36.31v-1.96Zm14.25 0L56.7 4.41h-5.89v-4h12.63v1.96L57.3 15.41h6.02v3.99H50.56v-1.96ZM70.44.41h4.84l6.4 19h-5.45l-.89-2.94h-5.1l-.85 2.94h-5.35zm3.8 12.48-1.42-5.92-1.46 5.92zm13.45-2.98c0-6.62 3.58-9.88 8.27-9.88s8.26 3.26 8.26 9.88-3.58 9.88-8.26 9.88-8.26-3.26-8.26-9.88Zm10.77 0c0-4.27-.6-5.76-2.5-5.76s-2.5 1.49-2.5 5.76.6 5.76 2.5 5.76 2.5-1.49 2.5-5.76m18.48 9.82c-2.82 0-4.88-.92-6.33-2.28l1.3-4.02c1.33 1.08 2.82 2.09 4.94 2.09 1.08 0 1.77-.67 1.74-1.46-.03-.89-.54-1.33-2.44-2-3.74-1.3-5.13-3.1-5.13-5.95 0-3.86 2.53-6.02 6.27-6.02 2.22 0 4.24.76 5.7 1.84l-1.2 3.7c-1.42-.85-2.57-1.39-4.18-1.39-.89 0-1.42.51-1.42 1.17s.44 1.08 1.68 1.52c3.96 1.42 5.86 3.17 5.86 6.27 0 4.91-3.26 6.52-6.78 6.52ZM128.31 4.4h-4.46V.41h14.38V4.4h-4.46v15.01h-5.45V4.4ZM139.8.41h5.45v19h-5.45zm11.94 9.31L146.61.41h6.02l2.47 5.03 2.47-5.03h5.92l-5.1 9.21 5.41 9.78h-6.02l-2.75-5.54-2.79 5.54h-5.92l5.41-9.69Zm14.37-.57 1.17-.73c1.58-.98 2-2.03 2-2.72 0-.79-.44-1.52-1.55-1.52-1.17 0-2.22.6-3.99 2.25V2.12C164.94.88 167.06 0 168.96 0c2.94 0 5.7 1.55 5.7 5.13 0 3.07-1.8 4.69-4.62 6.11l-.32.16-.41 1.58h-2.79zm-.67 8.01c0-1.36 1.11-2.47 2.47-2.47s2.47 1.11 2.47 2.47-1.11 2.47-2.47 2.47-2.47-1.11-2.47-2.47"/></svg>